<?xml version="1.0" encoding="UTF-8" standalone="no"?>
<!-- Created with Inkscape (http://www.inkscape.org/) -->

<svg
   xmlns:dc="http://purl.org/dc/elements/1.1/"
   xmlns:cc="http://creativecommons.org/ns#"
   xmlns:rdf="http://www.w3.org/1999/02/22-rdf-syntax-ns#"
   xmlns:svg="http://www.w3.org/2000/svg"
   xmlns="http://www.w3.org/2000/svg"
   xmlns:sodipodi="http://sodipodi.sourceforge.net/DTD/sodipodi-0.dtd"
   xmlns:inkscape="http://www.inkscape.org/namespaces/inkscape"
   width="79.437088mm"
   height="79.437088mm"
   viewBox="0 0 281.47 281.47"
   id="svg3921"
   version="1.1"
   inkscape:version="0.91 r13725"
   sodipodi:docname="avanced.svg">
  <defs
     id="defs3923">
    <clipPath
       clipPathUnits="userSpaceOnUse"
       id="clipPath62">
      <path
         d="m 196.962,471.985 26.362,0 0,-60.65 -26.362,0 0,60.65 z"
         id="path64"
         inkscape:connector-curvature="0" />
    </clipPath>
    <clipPath
       clipPathUnits="userSpaceOnUse"
       id="clipPath46">
      <path
         d="m 160.225,457.29 26.362,0 0,-45.955 -26.362,0 0,45.955 z"
         id="path48"
         inkscape:connector-curvature="0" />
    </clipPath>
    <clipPath
       clipPathUnits="userSpaceOnUse"
       id="clipPath30">
      <path
         d="m 123.488,442.595 26.362,0 0,-31.26 -26.362,0 0,31.26 z"
         id="path32"
         inkscape:connector-curvature="0" />
    </clipPath>
    <clipPath
       clipPathUnits="userSpaceOnUse"
       id="clipPath134">
      <path
         d="m 459.887,471.985 26.362,0 0,-60.65 -26.362,0 0,60.65 z"
         id="path136"
         inkscape:connector-curvature="0" />
    </clipPath>
    <clipPath
       clipPathUnits="userSpaceOnUse"
       id="clipPath118">
      <path
         d="m 423.15,457.29 26.362,0 0,-45.955 -26.362,0 0,45.955 z"
         id="path120"
         inkscape:connector-curvature="0" />
    </clipPath>
    <clipPath
       clipPathUnits="userSpaceOnUse"
       id="clipPath98">
      <path
         d="m 349.676,427.901 26.362,0 0,-16.566 -26.362,0 0,16.566 z"
         id="path100"
         inkscape:connector-curvature="0" />
    </clipPath>
  </defs>
  <sodipodi:namedview
     id="base"
     pagecolor="#ffffff"
     bordercolor="#666666"
     borderopacity="1.0"
     inkscape:pageopacity="0.0"
     inkscape:pageshadow="2"
     inkscape:zoom="0.35"
     inkscape:cx="1229.3271"
     inkscape:cy="-367.10142"
     inkscape:document-units="px"
     inkscape:current-layer="layer1"
     showgrid="false"
     fit-margin-top="0"
     fit-margin-left="0"
     fit-margin-right="0"
     fit-margin-bottom="0"
     inkscape:window-width="1920"
     inkscape:window-height="1018"
     inkscape:window-x="-8"
     inkscape:window-y="-8"
     inkscape:window-maximized="1" />
  <metadata
     id="metadata3926">
    <rdf:RDF>
      <cc:Work
         rdf:about="">
        <dc:format>image/svg+xml</dc:format>
        <dc:type
           rdf:resource="http://purl.org/dc/dcmitype/StillImage" />
        <dc:title></dc:title>
      </cc:Work>
    </rdf:RDF>
  </metadata>
  <g
     inkscape:label="Capa 1"
     inkscape:groupmode="layer"
     id="layer1"
     transform="translate(1181.47,116.20922)">
    <g
       transform="matrix(1.25,0,0,-1.25,-1563.1882,543.79128)"
       id="g94"
       style="fill:#333333">
      <g
         id="g96"
         style="fill:#333333" />
      <g
         id="g102"
         style="fill:#333333">
        <g
           clip-path="url(#clipPath98)"
           id="g104"
           style="opacity:0.39999402;fill:#333333">
          <g
             transform="translate(351.8363,427.9015)"
             id="g106"
             style="fill:#333333">
            <path
               d="m 0,0 c -1.193,0 -2.16,-0.967 -2.16,-2.16 l 0,-12.246 c 0,-1.193 0.967,-2.16 2.16,-2.16 l 22.042,0 c 1.193,0 2.16,0.967 2.16,2.16 l 0,12.246 c 0,1.193 -0.967,2.16 -2.16,2.16 L 0,0 Z"
               style="fill:#333333;fill-opacity:1;fill-rule:nonzero;stroke:none"
               id="path108"
               inkscape:connector-curvature="0" />
          </g>
        </g>
      </g>
    </g>
    <g
       id="g110"
       transform="matrix(1.25,0,0,-1.25,-1077.4719,-9.4528531)"
       style="fill:#333333">
      <path
         d="m 0,0 c -1.193,0 -2.16,-0.967 -2.16,-2.16 l 0,-26.94 c 0,-1.193 0.967,-2.16 2.16,-2.16 l 22.042,0 c 1.193,0 2.16,0.967 2.16,2.16 l 0,26.94 c 0,1.193 -0.967,2.16 -2.16,2.16 L 0,0 Z"
         style="fill:#333333;fill-opacity:1;fill-rule:nonzero;stroke:none"
         id="path112"
         inkscape:connector-curvature="0" />
    </g>
    <g
       transform="matrix(1.25,0,0,-1.25,-1563.1882,543.79128)"
       id="g114"
       style="fill:#333333">
      <g
         id="g116"
         style="fill:#333333" />
      <g
         id="g122"
         style="fill:#333333">
        <g
           clip-path="url(#clipPath118)"
           id="g124"
           style="opacity:0.39999402;fill:#333333">
          <g
             transform="translate(425.3101,457.2902)"
             id="g126"
             style="fill:#333333">
            <path
               d="m 0,0 c -1.193,0 -2.16,-0.967 -2.16,-2.16 l 0,-41.635 c 0,-1.193 0.967,-2.16 2.16,-2.16 l 22.042,0 c 1.193,0 2.16,0.967 2.16,2.16 l 0,41.635 c 0,1.193 -0.967,2.16 -2.16,2.16 L 0,0 Z"
               style="fill:#333333;fill-opacity:1;fill-rule:nonzero;stroke:none"
               id="path128"
               inkscape:connector-curvature="0" />
          </g>
        </g>
      </g>
    </g>
    <g
       transform="matrix(1.25,0,0,-1.25,-1563.1882,543.79128)"
       id="g130"
       style="fill:#333333">
      <g
         id="g132"
         style="fill:#333333" />
      <g
         id="g138"
         style="fill:#333333">
        <g
           clip-path="url(#clipPath134)"
           id="g140"
           style="opacity:0.39999402;fill:#333333">
          <g
             transform="translate(462.0469,471.9849)"
             id="g142"
             style="fill:#333333">
            <path
               d="m 0,0 c -1.193,0 -2.16,-0.967 -2.16,-2.16 l 0,-56.33 c 0,-1.193 0.967,-2.16 2.16,-2.16 l 22.042,0 c 1.193,0 2.16,0.967 2.16,2.16 l 0,56.33 c 0,1.193 -0.967,2.16 -2.16,2.16 L 0,0 Z"
               style="fill:#333333;fill-opacity:1;fill-rule:nonzero;stroke:none"
               id="path144"
               inkscape:connector-curvature="0" />
          </g>
        </g>
      </g>
    </g>
    <g
       id="g146"
       transform="matrix(1.25,0,0,-1.25,-956.98437,36.745527)"
       style="fill:#333333">
      <path
         d="m 0,0 -134.001,0 c -1.193,0 -2.16,-0.967 -2.16,-2.16 l 0,-10.643 c 0,-1.193 0.967,-2.16 2.16,-2.16 l 134.001,0 c 1.193,0 2.16,0.967 2.16,2.16 l 0,10.643 C 2.16,-0.967 1.193,0 0,0"
         style="fill:#333333;fill-opacity:1;fill-rule:nonzero;stroke:none"
         id="path148"
         inkscape:connector-curvature="0" />
    </g>
    <g
       id="g150"
       transform="matrix(1.25,0,0,-1.25,-1066.0347,-17.606603)"
       style="fill:#333333">
      <path
         d="m 0,0 c 0.386,-0.668 1.1,-1.08 1.871,-1.08 0.772,0 1.485,0.412 1.87,1.08 l 11.313,19.593 c 0.387,0.668 0.387,1.492 0,2.16 -0.386,0.668 -1.098,1.08 -1.87,1.08 l -22.624,0 c -0.773,0 -1.485,-0.412 -1.871,-1.08 -0.387,-0.668 -0.387,-1.492 0,-2.16 L 0,0 Z"
         style="fill:#333333;fill-opacity:1;fill-rule:nonzero;stroke:none"
         id="path152"
         inkscape:connector-curvature="0" />
    </g>
    <g
       id="g154"
       transform="matrix(1.25,0,0,-1.25,-1096.2052,71.605147)"
       style="fill:#333333">
      <path
         d="m 0,0 -22.042,0 c -1.193,0 -2.16,-0.967 -2.16,-2.16 l 0,-7.136 c 0,-1.193 0.967,-2.16 2.16,-2.16 l 22.042,0 c 1.193,0 2.16,0.967 2.16,2.16 l 0,7.136 C 2.16,-0.967 1.193,0 0,0"
         style="fill:#333333;fill-opacity:1;fill-rule:nonzero;stroke:none"
         id="path156"
         inkscape:connector-curvature="0" />
    </g>
    <g
       id="g158"
       transform="matrix(1.25,0,0,-1.25,-956.98437,71.605147)"
       style="fill:#333333">
      <path
         d="m 0,0 -5.294,0 0,5.293 c 0,1.193 -0.967,2.16 -2.16,2.16 l -7.134,0 c -1.193,0 -2.16,-0.967 -2.16,-2.16 l 0,-5.293 -5.294,0 c -1.193,0 -2.16,-0.967 -2.16,-2.16 l 0,-7.136 c 0,-1.193 0.967,-2.16 2.16,-2.16 l 5.294,0 0,-5.293 c 0,-1.193 0.967,-2.16 2.16,-2.16 l 7.134,0 c 1.193,0 2.16,0.967 2.16,2.16 l 0,5.293 5.294,0 c 1.193,0 2.16,0.967 2.16,2.16 l 0,7.136 C 2.16,-0.967 1.193,0 0,0"
         style="fill:#333333;fill-opacity:1;fill-rule:nonzero;stroke:none"
         id="path160"
         inkscape:connector-curvature="0" />
    </g>
    <g
       id="g162"
       transform="matrix(1.25,0,0,-1.25,-1040.735,151.18703)"
       style="fill:#333333">
      <path
         d="m 0,0 c -55.962,0 -101.329,45.366 -101.329,101.329 0,55.962 45.367,101.329 101.329,101.329 55.962,0 101.329,-45.367 101.329,-101.329 C 101.329,45.366 55.962,0 0,0 m 0,213.917 c -62.18,0 -112.588,-50.408 -112.588,-112.588 0,-62.181 50.408,-112.588 112.588,-112.588 62.181,0 112.588,50.407 112.588,112.588 0,62.18 -50.407,112.588 -112.588,112.588"
         style="fill:#333333;fill-opacity:1;fill-rule:nonzero;stroke:none"
         id="path164"
         inkscape:connector-curvature="0" />
    </g>
  </g>
</svg>
