<?xml version="1.0" encoding="UTF-8" standalone="no"?>
<!-- Created with Inkscape (http://www.inkscape.org/) -->

<svg
   xmlns:dc="http://purl.org/dc/elements/1.1/"
   xmlns:cc="http://creativecommons.org/ns#"
   xmlns:rdf="http://www.w3.org/1999/02/22-rdf-syntax-ns#"
   xmlns:svg="http://www.w3.org/2000/svg"
   xmlns="http://www.w3.org/2000/svg"
   xmlns:sodipodi="http://sodipodi.sourceforge.net/DTD/sodipodi-0.dtd"
   xmlns:inkscape="http://www.inkscape.org/namespaces/inkscape"
   width="79.437088mm"
   height="79.437088mm"
   viewBox="0 0 281.47 281.47"
   id="svg3921"
   version="1.1"
   inkscape:version="0.91 r13725"
   sodipodi:docname="begginer.svg">
  <defs
     id="defs3923">
    <clipPath
       clipPathUnits="userSpaceOnUse"
       id="clipPath62">
      <path
         d="m 196.962,471.985 26.362,0 0,-60.65 -26.362,0 0,60.65 z"
         id="path64"
         inkscape:connector-curvature="0" />
    </clipPath>
    <clipPath
       clipPathUnits="userSpaceOnUse"
       id="clipPath46">
      <path
         d="m 160.225,457.29 26.362,0 0,-45.955 -26.362,0 0,45.955 z"
         id="path48"
         inkscape:connector-curvature="0" />
    </clipPath>
    <clipPath
       clipPathUnits="userSpaceOnUse"
       id="clipPath30">
      <path
         d="m 123.488,442.595 26.362,0 0,-31.26 -26.362,0 0,31.26 z"
         id="path32"
         inkscape:connector-curvature="0" />
    </clipPath>
  </defs>
  <sodipodi:namedview
     id="base"
     pagecolor="#ffffff"
     bordercolor="#666666"
     borderopacity="1.0"
     inkscape:pageopacity="0.0"
     inkscape:pageshadow="2"
     inkscape:zoom="0.35"
     inkscape:cx="442.87785"
     inkscape:cy="-187.83642"
     inkscape:document-units="px"
     inkscape:current-layer="layer1"
     showgrid="false"
     fit-margin-top="0"
     fit-margin-left="0"
     fit-margin-right="0"
     fit-margin-bottom="0"
     inkscape:window-width="1920"
     inkscape:window-height="1018"
     inkscape:window-x="-8"
     inkscape:window-y="-8"
     inkscape:window-maximized="1" />
  <metadata
     id="metadata3926">
    <rdf:RDF>
      <cc:Work
         rdf:about="">
        <dc:format>image/svg+xml</dc:format>
        <dc:type
           rdf:resource="http://purl.org/dc/dcmitype/StillImage" />
        <dc:title></dc:title>
      </cc:Work>
    </rdf:RDF>
  </metadata>
  <g
     inkscape:label="Capa 1"
     inkscape:groupmode="layer"
     id="layer1"
     transform="translate(395.02071,-63.05578)">
    <g
       id="g22"
       transform="matrix(1.25,0,0,-1.25,-336.94333,188.1794)"
       style="fill:#333333">
      <path
         d="m 0,0 c -1.193,0 -2.16,-0.967 -2.16,-2.16 l 0,-12.246 c 0,-1.193 0.967,-2.16 2.16,-2.16 l 22.042,0 c 1.193,0 2.16,0.967 2.16,2.16 l 0,12.246 c 0,1.193 -0.967,2.16 -2.16,2.16 L 0,0 Z"
         style="fill:#333333;fill-opacity:1;fill-rule:nonzero;stroke:none"
         id="path24"
         inkscape:connector-curvature="0" />
    </g>
    <g
       transform="matrix(1.25,0,0,-1.25,-448.08233,723.05628)"
       id="g26"
       style="fill:#333333">
      <g
         id="g28"
         style="fill:#333333" />
      <g
         id="g34"
         style="fill:#333333">
        <g
           clip-path="url(#clipPath30)"
           id="g36"
           style="opacity:0.39999402;fill:#333333">
          <g
             transform="translate(125.6481,442.5953)"
             id="g38"
             style="fill:#333333">
            <path
               d="m 0,0 c -1.193,0 -2.16,-0.967 -2.16,-2.16 l 0,-26.94 c 0,-1.193 0.967,-2.16 2.16,-2.16 l 22.042,0 c 1.193,0 2.16,0.967 2.16,2.16 l 0,26.94 c 0,1.193 -0.967,2.16 -2.16,2.16 L 0,0 Z"
               style="fill:#333333;fill-opacity:1;fill-rule:nonzero;stroke:none"
               id="path40"
               inkscape:connector-curvature="0" />
          </g>
        </g>
      </g>
    </g>
    <g
       transform="matrix(1.25,0,0,-1.25,-448.08233,723.05628)"
       id="g42"
       style="fill:#333333">
      <g
         id="g44"
         style="fill:#333333" />
      <g
         id="g50"
         style="fill:#333333">
        <g
           clip-path="url(#clipPath46)"
           id="g52"
           style="opacity:0.39999402;fill:#333333">
          <g
             transform="translate(162.3849,457.2902)"
             id="g54"
             style="fill:#333333">
            <path
               d="m 0,0 c -1.193,0 -2.16,-0.967 -2.16,-2.16 l 0,-41.635 c 0,-1.193 0.967,-2.16 2.16,-2.16 l 22.042,0 c 1.193,0 2.16,0.967 2.16,2.16 l 0,41.635 c 0,1.193 -0.967,2.16 -2.16,2.16 L 0,0 Z"
               style="fill:#333333;fill-opacity:1;fill-rule:nonzero;stroke:none"
               id="path56"
               inkscape:connector-curvature="0" />
          </g>
        </g>
      </g>
    </g>
    <g
       transform="matrix(1.25,0,0,-1.25,-448.08233,723.05628)"
       id="g58"
       style="fill:#333333">
      <g
         id="g60"
         style="fill:#333333" />
      <g
         id="g66"
         style="fill:#333333">
        <g
           clip-path="url(#clipPath62)"
           id="g68"
           style="opacity:0.39999402;fill:#333333">
          <g
             transform="translate(199.1218,471.9849)"
             id="g70"
             style="fill:#333333">
            <path
               d="m 0,0 c -1.193,0 -2.16,-0.967 -2.16,-2.16 l 0,-56.33 c 0,-1.193 0.967,-2.16 2.16,-2.16 l 22.042,0 c 1.193,0 2.16,0.967 2.16,2.16 l 0,56.33 c 0,1.193 -0.967,2.16 -2.16,2.16 L 0,0 Z"
               style="fill:#333333;fill-opacity:1;fill-rule:nonzero;stroke:none"
               id="path72"
               inkscape:connector-curvature="0" />
          </g>
        </g>
      </g>
    </g>
    <g
       id="g74"
       transform="matrix(1.25,0,0,-1.25,-170.53471,216.01053)"
       style="fill:#333333">
      <path
         d="m 0,0 -134.001,0 c -1.193,0 -2.16,-0.967 -2.16,-2.16 l 0,-10.643 c 0,-1.193 0.967,-2.16 2.16,-2.16 l 134.001,0 c 1.193,0 2.16,0.967 2.16,2.16 l 0,10.643 C 2.16,-0.967 1.193,0 0,0"
         style="fill:#333333;fill-opacity:1;fill-rule:nonzero;stroke:none"
         id="path76"
         inkscape:connector-curvature="0" />
    </g>
    <g
       id="g78"
       transform="matrix(1.25,0,0,-1.25,-325.50583,180.02678)"
       style="fill:#333333">
      <path
         d="m 0,0 c 0.386,-0.668 1.099,-1.08 1.871,-1.08 0.771,0 1.484,0.412 1.87,1.08 l 11.313,19.593 c 0.386,0.668 0.386,1.492 0,2.16 -0.386,0.668 -1.099,1.08 -1.871,1.08 l -22.624,0 c -0.772,0 -1.485,-0.412 -1.871,-1.08 -0.386,-0.668 -0.386,-1.492 0,-2.16 L 0,0 Z"
         style="fill:#333333;fill-opacity:1;fill-rule:nonzero;stroke:none"
         id="path80"
         inkscape:connector-curvature="0" />
    </g>
    <g
       id="g82"
       transform="matrix(1.25,0,0,-1.25,-309.75508,250.87015)"
       style="fill:#333333">
      <path
         d="m 0,0 -22.043,0 c -1.193,0 -2.16,-0.967 -2.16,-2.16 l 0,-7.136 c 0,-1.193 0.967,-2.16 2.16,-2.16 l 22.043,0 c 1.193,0 2.16,0.967 2.16,2.16 l 0,7.136 C 2.16,-0.967 1.193,0 0,0"
         style="fill:#333333;fill-opacity:1;fill-rule:nonzero;stroke:none"
         id="path84"
         inkscape:connector-curvature="0" />
    </g>
    <g
       id="g86"
       transform="matrix(1.25,0,0,-1.25,-170.53471,250.87015)"
       style="fill:#333333">
      <path
         d="m 0,0 -5.294,0 0,5.293 c 0,1.193 -0.967,2.16 -2.16,2.16 l -7.134,0 c -1.193,0 -2.16,-0.967 -2.16,-2.16 l 0,-5.293 -5.294,0 c -1.193,0 -2.16,-0.967 -2.16,-2.16 l 0,-7.136 c 0,-1.193 0.967,-2.16 2.16,-2.16 l 5.294,0 0,-5.293 c 0,-1.193 0.967,-2.16 2.16,-2.16 l 7.134,0 c 1.193,0 2.16,0.967 2.16,2.16 l 0,5.293 5.294,0 c 1.193,0 2.16,0.967 2.16,2.16 l 0,7.136 C 2.16,-0.967 1.193,0 0,0"
         style="fill:#333333;fill-opacity:1;fill-rule:nonzero;stroke:none"
         id="path88"
         inkscape:connector-curvature="0" />
    </g>
    <g
       id="g90"
       transform="matrix(1.25,0,0,-1.25,-254.28571,330.45203)"
       style="fill:#333333">
      <path
         d="m 0,0 c -55.962,0 -101.329,45.366 -101.329,101.329 0,55.962 45.367,101.329 101.329,101.329 55.962,0 101.329,-45.367 101.329,-101.329 C 101.329,45.366 55.962,0 0,0 m 0,213.917 c -62.18,0 -112.588,-50.408 -112.588,-112.588 0,-62.181 50.408,-112.588 112.588,-112.588 62.181,0 112.588,50.407 112.588,112.588 0,62.18 -50.407,112.588 -112.588,112.588"
         style="fill:#333333;fill-opacity:1;fill-rule:nonzero;stroke:none"
         id="path92"
         inkscape:connector-curvature="0" />
    </g>
  </g>
</svg>
