<?xml version="1.0" encoding="utf-8"?>
<!-- Generator: Adobe Illustrator 16.0.2, SVG Export Plug-In . SVG Version: 6.00 Build 0)  -->
<!DOCTYPE svg PUBLIC "-//W3C//DTD SVG 1.1//EN" "http://www.w3.org/Graphics/SVG/1.1/DTD/svg11.dtd">
<svg version="1.1" id="Layer_1" xmlns="http://www.w3.org/2000/svg" xmlns:xlink="http://www.w3.org/1999/xlink" x="0px" y="0px"
	 width="110px" height="110px" viewBox="0 0 110 110" enable-background="new 0 0 110 110" xml:space="preserve">
<path fill="#000000" d="M107.047,51.918c-0.061-1.247-0.167-2.481-0.313-3.704c0.046,0.385,0.089,0.771,0.126,1.158
	C106.942,50.215,107.005,51.063,107.047,51.918"/>
<path fill="#000000" d="M19.101,15.845c-1.376,1.265-2.685,2.603-3.919,4.006C16.416,18.448,17.724,17.11,19.101,15.845"/>
<path fill="#000000" d="M105.276,68.3c0.946-3.485,1.544-7.113,1.75-10.847c-0.054,0.954-0.133,1.901-0.236,2.842
	C106.49,63.032,105.979,65.705,105.276,68.3"/>
<path fill="#000000" d="M102.84,75.271c-0.052,0.12-0.103,0.241-0.155,0.36C102.737,75.512,102.788,75.391,102.84,75.271"/>
<path fill="#000000" d="M92.462,18.132c-1.022-1.063-2.088-2.081-3.195-3.055C90.374,16.051,91.44,17.069,92.462,18.132"/>
<path fill="#000000" d="M104.879,69.688c-0.107,0.354-0.219,0.709-0.332,1.061C104.66,70.396,104.771,70.042,104.879,69.688"/>
<path fill="#000000" d="M103.543,73.567c0.016-0.04,0.029-0.079,0.045-0.119c-0.043,0.112-0.09,0.224-0.134,0.336
	C103.482,73.711,103.515,73.641,103.543,73.567"/>
<path fill="#000000" d="M104.471,70.979c-0.108,0.329-0.222,0.657-0.336,0.984C104.25,71.637,104.362,71.309,104.471,70.979"/>
<path fill="#000000" d="M104.041,72.229c-0.115,0.322-0.235,0.643-0.356,0.963C103.806,72.872,103.926,72.552,104.041,72.229"/>
<path fill="#000000" d="M15.693,89.74c-0.165-0.183-0.325-0.368-0.487-0.553C15.368,89.372,15.528,89.558,15.693,89.74"/>
<path fill="#000000" d="M7.569,58.934c-0.036-0.383-0.067-0.768-0.093-1.153C7.502,58.166,7.533,58.551,7.569,58.934"/>
<path fill="#000000" d="M7.739,60.486c-0.053-0.419-0.102-0.839-0.144-1.262C7.637,59.647,7.686,60.067,7.739,60.486"/>
<path fill="#000000" d="M18.288,92.404c-0.158-0.151-0.317-0.302-0.473-0.456C17.971,92.103,18.13,92.253,18.288,92.404"/>
<path fill="#000000" d="M7.458,57.526c-0.028-0.44-0.049-0.884-0.064-1.328C7.409,56.643,7.43,57.086,7.458,57.526"/>
<path fill="#000000" d="M7.952,61.98c-0.06-0.373-0.113-0.748-0.164-1.124C7.838,61.232,7.892,61.607,7.952,61.98"/>
<path fill="#000000" d="M17.092,91.221c-0.13-0.132-0.262-0.263-0.391-0.396C16.831,90.958,16.962,91.089,17.092,91.221"/>
<path fill="#000000" d="M86.806,95.973c1.096-0.852,2.16-1.739,3.183-2.673c2.848-2.599,5.404-5.508,7.625-8.672
	c-0.916,1.303-1.89,2.563-2.917,3.775C92.337,91.191,89.691,93.728,86.806,95.973"/>
<path fill="#000000" d="M6.821,76.256c0.262,0.574,0.532,1.144,0.814,1.706c-0.191-0.382-0.379-0.766-0.562-1.153
	C6.988,76.625,6.905,76.439,6.821,76.256"/>
<path fill="#000000" d="M6.014,34.622c-1.77,4.321-2.98,8.929-3.542,13.736c0.045-0.39,0.096-0.778,0.149-1.166
	C3.233,42.805,4.387,38.592,6.014,34.622"/>
<path fill="#000000" d="M96.285,22.582c0.203,0.265,0.405,0.532,0.604,0.8C96.69,23.114,96.488,22.847,96.285,22.582"/>
<path fill="#000000" d="M94.836,20.776c0.201,0.24,0.4,0.481,0.598,0.725C95.236,21.258,95.037,21.016,94.836,20.776"/>
<path fill="#000000" d="M94.07,19.884c0.206,0.234,0.409,0.471,0.61,0.709C94.479,20.354,94.276,20.118,94.07,19.884"/>
<path fill="#000000" d="M96.954,23.472c1.793,2.443,3.381,5.048,4.736,7.788C100.335,28.52,98.748,25.915,96.954,23.472"/>
<path fill="#000000" d="M95.576,21.678c0.2,0.25,0.398,0.5,0.594,0.753C95.975,22.178,95.776,21.928,95.576,21.678"/>
<path fill="#000000" d="M7.384,55.893c-0.014-0.459-0.022-0.92-0.022-1.383C7.361,54.973,7.37,55.434,7.384,55.893"/>
<path fill="#000000" d="M93.279,19.003c0.216,0.235,0.429,0.472,0.64,0.71C93.708,19.475,93.495,19.238,93.279,19.003"/>
<path fill="#000000" d="M92.467,18.137c0.234,0.244,0.465,0.49,0.694,0.739C92.932,18.627,92.701,18.381,92.467,18.137"/>
<path fill="#000000" d="M87.581,13.656c0.208,0.168,0.416,0.336,0.621,0.508C87.997,13.993,87.789,13.824,87.581,13.656"/>
<path fill="#000000" d="M86.663,12.931c0.203,0.156,0.404,0.313,0.604,0.472C87.067,13.244,86.866,13.087,86.663,12.931"/>
<path fill="#000000" d="M88.461,14.383c0.22,0.186,0.439,0.373,0.657,0.563C88.9,14.756,88.681,14.569,88.461,14.383"/>
<path fill="#000000" d="M107.084,56.128c-0.014,0.427-0.03,0.852-0.055,1.275C107.053,56.979,107.07,56.555,107.084,56.128"/>
<path fill="#000000" d="M107.054,52.089c0.017,0.37,0.031,0.739,0.041,1.111C107.085,52.828,107.07,52.458,107.054,52.089"/>
<path fill="#000000" d="M107.111,54.51c0,0.472-0.008,0.94-0.02,1.408C107.104,55.45,107.111,54.981,107.111,54.51"/>
<path fill="#000000" d="M105.268,68.333c-0.109,0.4-0.224,0.799-0.342,1.196C105.045,69.132,105.158,68.733,105.268,68.333"/>
<path fill="#000000" d="M106.574,46.997c0.056,0.391,0.107,0.782,0.155,1.174C106.683,47.779,106.63,47.388,106.574,46.997"/>
<path fill="#000000" d="M101.718,31.314c0.162,0.329,0.321,0.66,0.477,0.993C102.039,31.974,101.88,31.644,101.718,31.314"/>
<path fill="#000000" d="M102.225,32.372c0.156,0.335,0.31,0.672,0.458,1.011C102.534,33.044,102.381,32.707,102.225,32.372"/>
<path fill="#000000" d="M102.701,33.425c1.555,3.542,2.73,7.288,3.474,11.187C105.432,40.713,104.257,36.967,102.701,33.425"/>
<path fill="#000000" d="M106.393,45.831c0.065,0.387,0.126,0.776,0.182,1.166C106.519,46.607,106.458,46.219,106.393,45.831"/>
<path fill="#000000" d="M106.182,44.646c0.072,0.38,0.141,0.762,0.205,1.146C106.322,45.408,106.254,45.026,106.182,44.646"/>
<path fill="#000000" d="M28.876,100.276c0.022,0.013,0.045,0.024,0.067,0.037c-0.054-0.03-0.106-0.061-0.16-0.092
	C28.815,100.24,28.845,100.259,28.876,100.276"/>
<path fill="#000000" d="M30.885,101.351c-0.087-0.045-0.175-0.09-0.262-0.135C30.71,101.261,30.797,101.306,30.885,101.351"/>
<path fill="#000000" d="M27.71,15.665c0.104-0.072,0.208-0.146,0.313-0.217C27.918,15.52,27.814,15.592,27.71,15.665"/>
<path fill="#000000" d="M26.935,16.214c0.067-0.049,0.134-0.099,0.202-0.147C27.069,16.116,27.002,16.165,26.935,16.214"/>
<path fill="#000000" d="M29.457,14.509c0.127-0.08,0.254-0.16,0.381-0.239C29.71,14.35,29.583,14.429,29.457,14.509"/>
<path fill="#000000" d="M28.567,15.084c0.119-0.079,0.237-0.157,0.356-0.234C28.804,14.927,28.686,15.005,28.567,15.084"/>
<path fill="#000000" d="M23.861,18.637c0.063-0.054,0.126-0.106,0.188-0.159C23.987,18.531,23.924,18.583,23.861,18.637"/>
<path fill="#000000" d="M31.876,101.841c-0.09-0.044-0.18-0.088-0.27-0.132C31.697,101.753,31.786,101.797,31.876,101.841"/>
<path fill="#000000" d="M85.718,12.218c0.201,0.148,0.4,0.297,0.599,0.447C86.118,12.515,85.919,12.366,85.718,12.218"/>
<path fill="#000000" d="M24.676,17.953c0.02-0.016,0.039-0.031,0.058-0.047C24.715,17.922,24.696,17.937,24.676,17.953"/>
<path fill="#000000" d="M29.907,100.841c-0.087-0.046-0.174-0.094-0.261-0.142C29.733,100.747,29.82,100.795,29.907,100.841"/>
<path fill="#000000" d="M32.878,102.31c-0.092-0.041-0.183-0.084-0.274-0.126C32.695,102.226,32.787,102.269,32.878,102.31"/>
<path fill="#000000" d="M35.577,11.254c0.177-0.078,0.354-0.157,0.533-0.233C35.932,11.097,35.754,11.176,35.577,11.254"/>
<path fill="#000000" d="M33.893,102.759c-0.094-0.04-0.188-0.081-0.281-0.122C33.706,102.678,33.799,102.719,33.893,102.759"/>
<path fill="#000000" d="M34.495,11.748c0.204-0.096,0.407-0.192,0.612-0.286C34.902,11.555,34.698,11.652,34.495,11.748"/>
<path fill="#000000" d="M30.365,13.95c0.134-0.081,0.27-0.16,0.405-0.239C30.634,13.791,30.499,13.87,30.365,13.95"/>
<path fill="#000000" d="M34.915,103.186c-0.094-0.037-0.188-0.076-0.281-0.115C34.728,103.109,34.821,103.148,34.915,103.186"/>
<path fill="#000000" d="M31.292,13.409c0.14-0.08,0.281-0.158,0.422-0.236C31.573,13.251,31.432,13.329,31.292,13.409"/>
<path fill="#000000" d="M33.193,12.383c0.157-0.08,0.316-0.157,0.474-0.235C33.509,12.227,33.35,12.304,33.193,12.383"/>
<path fill="#000000" d="M23.065,19.336c0.071-0.063,0.143-0.126,0.214-0.19C23.208,19.21,23.136,19.273,23.065,19.336"/>
<path fill="#000000" d="M32.236,12.886c0.146-0.078,0.292-0.154,0.439-0.231C32.528,12.731,32.381,12.807,32.236,12.886"/>
<polyline fill="#000000" points="16.926,26.008 16.927,26.007 16.926,26.008 "/>
<polygon fill="#000000" points="8,46.747 8,46.747 8,46.746 "/>
<path fill="#000000" d="M21.906,95.574c-0.051-0.041-0.103-0.081-0.154-0.121C21.803,95.493,21.855,95.533,21.906,95.574"/>
<polyline fill="#000000" points="10.844,36.682 10.845,36.679 10.844,36.682 "/>
<path fill="#000000" d="M15.126,28.555c0.018-0.027,0.035-0.054,0.053-0.082C15.162,28.501,15.144,28.528,15.126,28.555"/>
<path fill="#000000" d="M14.592,29.385c0.005-0.008,0.01-0.016,0.015-0.023C14.602,29.369,14.597,29.377,14.592,29.385"/>
<path fill="#000000" d="M20.644,94.533c-0.156-0.132-0.311-0.268-0.465-0.401C20.333,94.266,20.488,94.401,20.644,94.533"/>
<path fill="#000000" d="M7.534,50.484c0.001-0.013,0.002-0.026,0.003-0.039C7.536,50.458,7.535,50.471,7.534,50.484"/>
<path fill="#000000" d="M7.438,51.848c0.002-0.047,0.006-0.095,0.009-0.142C7.444,51.753,7.44,51.8,7.438,51.848"/>
<path fill="#000000" d="M7.38,53.194c0.002-0.075,0.006-0.15,0.009-0.226C7.386,53.044,7.382,53.119,7.38,53.194"/>
<path fill="#000000" d="M23.25,96.611c-0.089-0.066-0.177-0.134-0.265-0.2C23.073,96.478,23.161,96.545,23.25,96.611"/>
<path fill="#000000" d="M15.699,27.706c0.022-0.032,0.044-0.064,0.067-0.097C15.743,27.642,15.721,27.674,15.699,27.706"/>
<path fill="#000000" d="M20.82,21.489c0.052-0.053,0.103-0.106,0.155-0.159C20.923,21.383,20.872,21.436,20.82,21.489"/>
<path fill="#000000" d="M21.538,20.77c0.065-0.063,0.129-0.127,0.195-0.19C21.667,20.643,21.603,20.707,21.538,20.77"/>
<path fill="#000000" d="M26.023,98.545c-0.07-0.046-0.14-0.092-0.21-0.139C25.883,98.453,25.953,98.499,26.023,98.545"/>
<path fill="#000000" d="M22.29,20.049c0.07-0.066,0.142-0.132,0.212-0.198C22.431,19.917,22.36,19.982,22.29,20.049"/>
<path fill="#000000" d="M27.483,99.461c-0.043-0.026-0.086-0.052-0.129-0.077C27.396,99.409,27.44,99.435,27.483,99.461"/>
<path fill="#000000" d="M16.3,26.854c0.019-0.025,0.037-0.049,0.055-0.074C16.337,26.804,16.319,26.829,16.3,26.854"/>
<path fill="#000000" d="M24.628,97.605c-0.047-0.033-0.096-0.066-0.144-0.1C24.533,97.539,24.581,97.572,24.628,97.605"/>
<path fill="#000000" d="M20.157,22.181c0.025-0.027,0.05-0.055,0.076-0.082C20.208,22.126,20.183,22.153,20.157,22.181"/>
<path fill="#000000" d="M19.457,93.493c-0.163-0.147-0.326-0.296-0.487-0.445C19.131,93.197,19.293,93.346,19.457,93.493"/>
<path fill="#000000" d="M39.907,4.101c0.119-0.035,0.237-0.071,0.357-0.105C40.144,4.029,40.026,4.066,39.907,4.101"/>
<path fill="#000000" d="M13.716,21.592c0.207-0.256,0.415-0.511,0.626-0.763C14.131,21.081,13.923,21.335,13.716,21.592"/>
<path fill="#000000" d="M14.453,20.697c0.218-0.258,0.437-0.514,0.659-0.769C14.89,20.183,14.671,20.439,14.453,20.697"/>
<path fill="#000000" d="M12.988,22.515c0.201-0.261,0.404-0.52,0.609-0.776C13.392,21.996,13.189,22.254,12.988,22.515"/>
<path fill="#000000" d="M19.162,15.788c0.23-0.21,0.463-0.417,0.696-0.624C19.625,15.371,19.392,15.578,19.162,15.788"/>
<path fill="#000000" d="M20.975,14.203c0.207-0.173,0.417-0.344,0.626-0.514C21.392,13.859,21.182,14.03,20.975,14.203"/>
<path fill="#000000" d="M20.059,14.985c0.214-0.188,0.431-0.372,0.648-0.557C20.49,14.613,20.273,14.798,20.059,14.985"/>
<path fill="#000000" d="M6.016,34.617c0.147-0.358,0.298-0.715,0.452-1.068C6.313,33.902,6.163,34.258,6.016,34.617"/>
<path fill="#000000" d="M6.474,33.535c1.395-3.197,3.099-6.229,5.074-9.057C9.572,27.306,7.869,30.337,6.474,33.535"/>
<path fill="#000000" d="M11.58,24.433c0.201-0.288,0.406-0.574,0.614-0.858C11.986,23.859,11.781,24.145,11.58,24.433"/>
<path fill="#000000" d="M2.127,53.231c0.008-0.33,0.021-0.658,0.036-0.986C2.149,52.574,2.135,52.902,2.127,53.231"/>
<path fill="#000000" d="M32.769,6.758c0.189-0.086,0.38-0.172,0.57-0.256C33.148,6.586,32.958,6.672,32.769,6.758"/>
<path fill="#000000" d="M30.569,7.829c0.193-0.1,0.388-0.196,0.582-0.294C30.957,7.632,30.762,7.729,30.569,7.829"/>
<path fill="#000000" d="M26.754,10.006c0.769-0.482,1.551-0.945,2.346-1.388C28.306,9.062,27.523,9.524,26.754,10.006"/>
<path fill="#000000" d="M29.492,8.4c0.199-0.108,0.4-0.213,0.6-0.32C29.892,8.187,29.69,8.292,29.492,8.4"/>
<path fill="#000000" d="M31.661,7.281c0.191-0.093,0.383-0.184,0.575-0.274C32.044,7.098,31.852,7.188,31.661,7.281"/>
<path fill="#000000" d="M23.822,11.986c0.205-0.149,0.411-0.297,0.618-0.443C24.233,11.689,24.027,11.837,23.822,11.986"/>
<path fill="#000000" d="M22.858,12.702c0.204-0.155,0.408-0.309,0.614-0.46C23.266,12.394,23.062,12.547,22.858,12.702"/>
<path fill="#000000" d="M21.908,13.442c0.204-0.163,0.41-0.324,0.617-0.484C22.318,13.118,22.112,13.279,21.908,13.442"/>
<path fill="#000000" d="M24.799,11.294c0.208-0.144,0.418-0.289,0.629-0.43C25.217,11.006,25.008,11.15,24.799,11.294"/>
<path fill="#000000" d="M25.784,10.63c0.216-0.142,0.432-0.284,0.649-0.423C26.216,10.346,26,10.488,25.784,10.63"/>
<path fill="#000000" d="M12.275,23.464c0.199-0.271,0.401-0.54,0.605-0.807C12.676,22.924,12.474,23.193,12.275,23.464"/>
<path fill="#000000" d="M5.891,74.088c-0.077-0.19-0.156-0.381-0.23-0.572C5.735,73.707,5.813,73.897,5.891,74.088"/>
<path fill="#000000" d="M9.708,81.715c-0.172-0.283-0.34-0.568-0.506-0.854C9.369,81.146,9.537,81.432,9.708,81.715"/>
<path fill="#000000" d="M10.53,83.027c-0.182-0.28-0.358-0.564-0.535-0.85C10.172,82.463,10.349,82.747,10.53,83.027"/>
<path fill="#000000" d="M6.51,75.564c-0.092-0.21-0.182-0.42-0.271-0.63C6.327,75.145,6.418,75.354,6.51,75.564"/>
<path fill="#000000" d="M8.21,79.074c-0.169-0.318-0.337-0.638-0.5-0.96C7.873,78.437,8.041,78.756,8.21,79.074"/>
<path fill="#000000" d="M8.931,80.389c-0.167-0.294-0.332-0.589-0.493-0.886C8.599,79.8,8.764,80.095,8.931,80.389"/>
<path fill="#000000" d="M13.676,87.372c-0.175-0.218-0.349-0.437-0.521-0.657C13.327,86.936,13.501,87.154,13.676,87.372"/>
<path fill="#000000" d="M2.157,56.626C2.151,56.468,2.144,56.31,2.14,56.15C2.144,56.31,2.151,56.468,2.157,56.626"/>
<path fill="#000000" d="M12.728,86.155c-0.176-0.231-0.352-0.463-0.523-0.698C12.376,85.692,12.552,85.924,12.728,86.155"/>
<path fill="#000000" d="M11.849,84.958c-0.388-0.544-0.767-1.095-1.134-1.654C11.082,83.863,11.46,84.414,11.849,84.958"/>
<path fill="#000000" d="M14.666,88.569c-0.173-0.204-0.345-0.41-0.515-0.617C14.321,88.159,14.492,88.365,14.666,88.569"/>
<path fill="#000000" d="M2.425,60.244c-0.013-0.12-0.029-0.24-0.041-0.36C2.396,60.004,2.412,60.124,2.425,60.244"/>
<path fill="#000000" d="M2.649,62.021c-0.026-0.18-0.051-0.36-0.075-0.541C2.598,61.66,2.623,61.841,2.649,62.021"/>
<path fill="#000000" d="M2.899,63.613c-0.025-0.145-0.047-0.29-0.071-0.435C2.853,63.323,2.875,63.469,2.899,63.613"/>
<path fill="#000000" d="M2.249,58.302c-0.01-0.145-0.018-0.29-0.027-0.436C2.23,58.012,2.238,58.157,2.249,58.302"/>
<path fill="#000000" d="M3.299,65.639c-0.04-0.186-0.081-0.37-0.12-0.556C3.218,65.269,3.259,65.453,3.299,65.639"/>
<path fill="#000000" d="M5.177,72.218c-0.075-0.21-0.146-0.42-0.219-0.631C5.03,71.798,5.102,72.008,5.177,72.218"/>
<path fill="#000000" d="M4.676,70.745c-0.07-0.216-0.14-0.431-0.207-0.647C4.536,70.314,4.606,70.529,4.676,70.745"/>
<path fill="#000000" d="M4.153,69.039c-0.067-0.234-0.133-0.469-0.197-0.704C4.02,68.57,4.086,68.805,4.153,69.039"/>
<path fill="#000000" d="M3.667,67.232c-0.05-0.202-0.099-0.406-0.146-0.609C3.569,66.826,3.617,67.03,3.667,67.232"/>
<path fill="#000000" d="M50.199,2.196c0.178-0.015,0.355-0.03,0.533-0.043C50.554,2.167,50.376,2.182,50.199,2.196"/>
<path fill="#000000" d="M70.128,4.342c0.171,0.053,0.34,0.108,0.51,0.163C70.468,4.451,70.299,4.395,70.128,4.342"/>
<path fill="#000000" d="M68.942,3.991c0.14,0.04,0.277,0.082,0.417,0.123C69.22,4.073,69.082,4.03,68.942,3.991"/>
<path fill="#000000" d="M67.425,3.588c0.11,0.028,0.222,0.054,0.333,0.082C67.646,3.642,67.535,3.616,67.425,3.588"/>
<path fill="#000000" d="M72.463,5.125c0.184,0.066,0.366,0.135,0.549,0.203C72.829,5.26,72.646,5.192,72.463,5.125"/>
<path fill="#000000" d="M33.893,6.26c0.188-0.081,0.377-0.161,0.566-0.239C34.27,6.099,34.081,6.179,33.893,6.26"/>
<path fill="#000000" d="M64.809,3.003c0.171,0.034,0.343,0.066,0.513,0.102C65.151,3.07,64.979,3.037,64.809,3.003"/>
<path fill="#000000" d="M66.075,3.269c0.156,0.035,0.313,0.068,0.47,0.104C66.389,3.337,66.231,3.304,66.075,3.269"/>
<path fill="#000000" d="M62.295,2.572c0.182,0.026,0.363,0.053,0.545,0.082C62.658,2.625,62.477,2.598,62.295,2.572"/>
<path fill="#000000" d="M63.553,2.771c0.178,0.031,0.356,0.061,0.533,0.093C63.909,2.833,63.73,2.802,63.553,2.771"/>
<path fill="#000000" d="M73.61,5.556c0.186,0.072,0.371,0.146,0.556,0.22C73.981,5.702,73.796,5.628,73.61,5.556"/>
<path fill="#000000" d="M81.737,9.553c0.21,0.127,0.418,0.258,0.627,0.388C82.155,9.812,81.947,9.681,81.737,9.553"/>
<path fill="#000000" d="M82.76,10.188c0.204,0.13,0.407,0.263,0.61,0.396C83.167,10.452,82.964,10.318,82.76,10.188"/>
<path fill="#000000" d="M79.934,8.513c0.488,0.269,0.972,0.547,1.45,0.831C80.905,9.06,80.422,8.782,79.934,8.513"/>
<path fill="#000000" d="M61.032,2.401c0.183,0.022,0.366,0.046,0.548,0.07C61.398,2.447,61.215,2.424,61.032,2.401"/>
<path fill="#000000" d="M83.764,10.845c0.202,0.135,0.402,0.272,0.604,0.41C84.166,11.117,83.967,10.979,83.764,10.845"/>
<path fill="#000000" d="M74.745,6.013c0.187,0.078,0.373,0.156,0.559,0.235C75.118,6.169,74.932,6.09,74.745,6.013"/>
<path fill="#000000" d="M79.109,8.069c0.197,0.104,0.396,0.208,0.592,0.314C79.505,8.276,79.307,8.173,79.109,8.069"/>
<path fill="#000000" d="M75.864,6.494c0.188,0.083,0.375,0.167,0.562,0.251C76.239,6.66,76.052,6.577,75.864,6.494"/>
<path fill="#000000" d="M76.968,6.999c0.188,0.089,0.377,0.177,0.564,0.269C77.345,7.176,77.156,7.087,76.968,6.999"/>
<path fill="#000000" d="M78.054,7.526c0.19,0.095,0.381,0.189,0.57,0.286C78.435,7.715,78.244,7.621,78.054,7.526"/>
<path fill="#000000" d="M71.301,4.72c0.18,0.061,0.359,0.124,0.539,0.186C71.66,4.844,71.48,4.781,71.301,4.72"/>
<path fill="#000000" d="M45.125,2.867c0.179-0.033,0.359-0.063,0.539-0.094C45.484,2.804,45.305,2.834,45.125,2.867"/>
<path fill="#000000" d="M42.664,3.377c0.163-0.038,0.327-0.073,0.491-0.109C42.991,3.304,42.826,3.339,42.664,3.377"/>
<path fill="#000000" d="M43.888,3.108c0.174-0.036,0.349-0.069,0.523-0.104C44.237,3.039,44.062,3.072,43.888,3.108"/>
<path fill="#000000" d="M36.592,10.821c0.178-0.074,0.356-0.147,0.535-0.219C36.948,10.674,36.77,10.748,36.592,10.821"/>
<path fill="#000000" d="M41.449,3.674c0.136-0.035,0.272-0.067,0.408-0.101C41.721,3.607,41.585,3.64,41.449,3.674"/>
<path fill="#000000" d="M36.187,5.338c0.185-0.069,0.37-0.139,0.555-0.206C36.556,5.199,36.372,5.269,36.187,5.338"/>
<path fill="#000000" d="M35.031,5.787c0.188-0.075,0.375-0.15,0.563-0.224C35.406,5.636,35.218,5.711,35.031,5.787"/>
<path fill="#000000" d="M37.364,4.913c0.18-0.063,0.359-0.126,0.54-0.186C37.723,4.787,37.544,4.85,37.364,4.913"/>
<path fill="#000000" d="M38.574,4.509c0.168-0.054,0.335-0.109,0.504-0.162C38.909,4.399,38.742,4.455,38.574,4.509"/>
<path fill="#000000" d="M84.751,11.521c0.2,0.141,0.399,0.284,0.598,0.427C85.15,11.805,84.951,11.662,84.751,11.521"/>
<path fill="#000000" d="M55.911,2.027c0.14,0.003,0.278,0.01,0.418,0.014C56.189,2.037,56.051,2.03,55.911,2.027"/>
<path fill="#000000" d="M57.203,2.074c0.168,0.008,0.334,0.02,0.501,0.029C57.537,2.094,57.371,2.083,57.203,2.074"/>
<path fill="#000000" d="M46.373,2.655c0.183-0.029,0.365-0.056,0.548-0.083C46.738,2.599,46.556,2.626,46.373,2.655"/>
<path fill="#000000" d="M58.486,2.153c0.179,0.013,0.355,0.028,0.532,0.043C58.842,2.181,58.664,2.166,58.486,2.153"/>
<path fill="#000000" d="M52.89,2.041c0.14-0.004,0.28-0.011,0.42-0.014C53.17,2.03,53.03,2.037,52.89,2.041"/>
<path fill="#000000" d="M48.907,2.32c0.183-0.02,0.365-0.04,0.547-0.057C49.272,2.28,49.09,2.3,48.907,2.32"/>
<path fill="#000000" d="M47.634,2.473c0.183-0.024,0.366-0.048,0.549-0.07C48,2.425,47.817,2.448,47.634,2.473"/>
<path fill="#000000" d="M59.763,2.262c0.183,0.018,0.364,0.037,0.547,0.057C60.127,2.299,59.945,2.28,59.763,2.262"/>
<path fill="#000000" d="M51.516,2.104c0.167-0.01,0.334-0.021,0.501-0.029C51.85,2.083,51.683,2.094,51.516,2.104"/>
<path fill="#000000" d="M2.469,48.388c-0.138,1.191-0.239,2.395-0.296,3.609c0.039-0.819,0.097-1.633,0.173-2.441
	C2.382,49.165,2.423,48.776,2.469,48.388"/>
<path fill="#000000" d="M64.534,106.069c-0.192,0.037-0.385,0.071-0.578,0.106C64.149,106.141,64.342,106.106,64.534,106.069"/>
<path fill="#000000" d="M87.343,20.436c0.105,0.102,0.21,0.205,0.314,0.307C87.553,20.64,87.448,20.537,87.343,20.436"/>
<path fill="#000000" d="M86.559,19.7c0.115,0.105,0.229,0.212,0.343,0.319C86.788,19.913,86.674,19.806,86.559,19.7"/>
<path fill="#000000" d="M88.108,21.188c0.083,0.083,0.164,0.168,0.246,0.252C88.272,21.356,88.191,21.271,88.108,21.188"/>
<path fill="#000000" d="M93.882,28.23c0.046,0.067,0.09,0.136,0.135,0.203C93.972,28.366,93.928,28.297,93.882,28.23"/>
<path fill="#000000" d="M84.941,18.282c0.126,0.105,0.251,0.21,0.375,0.317C85.192,18.493,85.067,18.388,84.941,18.282"/>
<path fill="#000000" d="M84.107,17.6c0.13,0.104,0.261,0.208,0.391,0.314C84.368,17.808,84.238,17.704,84.107,17.6"/>
<path fill="#000000" d="M61.491,106.559c-0.205,0.026-0.411,0.054-0.617,0.078C61.08,106.612,61.286,106.585,61.491,106.559"/>
<path fill="#000000" d="M85.759,18.983c0.121,0.105,0.241,0.212,0.36,0.319C86,19.195,85.88,19.088,85.759,18.983"/>
<path fill="#000000" d="M90,23.207c0.078,0.088,0.157,0.176,0.235,0.265C90.157,23.382,90.078,23.295,90,23.207"/>
<path fill="#000000" d="M68.969,105.02c-0.103,0.029-0.205,0.056-0.308,0.084C68.764,105.075,68.866,105.049,68.969,105.02"/>
<path fill="#000000" d="M92.648,26.478c0.077,0.104,0.152,0.209,0.229,0.314C92.801,26.688,92.726,26.582,92.648,26.478"/>
<path fill="#000000" d="M93.274,27.346c0.067,0.097,0.135,0.195,0.202,0.292C93.409,27.541,93.342,27.442,93.274,27.346"/>
<path fill="#000000" d="M71.009,10.185c0.201,0.074,0.401,0.151,0.601,0.228C71.41,10.336,71.21,10.259,71.009,10.185"/>
<path fill="#000000" d="M91.342,24.79c0.086,0.106,0.172,0.213,0.257,0.319C91.514,25.002,91.428,24.896,91.342,24.79"/>
<path fill="#000000" d="M90.668,23.978c0.087,0.102,0.174,0.204,0.26,0.307C90.842,24.182,90.755,24.08,90.668,23.978"/>
<path fill="#000000" d="M67.507,105.411c-0.152,0.038-0.306,0.074-0.458,0.11C67.201,105.484,67.354,105.449,67.507,105.411"/>
<path fill="#000000" d="M66.028,105.761c-0.178,0.04-0.355,0.076-0.534,0.114C65.673,105.837,65.851,105.801,66.028,105.761"/>
<path fill="#000000" d="M63.022,106.335c-0.201,0.032-0.402,0.063-0.604,0.095C62.62,106.398,62.821,106.367,63.022,106.335"/>
<path fill="#000000" d="M75.432,12.086c0.186,0.091,0.37,0.182,0.555,0.275C75.802,12.269,75.617,12.177,75.432,12.086"/>
<path fill="#000000" d="M77.398,13.111c0.166,0.091,0.331,0.184,0.495,0.277C77.729,13.295,77.564,13.202,77.398,13.111"/>
<path fill="#000000" d="M76.429,12.591c0.174,0.09,0.346,0.181,0.518,0.273C76.774,12.772,76.603,12.682,76.429,12.591"/>
<path fill="#000000" d="M54.611,107.01c-0.396,0-0.79-0.005-1.183-0.014C53.822,107.005,54.216,107.01,54.611,107.01"/>
<path fill="#000000" d="M52.975,106.982c-0.241-0.008-0.482-0.014-0.722-0.025C52.493,106.969,52.734,106.975,52.975,106.982"/>
<path fill="#000000" d="M51.693,106.927c-0.202-0.011-0.404-0.021-0.605-0.034C51.289,106.906,51.491,106.916,51.693,106.927"/>
<path fill="#000000" d="M83.253,16.932c0.137,0.104,0.273,0.208,0.408,0.313C83.525,17.139,83.39,17.036,83.253,16.932"/>
<path fill="#000000" d="M72.034,10.578c0.22,0.087,0.438,0.178,0.656,0.268C72.473,10.755,72.254,10.665,72.034,10.578"/>
<path fill="#000000" d="M73.047,10.993c0.329,0.139,0.656,0.282,0.98,0.429C73.703,11.275,73.376,11.132,73.047,10.993"/>
<path fill="#000000" d="M74.345,11.569c0.224,0.103,0.447,0.206,0.668,0.312C74.792,11.774,74.568,11.672,74.345,11.569"/>
<path fill="#000000" d="M82.348,16.257c0.154,0.112,0.309,0.223,0.461,0.337C82.656,16.48,82.502,16.369,82.348,16.257"/>
<path fill="#000000" d="M58.356,106.873c-0.198,0.015-0.396,0.03-0.597,0.042C57.96,106.903,58.158,106.888,58.356,106.873"/>
<path fill="#000000" d="M81.097,15.376c0.171,0.116,0.339,0.234,0.508,0.352C81.436,15.611,81.268,15.492,81.097,15.376"/>
<path fill="#000000" d="M59.939,106.737c-0.205,0.021-0.411,0.043-0.618,0.062C59.528,106.78,59.734,106.759,59.939,106.737"/>
<path fill="#000000" d="M56.702,106.964c-0.171,0.007-0.341,0.017-0.512,0.021C56.361,106.98,56.531,106.971,56.702,106.964"/>
<path fill="#000000" d="M78.347,13.648c0.162,0.094,0.322,0.189,0.482,0.285C78.669,13.837,78.509,13.742,78.347,13.648"/>
<path fill="#000000" d="M80.195,14.781c0.159,0.102,0.315,0.207,0.473,0.311C80.511,14.988,80.354,14.883,80.195,14.781"/>
<path fill="#000000" d="M79.279,14.205c0.158,0.097,0.315,0.196,0.473,0.295C79.595,14.401,79.438,14.302,79.279,14.205"/>
<path fill="#000000" d="M92.004,25.625c0.082,0.107,0.164,0.214,0.246,0.322C92.168,25.839,92.086,25.732,92.004,25.625"/>
<path fill="#000000" d="M101.861,54.51c0,0.516-0.015,1.027-0.03,1.539C101.849,55.538,101.861,55.025,101.861,54.51"/>
<path fill="#000000" d="M101.827,52.794c0.004,0.116,0.01,0.231,0.013,0.347C101.837,53.025,101.831,52.91,101.827,52.794"/>
<path fill="#000000" d="M72.014,104.053c-0.037,0.013-0.073,0.027-0.11,0.04C71.94,104.08,71.977,104.065,72.014,104.053"/>
<path fill="#000000" d="M85.278,97.116c-0.264,0.19-0.528,0.379-0.795,0.563C84.751,97.495,85.015,97.307,85.278,97.116"/>
<path fill="#000000" d="M101.149,46.306L101.149,46.306z"/>
<path fill="#000000" d="M101.758,51.416c0.007,0.108,0.015,0.217,0.021,0.326C101.772,51.632,101.765,51.524,101.758,51.416"/>
<path fill="#000000" d="M86.523,96.191c-0.278,0.214-0.559,0.424-0.842,0.631C85.965,96.615,86.245,96.405,86.523,96.191"/>
<path fill="#000000" d="M101.652,50.073c0.007,0.073,0.013,0.146,0.02,0.219C101.665,50.219,101.659,50.146,101.652,50.073"/>
<path fill="#000000" d="M82.199,99.177c-0.21,0.131-0.423,0.259-0.636,0.386C81.776,99.436,81.989,99.308,82.199,99.177"/>
<path fill="#000000" d="M98.263,83.681c-0.198,0.297-0.399,0.591-0.604,0.883C97.862,84.271,98.064,83.978,98.263,83.681"/>
<path fill="#000000" d="M100.945,45.216c0.017,0.085,0.032,0.17,0.049,0.255C100.978,45.386,100.962,45.301,100.945,45.216"/>
<path fill="#000000" d="M101.795,56.891c-0.003,0.068-0.009,0.137-0.012,0.205c0.001,0,0.002,0.001,0.003,0.001
	C101.79,57.028,101.792,56.959,101.795,56.891"/>
<path fill="#000000" d="M100.773,79.531c-0.1,0.184-0.203,0.365-0.305,0.548C100.57,79.896,100.674,79.715,100.773,79.531"/>
<path fill="#000000" d="M101.871,77.398c0.02-0.041,0.037-0.083,0.057-0.124c-0.091,0.189-0.184,0.377-0.277,0.564
	C101.724,77.691,101.799,77.546,101.871,77.398"/>
<path fill="#000000" d="M101.377,78.386c-0.099,0.193-0.2,0.385-0.302,0.576C101.177,78.771,101.278,78.579,101.377,78.386"/>
<path fill="#000000" d="M98.9,82.707c-0.151,0.236-0.305,0.471-0.46,0.705C98.596,83.178,98.75,82.943,98.9,82.707"/>
<path fill="#000000" d="M99.526,81.701c-0.106,0.177-0.217,0.352-0.326,0.526C99.31,82.053,99.42,81.878,99.526,81.701"/>
<path fill="#000000" d="M100.144,80.658c-0.076,0.133-0.155,0.264-0.232,0.396C99.988,80.922,100.067,80.791,100.144,80.658"/>
<path fill="#000000" d="M83.979,98.022c-0.245,0.166-0.491,0.334-0.74,0.496C83.488,98.356,83.733,98.188,83.979,98.022"/>
<path fill="#000000" d="M76.564,102.205c-0.165,0.076-0.329,0.152-0.495,0.227C76.235,102.357,76.399,102.281,76.564,102.205"/>
<path fill="#000000" d="M75.148,102.833c-0.149,0.063-0.298,0.128-0.447,0.19C74.851,102.961,74.999,102.896,75.148,102.833"/>
<path fill="#000000" d="M97.347,34.336c0.05,0.104,0.098,0.207,0.146,0.311C97.444,34.543,97.396,34.44,97.347,34.336"/>
<path fill="#000000" d="M97.796,35.314c0.043,0.095,0.084,0.19,0.125,0.285C97.88,35.504,97.839,35.409,97.796,35.314"/>
<path fill="#000000" d="M96.879,33.376c0.053,0.104,0.104,0.208,0.155,0.313C96.983,33.584,96.932,33.48,96.879,33.376"/>
<path fill="#000000" d="M95.458,30.749c0.021,0.037,0.043,0.073,0.064,0.109C95.501,30.821,95.479,30.785,95.458,30.749"/>
<path fill="#000000" d="M96.395,32.436c0.053,0.101,0.106,0.201,0.159,0.301C96.501,32.636,96.447,32.536,96.395,32.436"/>
<path fill="#000000" d="M95.903,31.533c0.049,0.086,0.098,0.172,0.146,0.259C96.001,31.705,95.952,31.619,95.903,31.533"/>
<path fill="#000000" d="M73.667,103.438c-0.118,0.046-0.235,0.094-0.354,0.14C73.432,103.531,73.549,103.483,73.667,103.438"/>
<path fill="#000000" d="M99.899,41.006c0.029,0.098,0.059,0.195,0.088,0.293C99.958,41.202,99.929,41.104,99.899,41.006"/>
<path fill="#000000" d="M79.037,100.989c0.078-0.041,0.154-0.085,0.231-0.127c-0.178,0.096-0.356,0.188-0.536,0.281
	C78.834,101.092,78.937,101.042,79.037,100.989"/>
<path fill="#000000" d="M100.465,43.074c0.027,0.109,0.054,0.218,0.08,0.328C100.519,43.292,100.492,43.183,100.465,43.074"/>
<path fill="#000000" d="M100.191,42.026c0.029,0.107,0.059,0.216,0.087,0.324C100.25,42.242,100.221,42.134,100.191,42.026"/>
<path fill="#000000" d="M100.717,44.139c0.023,0.104,0.045,0.208,0.067,0.312C100.762,44.347,100.74,44.243,100.717,44.139"/>
<path fill="#000000" d="M98.225,36.306c0.028,0.066,0.055,0.133,0.082,0.2C98.279,36.439,98.253,36.373,98.225,36.306"/>
<path fill="#000000" d="M80.666,100.092c-0.17,0.098-0.342,0.191-0.512,0.287C80.325,100.283,80.496,100.188,80.666,100.092"/>
<path fill="#000000" d="M99.604,40.049c0.022,0.069,0.046,0.138,0.067,0.207C99.649,40.187,99.626,40.118,99.604,40.049"/>
<path fill="#000000" d="M77.941,101.546c-0.176,0.087-0.351,0.174-0.527,0.259C77.591,101.72,77.766,101.633,77.941,101.546"/>
<path fill="#000000" d="M41.25,105.291c-0.084-0.022-0.168-0.044-0.252-0.066C41.082,105.247,41.166,105.269,41.25,105.291"/>
<path fill="#000000" d="M54.611,7.26c0.387,0,0.773,0.005,1.158,0.015C55.385,7.266,54.998,7.26,54.611,7.26"/>
<path fill="#000000" d="M43.466,105.82c-0.096-0.021-0.191-0.04-0.287-0.062C43.275,105.78,43.371,105.8,43.466,105.82"/>
<path fill="#000000" d="M56.15,7.288c0.258,0.009,0.516,0.017,0.772,0.029C56.666,7.305,56.408,7.296,56.15,7.288"/>
<path fill="#000000" d="M57.371,7.342c0.233,0.014,0.466,0.028,0.698,0.044C57.837,7.37,57.604,7.356,57.371,7.342"/>
<path fill="#000000" d="M42.352,105.567c-0.089-0.022-0.178-0.043-0.267-0.064C42.173,105.524,42.263,105.545,42.352,105.567"/>
<path fill="#000000" d="M50,7.485c0.222-0.022,0.445-0.041,0.668-0.06C50.445,7.444,50.222,7.463,50,7.485"/>
<path fill="#000000" d="M53.449,7.275c0.386-0.009,0.774-0.015,1.162-0.015C54.223,7.26,53.835,7.266,53.449,7.275"/>
<path fill="#000000" d="M52.294,7.317c0.257-0.013,0.516-0.021,0.775-0.03C52.811,7.296,52.552,7.305,52.294,7.317"/>
<path fill="#000000" d="M44.597,106.052c-0.105-0.02-0.21-0.039-0.314-0.061C44.387,106.013,44.492,106.032,44.597,106.052"/>
<path fill="#000000" d="M61.943,7.827c0.236,0.037,0.473,0.077,0.708,0.117C62.416,7.904,62.18,7.864,61.943,7.827"/>
<path fill="#000000" d="M63.055,8.013c0.29,0.052,0.579,0.109,0.868,0.167C63.634,8.122,63.345,8.065,63.055,8.013"/>
<path fill="#000000" d="M58.541,7.424c0.225,0.019,0.448,0.039,0.672,0.06C58.989,7.462,58.766,7.442,58.541,7.424"/>
<path fill="#000000" d="M64.154,8.225c0.363,0.075,0.726,0.153,1.085,0.236C64.88,8.378,64.518,8.299,64.154,8.225"/>
<path fill="#000000" d="M46.899,106.444c-0.129-0.019-0.257-0.037-0.385-0.057C46.642,106.407,46.77,106.426,46.899,106.444"/>
<path fill="#000000" d="M48.067,106.603c-0.141-0.018-0.283-0.033-0.423-0.053C47.785,106.569,47.926,106.585,48.067,106.603"/>
<path fill="#000000" d="M45.742,106.261c-0.117-0.021-0.233-0.039-0.349-0.06C45.509,106.222,45.625,106.24,45.742,106.261"/>
<path fill="#000000" d="M60.822,7.667c0.224,0.029,0.447,0.062,0.67,0.094C61.27,7.729,61.047,7.696,60.822,7.667"/>
<path fill="#000000" d="M59.688,7.532c0.222,0.024,0.442,0.049,0.663,0.076C60.131,7.581,59.91,7.556,59.688,7.532"/>
<path fill="#000000" d="M36.85,103.927c0.044,0.016,0.088,0.029,0.131,0.046c-0.086-0.031-0.173-0.063-0.26-0.094
	C36.764,103.895,36.807,103.911,36.85,103.927"/>
<path fill="#000000" d="M38.027,104.332c-0.082-0.026-0.163-0.054-0.244-0.081C37.864,104.278,37.945,104.306,38.027,104.332"/>
<path fill="#000000" d="M40.738,9.332c0.199-0.062,0.399-0.12,0.6-0.179C41.137,9.212,40.937,9.271,40.738,9.332"/>
<path fill="#000000" d="M41.799,9.02c0.219-0.062,0.439-0.12,0.658-0.178C42.238,8.899,42.018,8.958,41.799,9.02"/>
<path fill="#000000" d="M39.687,9.668c0.189-0.063,0.379-0.124,0.569-0.185C40.066,9.544,39.876,9.605,39.687,9.668"/>
<path fill="#000000" d="M38.646,10.028c0.183-0.066,0.366-0.13,0.551-0.194C39.013,9.898,38.829,9.962,38.646,10.028"/>
<path fill="#000000" d="M37.614,10.413c0.18-0.069,0.359-0.138,0.54-0.206C37.974,10.275,37.794,10.344,37.614,10.413"/>
<path fill="#000000" d="M35.946,103.591c-0.092-0.035-0.184-0.07-0.275-0.105C35.762,103.521,35.854,103.556,35.946,103.591"/>
<path fill="#000000" d="M48.863,7.609c0.218-0.026,0.436-0.051,0.655-0.075C49.299,7.558,49.081,7.583,48.863,7.609"/>
<path fill="#000000" d="M40.163,104.992c-0.081-0.022-0.163-0.046-0.243-0.069C40,104.946,40.082,104.97,40.163,104.992"/>
<path fill="#000000" d="M47.726,7.761c0.217-0.032,0.435-0.063,0.653-0.091C48.161,7.699,47.943,7.729,47.726,7.761"/>
<path fill="#000000" d="M46.585,7.942c0.223-0.039,0.446-0.076,0.67-0.111C47.031,7.866,46.808,7.904,46.585,7.942"/>
<path fill="#000000" d="M45.409,8.159c0.243-0.048,0.487-0.096,0.731-0.14C45.896,8.063,45.652,8.111,45.409,8.159"/>
<path fill="#000000" d="M42.871,8.731c0.292-0.075,0.586-0.146,0.88-0.215C43.457,8.585,43.164,8.656,42.871,8.731"/>
<path fill="#000000" d="M43.953,8.467c0.36-0.083,0.721-0.162,1.084-0.236C44.674,8.306,44.313,8.384,43.953,8.467"/>
<path fill="#000000" d="M39.087,104.673c-0.08-0.024-0.16-0.049-0.239-0.074C38.928,104.624,39.007,104.648,39.087,104.673"/>
<path fill="#000000" d="M51.146,7.387c0.231-0.017,0.463-0.031,0.696-0.044C51.609,7.356,51.377,7.371,51.146,7.387"/>
<path fill="#000000" d="M66.742,8.835c0.218,0.058,0.435,0.116,0.651,0.176C67.177,8.951,66.96,8.893,66.742,8.835"/>
<path fill="#000000" d="M67.844,9.141c0.204,0.059,0.408,0.12,0.611,0.182C68.252,9.261,68.048,9.2,67.844,9.141"/>
<path fill="#000000" d="M65.574,8.542c0.25,0.06,0.499,0.119,0.747,0.182C66.073,8.66,65.824,8.601,65.574,8.542"/>
<path fill="#000000" d="M69.97,9.814c0.197,0.068,0.394,0.138,0.59,0.208C70.363,9.952,70.167,9.882,69.97,9.814"/>
<path fill="#000000" d="M68.916,9.467c0.198,0.063,0.396,0.127,0.595,0.193C69.313,9.594,69.114,9.53,68.916,9.467"/>
<path fill="#000000" d="M49.255,106.736c-0.158-0.016-0.316-0.03-0.473-0.048C48.939,106.706,49.098,106.721,49.255,106.736"/>
<path fill="#000000" d="M50.459,106.845c-0.176-0.014-0.353-0.026-0.529-0.042C50.106,106.818,50.283,106.831,50.459,106.845"/>
<path fill="#000000" d="M37.783,104.251c-0.269-0.091-0.536-0.184-0.801-0.279C37.247,104.067,37.514,104.16,37.783,104.251"/>
<path fill="#000000" d="M14.342,20.829c0.037-0.044,0.074-0.087,0.111-0.131C14.416,20.741,14.379,20.785,14.342,20.829"/>
<polyline fill="#000000" points="6.014,34.622 6.016,34.617 6.014,34.622 "/>
<polyline fill="#000000" points="6.468,33.548 6.474,33.535 6.468,33.548 "/>
<path fill="#000000" d="M15.112,19.929c0.022-0.026,0.046-0.052,0.068-0.078C15.158,19.877,15.135,19.903,15.112,19.929"/>
<path fill="#000000" d="M19.858,15.164c0.067-0.06,0.134-0.12,0.201-0.179C19.992,15.044,19.925,15.104,19.858,15.164"/>
<path fill="#000000" d="M81.563,99.563c-0.298,0.179-0.596,0.356-0.897,0.529C80.968,99.919,81.266,99.741,81.563,99.563"/>
<path fill="#000000" d="M19.101,15.845c0.021-0.019,0.041-0.038,0.061-0.057C19.141,15.807,19.121,15.827,19.101,15.845"/>
<path fill="#000000" d="M52.253,106.957c-0.187-0.008-0.374-0.02-0.56-0.03C51.879,106.938,52.066,106.949,52.253,106.957"/>
<path fill="#000000" d="M12.194,23.575c0.027-0.037,0.054-0.074,0.081-0.112C12.248,23.501,12.221,23.538,12.194,23.575"/>
<path fill="#000000" d="M12.88,22.657c0.036-0.047,0.072-0.094,0.108-0.141C12.952,22.563,12.916,22.609,12.88,22.657"/>
<path fill="#000000" d="M11.548,24.478c0.011-0.015,0.021-0.03,0.032-0.046C11.569,24.448,11.559,24.463,11.548,24.478"/>
<path fill="#000000" d="M83.239,98.52c-0.344,0.224-0.69,0.441-1.04,0.658C82.549,98.961,82.896,98.743,83.239,98.52"/>
<path fill="#000000" d="M107.029,57.403c-0.001,0.017-0.002,0.033-0.003,0.05C107.027,57.437,107.028,57.42,107.029,57.403"/>
<path fill="#000000" d="M105.276,68.3c-0.003,0.011-0.006,0.021-0.009,0.033C105.271,68.321,105.273,68.311,105.276,68.3"/>
<path fill="#000000" d="M20.708,14.429c0.089-0.075,0.178-0.151,0.268-0.226C20.885,14.278,20.796,14.354,20.708,14.429"/>
<path fill="#000000" d="M13.598,21.739c0.04-0.049,0.079-0.098,0.119-0.147C13.677,21.641,13.637,21.689,13.598,21.739"/>
<path fill="#000000" d="M31.607,101.709c-0.242-0.118-0.482-0.236-0.722-0.358C31.125,101.473,31.365,101.591,31.607,101.709"/>
<path fill="#000000" d="M38.848,104.599c-0.274-0.086-0.548-0.175-0.821-0.266C38.3,104.424,38.574,104.513,38.848,104.599"/>
<path fill="#000000" d="M30.092,8.08c0.159-0.084,0.317-0.169,0.477-0.251C30.409,7.911,30.25,7.996,30.092,8.08"/>
<path fill="#000000" d="M49.93,106.803c-0.226-0.02-0.45-0.043-0.675-0.066C49.48,106.76,49.705,106.783,49.93,106.803"/>
<path fill="#000000" d="M107.095,53.199c0.011,0.436,0.017,0.873,0.017,1.311C107.111,54.072,107.105,53.635,107.095,53.199"/>
<path fill="#000000" d="M78.732,101.144c-0.262,0.137-0.526,0.271-0.791,0.402C78.206,101.414,78.471,101.28,78.732,101.144"/>
<path fill="#000000" d="M31.151,7.535c0.17-0.085,0.339-0.17,0.51-0.253C31.49,7.365,31.321,7.45,31.151,7.535"/>
<path fill="#000000" d="M29.1,8.619c0.131-0.073,0.26-0.147,0.392-0.219C29.36,8.472,29.231,8.546,29.1,8.619"/>
<path fill="#000000" d="M33.339,6.502c0.184-0.082,0.369-0.162,0.554-0.242C33.708,6.34,33.523,6.42,33.339,6.502"/>
<path fill="#000000" d="M107.047,51.918c0.003,0.057,0.005,0.114,0.007,0.171C107.051,52.032,107.05,51.975,107.047,51.918"/>
<path fill="#000000" d="M77.414,101.805c-0.282,0.137-0.565,0.27-0.85,0.4C76.849,102.074,77.132,101.941,77.414,101.805"/>
<path fill="#000000" d="M32.236,7.007c0.177-0.083,0.354-0.167,0.533-0.248C32.591,6.84,32.414,6.923,32.236,7.007"/>
<path fill="#000000" d="M28.784,100.222c-0.438-0.247-0.871-0.501-1.301-0.761C27.913,99.721,28.346,99.975,28.784,100.222"/>
<path fill="#000000" d="M30.623,101.216c-0.239-0.124-0.478-0.248-0.715-0.375C30.145,100.968,30.383,101.092,30.623,101.216"/>
<path fill="#000000" d="M80.153,100.379c-0.293,0.163-0.588,0.325-0.885,0.483C79.565,100.704,79.86,100.542,80.153,100.379"/>
<path fill="#000000" d="M23.472,12.242c0.116-0.086,0.233-0.171,0.351-0.255C23.705,12.071,23.588,12.156,23.472,12.242"/>
<path fill="#000000" d="M26.434,10.207c0.106-0.068,0.214-0.133,0.321-0.2C26.648,10.074,26.54,10.139,26.434,10.207"/>
<path fill="#000000" d="M107.092,55.918c-0.002,0.07-0.006,0.141-0.008,0.21C107.086,56.059,107.089,55.988,107.092,55.918"/>
<path fill="#000000" d="M21.602,13.688c0.102-0.083,0.204-0.165,0.306-0.247C21.805,13.524,21.704,13.606,21.602,13.688"/>
<path fill="#000000" d="M22.524,12.958c0.111-0.085,0.222-0.171,0.333-0.256C22.747,12.787,22.635,12.873,22.524,12.958"/>
<path fill="#000000" d="M25.428,10.864c0.118-0.079,0.237-0.156,0.356-0.234C25.666,10.708,25.546,10.785,25.428,10.864"/>
<path fill="#000000" d="M29.646,100.699c-0.235-0.127-0.47-0.255-0.703-0.386C29.176,100.444,29.411,100.572,29.646,100.699"/>
<path fill="#000000" d="M24.44,11.543c0.119-0.083,0.239-0.166,0.358-0.248C24.68,11.377,24.56,11.459,24.44,11.543"/>
<path fill="#000000" d="M39.919,104.923c-0.278-0.081-0.556-0.164-0.832-0.25C39.364,104.759,39.641,104.842,39.919,104.923"/>
<path fill="#000000" d="M99.911,81.054c-0.127,0.217-0.254,0.434-0.385,0.647C99.657,81.487,99.784,81.271,99.911,81.054"/>
<path fill="#000000" d="M103.454,73.784c-0.197,0.499-0.402,0.994-0.614,1.486C103.052,74.778,103.257,74.283,103.454,73.784"/>
<path fill="#000000" d="M8.438,79.502c-0.077-0.142-0.152-0.285-0.228-0.428C8.286,79.217,8.361,79.36,8.438,79.502"/>
<path fill="#000000" d="M5.66,73.516c-0.167-0.43-0.328-0.862-0.483-1.298C5.333,72.653,5.493,73.086,5.66,73.516"/>
<path fill="#000000" d="M100.203,80.557c0.091-0.158,0.177-0.318,0.266-0.478c-0.108,0.193-0.215,0.388-0.325,0.579
	C100.163,80.624,100.185,80.591,100.203,80.557"/>
<path fill="#000000" d="M9.203,80.861c-0.091-0.157-0.182-0.314-0.272-0.473C9.021,80.547,9.111,80.704,9.203,80.861"/>
<path fill="#000000" d="M36.721,103.879c-0.26-0.094-0.518-0.19-0.775-0.288C36.204,103.688,36.461,103.785,36.721,103.879"/>
<path fill="#000000" d="M34.459,6.02c0.19-0.079,0.381-0.156,0.572-0.233C34.84,5.864,34.649,5.941,34.459,6.02"/>
<path fill="#000000" d="M7.71,78.114c-0.025-0.05-0.049-0.102-0.075-0.152C7.661,78.013,7.685,78.064,7.71,78.114"/>
<path fill="#000000" d="M6.126,74.673c0.036,0.088,0.076,0.174,0.112,0.262c-0.119-0.281-0.234-0.563-0.348-0.847
	C5.969,74.283,6.045,74.479,6.126,74.673"/>
<path fill="#000000" d="M9.996,82.178c-0.096-0.153-0.193-0.308-0.288-0.463C9.803,81.87,9.899,82.024,9.996,82.178"/>
<path fill="#000000" d="M6.821,76.256c-0.105-0.229-0.21-0.46-0.312-0.691C6.611,75.796,6.716,76.026,6.821,76.256"/>
<path fill="#000000" d="M101.075,78.962c-0.1,0.19-0.199,0.381-0.301,0.569C100.876,79.343,100.976,79.152,101.075,78.962"/>
<path fill="#000000" d="M13.155,86.715c-0.144-0.186-0.286-0.372-0.427-0.56C12.87,86.343,13.011,86.529,13.155,86.715"/>
<path fill="#000000" d="M51.087,106.893c-0.21-0.014-0.418-0.031-0.628-0.048C50.669,106.861,50.877,106.879,51.087,106.893"/>
<path fill="#000000" d="M104.135,71.964c-0.031,0.088-0.062,0.178-0.094,0.266C104.073,72.142,104.104,72.052,104.135,71.964"/>
<path fill="#000000" d="M101.928,77.274c0.262-0.542,0.514-1.09,0.757-1.644C102.441,76.185,102.189,76.732,101.928,77.274"/>
<path fill="#000000" d="M15.206,89.188c-0.181-0.205-0.362-0.41-0.54-0.618C14.844,88.777,15.024,88.982,15.206,89.188"/>
<path fill="#000000" d="M14.15,87.953c-0.159-0.192-0.317-0.386-0.474-0.581C13.833,87.567,13.991,87.761,14.15,87.953"/>
<path fill="#000000" d="M10.714,83.304c-0.061-0.092-0.124-0.184-0.184-0.276C10.591,83.12,10.653,83.212,10.714,83.304"/>
<path fill="#000000" d="M101.65,77.839c-0.09,0.183-0.181,0.365-0.273,0.547C101.47,78.204,101.561,78.021,101.65,77.839"/>
<path fill="#000000" d="M34.634,103.07c-0.248-0.102-0.495-0.205-0.741-0.312C34.139,102.865,34.386,102.969,34.634,103.07"/>
<path fill="#000000" d="M12.205,85.457c-0.12-0.165-0.237-0.333-0.356-0.499C11.967,85.124,12.084,85.292,12.205,85.457"/>
<path fill="#000000" d="M3.521,66.623c-0.077-0.327-0.151-0.655-0.222-0.984C3.37,65.968,3.444,66.296,3.521,66.623"/>
<path fill="#000000" d="M2.384,59.883c-0.053-0.524-0.098-1.052-0.136-1.581C2.287,58.831,2.331,59.358,2.384,59.883"/>
<path fill="#000000" d="M85.683,96.822c-0.135,0.1-0.27,0.197-0.404,0.294C85.413,97.02,85.548,96.922,85.683,96.822"/>
<path fill="#000000" d="M2.221,57.866c-0.026-0.412-0.047-0.826-0.063-1.24C2.174,57.04,2.195,57.454,2.221,57.866"/>
<path fill="#000000" d="M33.612,102.637c-0.246-0.107-0.49-0.216-0.733-0.327C33.122,102.421,33.366,102.529,33.612,102.637"/>
<path fill="#000000" d="M2.574,61.479c-0.054-0.411-0.104-0.822-0.148-1.235C2.47,60.657,2.52,61.068,2.574,61.479"/>
<path fill="#000000" d="M84.483,97.681c-0.167,0.115-0.335,0.228-0.504,0.342C84.148,97.908,84.316,97.796,84.483,97.681"/>
<path fill="#000000" d="M86.806,95.973c-0.094,0.072-0.188,0.146-0.282,0.219C86.618,96.119,86.712,96.045,86.806,95.973"/>
<path fill="#000000" d="M2.163,52.245c0.003-0.083,0.005-0.166,0.009-0.248C2.168,52.08,2.167,52.163,2.163,52.245"/>
<path fill="#000000" d="M2.111,54.51c0-0.427,0.006-0.854,0.016-1.278C2.117,53.656,2.111,54.083,2.111,54.51"/>
<path fill="#000000" d="M32.604,102.184c-0.244-0.112-0.486-0.227-0.728-0.343C32.118,101.957,32.36,102.071,32.604,102.184"/>
<path fill="#000000" d="M2.14,56.15c-0.017-0.545-0.028-1.091-0.028-1.641C2.111,55.06,2.123,55.605,2.14,56.15"/>
<path fill="#000000" d="M104.926,69.529c-0.016,0.053-0.031,0.105-0.047,0.158C104.895,69.635,104.91,69.582,104.926,69.529"/>
<path fill="#000000" d="M4.469,70.098c-0.109-0.351-0.214-0.704-0.316-1.059C4.255,69.394,4.36,69.747,4.469,70.098"/>
<path fill="#000000" d="M3.956,68.335c-0.1-0.366-0.196-0.733-0.289-1.103C3.76,67.602,3.856,67.969,3.956,68.335"/>
<path fill="#000000" d="M104.546,70.748c-0.025,0.077-0.05,0.154-0.075,0.231C104.496,70.902,104.521,70.825,104.546,70.748"/>
<path fill="#000000" d="M4.958,71.587c-0.096-0.279-0.191-0.561-0.282-0.842C4.768,71.026,4.861,71.308,4.958,71.587"/>
<path fill="#000000" d="M2.829,63.179c-0.064-0.385-0.124-0.771-0.18-1.158C2.705,62.408,2.765,62.794,2.829,63.179"/>
<path fill="#000000" d="M99.2,82.228c-0.1,0.16-0.198,0.32-0.3,0.479C99.002,82.548,99.101,82.388,99.2,82.228"/>
<path fill="#000000" d="M3.179,65.082c-0.1-0.487-0.194-0.977-0.279-1.469C2.985,64.105,3.08,64.595,3.179,65.082"/>
<path fill="#000000" d="M98.44,83.412c-0.06,0.09-0.117,0.18-0.178,0.269C98.323,83.592,98.381,83.501,98.44,83.412"/>
<path fill="#000000" d="M97.658,84.563c-0.015,0.021-0.03,0.043-0.045,0.064C97.628,84.606,97.644,84.585,97.658,84.563"/>
<path fill="#000000" d="M2.469,48.388c0.001-0.01,0.002-0.02,0.003-0.029C2.471,48.368,2.47,48.378,2.469,48.388"/>
<path fill="#000000" d="M103.685,73.192c-0.032,0.085-0.063,0.171-0.097,0.256C103.621,73.363,103.652,73.277,103.685,73.192"/>
<path fill="#000000" d="M20.179,94.132c-0.243-0.211-0.483-0.424-0.722-0.639C19.695,93.708,19.936,93.921,20.179,94.132"/>
<path fill="#000000" d="M76.426,6.745c0.182,0.083,0.362,0.168,0.542,0.254C76.788,6.914,76.607,6.828,76.426,6.745"/>
<path fill="#000000" d="M56.19,106.985c-0.524,0.016-1.051,0.024-1.579,0.024C55.14,107.01,55.666,107.001,56.19,106.985"/>
<path fill="#000000" d="M63.956,106.176c-0.311,0.056-0.621,0.109-0.934,0.159C63.335,106.285,63.646,106.231,63.956,106.176"/>
<path fill="#000000" d="M77.532,7.267c0.175,0.085,0.349,0.172,0.521,0.259C77.881,7.439,77.707,7.352,77.532,7.267"/>
<path fill="#000000" d="M75.304,6.248c0.188,0.081,0.374,0.163,0.561,0.246C75.678,6.411,75.491,6.329,75.304,6.248"/>
<path fill="#000000" d="M81.384,9.344c0.118,0.07,0.236,0.139,0.354,0.209C81.62,9.483,81.502,9.414,81.384,9.344"/>
<path fill="#000000" d="M101.69,31.259c0.01,0.019,0.019,0.037,0.027,0.055C101.709,31.296,101.7,31.278,101.69,31.259"/>
<path fill="#000000" d="M79.701,8.383c0.078,0.043,0.154,0.087,0.232,0.13C79.855,8.47,79.779,8.426,79.701,8.383"/>
<path fill="#000000" d="M78.624,7.813c0.162,0.084,0.323,0.171,0.485,0.256C78.947,7.983,78.786,7.896,78.624,7.813"/>
<path fill="#000000" d="M48.783,106.688c-0.239-0.026-0.477-0.056-0.715-0.085C48.306,106.633,48.543,106.662,48.783,106.688"/>
<path fill="#000000" d="M62.418,106.429c-0.308,0.047-0.617,0.089-0.927,0.13C61.801,106.518,62.11,106.476,62.418,106.429"/>
<path fill="#000000" d="M69.359,4.114c0.257,0.075,0.514,0.149,0.769,0.229C69.873,4.263,69.616,4.188,69.359,4.114"/>
<path fill="#000000" d="M70.638,4.505c0.221,0.071,0.442,0.142,0.663,0.215C71.08,4.646,70.858,4.576,70.638,4.505"/>
<path fill="#000000" d="M67.758,3.67c0.396,0.103,0.792,0.209,1.185,0.321C68.55,3.879,68.154,3.772,67.758,3.67"/>
<path fill="#000000" d="M74.166,5.776c0.193,0.077,0.387,0.156,0.579,0.236C74.553,5.933,74.359,5.854,74.166,5.776"/>
<path fill="#000000" d="M20.837,94.701c0.302,0.254,0.607,0.504,0.916,0.752c-0.375-0.301-0.743-0.608-1.109-0.919
	C20.708,94.589,20.771,94.646,20.837,94.701"/>
<path fill="#000000" d="M65.494,105.875c-0.318,0.067-0.639,0.133-0.96,0.194C64.855,106.008,65.176,105.942,65.494,105.875"/>
<path fill="#000000" d="M45.393,106.201c-0.266-0.047-0.532-0.098-0.796-0.149C44.861,106.104,45.127,106.154,45.393,106.201"/>
<path fill="#000000" d="M73.013,5.329c0.199,0.075,0.398,0.15,0.598,0.228C73.411,5.479,73.212,5.404,73.013,5.329"/>
<path fill="#000000" d="M71.84,4.906c0.208,0.073,0.415,0.145,0.622,0.22C72.255,5.05,72.048,4.979,71.84,4.906"/>
<path fill="#000000" d="M102.194,32.307c0.011,0.021,0.021,0.043,0.03,0.065C102.215,32.35,102.205,32.329,102.194,32.307"/>
<path fill="#000000" d="M96.17,22.432c0.039,0.05,0.077,0.1,0.115,0.15C96.247,22.532,96.209,22.481,96.17,22.432"/>
<path fill="#000000" d="M89.118,14.945c0.05,0.043,0.099,0.088,0.148,0.131C89.217,15.033,89.168,14.989,89.118,14.945"/>
<polyline fill="#000000" points="92.462,18.132 92.467,18.137 92.462,18.132 "/>
<path fill="#000000" d="M59.321,106.799c-0.32,0.028-0.643,0.052-0.965,0.074C58.679,106.851,59.001,106.827,59.321,106.799"/>
<path fill="#000000" d="M47.644,106.55c-0.249-0.033-0.497-0.069-0.745-0.105C47.147,106.48,47.395,106.518,47.644,106.55"/>
<path fill="#000000" d="M88.202,14.164c0.087,0.072,0.172,0.146,0.259,0.219C88.374,14.31,88.289,14.236,88.202,14.164"/>
<path fill="#000000" d="M95.434,21.501c0.047,0.059,0.095,0.118,0.143,0.177C95.528,21.619,95.48,21.56,95.434,21.501"/>
<path fill="#000000" d="M93.161,18.875c0.039,0.043,0.079,0.085,0.118,0.127C93.24,18.96,93.2,18.918,93.161,18.875"/>
<path fill="#000000" d="M94.681,20.593c0.053,0.061,0.104,0.123,0.155,0.184C94.784,20.715,94.733,20.654,94.681,20.593"/>
<path fill="#000000" d="M17.814,91.948c-0.244-0.239-0.483-0.483-0.722-0.728C17.332,91.465,17.571,91.709,17.814,91.948"/>
<path fill="#000000" d="M16.702,90.824c-0.341-0.356-0.677-0.719-1.009-1.084C16.024,90.105,16.36,90.468,16.702,90.824"/>
<path fill="#000000" d="M93.919,19.713c0.051,0.057,0.101,0.113,0.151,0.17C94.02,19.827,93.97,19.77,93.919,19.713"/>
<path fill="#000000" d="M86.316,12.665c0.116,0.088,0.231,0.177,0.347,0.266C86.548,12.842,86.433,12.753,86.316,12.665"/>
<path fill="#000000" d="M96.889,23.382c0.021,0.03,0.043,0.06,0.064,0.089C96.932,23.442,96.91,23.412,96.889,23.382"/>
<path fill="#000000" d="M87.267,13.403c0.105,0.084,0.21,0.169,0.314,0.253C87.477,13.572,87.372,13.487,87.267,13.403"/>
<path fill="#000000" d="M84.366,11.255c0.129,0.089,0.257,0.177,0.385,0.267C84.623,11.432,84.495,11.344,84.366,11.255"/>
<path fill="#000000" d="M18.969,93.048c-0.229-0.212-0.456-0.428-0.682-0.644C18.513,92.621,18.74,92.836,18.969,93.048"/>
<path fill="#000000" d="M82.364,9.941c0.132,0.083,0.264,0.164,0.396,0.247C82.628,10.104,82.496,10.024,82.364,9.941"/>
<path fill="#000000" d="M83.37,10.585c0.132,0.086,0.264,0.172,0.394,0.26C83.634,10.757,83.502,10.671,83.37,10.585"/>
<path fill="#000000" d="M46.513,106.388c-0.258-0.04-0.515-0.084-0.771-0.127C45.999,106.304,46.255,106.348,46.513,106.388"/>
<path fill="#000000" d="M102.683,33.383c0.007,0.014,0.013,0.029,0.019,0.042C102.695,33.412,102.689,33.397,102.683,33.383"/>
<path fill="#000000" d="M60.874,106.637c-0.311,0.037-0.622,0.069-0.935,0.101C60.252,106.706,60.563,106.674,60.874,106.637"/>
<path fill="#000000" d="M85.349,11.948c0.124,0.089,0.247,0.18,0.37,0.27C85.596,12.128,85.473,12.038,85.349,11.948"/>
<path fill="#000000" d="M48.184,2.402c0.241-0.029,0.481-0.056,0.723-0.083C48.666,2.346,48.425,2.373,48.184,2.402"/>
<path fill="#000000" d="M74.701,103.023c-0.343,0.142-0.688,0.278-1.034,0.414C74.014,103.302,74.358,103.165,74.701,103.023"/>
<path fill="#000000" d="M44.411,3.004c0.238-0.046,0.476-0.093,0.714-0.137C44.887,2.911,44.649,2.957,44.411,3.004"/>
<path fill="#000000" d="M43.154,3.268c0.244-0.054,0.488-0.108,0.734-0.16C43.643,3.159,43.398,3.213,43.154,3.268"/>
<path fill="#000000" d="M42.084,105.503c-0.279-0.068-0.557-0.14-0.834-0.212C41.528,105.363,41.806,105.435,42.084,105.503"/>
<path fill="#000000" d="M57.76,106.915c-0.351,0.021-0.704,0.035-1.058,0.05C57.056,106.95,57.409,106.936,57.76,106.915"/>
<path fill="#000000" d="M46.921,2.572c0.237-0.035,0.475-0.068,0.713-0.1C47.396,2.504,47.158,2.538,46.921,2.572"/>
<path fill="#000000" d="M106.574,46.997L106.574,46.997z"/>
<path fill="#000000" d="M45.665,2.773c0.236-0.041,0.472-0.081,0.708-0.118C46.136,2.693,45.9,2.732,45.665,2.773"/>
<path fill="#000000" d="M40.998,105.225c-0.279-0.075-0.558-0.152-0.836-0.232C40.44,105.072,40.718,105.149,40.998,105.225"/>
<path fill="#000000" d="M66.545,3.374c0.294,0.068,0.587,0.141,0.88,0.214C67.132,3.515,66.839,3.442,66.545,3.374"/>
<path fill="#000000" d="M25.813,98.406c-0.399-0.262-0.794-0.528-1.185-0.801C25.019,97.878,25.414,98.145,25.813,98.406"/>
<path fill="#000000" d="M73.313,103.577c-0.431,0.164-0.864,0.322-1.299,0.476C72.448,103.899,72.882,103.741,73.313,103.577"/>
<path fill="#000000" d="M36.742,5.132c0.206-0.075,0.414-0.146,0.622-0.219C37.156,4.985,36.948,5.057,36.742,5.132"/>
<path fill="#000000" d="M35.67,103.484c-0.253-0.098-0.505-0.197-0.755-0.299C35.166,103.287,35.417,103.387,35.67,103.484"/>
<path fill="#000000" d="M35.594,5.563c0.197-0.076,0.395-0.151,0.592-0.225C35.989,5.412,35.791,5.487,35.594,5.563"/>
<path fill="#000000" d="M37.904,4.726c0.223-0.074,0.446-0.146,0.67-0.217C38.35,4.581,38.126,4.652,37.904,4.726"/>
<path fill="#000000" d="M106.729,48.171c0.001,0.014,0.003,0.028,0.005,0.042C106.732,48.2,106.73,48.186,106.729,48.171"/>
<path fill="#000000" d="M39.078,4.347c0.275-0.085,0.552-0.166,0.829-0.247C39.63,4.181,39.353,4.262,39.078,4.347"/>
<path fill="#000000" d="M40.264,3.995c0.394-0.111,0.789-0.218,1.186-0.321C41.052,3.777,40.657,3.884,40.264,3.995"/>
<path fill="#000000" d="M27.354,99.384c-0.448-0.273-0.891-0.553-1.331-0.839C26.462,98.831,26.905,99.11,27.354,99.384"/>
<path fill="#000000" d="M55.911,2.027c-0.432-0.011-0.865-0.017-1.3-0.017c-0.435,0-0.869,0.006-1.301,0.017
	c0.432-0.011,0.866-0.017,1.301-0.017C55.046,2.01,55.479,2.016,55.911,2.027"/>
<path fill="#000000" d="M76.069,102.432c-0.306,0.138-0.612,0.271-0.921,0.401C75.457,102.702,75.764,102.569,76.069,102.432"/>
<path fill="#000000" d="M41.857,3.574c0.268-0.067,0.536-0.134,0.806-0.197C42.394,3.44,42.125,3.507,41.857,3.574"/>
<path fill="#000000" d="M49.455,2.263c0.248-0.024,0.496-0.045,0.744-0.066C49.951,2.217,49.702,2.238,49.455,2.263"/>
<path fill="#000000" d="M61.581,2.472c0.238,0.032,0.477,0.065,0.714,0.1C62.058,2.537,61.819,2.503,61.581,2.472"/>
<path fill="#000000" d="M106.175,44.612c0.003,0.011,0.005,0.022,0.007,0.033C106.18,44.634,106.178,44.624,106.175,44.612"/>
<path fill="#000000" d="M60.31,2.319c0.241,0.026,0.482,0.054,0.723,0.083C60.792,2.373,60.551,2.345,60.31,2.319"/>
<path fill="#000000" d="M62.84,2.654c0.238,0.038,0.475,0.077,0.713,0.118C63.314,2.731,63.078,2.691,62.84,2.654"/>
<path fill="#000000" d="M68.661,105.104c-0.383,0.106-0.768,0.21-1.154,0.308C67.894,105.313,68.278,105.21,68.661,105.104"/>
<path fill="#000000" d="M64.086,2.865c0.242,0.044,0.482,0.091,0.723,0.138C64.568,2.956,64.328,2.909,64.086,2.865"/>
<path fill="#000000" d="M65.321,3.105c0.252,0.052,0.503,0.108,0.754,0.164C65.824,3.213,65.573,3.157,65.321,3.105"/>
<path fill="#000000" d="M67.049,105.521c-0.339,0.083-0.679,0.163-1.021,0.239C66.37,105.685,66.71,105.604,67.049,105.521"/>
<path fill="#000000" d="M44.282,105.991c-0.273-0.054-0.544-0.111-0.816-0.171C43.738,105.88,44.009,105.938,44.282,105.991"/>
<path fill="#000000" d="M22.985,96.411c-0.363-0.275-0.723-0.554-1.079-0.837C22.262,95.857,22.622,96.136,22.985,96.411"/>
<path fill="#000000" d="M43.18,105.759c-0.277-0.062-0.553-0.126-0.828-0.191C42.627,105.633,42.903,105.697,43.18,105.759"/>
<path fill="#000000" d="M52.017,2.075c0.29-0.014,0.582-0.024,0.873-0.034C52.599,2.051,52.307,2.061,52.017,2.075"/>
<path fill="#000000" d="M50.731,2.153c0.261-0.02,0.522-0.035,0.784-0.05C51.254,2.119,50.992,2.134,50.731,2.153"/>
<path fill="#000000" d="M24.485,97.507c-0.417-0.293-0.828-0.592-1.235-0.896C23.657,96.915,24.069,97.214,24.485,97.507"/>
<path fill="#000000" d="M53.429,106.997c-0.152-0.004-0.303-0.011-0.454-0.015C53.126,106.986,53.277,106.993,53.429,106.997"/>
<path fill="#000000" d="M59.019,2.196c0.249,0.021,0.497,0.042,0.745,0.066C59.516,2.238,59.268,2.217,59.019,2.196"/>
<path fill="#000000" d="M106.387,45.791l0.006,0.04L106.387,45.791z"/>
<path fill="#000000" d="M57.704,2.104c0.262,0.015,0.522,0.03,0.782,0.049C58.227,2.134,57.966,2.119,57.704,2.104"/>
<path fill="#000000" d="M71.903,104.093c-0.966,0.337-1.944,0.646-2.935,0.927C69.959,104.738,70.938,104.43,71.903,104.093"/>
<path fill="#000000" d="M56.329,2.041c0.291,0.01,0.583,0.019,0.873,0.033C56.912,2.06,56.62,2.051,56.329,2.041"/>
<path fill="#000000" d="M70.56,10.022c0.149,0.054,0.3,0.107,0.449,0.162C70.859,10.129,70.709,10.076,70.56,10.022"/>
<path fill="#000000" d="M80.668,15.092c0.143,0.095,0.287,0.188,0.43,0.285C80.955,15.28,80.811,15.187,80.668,15.092"/>
<path fill="#000000" d="M82.809,16.594c0.149,0.111,0.297,0.225,0.444,0.338C83.105,16.819,82.958,16.705,82.809,16.594"/>
<path fill="#000000" d="M79.752,14.5c0.147,0.094,0.297,0.186,0.443,0.281C80.049,14.686,79.899,14.594,79.752,14.5"/>
<path fill="#000000" d="M81.604,15.729c0.25,0.174,0.497,0.35,0.743,0.529C82.102,16.079,81.854,15.902,81.604,15.729"/>
<path fill="#000000" d="M78.829,13.934c0.15,0.09,0.301,0.18,0.45,0.271C79.13,14.113,78.979,14.023,78.829,13.934"/>
<path fill="#000000" d="M77.894,13.388c0.152,0.086,0.303,0.172,0.453,0.26C78.196,13.561,78.046,13.474,77.894,13.388"/>
<path fill="#000000" d="M87.657,20.743c0.15,0.148,0.303,0.295,0.451,0.445C87.96,21.038,87.808,20.891,87.657,20.743"/>
<path fill="#000000" d="M83.661,17.245c0.149,0.117,0.298,0.236,0.446,0.355C83.959,17.48,83.811,17.362,83.661,17.245"/>
<path fill="#000000" d="M76.946,12.864c0.151,0.082,0.302,0.164,0.452,0.247C77.248,13.028,77.098,12.946,76.946,12.864"/>
<path fill="#000000" d="M88.354,21.44c0.563,0.575,1.112,1.164,1.646,1.767C89.467,22.604,88.918,22.015,88.354,21.44"/>
<path fill="#000000" d="M86.119,19.302c0.147,0.132,0.294,0.264,0.439,0.397C86.413,19.566,86.267,19.435,86.119,19.302"/>
<path fill="#000000" d="M85.316,18.6c0.148,0.127,0.296,0.254,0.442,0.383C85.612,18.854,85.465,18.727,85.316,18.6"/>
<path fill="#000000" d="M84.498,17.914c0.148,0.122,0.296,0.245,0.443,0.369C84.794,18.159,84.646,18.036,84.498,17.914"/>
<path fill="#000000" d="M71.609,10.413c0.142,0.055,0.284,0.109,0.425,0.165C71.894,10.522,71.751,10.468,71.609,10.413"/>
<path fill="#000000" d="M66.321,8.724c0.141,0.036,0.28,0.074,0.421,0.111C66.602,8.798,66.462,8.76,66.321,8.724"/>
<path fill="#000000" d="M75.985,12.362c0.149,0.076,0.296,0.153,0.443,0.229C76.281,12.515,76.135,12.438,75.985,12.362"/>
<path fill="#000000" d="M68.455,9.323c0.154,0.047,0.308,0.096,0.461,0.144C68.763,9.418,68.609,9.37,68.455,9.323"/>
<path fill="#000000" d="M67.394,9.011c0.15,0.042,0.301,0.086,0.45,0.13C67.694,9.098,67.544,9.054,67.394,9.011"/>
<path fill="#000000" d="M63.923,8.18C64,8.195,64.077,8.209,64.154,8.225C64.077,8.209,64,8.195,63.923,8.18"/>
<path fill="#000000" d="M62.65,7.944c0.135,0.023,0.27,0.045,0.404,0.069C62.92,7.989,62.785,7.968,62.65,7.944"/>
<path fill="#000000" d="M65.24,8.461c0.111,0.026,0.223,0.054,0.334,0.081C65.463,8.515,65.352,8.487,65.24,8.461"/>
<path fill="#000000" d="M74.027,11.421c0.106,0.048,0.212,0.099,0.317,0.147C74.239,11.52,74.134,11.47,74.027,11.421"/>
<path fill="#000000" d="M75.013,11.88c0.141,0.068,0.28,0.137,0.42,0.206C75.293,12.018,75.153,11.948,75.013,11.88"/>
<path fill="#000000" d="M69.511,9.66c0.153,0.051,0.307,0.103,0.459,0.155C69.817,9.762,69.664,9.711,69.511,9.66"/>
<path fill="#000000" d="M72.69,10.845c0.118,0.05,0.238,0.097,0.356,0.147C72.929,10.942,72.809,10.895,72.69,10.845"/>
<path fill="#000000" d="M90.235,23.471c0.146,0.168,0.289,0.337,0.433,0.506C90.524,23.809,90.381,23.639,90.235,23.471"/>
<path fill="#000000" d="M92.25,25.947c0.134,0.176,0.267,0.353,0.398,0.531C92.517,26.3,92.384,26.123,92.25,25.947"/>
<path fill="#000000" d="M90.928,24.285c0.14,0.167,0.277,0.336,0.414,0.505C91.205,24.621,91.067,24.452,90.928,24.285"/>
<path fill="#000000" d="M100.545,43.402c0.059,0.245,0.116,0.491,0.172,0.737C100.661,43.893,100.604,43.647,100.545,43.402"/>
<path fill="#000000" d="M100.994,45.471c0.054,0.278,0.107,0.556,0.155,0.835C101.102,46.027,101.048,45.749,100.994,45.471"/>
<path fill="#000000" d="M100.278,42.35c0.064,0.241,0.126,0.482,0.187,0.724C100.404,42.832,100.343,42.591,100.278,42.35"/>
<path fill="#000000" d="M101.672,50.292c0.033,0.374,0.062,0.748,0.086,1.124C101.733,51.04,101.704,50.665,101.672,50.292"/>
<path fill="#000000" d="M99.987,41.3c0.07,0.241,0.138,0.484,0.204,0.727C100.125,41.783,100.058,41.541,99.987,41.3"/>
<path fill="#000000" d="M101.778,51.741c0.021,0.35,0.036,0.702,0.049,1.053C101.814,52.442,101.799,52.091,101.778,51.741"/>
<path fill="#000000" d="M99.671,40.255c0.079,0.249,0.154,0.5,0.229,0.751C99.825,40.755,99.75,40.504,99.671,40.255"/>
<path fill="#000000" d="M27.574,43.512c7.334-3.061,14.262-5.953,28.505-5.953c14.243,0,21.17,2.892,28.504,5.953
	c4.833,2.017,9.779,4.079,16.927,5.224c0.054,0.444,0.101,0.89,0.143,1.337c-0.118-1.271-0.285-2.527-0.503-3.767
	c-6.412-1.106-10.954-2.999-15.661-4.963c-7.225-3.016-14.695-6.134-29.409-6.134c-14.714,0-22.186,3.119-29.41,6.134
	C21.259,43.602,16.066,45.766,8,46.747c-0.201,1.218-0.356,2.451-0.462,3.699c0.037-0.436,0.08-0.87,0.129-1.302
	C16.475,48.142,22.097,45.798,27.574,43.512"/>
<path fill="#000000" d="M101.831,56.049c-0.01,0.281-0.021,0.563-0.036,0.842C101.809,56.61,101.822,56.33,101.831,56.049"/>
<path fill="#000000" d="M101.84,53.141c0.014,0.455,0.021,0.911,0.021,1.369C101.861,54.052,101.854,53.596,101.84,53.141"/>
<path fill="#000000" d="M100.784,44.451c0.056,0.255,0.109,0.509,0.161,0.765C100.894,44.96,100.84,44.706,100.784,44.451"/>
<path fill="#000000" d="M93.477,27.638c0.137,0.196,0.272,0.393,0.405,0.592C93.749,28.031,93.613,27.834,93.477,27.638"/>
<path fill="#000000" d="M94.017,28.434c0.502,0.756,0.982,1.528,1.441,2.315C94.999,29.962,94.519,29.19,94.017,28.434"/>
<path fill="#000000" d="M92.878,26.792c0.133,0.184,0.266,0.367,0.396,0.553C93.144,27.16,93.011,26.976,92.878,26.792"/>
<path fill="#000000" d="M61.492,7.761c0.151,0.021,0.302,0.043,0.451,0.066C61.794,7.804,61.644,7.782,61.492,7.761"/>
<path fill="#000000" d="M91.6,25.109c0.136,0.171,0.271,0.343,0.404,0.516C91.87,25.452,91.735,25.28,91.6,25.109"/>
<path fill="#000000" d="M95.522,30.857c0.13,0.224,0.256,0.449,0.381,0.675C95.778,31.307,95.652,31.081,95.522,30.857"/>
<path fill="#000000" d="M97.921,35.599c0.103,0.235,0.205,0.47,0.304,0.707C98.126,36.069,98.023,35.834,97.921,35.599"/>
<path fill="#000000" d="M98.307,36.506c0.478,1.159,0.91,2.34,1.297,3.543C99.217,38.846,98.784,37.665,98.307,36.506"/>
<path fill="#000000" d="M97.492,34.647c0.103,0.221,0.204,0.443,0.304,0.666C97.696,35.09,97.595,34.869,97.492,34.647"/>
<path fill="#000000" d="M97.035,33.689c0.105,0.215,0.21,0.431,0.313,0.647C97.245,34.12,97.141,33.904,97.035,33.689"/>
<path fill="#000000" d="M96.049,31.792c0.117,0.213,0.231,0.428,0.346,0.644C96.28,32.22,96.166,32.005,96.049,31.792"/>
<path fill="#000000" d="M96.554,32.737c0.11,0.212,0.219,0.425,0.325,0.639C96.772,33.162,96.664,32.949,96.554,32.737"/>
<path fill="#000000" d="M86.901,20.019c0.147,0.139,0.295,0.276,0.441,0.417C87.196,20.295,87.049,20.158,86.901,20.019"/>
<path fill="#000000" d="M21.733,20.579c0.184-0.178,0.369-0.355,0.556-0.53C22.103,20.224,21.917,20.401,21.733,20.579"/>
<path fill="#000000" d="M20.975,21.33c0.186-0.188,0.374-0.375,0.563-0.56C21.349,20.955,21.161,21.142,20.975,21.33"/>
<path fill="#000000" d="M22.502,19.851c0.187-0.173,0.374-0.345,0.563-0.515C22.876,19.506,22.688,19.678,22.502,19.851"/>
<path fill="#000000" d="M23.279,19.146c0.193-0.171,0.386-0.341,0.582-0.51C23.666,18.805,23.472,18.975,23.279,19.146"/>
<path fill="#000000" d="M16.927,26.007c1.009-1.333,2.088-2.61,3.23-3.826C19.015,23.397,17.936,24.675,16.927,26.007"/>
<path fill="#000000" d="M20.233,22.099c0.194-0.206,0.391-0.409,0.588-0.61C20.624,21.69,20.427,21.894,20.233,22.099"/>
<path fill="#000000" d="M24.734,17.906c0.716-0.585,1.45-1.148,2.2-1.691C26.185,16.757,25.451,17.321,24.734,17.906"/>
<path fill="#000000" d="M28.923,14.85c0.177-0.115,0.354-0.228,0.533-0.34C29.278,14.622,29.1,14.735,28.923,14.85"/>
<path fill="#000000" d="M28.023,15.448c0.18-0.123,0.362-0.243,0.544-0.364C28.385,15.205,28.203,15.325,28.023,15.448"/>
<path fill="#000000" d="M29.838,14.271c0.175-0.107,0.35-0.215,0.526-0.32C30.188,14.056,30.013,14.163,29.838,14.271"/>
<path fill="#000000" d="M27.137,16.067c0.189-0.136,0.381-0.269,0.573-0.402C27.518,15.798,27.326,15.931,27.137,16.067"/>
<path fill="#000000" d="M16.355,26.779c0.188-0.259,0.378-0.517,0.571-0.771C16.733,26.263,16.543,26.521,16.355,26.779"/>
<path fill="#000000" d="M24.05,18.478c0.208-0.176,0.416-0.353,0.626-0.525C24.465,18.125,24.257,18.302,24.05,18.478"/>
<path fill="#000000" d="M7.389,52.969c0.012-0.375,0.027-0.749,0.048-1.121C7.417,52.22,7.401,52.594,7.389,52.969"/>
<path fill="#000000" d="M7.393,56.198c-0.004-0.102-0.006-0.203-0.009-0.306C7.387,55.995,7.389,56.097,7.393,56.198"/>
<path fill="#000000" d="M7.476,57.78c-0.006-0.085-0.013-0.169-0.018-0.254C7.463,57.611,7.47,57.695,7.476,57.78"/>
<path fill="#000000" d="M7.361,54.51c0-0.439,0.007-0.878,0.019-1.315C7.369,53.632,7.361,54.07,7.361,54.51"/>
<path fill="#000000" d="M7.788,60.857c-0.017-0.124-0.033-0.247-0.049-0.371C7.754,60.61,7.771,60.733,7.788,60.857"/>
<path fill="#000000" d="M7.595,59.225c-0.009-0.097-0.017-0.193-0.026-0.291C7.578,59.031,7.586,59.128,7.595,59.225"/>
<path fill="#000000" d="M30.77,13.711c0.174-0.102,0.347-0.203,0.522-0.303C31.117,13.508,30.943,13.609,30.77,13.711"/>
<path fill="#000000" d="M14.606,29.361c0.17-0.271,0.344-0.539,0.52-0.806C14.951,28.822,14.777,29.091,14.606,29.361"/>
<path fill="#000000" d="M15.766,27.609c0.176-0.253,0.354-0.506,0.535-0.755C16.12,27.104,15.941,27.356,15.766,27.609"/>
<path fill="#000000" d="M15.18,28.474c0.171-0.258,0.344-0.514,0.519-0.768C15.523,27.96,15.351,28.216,15.18,28.474"/>
<path fill="#000000" d="M7.447,51.706c0.024-0.408,0.052-0.815,0.087-1.221C7.5,50.89,7.47,51.297,7.447,51.706"/>
<path fill="#000000" d="M10.846,36.679c1.04-2.55,2.296-4.989,3.746-7.294C13.142,31.689,11.886,34.128,10.846,36.679"/>
<path fill="#000000" d="M8,46.746c0.579-3.5,1.542-6.869,2.844-10.064C9.542,39.877,8.579,43.246,8,46.746"/>
<path fill="#000000" d="M46.141,8.019c0.147-0.027,0.296-0.051,0.444-0.077C46.437,7.968,46.288,7.992,46.141,8.019"/>
<path fill="#000000" d="M48.379,7.67c0.161-0.021,0.322-0.042,0.483-0.061C48.702,7.628,48.54,7.648,48.379,7.67"/>
<path fill="#000000" d="M47.255,7.831c0.157-0.024,0.314-0.047,0.471-0.07C47.569,7.784,47.412,7.807,47.255,7.831"/>
<path fill="#000000" d="M49.518,7.534C49.678,7.517,49.839,7.5,50,7.484C49.839,7.5,49.678,7.517,49.518,7.534"/>
<path fill="#000000" d="M60.352,7.608c0.157,0.02,0.314,0.039,0.471,0.059C60.666,7.646,60.509,7.627,60.352,7.608"/>
<path fill="#000000" d="M50.669,7.425c0.158-0.013,0.317-0.026,0.477-0.038C50.986,7.399,50.827,7.412,50.669,7.425"/>
<path fill="#000000" d="M45.038,8.231c0.124-0.025,0.248-0.048,0.372-0.073C45.285,8.184,45.161,8.206,45.038,8.231"/>
<path fill="#000000" d="M56.923,7.317c0.149,0.007,0.299,0.017,0.448,0.025C57.222,7.334,57.072,7.324,56.923,7.317"/>
<path fill="#000000" d="M43.751,8.516c0.068-0.016,0.135-0.033,0.202-0.049C43.886,8.483,43.819,8.5,43.751,8.516"/>
<path fill="#000000" d="M58.069,7.387c0.158,0.011,0.314,0.024,0.472,0.037C58.384,7.411,58.228,7.398,58.069,7.387"/>
<path fill="#000000" d="M55.77,7.275c0.127,0.003,0.254,0.009,0.381,0.013C56.023,7.284,55.896,7.278,55.77,7.275"/>
<path fill="#000000" d="M53.069,7.288c0.127-0.004,0.253-0.01,0.38-0.013C53.322,7.278,53.196,7.284,53.069,7.288"/>
<path fill="#000000" d="M51.841,7.343c0.151-0.009,0.302-0.019,0.453-0.026C52.143,7.325,51.993,7.334,51.841,7.343"/>
<path fill="#000000" d="M39.197,9.834c0.163-0.056,0.326-0.112,0.49-0.167C39.523,9.723,39.36,9.778,39.197,9.834"/>
<path fill="#000000" d="M33.667,12.148c0.274-0.136,0.55-0.269,0.828-0.4C34.217,11.878,33.941,12.012,33.667,12.148"/>
<path fill="#000000" d="M35.107,11.462c0.156-0.071,0.313-0.139,0.47-0.208C35.42,11.323,35.263,11.391,35.107,11.462"/>
<path fill="#000000" d="M42.457,8.841c0.138-0.037,0.276-0.075,0.414-0.11C42.733,8.767,42.595,8.805,42.457,8.841"/>
<path fill="#000000" d="M36.11,11.021c0.16-0.068,0.321-0.133,0.482-0.2C36.431,10.888,36.27,10.953,36.11,11.021"/>
<path fill="#000000" d="M32.675,12.654c0.172-0.091,0.344-0.182,0.518-0.271C33.019,12.472,32.847,12.563,32.675,12.654"/>
<path fill="#000000" d="M59.213,7.484c0.159,0.016,0.317,0.031,0.476,0.048C59.53,7.515,59.372,7.5,59.213,7.484"/>
<path fill="#000000" d="M41.337,9.153c0.154-0.045,0.307-0.091,0.461-0.134C41.645,9.063,41.491,9.108,41.337,9.153"/>
<path fill="#000000" d="M40.256,9.483c0.16-0.051,0.32-0.102,0.481-0.151C40.577,9.381,40.417,9.432,40.256,9.483"/>
<path fill="#000000" d="M37.126,10.603c0.162-0.064,0.325-0.127,0.488-0.19C37.452,10.476,37.289,10.538,37.126,10.603"/>
<path fill="#000000" d="M38.154,10.208c0.164-0.061,0.328-0.12,0.492-0.179C38.482,10.087,38.318,10.147,38.154,10.208"/>
<path fill="#000000" d="M31.714,13.173c0.174-0.097,0.347-0.193,0.522-0.287C32.061,12.98,31.888,13.076,31.714,13.173"/>
<path fill="#000000" d="M67.352,100.021c0.393-0.11,0.784-0.225,1.173-0.344c-0.326-0.145-0.645-0.296-0.952-0.457
	C67.541,99.496,67.464,99.763,67.352,100.021"/>
<path fill="#000000" d="M61.287,95.074c0.178-0.011,0.358-0.018,0.541-0.018c-0.188,0-0.373-0.006-0.557-0.015
	C61.276,95.054,61.282,95.064,61.287,95.074"/>
<path fill="#000000" d="M63.019,95.14c-0.026-0.044-0.051-0.09-0.076-0.134c-0.365,0.032-0.736,0.051-1.114,0.051
	C62.237,95.057,62.635,95.086,63.019,95.14"/>
<g opacity="0.7">
	<g>
		<defs>
			<rect id="SVGID_1_" x="26.349" y="87.137" width="13.377" height="11.6"/>
		</defs>
		<clipPath id="SVGID_2_">
			<use xlink:href="#SVGID_1_"  overflow="visible"/>
		</clipPath>
		<path clip-path="url(#SVGID_2_)" fill="#000000" d="M39.727,93.103c-3.373-1.159-5.824-3.355-6.413-5.965
			c-1.226,1.156-2.844,2.142-4.728,2.787c-0.363,0.125-0.726,0.231-1.087,0.324c0.056,0.339,0.037,0.675-0.078,0.991
			c-0.181,0.494-0.561,0.879-1.071,1.139c3.521,2.632,7.421,4.781,11.603,6.357c-0.096-0.411-0.147-0.831-0.147-1.26
			C37.805,95.863,38.513,94.362,39.727,93.103"/>
	</g>
</g>
<g opacity="0.4">
	<g>
		<defs>
			<rect id="SVGID_3_" x="56.063" y="95.057" width="11.509" height="6.598"/>
		</defs>
		<clipPath id="SVGID_4_">
			<use xlink:href="#SVGID_3_"  overflow="visible"/>
		</clipPath>
		<path clip-path="url(#SVGID_4_)" fill="#000000" d="M63.019,95.14c-0.384-0.054-0.781-0.083-1.19-0.083
			c-0.183,0-0.362,0.007-0.541,0.018c-2.931,0.184-5.225,1.839-5.225,3.854c0,1.064,0.643,2.026,1.68,2.726
			c3.308-0.217,6.522-0.771,9.609-1.634c0.112-0.257,0.189-0.525,0.221-0.801C65.575,98.172,63.991,96.767,63.019,95.14"/>
	</g>
</g>
<path fill="#000000" d="M83.568,88.65c0.353,0.502,0.556,1.06,0.556,1.651c0,0.508-0.149,0.992-0.414,1.437
	c1.195-0.937,2.346-1.929,3.445-2.974c-0.396,0.026-0.797,0.045-1.204,0.045C85.136,88.81,84.339,88.754,83.568,88.65"/>
<g opacity="0.7">
	<g>
		<defs>
			<rect id="SVGID_5_" x="53.417" y="71.401" width="19.81" height="23.655"/>
		</defs>
		<clipPath id="SVGID_6_">
			<use xlink:href="#SVGID_5_"  overflow="visible"/>
		</clipPath>
		<path clip-path="url(#SVGID_6_)" fill="#000000" d="M57.2,85.918c0,2.126-1.228,4.06-3.23,5.501
			c1.144,2.015,3.955,3.477,7.3,3.623c0.185,0.009,0.37,0.015,0.558,0.015c0.378,0,0.75-0.019,1.114-0.051
			c4.117-0.367,7.294-2.732,7.294-5.597c0-0.837-0.272-1.63-0.759-2.344c1.333-0.32,2.557-0.794,3.624-1.39
			c0.001-0.016,0.002-0.03,0.003-0.045c-0.905,0.189-1.869,0.292-2.868,0.292c-5.307,0-9.609-2.89-9.609-6.454
			s4.303-6.453,9.609-6.453c1.045,0,2.049,0.112,2.989,0.32c-2.099-1.206-4.82-1.935-7.797-1.935
			c-6.634,0-12.012,3.612-12.012,8.067c0,0.202,0.015,0.4,0.037,0.599C55.76,81.537,57.2,83.613,57.2,85.918"/>
	</g>
</g>
<g opacity="0.7">
	<g>
		<defs>
			<rect id="SVGID_7_" x="75.595" y="72.7" width="20.022" height="16.108"/>
		</defs>
		<clipPath id="SVGID_8_">
			<use xlink:href="#SVGID_7_"  overflow="visible"/>
		</clipPath>
		<path clip-path="url(#SVGID_8_)" fill="#000000" d="M85.033,72.7c-3.012,0.153-5.712,1.051-7.695,2.422
			c1.558,1.146,2.508,2.672,2.508,4.348c0,2.231-1.687,4.198-4.251,5.357c0.53,0.604,1.172,1.159,1.91,1.649
			c0.279-0.028,0.563-0.047,0.854-0.047c2.304,0,4.286,0.909,5.21,2.221c0.771,0.104,1.567,0.159,2.383,0.159
			c0.407,0,0.808-0.019,1.204-0.045c3.313-3.149,6.171-6.773,8.462-10.764c-1.229-0.186-2.521-0.51-3.829-0.986
			C88.876,75.953,86.486,74.368,85.033,72.7"/>
	</g>
</g>
<g opacity="0.4">
	<g>
		<defs>
			<rect id="SVGID_9_" x="83.501" y="65.824" width="16.072" height="12.178"/>
		</defs>
		<clipPath id="SVGID_10_">
			<use xlink:href="#SVGID_9_"  overflow="visible"/>
		</clipPath>
		<path clip-path="url(#SVGID_10_)" fill="#000000" d="M83.668,68.382c-0.473,1.299,0.078,2.841,1.365,4.319
			c1.453,1.666,3.843,3.252,6.755,4.313c1.308,0.477,2.602,0.801,3.829,0.986c1.612-2.81,2.942-5.801,3.956-8.936
			c-1.189-0.793-2.588-1.503-4.134-2.067C89.946,64.996,84.677,65.615,83.668,68.382"/>
	</g>
</g>
<path fill="#000000" d="M27.419,91.24c0.116-0.316,0.135-0.652,0.079-0.991c-1.128,0.29-2.241,0.425-3.295,0.423
	c0.699,0.588,1.413,1.159,2.146,1.707C26.859,92.119,27.239,91.734,27.419,91.24"/>
<g opacity="0.4">
	<g>
		<defs>
			<rect id="SVGID_11_" x="72.594" y="86.429" width="11.531" height="7.745"/>
		</defs>
		<clipPath id="SVGID_12_">
			<use xlink:href="#SVGID_11_"  overflow="visible"/>
		</clipPath>
		<path clip-path="url(#SVGID_12_)" fill="#000000" d="M83.568,88.65c-0.924-1.312-2.906-2.221-5.21-2.221
			c-0.291,0-0.574,0.019-0.854,0.047c-2.778,0.277-4.911,1.882-4.911,3.825c0,2.139,2.581,3.872,5.765,3.872
			c0.916,0,1.779-0.147,2.547-0.402c0.961-0.644,1.896-1.322,2.805-2.033c0.265-0.444,0.414-0.929,0.414-1.437
			C84.124,89.71,83.921,89.152,83.568,88.65"/>
	</g>
</g>
<g opacity="0.4">
	<g>
		<defs>
			<rect id="SVGID_13_" x="60.627" y="73.016" width="19.219" height="12.906"/>
		</defs>
		<clipPath id="SVGID_14_">
			<use xlink:href="#SVGID_13_"  overflow="visible"/>
		</clipPath>
		<path clip-path="url(#SVGID_14_)" fill="#000000" d="M60.627,79.47c0,3.563,4.303,6.453,9.609,6.453
			c0.999,0,1.963-0.103,2.869-0.292c0.893-0.188,1.729-0.46,2.489-0.804c2.564-1.159,4.251-3.126,4.251-5.357
			c0-1.675-0.95-3.201-2.507-4.348c-1.105-0.814-2.518-1.437-4.112-1.787c-0.941-0.207-1.946-0.319-2.99-0.319
			C64.93,73.016,60.627,75.904,60.627,79.47"/>
	</g>
</g>
<g opacity="0.4">
	<g>
		<defs>
			<rect id="SVGID_15_" x="17.479" y="76.964" width="18.343" height="13.708"/>
		</defs>
		<clipPath id="SVGID_16_">
			<use xlink:href="#SVGID_15_"  overflow="visible"/>
		</clipPath>
		<path clip-path="url(#SVGID_16_)" fill="#000000" d="M28.585,89.925c1.884-0.646,3.502-1.631,4.728-2.787
			c2.04-1.926,2.991-4.327,2.27-6.434c-1.156-3.372-6.163-4.711-11.183-2.989c-3.49,1.196-6.062,3.557-6.92,6.017
			c1.999,2.537,4.254,4.861,6.723,6.939c1.054,0.003,2.167-0.132,3.295-0.422C27.86,90.156,28.223,90.05,28.585,89.925"/>
	</g>
</g>
<path fill="#000000" d="M83.71,91.738c-0.908,0.711-1.844,1.39-2.805,2.033C82.176,93.351,83.181,92.627,83.71,91.738"/>
<path fill="#000000" d="M107.095,53.199c-0.01-0.371-0.024-0.741-0.041-1.11c-0.003-0.057-0.004-0.114-0.006-0.171
	c-0.043-0.854-0.105-1.703-0.188-2.546c-0.037-0.388-0.08-0.773-0.126-1.158c-0.002-0.015-0.004-0.028-0.005-0.042
	c-0.048-0.393-0.1-0.784-0.155-1.174s-0.116-0.779-0.182-1.166c-0.002-0.013-0.004-0.026-0.006-0.04
	c-0.064-0.383-0.133-0.765-0.205-1.146c-0.002-0.011-0.004-0.022-0.006-0.033c-0.744-3.899-1.92-7.646-3.475-11.187
	c-0.006-0.014-0.012-0.028-0.019-0.042c-0.148-0.339-0.302-0.675-0.458-1.011c-0.01-0.022-0.02-0.043-0.029-0.065
	c-0.156-0.333-0.314-0.664-0.478-0.993c-0.009-0.018-0.018-0.037-0.027-0.055c-1.355-2.74-2.943-5.344-4.736-7.788
	c-0.022-0.03-0.044-0.06-0.065-0.089c-0.198-0.269-0.4-0.535-0.604-0.8c-0.038-0.05-0.076-0.101-0.115-0.151
	c-0.195-0.253-0.394-0.504-0.594-0.753c-0.048-0.059-0.096-0.118-0.143-0.177c-0.197-0.244-0.396-0.485-0.598-0.725
	c-0.051-0.062-0.103-0.123-0.155-0.184c-0.201-0.238-0.404-0.475-0.61-0.709c-0.051-0.057-0.101-0.114-0.151-0.17
	c-0.211-0.239-0.424-0.476-0.64-0.71c-0.039-0.043-0.078-0.085-0.118-0.127c-0.229-0.249-0.46-0.496-0.694-0.739
	c-0.002-0.002-0.003-0.004-0.005-0.005c-1.021-1.063-2.089-2.081-3.195-3.055c-0.05-0.043-0.099-0.088-0.148-0.131
	c-0.217-0.189-0.438-0.376-0.657-0.563c-0.087-0.073-0.172-0.146-0.259-0.219c-0.205-0.171-0.413-0.34-0.621-0.508
	c-0.104-0.084-0.208-0.169-0.314-0.252c-0.199-0.159-0.4-0.316-0.604-0.473c-0.115-0.089-0.23-0.178-0.347-0.267
	c-0.198-0.15-0.397-0.299-0.599-0.447c-0.122-0.09-0.245-0.18-0.369-0.269c-0.198-0.144-0.397-0.287-0.598-0.427
	c-0.128-0.089-0.256-0.178-0.385-0.267c-0.2-0.138-0.4-0.275-0.603-0.411c-0.13-0.087-0.262-0.173-0.394-0.259
	c-0.203-0.133-0.405-0.266-0.61-0.396c-0.131-0.083-0.264-0.165-0.396-0.247c-0.208-0.13-0.417-0.261-0.627-0.388
	c-0.117-0.071-0.235-0.139-0.354-0.209c-0.479-0.284-0.962-0.562-1.45-0.832c-0.078-0.043-0.154-0.087-0.233-0.13
	c-0.195-0.106-0.394-0.209-0.591-0.313c-0.162-0.086-0.323-0.173-0.485-0.257c-0.189-0.097-0.38-0.191-0.569-0.286
	c-0.174-0.087-0.348-0.174-0.522-0.259c-0.187-0.091-0.375-0.18-0.563-0.268c-0.181-0.085-0.361-0.171-0.543-0.254
	c-0.187-0.085-0.374-0.168-0.562-0.251c-0.187-0.083-0.373-0.165-0.561-0.245c-0.186-0.08-0.372-0.158-0.559-0.236
	c-0.192-0.08-0.386-0.159-0.579-0.237c-0.185-0.074-0.37-0.147-0.556-0.22c-0.198-0.077-0.398-0.152-0.598-0.228
	c-0.184-0.068-0.366-0.137-0.551-0.203c-0.206-0.075-0.414-0.147-0.622-0.219c-0.18-0.063-0.358-0.125-0.539-0.186
	c-0.221-0.074-0.441-0.144-0.663-0.215c-0.17-0.054-0.339-0.11-0.51-0.163c-0.255-0.079-0.512-0.154-0.769-0.229
	c-0.14-0.041-0.277-0.083-0.417-0.123c-0.393-0.111-0.788-0.218-1.185-0.321c-0.11-0.028-0.223-0.054-0.333-0.082
	c-0.293-0.073-0.585-0.146-0.88-0.214c-0.156-0.037-0.313-0.069-0.47-0.104c-0.251-0.056-0.502-0.112-0.754-0.164
	c-0.17-0.035-0.342-0.068-0.513-0.102c-0.24-0.047-0.481-0.095-0.723-0.139c-0.178-0.032-0.355-0.063-0.534-0.093
	c-0.236-0.041-0.474-0.081-0.712-0.118c-0.182-0.029-0.363-0.056-0.545-0.083c-0.237-0.035-0.476-0.068-0.714-0.1
	c-0.183-0.024-0.366-0.048-0.549-0.07c-0.24-0.029-0.481-0.056-0.723-0.083c-0.183-0.02-0.364-0.039-0.547-0.057
	c-0.247-0.024-0.495-0.046-0.744-0.066c-0.177-0.015-0.354-0.03-0.532-0.043c-0.259-0.019-0.521-0.034-0.782-0.049
	c-0.167-0.01-0.334-0.021-0.502-0.029c-0.29-0.014-0.582-0.023-0.873-0.033c-0.139-0.004-0.278-0.011-0.418-0.015
	c-0.432-0.01-0.865-0.016-1.3-0.016s-0.869,0.006-1.301,0.016c-0.141,0.004-0.28,0.01-0.42,0.015
	c-0.292,0.01-0.583,0.02-0.873,0.034c-0.167,0.008-0.334,0.019-0.501,0.029c-0.262,0.015-0.523,0.031-0.784,0.049
	c-0.178,0.013-0.355,0.029-0.533,0.043c-0.249,0.021-0.497,0.042-0.744,0.066C49.271,2.28,49.089,2.3,48.907,2.32
	c-0.242,0.026-0.483,0.053-0.723,0.083c-0.184,0.022-0.367,0.046-0.55,0.07c-0.238,0.032-0.476,0.065-0.712,0.1
	c-0.183,0.027-0.366,0.054-0.548,0.083c-0.237,0.037-0.473,0.077-0.708,0.118c-0.18,0.031-0.36,0.061-0.539,0.094
	c-0.239,0.044-0.477,0.09-0.715,0.137c-0.174,0.034-0.349,0.068-0.522,0.104c-0.246,0.051-0.49,0.105-0.734,0.16
	c-0.164,0.037-0.328,0.071-0.491,0.109c-0.27,0.063-0.538,0.13-0.806,0.197c-0.136,0.034-0.272,0.066-0.408,0.101
	c-0.397,0.103-0.792,0.209-1.186,0.321c-0.12,0.034-0.238,0.071-0.357,0.105c-0.277,0.081-0.554,0.162-0.829,0.247
	c-0.169,0.052-0.336,0.108-0.504,0.162c-0.224,0.072-0.447,0.143-0.67,0.217c-0.18,0.061-0.36,0.124-0.54,0.187
	c-0.208,0.072-0.416,0.145-0.622,0.219c-0.186,0.067-0.371,0.136-0.556,0.206c-0.197,0.074-0.396,0.149-0.592,0.225
	c-0.188,0.073-0.376,0.148-0.563,0.224c-0.191,0.077-0.382,0.155-0.572,0.234c-0.189,0.079-0.378,0.158-0.566,0.239
	c-0.186,0.08-0.37,0.161-0.554,0.242c-0.19,0.084-0.381,0.17-0.57,0.256c-0.178,0.082-0.355,0.165-0.533,0.249
	c-0.192,0.091-0.384,0.182-0.575,0.274c-0.171,0.083-0.341,0.168-0.51,0.254c-0.194,0.097-0.389,0.194-0.582,0.293
	c-0.16,0.083-0.318,0.167-0.477,0.252c-0.2,0.106-0.401,0.211-0.6,0.32c-0.131,0.072-0.261,0.146-0.391,0.219
	c-0.795,0.443-1.578,0.906-2.347,1.388c-0.106,0.067-0.214,0.132-0.32,0.2c-0.218,0.139-0.434,0.281-0.649,0.423
	c-0.119,0.078-0.238,0.155-0.356,0.234c-0.211,0.142-0.42,0.286-0.629,0.43c-0.12,0.083-0.24,0.165-0.359,0.249
	c-0.208,0.146-0.413,0.294-0.618,0.443c-0.117,0.085-0.234,0.169-0.351,0.256c-0.206,0.151-0.41,0.305-0.614,0.46
	c-0.111,0.085-0.223,0.17-0.333,0.256c-0.207,0.16-0.413,0.321-0.617,0.484c-0.102,0.082-0.205,0.164-0.307,0.247
	c-0.21,0.17-0.419,0.341-0.626,0.515c-0.089,0.075-0.178,0.15-0.267,0.226c-0.217,0.184-0.434,0.369-0.648,0.557
	c-0.067,0.059-0.134,0.119-0.201,0.179c-0.233,0.207-0.466,0.414-0.696,0.624c-0.021,0.019-0.041,0.038-0.061,0.057
	c-1.376,1.265-2.685,2.603-3.919,4.006c-0.023,0.026-0.046,0.052-0.069,0.078c-0.223,0.254-0.441,0.51-0.659,0.768
	c-0.037,0.044-0.074,0.087-0.111,0.131c-0.211,0.252-0.419,0.507-0.626,0.763c-0.04,0.049-0.079,0.098-0.119,0.147
	c-0.206,0.257-0.409,0.516-0.609,0.776c-0.037,0.047-0.073,0.094-0.108,0.142c-0.205,0.267-0.406,0.536-0.605,0.807
	c-0.027,0.037-0.054,0.074-0.081,0.111c-0.208,0.284-0.412,0.569-0.614,0.857c-0.011,0.015-0.021,0.031-0.032,0.046
	c-1.975,2.828-3.68,5.859-5.074,9.056c-0.002,0.004-0.004,0.009-0.006,0.013c-0.155,0.354-0.305,0.71-0.452,1.069
	c0,0.001-0.001,0.003-0.002,0.005c-1.626,3.97-2.78,8.183-3.392,12.57c-0.054,0.388-0.104,0.776-0.149,1.167
	c-0.001,0.01-0.002,0.02-0.003,0.029c-0.045,0.388-0.086,0.777-0.123,1.168c-0.076,0.809-0.134,1.623-0.173,2.441
	c-0.003,0.083-0.006,0.166-0.009,0.249c-0.014,0.328-0.027,0.656-0.036,0.986c-0.01,0.425-0.016,0.852-0.016,1.278
	c0,0.55,0.012,1.096,0.028,1.641c0.005,0.159,0.011,0.317,0.018,0.476c0.017,0.414,0.038,0.828,0.064,1.24
	c0.009,0.146,0.017,0.291,0.027,0.436c0.038,0.529,0.083,1.057,0.136,1.581c0.013,0.121,0.028,0.241,0.041,0.361
	c0.044,0.413,0.094,0.825,0.148,1.235c0.024,0.18,0.049,0.36,0.075,0.541c0.056,0.388,0.116,0.773,0.18,1.158
	c0.024,0.145,0.046,0.29,0.071,0.435c0.085,0.492,0.18,0.981,0.279,1.469c0.039,0.187,0.079,0.371,0.12,0.557
	c0.071,0.329,0.145,0.657,0.222,0.983c0.048,0.204,0.096,0.408,0.147,0.61c0.092,0.369,0.188,0.736,0.288,1.103
	c0.064,0.235,0.13,0.471,0.197,0.704c0.102,0.354,0.207,0.708,0.315,1.059c0.067,0.217,0.137,0.432,0.207,0.647
	c0.092,0.281,0.186,0.562,0.282,0.842c0.073,0.211,0.145,0.421,0.219,0.631c0.156,0.436,0.316,0.868,0.483,1.298
	c0.074,0.191,0.154,0.382,0.23,0.572c0.114,0.283,0.229,0.565,0.348,0.846c0.089,0.211,0.179,0.422,0.271,0.631
	c0.102,0.231,0.207,0.462,0.311,0.691c0.084,0.185,0.167,0.369,0.253,0.552c0.182,0.388,0.371,0.771,0.562,1.154
	c0.025,0.051,0.049,0.103,0.075,0.152c0.163,0.322,0.331,0.642,0.5,0.96c0.076,0.143,0.151,0.286,0.228,0.428
	c0.161,0.298,0.326,0.593,0.493,0.887c0.09,0.158,0.181,0.315,0.272,0.473c0.167,0.286,0.334,0.571,0.506,0.854
	c0.094,0.155,0.191,0.309,0.287,0.463c0.177,0.285,0.353,0.569,0.535,0.85c0.06,0.093,0.123,0.184,0.184,0.276
	c0.367,0.559,0.746,1.11,1.134,1.654c0.119,0.166,0.236,0.334,0.357,0.499c0.171,0.235,0.347,0.467,0.523,0.699
	c0.142,0.187,0.283,0.374,0.427,0.559c0.172,0.221,0.346,0.439,0.521,0.657c0.156,0.195,0.314,0.389,0.474,0.581
	c0.171,0.206,0.342,0.412,0.516,0.616c0.177,0.208,0.358,0.413,0.54,0.618c0.162,0.185,0.322,0.371,0.487,0.552
	c0.332,0.366,0.667,0.729,1.009,1.085c0.129,0.134,0.261,0.264,0.391,0.396c0.239,0.244,0.478,0.488,0.722,0.728
	c0.156,0.154,0.314,0.304,0.473,0.456c0.226,0.216,0.452,0.432,0.682,0.644c0.162,0.149,0.324,0.298,0.487,0.444
	c0.239,0.216,0.479,0.429,0.722,0.64c0.154,0.134,0.309,0.27,0.465,0.401c0.366,0.312,0.734,0.619,1.109,0.919
	c0.05,0.041,0.103,0.081,0.154,0.122c0.355,0.283,0.715,0.563,1.079,0.837c0.088,0.066,0.177,0.134,0.265,0.2
	c0.408,0.303,0.819,0.603,1.235,0.895c0.047,0.034,0.095,0.065,0.143,0.1c0.391,0.272,0.786,0.539,1.185,0.801
	c0.07,0.047,0.14,0.093,0.21,0.139c0.439,0.286,0.883,0.565,1.331,0.839c0.043,0.025,0.086,0.051,0.129,0.077
	c0.43,0.26,0.863,0.514,1.301,0.762c0.053,0.029,0.106,0.061,0.16,0.091c0.233,0.131,0.467,0.259,0.703,0.386
	c0.087,0.048,0.174,0.096,0.261,0.142c0.237,0.128,0.476,0.251,0.715,0.375c0.087,0.045,0.174,0.09,0.262,0.135
	c0.239,0.121,0.48,0.24,0.722,0.358c0.09,0.044,0.179,0.088,0.27,0.132c0.241,0.116,0.484,0.229,0.728,0.343
	c0.091,0.042,0.183,0.084,0.274,0.126c0.243,0.111,0.488,0.22,0.733,0.327c0.094,0.041,0.187,0.082,0.281,0.122
	c0.246,0.106,0.493,0.21,0.741,0.312c0.093,0.039,0.187,0.077,0.281,0.115c0.25,0.102,0.502,0.201,0.755,0.299
	c0.092,0.036,0.184,0.071,0.275,0.106c0.258,0.098,0.516,0.194,0.775,0.288c0.087,0.031,0.173,0.063,0.26,0.093
	c0.266,0.096,0.533,0.188,0.802,0.279c0.081,0.027,0.163,0.055,0.244,0.082c0.273,0.091,0.546,0.179,0.821,0.266
	c0.08,0.024,0.159,0.05,0.239,0.074c0.277,0.085,0.554,0.169,0.832,0.25c0.082,0.023,0.163,0.047,0.244,0.069
	c0.277,0.08,0.556,0.157,0.835,0.231c0.084,0.023,0.168,0.045,0.252,0.067c0.277,0.072,0.555,0.144,0.834,0.212
	c0.089,0.021,0.178,0.042,0.268,0.064c0.275,0.065,0.551,0.13,0.828,0.191c0.095,0.021,0.191,0.042,0.287,0.062
	c0.271,0.06,0.543,0.116,0.816,0.172c0.104,0.021,0.209,0.04,0.314,0.06c0.265,0.052,0.53,0.103,0.796,0.149
	c0.116,0.021,0.232,0.039,0.349,0.059c0.256,0.044,0.513,0.088,0.771,0.128c0.128,0.02,0.257,0.038,0.386,0.057
	c0.248,0.036,0.496,0.073,0.745,0.105c0.141,0.02,0.283,0.035,0.424,0.053c0.238,0.029,0.476,0.06,0.715,0.086
	c0.157,0.018,0.315,0.032,0.473,0.048c0.225,0.023,0.449,0.047,0.675,0.066c0.176,0.016,0.353,0.028,0.529,0.042
	c0.209,0.017,0.418,0.034,0.628,0.048c0.201,0.014,0.404,0.023,0.605,0.034c0.187,0.011,0.373,0.022,0.56,0.031
	c0.24,0.01,0.481,0.017,0.722,0.023c0.151,0.005,0.302,0.012,0.454,0.016c0.393,0.008,0.787,0.013,1.183,0.013
	c0.528,0,1.055-0.009,1.579-0.023c0.171-0.006,0.341-0.016,0.512-0.022c0.354-0.014,0.707-0.028,1.059-0.049
	c0.199-0.012,0.396-0.028,0.596-0.042c0.322-0.022,0.645-0.046,0.965-0.074c0.207-0.019,0.413-0.04,0.618-0.061
	c0.313-0.032,0.624-0.064,0.935-0.102c0.206-0.024,0.412-0.052,0.617-0.078c0.31-0.041,0.619-0.084,0.927-0.13
	c0.202-0.029,0.403-0.062,0.604-0.094c0.313-0.05,0.623-0.104,0.934-0.159c0.193-0.035,0.386-0.069,0.578-0.106
	c0.321-0.062,0.642-0.127,0.96-0.194c0.179-0.038,0.357-0.074,0.534-0.114c0.342-0.076,0.682-0.156,1.021-0.238
	c0.152-0.038,0.306-0.073,0.458-0.111c0.387-0.098,0.771-0.201,1.154-0.308c0.103-0.028,0.205-0.055,0.308-0.084
	c0.99-0.281,1.969-0.59,2.935-0.928c0.036-0.012,0.073-0.026,0.11-0.039c0.436-0.153,0.868-0.312,1.299-0.476
	c0.119-0.046,0.236-0.094,0.354-0.14c0.347-0.136,0.691-0.272,1.034-0.414c0.149-0.063,0.299-0.127,0.447-0.19
	c0.309-0.131,0.615-0.264,0.921-0.401c0.166-0.074,0.33-0.15,0.495-0.227c0.284-0.131,0.567-0.264,0.85-0.4
	c0.177-0.085,0.352-0.172,0.527-0.259c0.266-0.132,0.529-0.266,0.791-0.401c0.18-0.094,0.358-0.187,0.536-0.282
	c0.297-0.157,0.592-0.32,0.886-0.483c0.17-0.096,0.342-0.19,0.512-0.287c0.302-0.173,0.6-0.351,0.897-0.529
	c0.213-0.127,0.426-0.255,0.636-0.385c0.35-0.217,0.696-0.435,1.04-0.659c0.249-0.162,0.494-0.33,0.74-0.496
	c0.168-0.114,0.337-0.227,0.504-0.343c0.267-0.185,0.531-0.373,0.795-0.563c0.135-0.097,0.27-0.194,0.404-0.293
	c0.282-0.208,0.563-0.418,0.841-0.632c0.095-0.072,0.188-0.146,0.282-0.22c2.886-2.244,5.531-4.78,7.891-7.568
	c1.027-1.213,2.001-2.473,2.917-3.775c0.015-0.021,0.03-0.043,0.045-0.064c0.205-0.292,0.406-0.586,0.604-0.883
	c0.061-0.089,0.118-0.179,0.178-0.269c0.155-0.234,0.309-0.469,0.46-0.705c0.102-0.159,0.2-0.319,0.301-0.479
	c0.108-0.175,0.219-0.35,0.325-0.526c0.131-0.214,0.258-0.431,0.385-0.647c0.077-0.132,0.156-0.263,0.232-0.396
	c0.11-0.191,0.217-0.386,0.325-0.579c0.102-0.183,0.205-0.364,0.305-0.548c0.103-0.188,0.201-0.379,0.302-0.569
	c0.102-0.191,0.203-0.383,0.302-0.576c0.094-0.182,0.184-0.364,0.273-0.547c0.094-0.188,0.187-0.376,0.277-0.564
	c0.262-0.542,0.514-1.091,0.757-1.644c0.053-0.119,0.104-0.24,0.155-0.36c0.212-0.492,0.417-0.987,0.614-1.486
	c0.044-0.112,0.091-0.224,0.134-0.336c0.033-0.085,0.064-0.171,0.097-0.256c0.121-0.32,0.241-0.641,0.356-0.963
	c0.032-0.088,0.063-0.178,0.094-0.266c0.114-0.327,0.228-0.655,0.336-0.984c0.025-0.077,0.05-0.154,0.076-0.231
	c0.113-0.352,0.225-0.706,0.332-1.061c0.016-0.053,0.031-0.105,0.047-0.158c0.118-0.397,0.232-0.796,0.342-1.197
	c0.003-0.011,0.006-0.021,0.009-0.032c0.703-2.595,1.214-5.268,1.514-8.005c0.103-0.94,0.183-1.888,0.236-2.842
	c0.001-0.017,0.002-0.033,0.003-0.05c0.024-0.424,0.041-0.849,0.055-1.275c0.002-0.069,0.006-0.14,0.008-0.21
	c0.012-0.467,0.02-0.937,0.02-1.408C107.111,54.072,107.105,53.635,107.095,53.199 M37.805,97.477c0,0.429,0.051,0.849,0.147,1.26
	c-4.182-1.576-8.083-3.726-11.603-6.357c-0.733-0.548-1.448-1.119-2.146-1.707c-2.47-2.079-4.724-4.404-6.723-6.94
	c0.858-2.461,3.43-4.821,6.92-6.017c5.021-1.722,10.027-0.383,11.183,2.989c0.722,2.106-0.23,4.508-2.27,6.434
	c0.589,2.608,3.04,4.806,6.413,5.965C38.513,94.362,37.805,95.864,37.805,97.477 M101.831,56.049
	c-0.009,0.281-0.022,0.563-0.036,0.842c-0.003,0.068-0.005,0.138-0.009,0.206c-0.001,0-0.002-0.001-0.003-0.001
	c-0.226,4.155-0.98,8.168-2.21,11.97c-1.014,3.134-2.344,6.126-3.956,8.935c-2.291,3.991-5.148,7.615-8.462,10.765
	c-1.1,1.045-2.25,2.037-3.445,2.974c-0.53,0.889-1.534,1.612-2.805,2.033l0,0c-0.769,0.255-1.631,0.402-2.547,0.402
	c-3.184,0-5.765-1.733-5.765-3.872c0-1.943,2.133-3.548,4.911-3.825c-0.738-0.49-1.381-1.045-1.91-1.649
	c-0.76,0.344-1.597,0.616-2.49,0.803c-0.001,0.016-0.002,0.03-0.003,0.045c-1.067,0.597-2.291,1.07-3.624,1.391
	c0.486,0.714,0.759,1.507,0.759,2.344c0,2.865-3.177,5.229-7.294,5.596c0.025,0.045,0.05,0.091,0.076,0.135
	c0.973,1.627,2.557,3.032,4.554,4.08c0.308,0.161,0.626,0.313,0.952,0.457c-0.389,0.12-0.779,0.233-1.174,0.344
	c-3.086,0.862-6.301,1.417-9.608,1.634c-1.037-0.699-1.68-1.661-1.68-2.726c0-2.017,2.294-3.671,5.225-3.854
	c-0.005-0.011-0.012-0.021-0.017-0.031c-3.346-0.147-6.156-1.608-7.3-3.624c2.002-1.441,3.229-3.375,3.229-5.501
	c0-2.304-1.44-4.381-3.747-5.851c-1.47-0.938-3.29-1.628-5.317-1.972c0.137-0.455,0.178-0.923,0.109-1.391
	c-0.38-2.556-3.897-4.151-7.857-3.563c-1.023,0.151-1.976,0.436-2.819,0.816c-1.619-2.911-7.903-3.735-14.694-1.79
	c-4.143,1.187-7.579,3.148-9.592,5.253c-2.617-4.711-4.452-9.917-5.33-15.441c-0.059-0.373-0.114-0.748-0.164-1.123
	c-0.017-0.124-0.034-0.247-0.049-0.371c-0.053-0.419-0.102-0.839-0.144-1.262c-0.009-0.097-0.017-0.194-0.026-0.29
	c-0.036-0.384-0.067-0.769-0.093-1.155c-0.006-0.084-0.013-0.168-0.019-0.253c-0.028-0.44-0.048-0.884-0.064-1.328
	c-0.003-0.102-0.006-0.204-0.009-0.306c-0.014-0.459-0.022-0.92-0.022-1.383c0-0.439,0.007-0.878,0.019-1.315
	c0.002-0.075,0.006-0.15,0.009-0.226c0.012-0.375,0.028-0.749,0.048-1.121c0.002-0.048,0.006-0.095,0.009-0.142
	C7.47,51.297,7.5,50.89,7.534,50.484c0.001-0.013,0.002-0.026,0.003-0.039C7.644,49.198,7.798,47.964,8,46.747v0
	c0.579-3.5,1.542-6.869,2.845-10.064c0-0.001,0-0.002,0.001-0.003c1.04-2.55,2.296-4.989,3.746-7.294
	c0.005-0.008,0.01-0.016,0.015-0.023c0.17-0.271,0.344-0.539,0.52-0.806c0.018-0.027,0.035-0.054,0.053-0.082
	c0.171-0.257,0.344-0.513,0.519-0.768c0.022-0.032,0.044-0.064,0.067-0.096c0.176-0.253,0.354-0.506,0.535-0.756
	c0.018-0.025,0.036-0.049,0.054-0.074c0.188-0.259,0.378-0.516,0.571-0.771c0,0,0,0,0,0c1.01-1.333,2.088-2.61,3.23-3.827
	c0.026-0.027,0.051-0.055,0.076-0.082c0.194-0.206,0.391-0.409,0.588-0.61c0.051-0.053,0.103-0.106,0.154-0.159
	c0.186-0.188,0.374-0.375,0.563-0.56c0.065-0.063,0.13-0.127,0.195-0.19c0.184-0.179,0.37-0.355,0.557-0.531
	c0.07-0.066,0.142-0.132,0.212-0.198c0.187-0.173,0.374-0.345,0.563-0.515c0.071-0.063,0.143-0.126,0.214-0.19
	c0.193-0.171,0.386-0.341,0.582-0.509c0.063-0.054,0.126-0.106,0.188-0.159c0.208-0.176,0.416-0.352,0.626-0.525
	c0.019-0.016,0.039-0.031,0.058-0.047c0.716-0.585,1.45-1.149,2.2-1.691c0.067-0.049,0.134-0.099,0.202-0.148
	c0.189-0.135,0.381-0.268,0.573-0.401c0.104-0.073,0.208-0.146,0.313-0.217c0.18-0.123,0.362-0.244,0.544-0.364
	c0.118-0.079,0.237-0.157,0.356-0.235c0.177-0.114,0.355-0.228,0.534-0.34c0.127-0.08,0.254-0.159,0.382-0.238
	c0.175-0.108,0.35-0.214,0.527-0.32c0.134-0.081,0.269-0.16,0.404-0.239c0.174-0.102,0.347-0.203,0.522-0.303
	c0.141-0.08,0.281-0.158,0.422-0.236c0.174-0.097,0.347-0.193,0.522-0.287c0.146-0.079,0.292-0.154,0.439-0.231
	c0.172-0.091,0.344-0.183,0.518-0.271c0.157-0.081,0.316-0.158,0.474-0.236c0.274-0.136,0.55-0.27,0.828-0.4
	c0.204-0.096,0.407-0.192,0.612-0.286c0.156-0.071,0.313-0.139,0.47-0.208c0.177-0.079,0.354-0.157,0.533-0.233
	c0.16-0.068,0.321-0.133,0.481-0.2c0.178-0.074,0.355-0.147,0.535-0.219c0.162-0.064,0.325-0.127,0.487-0.189
	c0.18-0.07,0.359-0.139,0.54-0.206c0.163-0.061,0.328-0.12,0.492-0.179c0.183-0.065,0.367-0.13,0.55-0.194
	c0.164-0.057,0.327-0.112,0.49-0.167c0.189-0.063,0.379-0.125,0.569-0.185c0.16-0.051,0.32-0.103,0.481-0.151
	c0.199-0.062,0.399-0.12,0.6-0.179c0.154-0.045,0.307-0.09,0.462-0.134c0.218-0.061,0.438-0.119,0.658-0.178
	c0.138-0.037,0.276-0.075,0.414-0.11c0.292-0.075,0.586-0.146,0.88-0.215c0.067-0.016,0.134-0.033,0.202-0.049
	c0.36-0.083,0.722-0.162,1.084-0.236c0.124-0.026,0.248-0.048,0.372-0.073c0.243-0.048,0.487-0.096,0.731-0.14
	c0.148-0.027,0.296-0.051,0.444-0.076c0.223-0.039,0.446-0.076,0.67-0.111c0.157-0.024,0.314-0.047,0.472-0.07
	c0.217-0.032,0.435-0.063,0.653-0.091c0.161-0.021,0.322-0.042,0.483-0.061c0.218-0.026,0.436-0.051,0.655-0.075
	C49.678,7.517,49.839,7.5,50,7.485c0.223-0.022,0.445-0.041,0.669-0.06c0.159-0.013,0.317-0.027,0.477-0.038
	c0.231-0.017,0.464-0.031,0.696-0.044c0.151-0.008,0.302-0.018,0.453-0.025c0.257-0.012,0.516-0.021,0.775-0.03
	c0.127-0.004,0.253-0.01,0.38-0.013c0.387-0.01,0.773-0.015,1.162-0.015c0.387,0,0.773,0.005,1.158,0.015
	c0.127,0.003,0.254,0.009,0.381,0.013c0.259,0.008,0.516,0.017,0.772,0.03c0.149,0.007,0.299,0.017,0.448,0.025
	c0.233,0.014,0.467,0.027,0.698,0.044c0.158,0.011,0.314,0.024,0.472,0.038c0.225,0.019,0.448,0.038,0.672,0.06
	c0.159,0.015,0.317,0.031,0.476,0.048c0.222,0.023,0.442,0.049,0.663,0.076c0.157,0.019,0.314,0.039,0.471,0.059
	c0.225,0.029,0.447,0.061,0.671,0.094c0.149,0.022,0.301,0.043,0.45,0.066c0.236,0.037,0.473,0.077,0.707,0.117
	c0.135,0.023,0.27,0.045,0.403,0.069c0.291,0.052,0.58,0.108,0.869,0.167C64,8.195,64.077,8.209,64.154,8.225
	c0.363,0.075,0.726,0.153,1.086,0.236c0.111,0.025,0.223,0.054,0.334,0.081c0.25,0.059,0.499,0.119,0.747,0.182
	c0.141,0.036,0.281,0.074,0.421,0.111c0.218,0.058,0.435,0.115,0.651,0.176c0.15,0.042,0.3,0.086,0.45,0.13
	c0.204,0.06,0.408,0.12,0.611,0.182c0.154,0.047,0.308,0.096,0.461,0.145c0.199,0.063,0.396,0.127,0.594,0.192
	c0.154,0.051,0.308,0.103,0.46,0.155c0.197,0.068,0.394,0.137,0.59,0.208c0.149,0.054,0.3,0.107,0.449,0.163
	c0.201,0.074,0.401,0.151,0.601,0.228c0.142,0.055,0.284,0.108,0.425,0.165c0.22,0.087,0.438,0.177,0.656,0.268
	c0.118,0.049,0.238,0.097,0.356,0.147c0.329,0.139,0.655,0.282,0.98,0.429c0.106,0.048,0.212,0.099,0.317,0.147
	c0.224,0.103,0.447,0.206,0.668,0.312c0.141,0.067,0.28,0.137,0.42,0.206c0.185,0.091,0.369,0.182,0.554,0.275
	c0.148,0.076,0.295,0.153,0.442,0.23c0.174,0.09,0.346,0.181,0.518,0.272c0.151,0.082,0.302,0.164,0.452,0.247
	c0.166,0.092,0.331,0.184,0.495,0.277c0.152,0.086,0.303,0.172,0.453,0.26c0.161,0.094,0.322,0.189,0.482,0.286
	c0.15,0.09,0.301,0.18,0.45,0.271c0.158,0.097,0.315,0.196,0.473,0.295c0.147,0.094,0.297,0.186,0.443,0.281
	c0.158,0.103,0.315,0.207,0.473,0.311c0.143,0.095,0.287,0.188,0.429,0.285c0.171,0.115,0.339,0.234,0.508,0.352
	c0.249,0.174,0.497,0.35,0.743,0.529c0.154,0.112,0.309,0.223,0.461,0.336c0.149,0.111,0.297,0.225,0.444,0.338
	c0.137,0.104,0.273,0.207,0.408,0.313c0.149,0.117,0.298,0.236,0.446,0.355c0.131,0.104,0.261,0.208,0.391,0.314
	c0.148,0.122,0.296,0.245,0.443,0.369c0.126,0.105,0.251,0.211,0.375,0.317c0.148,0.126,0.296,0.254,0.442,0.383
	c0.121,0.105,0.241,0.212,0.36,0.32c0.147,0.131,0.294,0.264,0.439,0.397c0.115,0.105,0.229,0.212,0.343,0.319
	c0.147,0.138,0.296,0.276,0.441,0.416c0.105,0.102,0.21,0.205,0.314,0.307c0.15,0.148,0.302,0.295,0.451,0.445
	c0.083,0.083,0.164,0.168,0.246,0.252c0.563,0.575,1.112,1.164,1.646,1.767c0.078,0.088,0.156,0.176,0.234,0.265
	c0.146,0.167,0.289,0.337,0.433,0.507c0.087,0.102,0.174,0.204,0.26,0.307c0.14,0.167,0.277,0.336,0.414,0.505
	c0.086,0.106,0.172,0.213,0.258,0.319c0.136,0.171,0.271,0.343,0.404,0.516c0.082,0.107,0.164,0.214,0.246,0.322
	c0.134,0.176,0.267,0.353,0.398,0.531c0.077,0.104,0.152,0.209,0.229,0.314c0.133,0.183,0.266,0.367,0.396,0.553
	c0.068,0.097,0.135,0.195,0.202,0.292c0.137,0.196,0.272,0.393,0.405,0.592c0.046,0.067,0.09,0.136,0.135,0.203
	c0.502,0.757,0.982,1.529,1.441,2.315c0.021,0.037,0.043,0.073,0.064,0.109c0.129,0.224,0.256,0.449,0.381,0.675
	c0.049,0.086,0.098,0.172,0.146,0.259c0.117,0.213,0.232,0.428,0.346,0.644c0.053,0.101,0.106,0.201,0.159,0.301
	c0.11,0.212,0.219,0.425,0.326,0.639c0.052,0.104,0.104,0.208,0.155,0.313c0.105,0.215,0.21,0.43,0.313,0.647
	c0.049,0.104,0.097,0.207,0.145,0.311c0.103,0.222,0.205,0.444,0.304,0.667c0.042,0.095,0.084,0.19,0.125,0.285
	c0.103,0.235,0.205,0.47,0.304,0.707c0.028,0.066,0.055,0.133,0.082,0.2c0.478,1.159,0.91,2.34,1.297,3.543
	c0.022,0.069,0.045,0.137,0.067,0.207c0.079,0.25,0.154,0.5,0.229,0.751c0.029,0.098,0.059,0.195,0.088,0.293
	c0.07,0.241,0.138,0.483,0.204,0.727c0.028,0.107,0.059,0.215,0.088,0.324c0.063,0.241,0.125,0.482,0.186,0.724
	c0.026,0.109,0.054,0.218,0.08,0.328c0.059,0.245,0.116,0.491,0.172,0.737c0.023,0.104,0.045,0.208,0.067,0.312
	c0.056,0.254,0.109,0.509,0.161,0.765c0.017,0.085,0.032,0.17,0.048,0.255c0.055,0.278,0.107,0.556,0.157,0.835
	c0.217,1.24,0.384,2.497,0.502,3.767c0.007,0.073,0.013,0.146,0.02,0.219c0.033,0.373,0.062,0.748,0.086,1.123
	c0.007,0.109,0.015,0.217,0.021,0.326c0.021,0.351,0.036,0.702,0.049,1.054c0.004,0.116,0.01,0.231,0.013,0.347
	c0.013,0.455,0.021,0.911,0.021,1.369C101.861,55.025,101.849,55.538,101.831,56.049"/>
</svg>
