<?xml version="1.0" encoding="utf-8"?>
<!-- Generator: Adobe Illustrator 16.0.2, SVG Export Plug-In . SVG Version: 6.00 Build 0)  -->
<!DOCTYPE svg PUBLIC "-//W3C//DTD SVG 1.1//EN" "http://www.w3.org/Graphics/SVG/1.1/DTD/svg11.dtd">
<svg version="1.1" id="Layer_1" xmlns="http://www.w3.org/2000/svg" xmlns:xlink="http://www.w3.org/1999/xlink" x="0px" y="0px"
	 width="110px" height="110px" viewBox="0 0 110 110" enable-background="new 0 0 110 110" xml:space="preserve">
<path fill="#000000" d="M107.014,49.511c-0.077-0.797-0.174-1.588-0.287-2.375C103.082,21.701,81.208,2.149,54.765,2.149
	c-26.511,0-48.429,19.652-51.99,45.182c-0.109,0.782-0.202,1.57-0.276,2.363c-0.153,1.631-0.234,3.283-0.234,4.955
	c0,7.145,1.43,13.954,4.015,20.163c0.3,0.72,0.617,1.432,0.947,2.135C10.48,83.872,15.201,89.97,20.99,94.84
	c9.128,7.681,20.91,12.31,33.774,12.31c16.074,0,30.455-7.229,40.086-18.606c2.062-2.437,3.91-5.06,5.506-7.848
	c3.488-6.092,5.785-12.951,6.587-20.262c0.209-1.899,0.321-3.828,0.321-5.784C107.265,52.916,107.178,51.202,107.014,49.511
	 M54.765,7.399c23.297,0,42.654,16.861,46.539,39.046c-6.413-1.105-10.955-2.999-15.662-4.963
	c-7.225-3.016-14.695-6.134-29.41-6.134c-14.714,0-22.185,3.118-29.41,6.134c-5.41,2.258-10.602,4.422-18.668,5.403
	C11.856,24.485,31.313,7.399,54.765,7.399 M101.939,57.236c-0.395,7.304-2.444,14.166-5.785,20.218l-1.688-1.302l-7.063,8.827
	l-1.528-13.771L78.046,82.8l-1.293-11.652L61.921,82.444l2.827-13.183l-13.95,14.416l-1.175-10.593L38.38,82.911l1.828-17.361
	L21.961,84.732l3.223-15.122l-10.272,6.564l0.785-8.272l-5.044,3.702c-1.142-2.97-1.994-6.083-2.519-9.306
	c-0.406-2.489-0.618-5.045-0.618-7.649c0-1.815,0.106-3.605,0.305-5.367c8.808-1,14.43-3.345,19.907-5.631
	c7.334-3.061,14.262-5.952,28.504-5.952c14.244,0,21.171,2.891,28.505,5.952c4.833,2.017,9.779,4.079,16.927,5.224
	c0.23,1.893,0.352,3.819,0.352,5.774C102.015,55.518,101.986,56.38,101.939,57.236"/>
</svg>
