<?xml version="1.0" encoding="UTF-8" standalone="no"?>
<!-- Created with Inkscape (http://www.inkscape.org/) -->

<svg
   xmlns:dc="http://purl.org/dc/elements/1.1/"
   xmlns:cc="http://creativecommons.org/ns#"
   xmlns:rdf="http://www.w3.org/1999/02/22-rdf-syntax-ns#"
   xmlns:svg="http://www.w3.org/2000/svg"
   xmlns="http://www.w3.org/2000/svg"
   xmlns:sodipodi="http://sodipodi.sourceforge.net/DTD/sodipodi-0.dtd"
   xmlns:inkscape="http://www.inkscape.org/namespaces/inkscape"
   id="svg2"
   version="1.1"
   inkscape:version="0.91 r13725"
   xml:space="preserve"
   width="159.85625"
   height="301.60626"
   viewBox="0 0 159.85625 301.60626"
   sodipodi:docname="chincheta.svg"><metadata
     id="metadata8"><rdf:RDF><cc:Work
         rdf:about=""><dc:format>image/svg+xml</dc:format><dc:type
           rdf:resource="http://purl.org/dc/dcmitype/StillImage" /><dc:title></dc:title></cc:Work></rdf:RDF></metadata><defs
     id="defs6"><clipPath
       clipPathUnits="userSpaceOnUse"
       id="clipPath18"><path
         d="M 0,353 399,353 399,0 0,0 0,353 Z"
         id="path20"
         inkscape:connector-curvature="0" /></clipPath></defs><sodipodi:namedview
     pagecolor="#ffffff"
     bordercolor="#666666"
     borderopacity="1"
     objecttolerance="10"
     gridtolerance="10"
     guidetolerance="10"
     inkscape:pageopacity="0"
     inkscape:pageshadow="2"
     inkscape:window-width="1920"
     inkscape:window-height="1018"
     id="namedview4"
     showgrid="false"
     fit-margin-top="0"
     fit-margin-left="0"
     fit-margin-right="0"
     fit-margin-bottom="0"
     inkscape:zoom="0.53484419"
     inkscape:cx="-134.09604"
     inkscape:cy="150.80299"
     inkscape:window-x="-8"
     inkscape:window-y="-8"
     inkscape:window-maximized="1"
     inkscape:current-layer="g10" /><g
     id="g10"
     inkscape:groupmode="layer"
     inkscape:label="chincheta"
     transform="matrix(1.25,0,0,-1.25,-169.39,371.42825)"><g
       id="g14"
       style="fill:#1a1a1a"><g
         id="g16"
         clip-path="url(#clipPath18)"
         style="fill:#1a1a1a"><g
           id="g22"
           transform="translate(226,171.9286)"
           style="fill:#1a1a1a"><path
             d="m 0,0 c 0,-2.17 -1.759,-3.929 -3.929,-3.929 l -0.142,0 C -6.241,-3.929 -8,-2.17 -8,0 l 0,73.143 c 0,2.17 1.759,3.928 3.929,3.928 l 0.142,0 C -1.759,77.071 0,75.313 0,73.143 L 0,0 Z m 8,-3.139 0,82.131 c 16,5.849 29.397,14.835 29.397,23.508 0,14.557 -29.32,22.714 -63.872,22.714 -34.553,0 -64.013,-7.443 -64.013,-22 0,-9.282 12.488,-19.209 29.488,-25.189 l 0,-81.088 C -78,-7.697 -89.174,-16.043 -89.206,-27.179 -89.25,-42.534 -63,-41.09 -31,-40.94 l 0,-54.846 c 0,-3.866 3.134,-20.285 7,-20.285 3.866,0 7,16.419 7,20.285 l 0,54.813 c 30,-0.224 52.962,-0.719 52.92,13.794 C 35.889,-16.105 25,-7.788 8,-3.139"
             style="fill:#1a1a1a;fill-opacity:1;fill-rule:nonzero;stroke:none"
             id="path24"
             inkscape:connector-curvature="0" /></g></g></g></g></svg>