<svg width="32" height="32" xmlns="http://www.w3.org/2000/svg">
 <title/>
 <g>
  <title>Layer 1</title>
  <g id="Icons new Arranged Names" fill-rule="evenodd" fill="none">
   <g id="82 Thermometer Half Full" fill="#000000">
    <path fill="#000000" id="Oval 245" d="m16,30c2.209141,0 4,-1.790859 4,-4c0,-1.48057 -0.804399,-2.773251 -2,-3.46487l0,-18.53018c0,-1.1073 -0.88773,-2.00495 -2,-2.00495c-1.10457,0 -2,0.89703 -2,2.00495l0,18.53018c-1.1956,0.69162 -2,1.984301 -2,3.46487c0,2.209141 1.79086,4 4,4zm0,-1c-1.65685,0 -3,-1.343149 -3,-3c0,-1.311409 0.84146,-2.426291 2.01392,-2.834181c-0.00916,-0.05472 -0.01392,-0.110939 -0.01392,-0.168289l0,-9.99506c0,-0.54671 0.44772,-1.00247 1,-1.00247c0.556141,0 1,0.44882 1,1.00247l0,9.99506c0,0.05719 -0.0049,0.11338 -0.014311,0.168159c1.172661,0.40777 2.014311,1.522751 2.014311,2.834311c0,1.656851 -1.343149,3 -3,3zm0,3c-3.31371,0 -6,-2.686291 -6,-6c0,-1.777 0.77251,-3.373581 2,-4.47221l0,-17.52227c0,-2.21843 1.79086,-4.00552 4,-4.00552c2.204639,0 4,1.79333 4,4.00552l0,17.52227c1.227489,1.098629 2,2.69521 2,4.47221c0,3.313709 -2.686291,6 -6,6zm0,0"/>
   </g>
  </g>
 </g>
</svg>