<?xml version="1.0" encoding="UTF-8" standalone="no"?>
<!-- Created with Inkscape (http://www.inkscape.org/) -->

<svg
   xmlns:dc="http://purl.org/dc/elements/1.1/"
   xmlns:cc="http://creativecommons.org/ns#"
   xmlns:rdf="http://www.w3.org/1999/02/22-rdf-syntax-ns#"
   xmlns:svg="http://www.w3.org/2000/svg"
   xmlns="http://www.w3.org/2000/svg"
   xmlns:sodipodi="http://sodipodi.sourceforge.net/DTD/sodipodi-0.dtd"
   xmlns:inkscape="http://www.inkscape.org/namespaces/inkscape"
   width="33.257771mm"
   height="33.257771mm"
   viewBox="0 0 117.84249 117.84249"
   id="svg3749"
   version="1.1"
   inkscape:version="0.91 r13725"
   sodipodi:docname="web.svg">
  <defs
     id="defs3751" />
  <sodipodi:namedview
     id="base"
     pagecolor="#ffffff"
     bordercolor="#666666"
     borderopacity="1.0"
     inkscape:pageopacity="0.0"
     inkscape:pageshadow="2"
     inkscape:zoom="1.4"
     inkscape:cx="172.46237"
     inkscape:cy="-116.83787"
     inkscape:document-units="px"
     inkscape:current-layer="layer1"
     showgrid="false"
     fit-margin-top="0"
     fit-margin-left="0"
     fit-margin-right="0"
     fit-margin-bottom="0"
     inkscape:window-width="1920"
     inkscape:window-height="1018"
     inkscape:window-x="-8"
     inkscape:window-y="-8"
     inkscape:window-maximized="1" />
  <metadata
     id="metadata3754">
    <rdf:RDF>
      <cc:Work
         rdf:about="">
        <dc:format>image/svg+xml</dc:format>
        <dc:type
           rdf:resource="http://purl.org/dc/dcmitype/StillImage" />
        <dc:title></dc:title>
      </cc:Work>
    </rdf:RDF>
  </metadata>
  <g
     inkscape:label="Capa 1"
     inkscape:groupmode="layer"
     id="layer1"
     transform="translate(1401.7784,52.273331)">
    <g
       id="g62"
       transform="matrix(1.25,0,0,-1.25,-1342.8571,59.676669)"
       style="fill:#333333">
      <path
         d="m 0,0 c -23.43,0 -42.423,18.993 -42.423,42.423 0,23.43 18.993,42.423 42.423,42.423 23.43,0 42.423,-18.993 42.423,-42.423 C 42.423,18.993 23.43,0 0,0 m 0,89.56 c -26.033,0 -47.137,-21.104 -47.137,-47.137 0,-26.033 21.104,-47.137 47.137,-47.137 26.033,0 47.137,21.104 47.137,47.137 C 47.137,68.456 26.033,89.56 0,89.56"
         style="fill:#333333;fill-opacity:1;fill-rule:nonzero;stroke:none"
         id="path64"
         inkscape:connector-curvature="0" />
    </g>
    <g
       id="g66"
       transform="matrix(1.25,0,0,-1.25,-1367.394,-2.207076)"
       style="fill:#333333">
      <path
         d="M 0,0 C 0.633,0.161 1.268,0.313 1.905,0.458 1.268,-3.008 0.635,-6.371 0,-9.611 c -0.774,3.132 -1.547,6.135 -2.312,8.988 0.108,0.031 0.216,0.061 0.324,0.092 -0.011,0.461 -0.021,0.922 -0.031,1.383 -1.651,-0.513 -3.287,-1.086 -4.905,-1.719 0.007,-0.406 0.015,-0.813 0.022,-1.219 0.568,0.2 1.138,0.394 1.71,0.581 -0.632,-3.072 -1.271,-5.995 -1.923,-8.749 -0.746,2.608 -1.477,5.04 -2.187,7.277 0.153,0.06 0.307,0.119 0.46,0.178 -0.005,0.381 -0.01,0.763 -0.015,1.144 -0.962,-0.408 -1.917,-0.838 -2.865,-1.289 10e-4,-0.34 0.002,-0.681 0.003,-1.021 0.209,0.089 0.419,0.178 0.629,0.266 0.961,-2.755 1.969,-5.902 3.007,-9.388 0.68,0.013 1.361,0.025 2.042,0.038 0.796,3.326 1.576,6.895 2.348,10.668 0.911,-3.314 1.835,-6.855 2.764,-10.587 0.68,0.009 1.36,0.018 2.041,0.027 0.891,4.394 1.782,9.014 2.684,13.805 0.742,0.15 1.487,0.29 2.233,0.419 C 6.019,1.808 6.01,2.332 6,2.857 3.974,2.47 1.962,1.998 -0.032,1.439 -0.021,0.959 -0.011,0.48 0,0"
         style="fill:#333333;fill-opacity:1;fill-rule:nonzero;stroke:none"
         id="path68"
         inkscape:connector-curvature="0" />
    </g>
    <g
       id="g74"
       transform="matrix(1.25,0,0,-1.25,-1360.7815,13.909924)"
       style="fill:#333333">
      <path
         d="M 0,0 C 1.001,0.01 2.001,0.019 3.002,0.027 2.976,1.635 2.949,3.243 2.923,4.851 1.918,4.796 0.913,4.734 -0.091,4.665 -0.06,3.11 -0.03,1.555 0,0"
         style="fill:#333333;fill-opacity:1;fill-rule:nonzero;stroke:none"
         id="path76"
         inkscape:connector-curvature="0" />
    </g>
    <g
       id="g78"
       transform="matrix(1.25,0,0,-1.25,-1360.7815,13.909924)"
       style="fill:#333333">
      <path
         d="M 0,0 C 1.001,0.01 2.001,0.019 3.002,0.027 2.976,1.635 2.949,3.243 2.923,4.851 1.918,4.796 0.913,4.734 -0.091,4.665 -0.06,3.11 -0.03,1.555 0,0 Z"
         style="fill:#333333;stroke:#ffffff;stroke-width:1;stroke-linecap:butt;stroke-linejoin:miter;stroke-miterlimit:10;stroke-dasharray:none;stroke-opacity:1"
         id="path80"
         inkscape:connector-curvature="0" />
    </g>
    <g
       id="g82"
       transform="matrix(1.25,0,0,-1.25,-1336.8754,-5.122826)"
       style="fill:#333333">
      <path
         d="m 0,0 c 0.302,-0.017 0.605,-0.036 0.907,-0.057 -0.753,-3.681 -1.496,-7.407 -2.226,-11.156 -0.69,3.767 -1.393,7.553 -2.107,11.336 0.459,-0.007 0.919,-0.018 1.378,-0.032 0.002,0.564 0.004,1.129 0.007,1.694 -2.054,0.071 -4.111,0.057 -6.164,-0.043 0.003,-0.563 0.006,-1.127 0.009,-1.69 0.591,0.026 1.183,0.046 1.775,0.059 -0.712,-3.786 -1.41,-7.57 -2.097,-11.332 -0.732,3.741 -1.477,7.454 -2.231,11.119 0.509,0.039 1.019,0.073 1.529,0.102 -0.003,0.562 -0.007,1.123 -0.011,1.685 -2.052,-0.129 -4.099,-0.344 -6.137,-0.645 0.009,-0.541 0.017,-1.082 0.025,-1.623 0.895,0.12 1.793,0.224 2.691,0.314 1.065,-4.868 2.113,-9.851 3.138,-14.894 0.683,0.003 1.366,0.004 2.048,0.006 0.842,4.511 1.701,9.048 2.578,13.575 0.865,-4.522 1.713,-9.058 2.543,-13.574 0.682,-10e-4 1.363,-0.003 2.045,-0.005 1.022,5.055 2.067,10.056 3.13,14.95 0.76,-0.07 1.518,-0.151 2.276,-0.243 C 5.113,0.092 5.121,0.638 5.128,1.183 3.428,1.41 1.721,1.577 0.012,1.685 0.008,1.123 0.004,0.561 0,0"
         style="fill:#333333;fill-opacity:1;fill-rule:nonzero;stroke:none"
         id="path84"
         inkscape:connector-curvature="0" />
    </g>
    <g
       id="g90"
       transform="matrix(1.25,0,0,-1.25,-1331.9998,13.851049)"
       style="fill:#333333">
      <path
         d="M 0,0 C 1.001,-0.006 2.002,-0.013 3.003,-0.02 3.029,1.588 3.055,3.196 3.081,4.804 2.076,4.859 1.069,4.907 0.062,4.947 0.041,3.298 0.021,1.649 0,0"
         style="fill:#333333;fill-opacity:1;fill-rule:nonzero;stroke:none"
         id="path92"
         inkscape:connector-curvature="0" />
    </g>
    <g
       id="g94"
       transform="matrix(1.25,0,0,-1.25,-1331.9998,13.851049)"
       style="fill:#333333">
      <path
         d="M 0,0 C 1.001,-0.006 2.002,-0.013 3.003,-0.02 3.029,1.588 3.055,3.196 3.081,4.804 2.076,4.859 1.069,4.907 0.062,4.947 0.041,3.298 0.021,1.649 0,0 Z"
         style="fill:#333333;stroke:#ffffff;stroke-width:1;stroke-linecap:butt;stroke-linejoin:miter;stroke-miterlimit:10;stroke-dasharray:none;stroke-opacity:1"
         id="path96"
         inkscape:connector-curvature="0" />
    </g>
    <g
       id="g98"
       transform="matrix(1.25,0,0,-1.25,-1308.0154,-0.64007599)"
       style="fill:#333333">
      <path
         d="m 0,0 c -0.006,-0.394 -0.013,-0.788 -0.019,-1.183 0.281,-0.103 0.56,-0.207 0.84,-0.314 -0.718,-2.295 -1.456,-4.782 -2.207,-7.44 -0.649,2.801 -1.286,5.768 -1.917,8.88 0.447,-0.142 0.892,-0.289 1.337,-0.439 0.008,0.419 0.016,0.837 0.024,1.255 -1.625,0.609 -3.267,1.158 -4.923,1.647 -0.011,-0.47 -0.021,-0.941 -0.032,-1.412 0.236,-0.063 0.473,-0.127 0.708,-0.192 -0.767,-2.899 -1.541,-5.944 -2.316,-9.113 -0.634,3.273 -1.267,6.667 -1.904,10.159 0.507,-0.111 1.013,-0.227 1.518,-0.348 0.011,0.488 0.021,0.977 0.032,1.465 -1.666,0.441 -3.345,0.823 -5.033,1.146 -0.01,-0.525 -0.02,-1.05 -0.03,-1.574 0.548,-0.095 1.094,-0.195 1.639,-0.301 0.903,-4.821 1.794,-9.478 2.685,-13.916 0.682,-0.008 1.363,-0.017 2.045,-0.026 0.944,3.776 1.886,7.363 2.815,10.724 0.756,-3.81 1.519,-7.423 2.296,-10.804 0.68,-0.011 1.359,-0.023 2.039,-0.036 1.045,3.553 2.062,6.775 3.035,9.611 0.399,-0.164 0.797,-0.331 1.195,-0.501 0,0.341 10e-4,0.681 0.002,1.022 C 2.566,-1.089 1.289,-0.525 0,0"
         style="fill:#333333;fill-opacity:1;fill-rule:nonzero;stroke:none"
         id="path100"
         inkscape:connector-curvature="0" />
    </g>
  </g>
</svg>
