<?xml version="1.0" encoding="UTF-8" standalone="no"?>
<!-- Created with Inkscape (http://www.inkscape.org/) -->

<svg
   xmlns:dc="http://purl.org/dc/elements/1.1/"
   xmlns:cc="http://creativecommons.org/ns#"
   xmlns:rdf="http://www.w3.org/1999/02/22-rdf-syntax-ns#"
   xmlns:svg="http://www.w3.org/2000/svg"
   xmlns="http://www.w3.org/2000/svg"
   xmlns:sodipodi="http://sodipodi.sourceforge.net/DTD/sodipodi-0.dtd"
   xmlns:inkscape="http://www.inkscape.org/namespaces/inkscape"
   width="33.25742mm"
   height="33.25742mm"
   viewBox="0 0 117.84125 117.84125"
   id="svg3581"
   version="1.1"
   inkscape:version="0.91 r13725"
   sodipodi:docname="world.svg">
  <defs
     id="defs3583" />
  <sodipodi:namedview
     id="base"
     pagecolor="#ffffff"
     bordercolor="#666666"
     borderopacity="1.0"
     inkscape:pageopacity="0.0"
     inkscape:pageshadow="2"
     inkscape:zoom="0.35"
     inkscape:cx="1592.492"
     inkscape:cy="-303.93651"
     inkscape:document-units="px"
     inkscape:current-layer="layer1"
     showgrid="false"
     fit-margin-top="0"
     fit-margin-left="0"
     fit-margin-right="0"
     fit-margin-bottom="0"
     inkscape:window-width="1920"
     inkscape:window-height="1018"
     inkscape:window-x="-8"
     inkscape:window-y="-8"
     inkscape:window-maximized="1" />
  <metadata
     id="metadata3586">
    <rdf:RDF>
      <cc:Work
         rdf:about="">
        <dc:format>image/svg+xml</dc:format>
        <dc:type
           rdf:resource="http://purl.org/dc/dcmitype/StillImage" />
        <dc:title></dc:title>
      </cc:Work>
    </rdf:RDF>
  </metadata>
  <g
     inkscape:label="Capa 1"
     inkscape:groupmode="layer"
     id="layer1"
     transform="translate(1544.6349,-110.58444)">
    <g
       id="g58"
       transform="matrix(1.25,0,0,-1.25,-1528.8599,138.95944)"
       style="fill:#333333">
      <path
         d="M 0,0 C 1.841,-1.271 5.697,-3.677 11.495,-5.733 9.47,-13.027 8.855,-20.649 8.667,-23.649 l -16.831,0 C -7.75,-14.649 -4.777,-6.499 0,0 M 23.968,17.268 C 18.526,12.603 15.009,5.996 12.736,-0.567 7.622,1.283 4.249,3.328 2.675,4.397 8.253,10.59 15.621,15.154 23.968,17.268 m 7.924,-25.617 0,-15.3 -18.8,0 c 0.204,3 0.658,10.17 2.477,16.842 4.596,-1.272 11.323,-1.316 16.323,-1.542 m 0,25.92 0,-21.788 c -5,0.226 -11.02,1.131 -15.264,2.311 2.75,7.988 8.264,15.908 15.264,19.477 m 6,-25.944 c 5,0.147 10.739,0.093 15.011,1.298 1.762,-6.562 1.824,-13.574 2.027,-16.574 l -17.038,0 0,15.276 z m 0,25.471 c 5,-3.809 11.722,-11.531 14.344,-19.263 -3.914,-1.117 -11.344,-1.928 -14.344,-2.076 l 0,21.339 z M 65.532,5.28 C 64.858,4.628 61.584,1.706 55.349,-0.743 53.025,6.034 49.371,12.872 43.657,17.592 52.171,15.741 59.743,11.359 65.532,5.28 m 2.786,-4.152 c 5.195,-6.671 8.444,-15.777 8.877,-24.777 l -17.84,0 c -0.186,3 -0.795,10.309 -2.768,17.509 6.5,2.465 10.287,5.939 11.731,7.268 m 0,-52.342 c -1.444,1.329 -5.231,4.207 -11.731,6.672 1.973,7.2 2.582,13.893 2.768,16.893 l 17.84,0 c -0.433,-9 -3.682,-16.894 -8.877,-23.565 M 43.657,-66.452 c 5.714,4.721 9.368,11.558 11.692,18.336 6.235,-2.449 9.509,-5.372 10.183,-6.024 -5.789,-6.078 -13.361,-10.46 -21.875,-12.312 m -5.765,0.494 0,21.34 c 3,-0.149 10.43,-0.96 14.344,-2.076 -2.622,-7.733 -9.344,-15.455 -14.344,-19.264 m -6,25.447 c -5,-0.226 -11.727,-1.489 -16.323,-2.761 -1.819,6.672 -2.273,12.623 -2.477,15.623 l 18.8,0 0,-12.862 z m 0,-25.919 c -7,3.568 -12.514,11.488 -15.264,19.476 4.244,1.18 10.264,2.086 15.264,2.311 l 0,-21.787 z M 2.675,-53.257 c 1.574,1.07 4.947,3.115 10.061,4.964 2.273,-6.562 5.79,-13.17 11.232,-17.835 -8.347,2.114 -15.715,6.678 -21.293,12.871 m -10.839,25.608 16.831,0 c 0.188,-3 0.803,-9.664 2.828,-16.958 -5.798,-2.057 -9.654,-4.549 -11.495,-5.82 -4.777,6.499 -7.75,13.778 -8.164,22.778 m 63.094,0 c -0.203,-3 -0.265,-8.793 -2.027,-15.355 -4.272,1.205 -10.011,2.37 -15.011,2.517 l 0,12.838 17.038,0 z m 26.723,3.749 c 0,25.695 -21.146,46.6 -47.137,46.6 -25.991,0 -47.136,-20.905 -47.136,-46.6 0,-0.178 0.011,-0.543 0.013,-0.543 -0.002,-0.177 -0.013,-0.352 -0.013,-0.53 0,-25.695 21.145,-46.6 47.136,-46.6 25.991,0 47.137,20.905 47.137,46.6 0,0.178 -0.012,0.353 -0.014,0.53 0.002,0 0.014,0.365 0.014,0.543"
         style="fill:#333333;fill-opacity:1;fill-rule:nonzero;stroke:none"
         id="path60"
         inkscape:connector-curvature="0" />
    </g>
  </g>
</svg>
