<?xml version="1.0" encoding="UTF-8" standalone="no"?>
<!-- Created with Inkscape (http://www.inkscape.org/) -->

<svg
   xmlns:dc="http://purl.org/dc/elements/1.1/"
   xmlns:cc="http://creativecommons.org/ns#"
   xmlns:rdf="http://www.w3.org/1999/02/22-rdf-syntax-ns#"
   xmlns:svg="http://www.w3.org/2000/svg"
   xmlns="http://www.w3.org/2000/svg"
   xmlns:sodipodi="http://sodipodi.sourceforge.net/DTD/sodipodi-0.dtd"
   xmlns:inkscape="http://www.inkscape.org/namespaces/inkscape"
   width="97.309868mm"
   height="97.309868mm"
   viewBox="0 0 344.79874 344.79874"
   id="svg4201"
   version="1.1"
   inkscape:version="0.91 r13725"
   sodipodi:docname="wave-right.svg">
  <defs
     id="defs4203" />
  <sodipodi:namedview
     id="base"
     pagecolor="#ffffff"
     bordercolor="#666666"
     borderopacity="1.0"
     inkscape:pageopacity="0.0"
     inkscape:pageshadow="2"
     inkscape:zoom="0.35"
     inkscape:cx="742.19816"
     inkscape:cy="574.34098"
     inkscape:document-units="px"
     inkscape:current-layer="layer1"
     showgrid="false"
     fit-margin-top="0"
     fit-margin-left="0"
     fit-margin-right="0"
     fit-margin-bottom="0"
     inkscape:window-width="1920"
     inkscape:window-height="1018"
     inkscape:window-x="-8"
     inkscape:window-y="-8"
     inkscape:window-maximized="1" />
  <metadata
     id="metadata4206">
    <rdf:RDF>
      <cc:Work
         rdf:about="">
        <dc:format>image/svg+xml</dc:format>
        <dc:type
           rdf:resource="http://purl.org/dc/dcmitype/StillImage" />
        <dc:title></dc:title>
      </cc:Work>
    </rdf:RDF>
  </metadata>
  <g
     inkscape:label="Capa 1"
     inkscape:groupmode="layer"
     id="layer1"
     transform="translate(694.34102,-761.9044)">
    <g
       id="g190"
       transform="matrix(1.25,0,0,-1.25,-552.89652,896.31752)"
       style="fill:#333333">
      <path
         d="m 0,0 c -6.105,-5.352 -15.625,-11.945 -19.625,-16.091 l 0,-28.322 c 9,3.421 20.373,11.297 29.15,17.412 3.309,2.305 4.765,4.296 7.251,5.826 8.97,5.519 19.195,7.689 30.412,6.521 L 24.654,11.641 C 18.21,12.089 11.698,10.607 5.309,5.661 3.436,4.21 2.577,2.259 0,0"
         style="fill:#333333;fill-opacity:1;fill-rule:nonzero;stroke:none"
         id="path192"
         inkscape:connector-curvature="0" />
    </g>
    <g
       id="g194"
       transform="matrix(1.25,0,0,-1.25,-528.92052,928.74412)"
       style="fill:#333333">
      <path
         d="m 0,0 c -2.358,-1.451 -3.477,-3.402 -6.72,-5.661 -9.522,-6.634 -23.085,-15.177 -32.085,-18.601 l 0,-26.713 c 12,2.694 26.145,11.571 37.164,18.313 3.768,2.305 5.621,4.296 8.452,5.825 14.42,7.792 31.859,8.937 50.879,3.378 L 33.505,4.77 C 22.961,7.056 11.011,6.774 0,0"
         style="fill:#333333;fill-opacity:1;fill-rule:nonzero;stroke:none"
         id="path196"
         inkscape:connector-curvature="0" />
    </g>
    <g
       id="g198"
       transform="matrix(1.25,0,0,-1.25,-563.22102,856.81412)"
       style="fill:#333333">
      <path
         d="m 0,0 c -3.827,-4.049 -10.365,-8.807 -11.365,-12.68 l 0,-28.978 c 4,3.964 11.812,9.852 17.292,14.657 2.629,2.305 3.499,4.296 5.474,5.825 5.148,3.987 10.737,6.218 16.878,6.72 L 8.24,8.92 C 6.786,8.061 5.587,6.989 4.166,5.661 2.613,4.21 2.136,2.259 0,0"
         style="fill:#333333;fill-opacity:1;fill-rule:nonzero;stroke:none"
         id="path200"
         inkscape:connector-curvature="0" />
    </g>
    <g
       id="g202"
       transform="matrix(1.25,0,0,-1.25,-577.42712,864.81552)"
       style="fill:#333333">
      <path
         d="m 0,0 c 0,3.475 6.142,7.523 9.432,11.003 2.179,2.305 3.221,4.296 4.857,5.825 0.918,0.858 1.443,1.615 2.403,2.312 L 1.401,36.793 C 0.726,37.582 1.162,37.891 0.137,37.558 -0.888,37.226 0,36.328 0,35.32 L 0,0 Z"
         style="fill:#333333;fill-opacity:1;fill-rule:nonzero;stroke:none"
         id="path204"
         inkscape:connector-curvature="0" />
    </g>
    <g
       id="g206"
       transform="matrix(1.25,0,0,-1.25,-516.93512,968.24752)"
       style="fill:#333333">
      <path
         d="m 0,0 c -2.685,-1.451 -4.193,-3.402 -7.886,-5.661 -11.836,-7.241 -28.508,-16.752 -40.508,-19.401 l 0,-26.447 c 12,1.731 32.785,11.54 46.408,18.847 4.297,2.305 6.607,4.296 9.836,5.825 17.413,8.25 38.722,9.059 61.886,2.338 3.073,-0.891 5.906,-1.857 8.612,-2.842 L 55.229,-0.321 C 40.423,5.601 19.051,10.292 0,0"
         style="fill:#333333;fill-opacity:1;fill-rule:nonzero;stroke:none"
         id="path208"
         inkscape:connector-curvature="0" />
    </g>
    <g
       id="g210"
       transform="matrix(1.25,0,0,-1.25,-397.78102,1027.3644)"
       style="fill:#333333">
      <path
         d="m 0,0 -8.754,10.246 c -15.12,7.069 -47.485,18.721 -75.512,5.445 -3.063,-1.451 -5.019,-3.402 -9.231,-5.661 -14.513,-7.785 -35.22,-18.191 -50.22,-19.877 l 0,-31.195 c -46,18.154 -79.181,63.005 -79.181,115.491 0,68.554 55.294,124.127 123.848,124.127 68.554,0 123.988,-55.573 123.988,-124.127 C 24.938,46.517 15.571,20.741 0,0 m -10.791,-12.538 c -17.773,3.584 -39.117,4.57 -58.657,-3.374 -3.568,-1.451 -6.684,-3.402 -11.591,-5.661 -11.711,-5.391 -27.001,-12.035 -41.483,-16.172 12.952,6.479 26.369,15.861 37.041,20.774 5.007,2.305 8.209,4.296 11.971,5.825 19.031,7.738 42.2,8.929 67.275,3.5 -1.475,-1.671 -2.994,-3.302 -4.556,-4.892 m -88.538,224.906 c -76.171,0 -137.919,-61.748 -137.919,-137.919 0,-60.095 38.439,-111.204 92.068,-130.104 2.14,-0.754 4.304,-1.457 6.491,-2.107 12.473,-3.708 25.682,-5.709 39.36,-5.709 13.678,0 26.887,2.001 39.36,5.709 12.346,3.67 23.969,9.016 34.601,15.784 2.985,1.901 5.894,3.911 8.717,6.029 7.693,5.77 14.76,12.33 21.088,19.552 1.391,1.587 2.745,3.208 4.063,4.858 0.218,0.274 0.442,0.543 0.659,0.819 18.435,23.45 29.432,53.025 29.432,85.169 0,76.171 -61.749,137.919 -137.92,137.919"
         style="fill:#333333;fill-opacity:1;fill-rule:nonzero;stroke:none"
         id="path212"
         inkscape:connector-curvature="0" />
    </g>
  </g>
</svg>
