<?xml version="1.0" encoding="UTF-8" standalone="no"?>
<!-- Created with Inkscape (http://www.inkscape.org/) -->

<svg
   xmlns:dc="http://purl.org/dc/elements/1.1/"
   xmlns:cc="http://creativecommons.org/ns#"
   xmlns:rdf="http://www.w3.org/1999/02/22-rdf-syntax-ns#"
   xmlns:svg="http://www.w3.org/2000/svg"
   xmlns="http://www.w3.org/2000/svg"
   xmlns:sodipodi="http://sodipodi.sourceforge.net/DTD/sodipodi-0.dtd"
   xmlns:inkscape="http://www.inkscape.org/namespaces/inkscape"
   width="97.309868mm"
   height="97.309868mm"
   viewBox="0 0 344.79874 344.79874"
   id="svg4201"
   version="1.1"
   inkscape:version="0.91 r13725"
   sodipodi:docname="wave-multi.svg">
  <defs
     id="defs4203" />
  <sodipodi:namedview
     id="base"
     pagecolor="#ffffff"
     bordercolor="#666666"
     borderopacity="1.0"
     inkscape:pageopacity="0.0"
     inkscape:pageshadow="2"
     inkscape:zoom="0.35"
     inkscape:cx="406.02611"
     inkscape:cy="721.02603"
     inkscape:document-units="px"
     inkscape:current-layer="layer1"
     showgrid="false"
     fit-margin-top="0"
     fit-margin-left="0"
     fit-margin-right="0"
     fit-margin-bottom="0"
     inkscape:window-width="1920"
     inkscape:window-height="1018"
     inkscape:window-x="-8"
     inkscape:window-y="-8"
     inkscape:window-maximized="1" />
  <metadata
     id="metadata4206">
    <rdf:RDF>
      <cc:Work
         rdf:about="">
        <dc:format>image/svg+xml</dc:format>
        <dc:type
           rdf:resource="http://purl.org/dc/dcmitype/StillImage" />
        <dc:title></dc:title>
      </cc:Work>
    </rdf:RDF>
  </metadata>
  <g
     inkscape:label="Capa 1"
     inkscape:groupmode="layer"
     id="layer1"
     transform="translate(358.16897,-908.58945)">
    <g
       id="g238"
       transform="matrix(1.25,0,0,-1.25,-212.11572,1088.1093)"
       style="fill:#333333">
      <path
         d="M 0,0 C 6.386,4.701 13.765,6.55 21.751,5.555 L 5.758,27.952 C 1.171,28.334 -3.64,27.072 -8.188,22.859 -9.522,21.623 -10.554,19.961 -12.389,18.037 -16.735,13.478 -23.004,7.863 -27.004,4.331 l 0,-24.124 c 7,2.914 15.148,9.622 21.397,14.831 C -3.252,-2.998 -1.77,-1.302 0,0"
         style="fill:#333333;fill-opacity:1;fill-rule:nonzero;stroke:none"
         id="path240"
         inkscape:connector-curvature="0" />
    </g>
    <g
       id="g242"
       transform="matrix(1.25,0,0,-1.25,-203.91422,1121.757)"
       style="fill:#333333">
      <path
         d="M 0,0 C 10.267,6.637 22.781,7.612 36.322,2.877 L 19.154,26.921 C 11.647,28.869 3.189,28.629 -4.65,22.859 -6.329,21.623 -7.77,19.961 -10.079,18.037 -16.858,12.386 -26.565,5.109 -33.565,2.193 l 0,-22.753 c 9,2.294 19.257,9.856 27.103,15.598 C -3.78,-2.998 -2.015,-1.303 0,0"
         style="fill:#333333;fill-opacity:1;fill-rule:nonzero;stroke:none"
         id="path244"
         inkscape:connector-curvature="0" />
    </g>
    <g
       id="g246"
       transform="matrix(1.25,0,0,-1.25,-229.67722,1060.6641)"
       style="fill:#333333">
      <path
         d="m 0,0 c 1.872,1.964 3.089,3.659 4.496,4.962 3.665,3.395 7.667,5.296 12.039,5.724 L 2.279,30.596 C 1.244,29.865 0.197,28.951 -0.814,27.821 -1.92,26.585 -2.69,24.923 -4.21,22.999 -6.935,19.55 -9.955,15.497 -12.955,12.198 l 0,-24.683 C -8.955,-9.108 -3.902,-4.093 0,0"
         style="fill:#333333;fill-opacity:1;fill-rule:nonzero;stroke:none"
         id="path248"
         inkscape:connector-curvature="0" />
    </g>
    <g
       id="g250"
       transform="matrix(1.25,0,0,-1.25,-232.13812,1020.8138)"
       style="fill:#333333">
      <path
         d="M 0,0 C 0.653,0.73 1.264,1.376 1.948,1.969 L -8.819,17.005 c -0.481,0.673 -0.755,0.935 -1.485,0.652 -0.73,-0.283 -0.682,-1.048 -0.682,-1.907 l 0,-30.084 c 1,2.96 5.017,6.408 7.359,9.372 C -2.076,-2.998 -1.165,-1.302 0,0"
         style="fill:#333333;fill-opacity:1;fill-rule:nonzero;stroke:none"
         id="path252"
         inkscape:connector-curvature="0" />
    </g>
    <g
       id="g254"
       transform="matrix(1.25,0,0,-1.25,-201.19422,1126.8312)"
       style="fill:#333333">
      <path
         d="m 0,0 c -1.912,-1.236 -3.629,-2.898 -6.259,-4.822 -8.426,-6.168 -19.482,-14.269 -29.482,-16.525 l 0,-22.527 c 10,1.474 23.985,9.829 33.683,16.053 3.059,1.964 5.303,3.66 7.601,4.962 12.397,7.027 27.591,7.716 44.082,1.992 2.188,-0.76 4.216,-1.582 6.142,-2.422 L 39.314,-0.273 C 28.773,4.771 13.563,8.767 0,0"
         style="fill:#333333;fill-opacity:1;fill-rule:nonzero;stroke:none"
         id="path256"
         inkscape:connector-curvature="0" />
    </g>
    <g
       id="g258"
       transform="matrix(1.25,0,0,-1.25,-271.08942,1133.0633)"
       style="fill:#333333">
      <path
         d="m 0,0 c -1.835,1.924 -3.273,3.586 -4.607,4.822 -4.548,4.213 -9.435,5.475 -14.022,5.093 l -16.032,-22.397 c 7.986,0.995 15.346,-0.854 21.732,-5.555 1.769,-1.302 3.802,-2.998 6.157,-4.962 6.249,-5.209 14.947,-11.917 21.947,-14.831 l 0,24.124 C 11.175,-10.174 4.346,-4.559 0,0"
         style="fill:#333333;fill-opacity:1;fill-rule:nonzero;stroke:none"
         id="path260"
         inkscape:connector-curvature="0" />
    </g>
    <g
       id="g262"
       transform="matrix(1.25,0,0,-1.25,-268.67162,1093.3881)"
       style="fill:#333333">
      <path
         d="m 0,0 c -1.012,1.131 -2.039,2.044 -3.074,2.775 l -14.218,-19.91 c 4.372,-0.427 8.451,-2.328 12.116,-5.724 1.406,-1.302 3.03,-2.998 4.902,-4.962 3.902,-4.093 9.515,-9.108 13.515,-12.484 l 0,24.683 c -3,3.299 -6.57,7.351 -9.295,10.8 C 2.426,-2.898 1.105,-1.236 0,0"
         style="fill:#333333;fill-opacity:1;fill-rule:nonzero;stroke:none"
         id="path264"
         inkscape:connector-curvature="0" />
    </g>
    <g
       id="g266"
       transform="matrix(1.25,0,0,-1.25,-253.67692,1066.2428)"
       style="fill:#333333">
      <path
         d="m 0,0 c -0.73,0.284 -1.414,0.021 -1.895,-0.652 l -10.85,-15.036 c 0.684,-0.593 1.243,-1.239 1.896,-1.969 1.166,-1.302 2.643,-2.998 4.194,-4.962 2.343,-2.964 6.9,-6.412 7.9,-9.372 l 0,30.085 C 1.245,-1.048 0.73,-0.283 0,0"
         style="fill:#333333;fill-opacity:1;fill-rule:nonzero;stroke:none"
         id="path268"
         inkscape:connector-curvature="0" />
    </g>
    <g
       id="g270"
       transform="matrix(1.25,0,0,-1.25,-41.687716,1069.4157)"
       style="fill:#333333">
      <path
         d="m 0,0 c -1.521,1.924 -2.587,3.586 -3.693,4.822 -1.011,1.131 -2.038,2.044 -3.074,2.775 l -14.217,-19.91 c 4.372,-0.427 8.451,-2.328 12.116,-5.724 1.406,-1.302 2.776,-2.998 4.648,-4.962 3.131,-3.283 7.19,-7.148 10.742,-10.297 -0.283,-1.444 -0.593,-2.879 -0.926,-4.305 -3.733,3.277 -8.227,7.275 -11.476,10.683 -1.835,1.924 -3.173,3.586 -4.507,4.822 -4.548,4.213 -9.359,5.475 -13.946,5.093 L -40.326,-39.4 c 7.986,0.995 15.365,-0.854 21.751,-5.555 1.769,-1.302 3.558,-2.998 5.913,-4.962 3.319,-2.766 7.26,-5.952 11.275,-8.771 -0.575,-1.322 -1.17,-2.633 -1.789,-3.931 -4.145,2.848 -8.25,6.01 -11.575,8.783 -2.309,1.924 -4.056,3.586 -5.735,4.822 -7.839,5.77 -16.298,6.01 -23.804,4.062 l -17.169,-24.044 c 13.541,4.735 26.056,3.76 36.323,-2.877 2.015,-1.303 4.086,-2.998 6.768,-4.962 1.525,-1.117 3.156,-2.302 4.855,-3.504 -0.875,-1.25 -1.771,-2.483 -2.69,-3.698 -1.584,1.124 -3.109,2.232 -4.545,3.282 -2.629,1.925 -4.653,3.587 -6.564,4.823 -13.563,8.766 -39.774,-0.945 -39.774,-0.945 -11.179,6.046 -33.355,14.959 -52.647,4.026 -2.181,-1.235 -4.217,-2.897 -7.216,-4.822 -10.332,-6.63 -24.397,-15.494 -36.397,-16.93 l 0,-22.339 c 13,0.344 30.302,9.551 42.501,16.271 3.565,1.963 6.245,3.659 8.923,4.962 10.306,5.013 22.245,6.782 35.26,5.315 4.79,-0.539 9.676,-1.519 14.703,-2.942 2.408,0.275 4.751,0.383 7.07,0.352 8.058,-0.107 15.539,-2.034 22.196,-5.807 0.675,-0.382 1.355,-0.802 2.061,-1.249 -1.209,-1.127 -2.435,-2.237 -3.688,-3.316 -0.29,0.175 -0.579,0.344 -0.863,0.505 -8.974,5.086 -18.57,5.87 -27.396,4.653 -3.373,1.003 -6.991,1.88 -10.765,2.519 -2.147,0.363 -4.343,0.647 -6.575,0.83 -9.534,0.784 -19.703,-0.269 -29.264,-4.92 -2.541,-1.236 -5.312,-2.898 -8.806,-4.822 -12.895,-7.103 -30.97,-18.515 -45.97,-18.867 -15.85,6.769 -30.01,16.733 -41.658,29.095 0.875,-0.47 1.741,-0.964 2.586,-1.51 2.015,-1.303 4.339,-2.998 7.022,-4.962 7.845,-5.743 18.663,-13.304 27.663,-15.598 l 0,22.753 c -7,2.916 -17.268,10.193 -24.047,15.844 -2.308,1.924 -4.156,3.586 -5.835,4.822 -7.839,5.77 -16.374,6.01 -23.88,4.062 l -1.123,-1.518 c -10.26,18.064 -16.143,38.952 -16.143,61.211 0,68.554 55.564,124.128 124.118,124.128 57.239,0 105.415,-38.747 119.763,-91.439 L -4.503,10.85 C -3.819,10.257 -3.209,9.612 -2.556,8.881 -1.391,7.579 -0.175,5.883 1.377,3.919 3.551,1.167 7.43,-2.001 8.774,-4.81 8.826,-6.287 8.862,-7.769 8.862,-9.259 8.862,-9.7 8.846,-10.137 8.842,-10.577 5.894,-7.319 2.665,-3.373 0,0 m -60.215,-120.512 c -0.885,-0.439 -1.767,-0.883 -2.664,-1.301 -11.141,0.827 -23.037,-0.195 -34.218,-4.874 -2.953,-1.236 -6.46,-3.185 -10.521,-5.11 -0.719,-0.34 -1.452,-0.964 -2.196,-1.463 -1.808,-0.079 -3.624,-0.126 -5.452,-0.126 -2.09,0 -4.167,0.056 -6.231,0.158 3.601,1.4 7.036,3.85 10.203,5.351 4.143,1.964 7.722,3.947 10.835,5.249 0.324,0.136 0.655,0.258 0.981,0.388 12.906,5.167 28.045,6.648 44.429,4.423 -1.695,-0.943 -3.423,-1.831 -5.166,-2.695 m -55.051,249.173 c -76.171,0 -137.919,-61.749 -137.919,-137.92 0,-27 7.766,-52.184 21.175,-73.452 1.616,-2.563 3.314,-5.067 5.09,-7.512 1.119,-1.541 2.266,-3.061 3.446,-4.552 14.293,-18.061 33.009,-32.463 54.515,-41.561 16.503,-6.982 34.647,-10.842 53.693,-10.842 21.064,0 41.02,4.729 58.877,13.172 4.962,2.346 9.757,4.985 14.372,7.884 0.266,0.167 0.538,0.325 0.803,0.494 1.838,1.172 3.645,2.386 5.422,3.642 0.353,0.249 0.703,0.502 1.054,0.755 4.359,3.14 8.526,6.529 12.483,10.145 1.222,1.117 2.417,2.263 3.598,3.422 5.087,4.994 9.785,10.38 14.052,16.108 0.924,1.24 1.829,2.493 2.712,3.764 4.005,5.771 7.59,11.855 10.691,18.22 8.875,18.219 13.856,38.684 13.856,60.313 0,76.171 -61.749,137.92 -137.92,137.92"
         style="fill:#333333;fill-opacity:1;fill-rule:nonzero;stroke:none"
         id="path272"
         inkscape:connector-curvature="0" />
    </g>
  </g>
</svg>
