<?xml version="1.0" encoding="UTF-8" standalone="no"?>
<!-- Created with Inkscape (http://www.inkscape.org/) -->

<svg
   xmlns:dc="http://purl.org/dc/elements/1.1/"
   xmlns:cc="http://creativecommons.org/ns#"
   xmlns:rdf="http://www.w3.org/1999/02/22-rdf-syntax-ns#"
   xmlns:svg="http://www.w3.org/2000/svg"
   xmlns="http://www.w3.org/2000/svg"
   xmlns:sodipodi="http://sodipodi.sourceforge.net/DTD/sodipodi-0.dtd"
   xmlns:inkscape="http://www.inkscape.org/namespaces/inkscape"
   width="97.309868mm"
   height="97.309868mm"
   viewBox="0 0 344.79874 344.79874"
   id="svg4201"
   version="1.1"
   inkscape:version="0.91 r13725"
   sodipodi:docname="wave-left.svg">
  <defs
     id="defs4203" />
  <sodipodi:namedview
     id="base"
     pagecolor="#ffffff"
     bordercolor="#666666"
     borderopacity="1.0"
     inkscape:pageopacity="0.0"
     inkscape:pageshadow="2"
     inkscape:zoom="0.35"
     inkscape:cx="1494.5422"
     inkscape:cy="-401.88634"
     inkscape:document-units="px"
     inkscape:current-layer="layer1"
     showgrid="false"
     fit-margin-top="0"
     fit-margin-left="0"
     fit-margin-right="0"
     fit-margin-bottom="0"
     inkscape:window-width="1920"
     inkscape:window-height="1018"
     inkscape:window-x="-8"
     inkscape:window-y="-8"
     inkscape:window-maximized="1" />
  <metadata
     id="metadata4206">
    <rdf:RDF>
      <cc:Work
         rdf:about="">
        <dc:format>image/svg+xml</dc:format>
        <dc:type
           rdf:resource="http://purl.org/dc/dcmitype/StillImage" />
        <dc:title></dc:title>
      </cc:Work>
    </rdf:RDF>
  </metadata>
  <g
     inkscape:label="Capa 1"
     inkscape:groupmode="layer"
     id="layer1"
     transform="translate(1446.6851,214.32289)">
    <g
       id="g214"
       transform="matrix(1.25,0,0,-1.25,-1305.6248,-79.909785)"
       style="fill:#333333">
      <path
         d="m 0,0 c -6.105,-5.352 -15.932,-11.945 -19.932,-16.091 l 0,-28.322 c 9,3.421 20.68,11.297 29.457,17.412 3.309,2.305 4.919,4.296 7.405,5.826 8.969,5.519 19.272,7.689 30.488,6.521 L 24.923,11.641 C 18.479,12.089 11.833,10.607 5.444,5.661 3.57,4.21 2.577,2.259 0,0"
         style="fill:#333333;fill-opacity:1;fill-rule:nonzero;stroke:none"
         id="path216"
         inkscape:connector-curvature="0" />
    </g>
    <g
       id="g218"
       transform="matrix(1.25,0,0,-1.25,-1281.2646,-47.483185)"
       style="fill:#333333">
      <path
         d="M 0,0 C -2.358,-1.451 -3.785,-3.402 -7.028,-5.661 -16.55,-12.295 -30.42,-20.838 -39.42,-24.262 l 0,-26.713 c 12,2.694 26.452,11.571 37.472,18.313 3.768,2.305 5.774,4.296 8.605,5.825 14.421,7.792 31.937,8.937 50.956,3.378 L 33.466,4.77 C 22.923,7.056 11.011,6.774 0,0"
         style="fill:#333333;fill-opacity:1;fill-rule:nonzero;stroke:none"
         id="path220"
         inkscape:connector-curvature="0" />
    </g>
    <g
       id="g222"
       transform="matrix(1.25,0,0,-1.25,-1150.1251,51.137115)"
       style="fill:#333333">
      <path
         d="m 0,0 -8.753,10.246 c -15.12,7.069 -47.485,18.721 -75.513,5.445 -3.063,-1.451 -5.327,-3.402 -9.539,-5.661 -14.512,-7.785 -35.527,-18.191 -50.527,-19.877 l 0,-31.195 c -46,18.154 -78.874,63.005 -78.874,115.491 0,68.554 55.449,124.127 124.002,124.127 68.554,0 124.065,-55.573 124.065,-124.127 C 24.861,46.517 15.571,20.741 0,0 m -10.791,-12.538 c -17.773,3.584 -39.117,4.57 -58.657,-3.374 -3.568,-1.451 -6.684,-3.402 -11.591,-5.661 -11.711,-5.391 -27.001,-12.035 -41.483,-16.172 12.952,6.479 26.369,15.861 37.041,20.774 5.007,2.305 8.209,4.296 11.971,5.825 19.032,7.738 42.2,8.929 67.275,3.5 -1.475,-1.671 -2.994,-3.302 -4.556,-4.892 m -88.538,224.906 c -76.171,0 -137.919,-61.748 -137.919,-137.919 0,-60.095 38.439,-111.204 92.068,-130.104 2.14,-0.754 4.304,-1.457 6.491,-2.107 12.474,-3.708 25.682,-5.709 39.36,-5.709 13.678,0 26.887,2.001 39.36,5.709 12.346,3.67 23.969,9.016 34.601,15.784 2.985,1.901 5.894,3.911 8.717,6.029 7.693,5.77 14.76,12.33 21.088,19.552 1.391,1.587 2.745,3.208 4.063,4.858 0.218,0.274 0.442,0.543 0.659,0.819 18.435,23.45 29.432,53.025 29.432,85.169 0,76.171 -61.749,137.919 -137.92,137.919"
         style="fill:#333333;fill-opacity:1;fill-rule:nonzero;stroke:none"
         id="path224"
         inkscape:connector-curvature="0" />
    </g>
    <g
       id="g226"
       transform="matrix(1.25,0,0,-1.25,-1315.9495,-119.41318)"
       style="fill:#333333">
      <path
         d="m 0,0 c -3.827,-4.049 -10.672,-8.807 -11.672,-12.68 l 0,-28.978 c 4,3.964 12.119,9.852 17.599,14.657 2.629,2.305 3.653,4.296 5.628,5.825 5.148,3.987 10.814,6.218 16.955,6.72 L 8.509,8.92 C 7.055,8.061 5.721,6.989 4.301,5.661 2.748,4.21 2.136,2.259 0,0"
         style="fill:#333333;fill-opacity:1;fill-rule:nonzero;stroke:none"
         id="path228"
         inkscape:connector-curvature="0" />
    </g>
    <g
       id="g230"
       transform="matrix(1.25,0,0,-1.25,-1330.5398,-111.41178)"
       style="fill:#333333">
      <path
         d="m 0,0 c 0,3.475 6.45,7.523 9.739,11.003 2.179,2.305 3.375,4.296 5.012,5.825 0.917,0.858 1.519,1.615 2.479,2.312 L 1.978,36.793 C 1.302,37.582 1.45,37.891 0.425,37.558 -0.6,37.226 0,36.328 0,35.32 L 0,0 Z"
         style="fill:#333333;fill-opacity:1;fill-rule:nonzero;stroke:none"
         id="path232"
         inkscape:connector-curvature="0" />
    </g>
    <g
       id="g234"
       transform="matrix(1.25,0,0,-1.25,-1269.2792,-7.9797846)"
       style="fill:#333333">
      <path
         d="m 0,0 c -2.685,-1.451 -4.501,-3.402 -8.194,-5.661 -11.836,-7.241 -28.814,-16.752 -40.814,-19.401 l 0,-26.447 c 12,1.731 33.092,11.54 46.714,18.847 4.298,2.305 6.762,4.296 9.99,5.825 17.413,8.25 38.799,9.059 61.963,2.338 3.073,-0.891 5.945,-1.857 8.65,-2.842 L 55.21,-0.321 C 40.403,5.601 19.051,10.292 0,0"
         style="fill:#333333;fill-opacity:1;fill-rule:nonzero;stroke:none"
         id="path236"
         inkscape:connector-curvature="0" />
    </g>
  </g>
</svg>
