<?xml version="1.0" encoding="UTF-8" standalone="no"?>
<!-- Created with Inkscape (http://www.inkscape.org/) -->

<svg
   xmlns:dc="http://purl.org/dc/elements/1.1/"
   xmlns:cc="http://creativecommons.org/ns#"
   xmlns:rdf="http://www.w3.org/1999/02/22-rdf-syntax-ns#"
   xmlns:svg="http://www.w3.org/2000/svg"
   xmlns="http://www.w3.org/2000/svg"
   xmlns:sodipodi="http://sodipodi.sourceforge.net/DTD/sodipodi-0.dtd"
   xmlns:inkscape="http://www.inkscape.org/namespaces/inkscape"
   width="167.64mm"
   height="167.64mm"
   viewBox="0 0 594 594"
   id="svg5187"
   version="1.1"
   inkscape:version="0.91 r13725"
   sodipodi:docname="swell-monstrous.svg">
  <defs
     id="defs5189">
    <clipPath
       id="clipPath3894"
       clipPathUnits="userSpaceOnUse">
      <path
         inkscape:connector-curvature="0"
         id="path3896"
         d="m 0,1384 1062,0 L 1062,0 0,0 0,1384 Z" />
    </clipPath>
    <clipPath
       id="clipPath4150"
       clipPathUnits="userSpaceOnUse">
      <path
         inkscape:connector-curvature="0"
         id="path4152"
         d="m 99.6069,480.737 409.7721,0 0,-172.387 -409.7721,0 0,172.387 z" />
    </clipPath>
    <clipPath
       id="clipPath4170"
       clipPathUnits="userSpaceOnUse">
      <path
         inkscape:connector-curvature="0"
         id="path4172"
         d="m 78.196,571.928 435.999,0 0,-189.876 -435.999,0 0,189.876 z" />
    </clipPath>
    <clipPath
       id="clipPath4186"
       clipPathUnits="userSpaceOnUse">
      <path
         inkscape:connector-curvature="0"
         id="path4188"
         d="m 73.9557,684.23 440.6403,0 0,-234.575 -440.6403,0 0,234.575 z" />
    </clipPath>
    <clipPath
       id="clipPath4274"
       clipPathUnits="userSpaceOnUse">
      <path
         inkscape:connector-curvature="0"
         id="path4276"
         d="m 555.092,881.834 435.999,0 0,-189.876 -435.999,0 0,189.876 z" />
    </clipPath>
    <clipPath
       id="clipPath4290"
       clipPathUnits="userSpaceOnUse">
      <path
         inkscape:connector-curvature="0"
         id="path4292"
         d="m 550.852,994.136 440.64,0 0,-234.575 -440.64,0 0,234.575 z" />
    </clipPath>
    <clipPath
       id="clipPath4386"
       clipPathUnits="userSpaceOnUse">
      <path
         inkscape:connector-curvature="0"
         id="path4388"
         d="m 75.8756,1257.06 440.6404,0 0,-234.58 -440.6404,0 0,234.58 z" />
    </clipPath>
  </defs>
  <sodipodi:namedview
     id="base"
     pagecolor="#ffffff"
     bordercolor="#666666"
     borderopacity="1.0"
     inkscape:pageopacity="0.0"
     inkscape:pageshadow="2"
     inkscape:zoom="0.35"
     inkscape:cx="-49.613679"
     inkscape:cy="72.069405"
     inkscape:document-units="px"
     inkscape:current-layer="layer1"
     showgrid="false"
     fit-margin-top="0"
     fit-margin-left="0"
     fit-margin-right="0"
     fit-margin-bottom="0"
     inkscape:window-width="1920"
     inkscape:window-height="1018"
     inkscape:window-x="-8"
     inkscape:window-y="-8"
     inkscape:window-maximized="1" />
  <metadata
     id="metadata5192">
    <rdf:RDF>
      <cc:Work
         rdf:about="">
        <dc:format>image/svg+xml</dc:format>
        <dc:type
           rdf:resource="http://purl.org/dc/dcmitype/StillImage" />
        <dc:title></dc:title>
      </cc:Work>
    </rdf:RDF>
  </metadata>
  <g
     inkscape:label="Capa 1"
     inkscape:groupmode="layer"
     id="layer1"
     transform="translate(-6.04225,-10.43161)">
    <g
       transform="matrix(1.25,0,0,-1.25,46.006879,291.23673)"
       id="g3898"
       style="fill:#666666">
      <path
         inkscape:connector-curvature="0"
         id="path3900"
         style="fill:#666666;fill-opacity:1;fill-rule:nonzero;stroke:none"
         d="M 0,0 C 0.569,-0.129 1.152,-0.26 1.745,-0.394 1.152,-0.26 0.57,-0.129 0,0" />
    </g>
    <g
       transform="matrix(1.25,0,0,-1.25,218.87413,84.848114)"
       id="g3902"
       style="fill:#666666">
      <path
         inkscape:connector-curvature="0"
         id="path3904"
         style="fill:#666666;fill-opacity:1;fill-rule:nonzero;stroke:none"
         d="M 0,0 C 1.271,0.046 2.533,0.106 3.832,0.106 2.575,0.106 1.295,0.067 0,0" />
    </g>
    <g
       transform="matrix(1.25,0,0,-1.25,56.905129,293.67836)"
       id="g3906"
       style="fill:#666666">
      <path
         inkscape:connector-curvature="0"
         id="path3908"
         style="fill:#666666;fill-opacity:1;fill-rule:nonzero;stroke:none"
         d="M 0,0 C 0.916,-0.204 1.845,-0.409 2.793,-0.619 1.845,-0.409 0.916,-0.204 0,0" />
    </g>
    <g
       transform="matrix(1.25,0,0,-1.25,49.253629,291.96848)"
       id="g3910"
       style="fill:#666666">
      <path
         inkscape:connector-curvature="0"
         id="path3912"
         style="fill:#666666;fill-opacity:1;fill-rule:nonzero;stroke:none"
         d="M 0,0 C 0.725,-0.163 1.468,-0.33 2.224,-0.499 1.468,-0.33 0.725,-0.163 0,0" />
    </g>
    <g
       transform="matrix(1.25,0,0,-1.25,551.14963,214.60561)"
       id="g3914"
       style="fill:#666666">
      <path
         inkscape:connector-curvature="0"
         id="path3916"
         style="fill:#666666;fill-opacity:1;fill-rule:nonzero;stroke:none"
         d="M 0,0 C -1.478,0.452 -2.948,0.897 -4.438,1.362 -2.948,0.897 -1.478,0.452 0,0" />
    </g>
    <g
       transform="matrix(1.25,0,0,-1.25,53.067259,292.82323)"
       id="g3918"
       style="fill:#666666">
      <path
         inkscape:connector-curvature="0"
         id="path3920"
         style="fill:#666666;fill-opacity:1;fill-rule:nonzero;stroke:none"
         d="M 0,0 C 0.809,-0.181 1.631,-0.364 2.47,-0.551 1.63,-0.364 0.809,-0.181 0,0" />
    </g>
    <g
       transform="matrix(1.25,0,0,-1.25,34.239999,288.55373)"
       id="g3922"
       style="fill:#666666">
      <path
         inkscape:connector-curvature="0"
         id="path3924"
         style="fill:#666666;fill-opacity:1;fill-rule:nonzero;stroke:none"
         d="M 0,0 C 0.419,-0.097 0.861,-0.198 1.319,-0.303 0.863,-0.198 0.417,-0.096 0,0" />
    </g>
    <g
       transform="matrix(1.25,0,0,-1.25,36.945759,289.17511)"
       id="g3926"
       style="fill:#666666">
      <path
         inkscape:connector-curvature="0"
         id="path3928"
         style="fill:#666666;fill-opacity:1;fill-rule:nonzero;stroke:none"
         d="M 0,0 C 0.465,-0.107 0.946,-0.217 1.445,-0.331 0.944,-0.216 0.466,-0.107 0,0" />
    </g>
    <g
       transform="matrix(1.25,0,0,-1.25,60.813749,294.54373)"
       id="g3930"
       style="fill:#666666">
      <path
         inkscape:connector-curvature="0"
         id="path3932"
         style="fill:#666666;fill-opacity:1;fill-rule:nonzero;stroke:none"
         d="M 0,0 C 0.877,-0.193 1.767,-0.389 2.668,-0.587 1.767,-0.39 0.876,-0.193 0,0" />
    </g>
    <g
       transform="matrix(1.25,0,0,-1.25,533.4465,209.02698)"
       id="g3934"
       style="fill:#666666">
      <path
         inkscape:connector-curvature="0"
         id="path3936"
         style="fill:#666666;fill-opacity:1;fill-rule:nonzero;stroke:none"
         d="M 0,0 C 1.518,-0.494 3.016,-0.967 4.523,-1.448 3.016,-0.967 1.518,-0.494 0,0" />
    </g>
    <g
       transform="matrix(1.25,0,0,-1.25,39.643129,289.79174)"
       id="g3938"
       style="fill:#666666">
      <path
         inkscape:connector-curvature="0"
         id="path3940"
         style="fill:#666666;fill-opacity:1;fill-rule:nonzero;stroke:none"
         d="M 0,0 C 0.602,-0.137 1.219,-0.278 1.863,-0.424 1.217,-0.278 0.603,-0.138 0,0" />
    </g>
    <g
       transform="matrix(1.25,0,0,-1.25,42.527759,290.44861)"
       id="g3942"
       style="fill:#666666">
      <path
         inkscape:connector-curvature="0"
         id="path3944"
         style="fill:#666666;fill-opacity:1;fill-rule:nonzero;stroke:none"
         d="M 0,0 C 0.53,-0.12 1.073,-0.244 1.629,-0.37 1.076,-0.244 0.528,-0.12 0,0" />
    </g>
    <g
       transform="matrix(1.25,0,0,-1.25,64.998249,295.46411)"
       id="g3946"
       style="fill:#666666">
      <path
         inkscape:connector-curvature="0"
         id="path3948"
         style="fill:#666666;fill-opacity:1;fill-rule:nonzero;stroke:none"
         d="M 0,0 C 0.92,-0.202 1.854,-0.406 2.796,-0.611 1.854,-0.406 0.92,-0.202 0,0" />
    </g>
    <g
       transform="matrix(1.25,0,0,-1.25,56.155009,293.51173)"
       id="g3950"
       style="fill:#666666">
      <path
         inkscape:connector-curvature="0"
         id="path3952"
         style="fill:#666666;fill-opacity:1;fill-rule:nonzero;stroke:none"
         d="M 0,0 C 0.199,-0.044 0.4,-0.089 0.6,-0.133 0.4,-0.089 0.198,-0.044 0,0" />
    </g>
    <g
       transform="matrix(1.25,0,0,-1.25,38.751629,289.58836)"
       id="g3954"
       style="fill:#666666">
      <path
         inkscape:connector-curvature="0"
         id="path3956"
         style="fill:#666666;fill-opacity:1;fill-rule:nonzero;stroke:none"
         d="M 0,0 C 0.233,-0.053 0.473,-0.108 0.713,-0.163 0.474,-0.108 0.233,-0.053 0,0" />
    </g>
    <g
       transform="matrix(1.25,0,0,-1.25,52.033379,292.59198)"
       id="g3958"
       style="fill:#666666">
      <path
         inkscape:connector-curvature="0"
         id="path3960"
         style="fill:#666666;fill-opacity:1;fill-rule:nonzero;stroke:none"
         d="M 0,0 C 0.274,-0.061 0.549,-0.123 0.827,-0.185 0.55,-0.123 0.274,-0.061 0,0" />
    </g>
    <g
       transform="matrix(1.25,0,0,-1.25,35.888499,288.93261)"
       id="g3962"
       style="fill:#666666">
      <path
         inkscape:connector-curvature="0"
         id="path3964"
         style="fill:#666666;fill-opacity:1;fill-rule:nonzero;stroke:none"
         d="M 0,0 C 0.276,-0.063 0.557,-0.128 0.846,-0.194 0.557,-0.128 0.276,-0.063 0,0" />
    </g>
    <g
       transform="matrix(1.25,0,0,-1.25,44.564499,290.91061)"
       id="g3966"
       style="fill:#666666">
      <path
         inkscape:connector-curvature="0"
         id="path3968"
         style="fill:#666666;fill-opacity:1;fill-rule:nonzero;stroke:none"
         d="M 0,0 C 0.38,-0.086 0.762,-0.173 1.154,-0.261 0.763,-0.173 0.379,-0.086 0,0" />
    </g>
    <g
       transform="matrix(1.25,0,0,-1.25,48.188249,291.72874)"
       id="g3970"
       style="fill:#666666">
      <path
         inkscape:connector-curvature="0"
         id="path3972"
         style="fill:#666666;fill-opacity:1;fill-rule:nonzero;stroke:none"
         d="M 0,0 C 0.283,-0.064 0.564,-0.127 0.852,-0.192 0.564,-0.127 0.283,-0.064 0,0" />
    </g>
    <g
       transform="matrix(1.25,0,0,-1.25,60.396499,294.45186)"
       id="g3974"
       style="fill:#666666">
      <path
         inkscape:connector-curvature="0"
         id="path3976"
         style="fill:#666666;fill-opacity:1;fill-rule:nonzero;stroke:none"
         d="M 0,0 C 0.11,-0.024 0.223,-0.049 0.334,-0.074 0.223,-0.049 0.11,-0.024 0,0" />
    </g>
    <g
       transform="matrix(1.25,0,0,-1.25,510.516,276.85836)"
       id="g3978"
       style="fill:#666666">
      <path
         inkscape:connector-curvature="0"
         id="path3980"
         style="fill:#666666;fill-opacity:1;fill-rule:nonzero;stroke:none"
         d="M 0,0 C -0.423,0.234 -0.846,0.469 -1.267,0.703 -0.846,0.469 -0.423,0.234 0,0" />
    </g>
    <g
       transform="matrix(1.25,0,0,-1.25,41.972129,290.32236)"
       id="g3982"
       style="fill:#666666">
      <path
         inkscape:connector-curvature="0"
         id="path3984"
         style="fill:#666666;fill-opacity:1;fill-rule:nonzero;stroke:none"
         d="M 0,0 C 0.145,-0.033 0.297,-0.068 0.444,-0.101 0.297,-0.068 0.145,-0.033 0,0" />
    </g>
    <g
       transform="matrix(1.25,0,0,-1.25,68.492759,296.22736)"
       id="g3986"
       style="fill:#666666">
      <path
         inkscape:connector-curvature="0"
         id="path3988"
         style="fill:#666666;fill-opacity:1;fill-rule:nonzero;stroke:none"
         d="M 0,0 C 0.267,-0.058 0.532,-0.116 0.801,-0.174 0.533,-0.116 0.266,-0.058 0,0" />
    </g>
    <g
       transform="matrix(1.25,0,0,-1.25,539.09988,210.83686)"
       id="g3990"
       style="fill:#666666">
      <path
         inkscape:connector-curvature="0"
         id="path3992"
         style="fill:#666666;fill-opacity:1;fill-rule:nonzero;stroke:none"
         d="M 0,0 C 1.738,-0.555 3.48,-1.115 5.202,-1.653 3.48,-1.115 1.738,-0.555 0,0" />
    </g>
    <g
       transform="matrix(1.25,0,0,-1.25,64.148129,295.27761)"
       id="g3994"
       style="fill:#666666">
      <path
         inkscape:connector-curvature="0"
         id="path3996"
         style="fill:#666666;fill-opacity:1;fill-rule:nonzero;stroke:none"
         d="M 0,0 C 0.227,-0.05 0.452,-0.099 0.68,-0.149 0.452,-0.099 0.227,-0.05 0,0" />
    </g>
    <g
       transform="matrix(1.25,0,0,-1.25,572.69975,323.61211)"
       id="g3998"
       style="fill:#666666">
      <path
         inkscape:connector-curvature="0"
         id="path4000"
         style="fill:#666666;fill-opacity:1;fill-rule:nonzero;stroke:none"
         d="M 0,0 -1.187,0.652 0,0 Z" />
    </g>
    <g
       transform="matrix(1.25,0,0,-1.25,79.236379,435.37436)"
       id="g4002"
       style="fill:#666666">
      <path
         inkscape:connector-curvature="0"
         id="path4004"
         style="fill:#666666;fill-opacity:1;fill-rule:nonzero;stroke:none"
         d="m 0,0 c -0.778,-0.213 -1.559,-0.436 -2.342,-0.658 l -0.59,-0.168 c 1.033,0.293 2.068,0.588 3.081,0.865 C 0.099,0.026 0.05,0.014 0,0" />
    </g>
    <g
       transform="matrix(1.25,0,0,-1.25,64.961129,439.54336)"
       id="g4006"
       style="fill:#666666">
      <path
         inkscape:connector-curvature="0"
         id="path4008"
         style="fill:#666666;fill-opacity:1;fill-rule:nonzero;stroke:none"
         d="m 0,0 c 0,-0.001 0,-0.001 0.001,-0.002 0.078,0.024 0.158,0.05 0.236,0.074 L 0,0 Z" />
    </g>
    <g
       transform="matrix(1.25,0,0,-1.25,133.991,426.08223)"
       id="g4010"
       style="fill:#666666">
      <path
         inkscape:connector-curvature="0"
         id="path4012"
         style="fill:#666666;fill-opacity:1;fill-rule:nonzero;stroke:none"
         d="M 0,0 -0.326,-0.001 0.004,0 C 0.003,0 0.001,0 0,0" />
    </g>
    <g
       transform="matrix(1.25,0,0,-1.25,71.902379,437.45673)"
       id="g4014"
       style="fill:#666666">
      <path
         inkscape:connector-curvature="0"
         id="path4016"
         style="fill:#666666;fill-opacity:1;fill-rule:nonzero;stroke:none"
         d="m 0,0 c -0.938,-0.275 -1.887,-0.562 -2.834,-0.847 1.029,0.31 2.058,0.619 3.07,0.914 C 0.157,0.045 0.079,0.023 0,0" />
    </g>
    <g
       transform="matrix(1.25,0,0,-1.25,133.54526,415.10336)"
       id="g4018"
       style="fill:#666666">
      <path
         inkscape:connector-curvature="0"
         id="path4020"
         style="fill:#666666;fill-opacity:1;fill-rule:nonzero;stroke:none"
         d="m 0,0 0.36,0.001 c -0.001,0 -0.002,0 -0.003,0 L 0,0 Z" />
    </g>
    <g
       transform="matrix(1.25,0,0,-1.25,573.15825,365.35161)"
       id="g4022"
       style="fill:#666666">
      <path
         inkscape:connector-curvature="0"
         id="path4024"
         style="fill:#666666;fill-opacity:1;fill-rule:nonzero;stroke:none"
         d="M 0,0 C 0,0 0,0 0,0 0,0 0,0 0,0" />
    </g>
    <g
       transform="matrix(1.25,0,0,-1.25,572.51738,364.93148)"
       id="g4026"
       style="fill:#666666">
      <path
         inkscape:connector-curvature="0"
         id="path4028"
         style="fill:#666666;fill-opacity:1;fill-rule:nonzero;stroke:none"
         d="m 0,0 c 0.17,-0.115 0.339,-0.218 0.509,-0.334 0,0 0,0 0,0 0,0 0,0 0,0 C 0.339,-0.218 0.17,-0.115 0,0" />
    </g>
    <g
       transform="matrix(1.25,0,0,-1.25,573.15401,365.34886)"
       id="g4030"
       style="fill:#666666">
      <path
         inkscape:connector-curvature="0"
         id="path4032"
         style="fill:#666666;fill-opacity:1;fill-rule:nonzero;stroke:none"
         d="M 0,0 C 0.001,-0.001 0.002,-0.001 0.003,-0.002 0.002,-0.001 0.001,-0.001 0,0 0,0 0,0 0,0" />
    </g>
    <g
       transform="matrix(1.25,0,0,-1.25,149.51488,535.18423)"
       id="g4034"
       style="fill:#666666">
      <path
         inkscape:connector-curvature="0"
         id="path4036"
         style="fill:#666666;fill-opacity:1;fill-rule:nonzero;stroke:none"
         d="M 0,0 C 0.003,-0.002 0.007,-0.005 0.01,-0.007 0.157,0.051 0.296,0.118 0.443,0.175 0.296,0.118 0.148,0.059 0,0" />
    </g>
    <g
       transform="matrix(1.25,0,0,-1.25,68.360009,438.51486)"
       id="g4038"
       style="fill:#666666">
      <path
         inkscape:connector-curvature="0"
         id="path4040"
         style="fill:#666666;fill-opacity:1;fill-rule:nonzero;stroke:none"
         d="m 0,0 c -0.826,-0.248 -1.646,-0.493 -2.483,-0.75 l 1.199,0.366 C -0.854,-0.253 -0.429,-0.129 0,0" />
    </g>
    <g
       transform="matrix(1.25,0,0,-1.25,75.570999,436.40686)"
       id="g4042"
       style="fill:#666666">
      <path
         inkscape:connector-curvature="0"
         id="path4044"
         style="fill:#666666;fill-opacity:1;fill-rule:nonzero;stroke:none"
         d="m 0,0 c -0.896,-0.254 -1.789,-0.507 -2.699,-0.772 0.868,0.252 1.733,0.499 2.599,0.744 L 0,0 Z" />
    </g>
    <g
       transform="matrix(1.25,0,0,-1.25,141.40576,526.71561)"
       id="g4046"
       style="fill:#666666">
      <path
         inkscape:connector-curvature="0"
         id="path4048"
         style="fill:#666666;fill-opacity:1;fill-rule:nonzero;stroke:none"
         d="M 0,0 -0.374,-0.173 0.002,0 C 1.233,0.555 2.5,1.087 3.783,1.589 L 4.121,1.718 3.785,1.59 C 2.5,1.088 1.233,0.556 0,0" />
    </g>
    <g
       transform="matrix(1.25,0,0,-1.25,573.15825,365.35161)"
       id="g4050"
       style="fill:#666666">
      <path
         inkscape:connector-curvature="0"
         id="path4052"
         style="fill:#666666;fill-opacity:1;fill-rule:nonzero;stroke:none"
         d="M 0,0 0,0 C 0,0 0,0 0,0 Z" />
    </g>
    <g
       transform="matrix(1.25,0,0,-1.25,573.15776,365.35136)"
       id="g4054"
       style="fill:#666666">
      <path
         inkscape:connector-curvature="0"
         id="path4056"
         style="fill:#666666;fill-opacity:1;fill-rule:nonzero;stroke:none"
         d="M 0,0 C -0.001,0.001 -0.002,0.001 -0.003,0.002 -0.002,0.001 -0.001,0 0,0 l 0,0 z" />
    </g>
    <g
       transform="matrix(1.25,0,0,-1.25,577.40975,286.92898)"
       id="g4058"
       style="fill:#666666">
      <path
         inkscape:connector-curvature="0"
         id="path4060"
         style="fill:#666666;fill-opacity:1;fill-rule:nonzero;stroke:none"
         d="m 0,0 c -1.171,13.832 -3.591,27.302 -7.153,40.295 -1.371,5 -2.913,9.926 -4.614,14.776 l -3.093,0.919 c -2.031,0.603 -4.094,1.24 -6.148,1.869 -1.478,0.452 -2.948,0.897 -4.438,1.362 -1.722,0.537 -3.464,1.098 -5.202,1.653 -1.506,0.481 -3.005,0.954 -4.523,1.448 -1.75,0.569 -3.52,1.162 -5.285,1.749 -1.531,0.509 -3.053,1.008 -4.595,1.53 -1.801,0.61 -3.623,1.243 -5.439,1.87 -1.523,0.526 -3.038,1.041 -4.572,1.579 -1.888,0.663 -3.796,1.35 -5.699,2.031 -1.485,0.531 -2.961,1.05 -4.456,1.593 -2.015,0.731 -4.051,1.489 -6.081,2.24 -1.402,0.518 -2.793,1.023 -4.201,1.551 -2.272,0.851 -4.563,1.731 -6.852,2.606 -1.188,0.454 -2.365,0.894 -3.558,1.354 -3.488,1.347 -6.994,2.721 -10.518,4.122 -27.157,10.796 -53.133,24.714 -78.253,38.174 -12.864,6.892 -26.165,14.019 -39.413,20.609 -24.6,12.236 -47.784,18.441 -68.903,18.441 -1.3,0 -2.562,-0.06 -3.832,-0.106 -19.919,-1.031 -43.936,-10.031 -62.078,-27.558 -17.357,-18.321 -26.268,-42.575 -27.289,-62.69 -0.045,-1.282 -0.105,-2.556 -0.105,-3.868 0,-12.198 2.791,-22.543 8.074,-29.913 5.5,-7.676 13.313,-11.567 23.221,-11.567 5.655,0 11.908,1.282 18.655,3.82 -9.384,8.946 -13.741,23.511 -10.547,37.479 3.8,16.619 17.095,27.038 35.565,27.87 0.472,0.021 0.963,0.032 1.439,0.032 24.394,0 48.079,-27.394 48.735,-56.368 0.244,-10.839 -2.742,-26.436 -18.37,-39.189 -14.275,-11.651 -35.935,-18.225 -64.378,-19.539 -0.876,-0.043 -1.8,-0.061 -2.745,-0.061 -0.461,0 -0.97,0.015 -1.507,0.038 -0.066,0.003 -0.129,0.005 -0.197,0.008 -0.52,0.025 -1.077,0.061 -1.662,0.105 -0.099,0.008 -0.198,0.015 -0.299,0.023 -0.587,0.048 -1.203,0.104 -1.848,0.169 -0.112,0.011 -0.226,0.023 -0.339,0.035 -0.667,0.07 -1.359,0.146 -2.083,0.233 -0.077,0.01 -0.158,0.02 -0.237,0.03 -0.746,0.091 -1.517,0.19 -2.318,0.298 -0.035,0.005 -0.068,0.009 -0.103,0.014 -0.814,0.11 -1.66,0.231 -2.526,0.358 -0.111,0.016 -0.22,0.032 -0.331,0.048 -0.834,0.124 -1.691,0.255 -2.567,0.392 -0.161,0.025 -0.321,0.051 -0.483,0.076 -0.874,0.139 -1.766,0.283 -2.678,0.434 -0.143,0.024 -0.29,0.048 -0.434,0.072 -0.945,0.158 -1.904,0.32 -2.884,0.489 -0.098,0.017 -0.197,0.035 -0.295,0.052 -0.974,0.169 -1.964,0.344 -2.969,0.524 -0.082,0.014 -0.161,0.028 -0.243,0.043 -1.009,0.181 -2.035,0.368 -3.07,0.559 -0.187,0.034 -0.373,0.068 -0.56,0.103 -1.008,0.186 -2.026,0.377 -3.054,0.571 -0.197,0.038 -0.394,0.075 -0.591,0.112 -1.04,0.198 -2.089,0.399 -3.146,0.603 -0.162,0.032 -0.326,0.064 -0.489,0.095 -1.111,0.216 -2.229,0.434 -3.354,0.656 -0.035,0.007 -0.071,0.015 -0.106,0.021 -1.113,0.22 -2.232,0.443 -3.354,0.669 -0.149,0.029 -0.297,0.059 -0.446,0.089 -1.095,0.22 -2.193,0.442 -3.292,0.666 -0.195,0.04 -0.39,0.08 -0.584,0.119 -1.076,0.22 -2.151,0.441 -3.226,0.663 -0.218,0.045 -0.434,0.09 -0.651,0.135 -1.09,0.225 -2.178,0.451 -3.263,0.678 -0.15,0.032 -0.298,0.063 -0.448,0.094 -1.15,0.241 -2.298,0.482 -3.439,0.724 -0.002,0 -0.004,10e-4 -0.006,10e-4 -1.093,0.232 -2.18,0.463 -3.261,0.694 -0.229,0.049 -0.458,0.097 -0.686,0.146 -1.03,0.22 -2.051,0.44 -3.065,0.658 -0.211,0.046 -0.421,0.091 -0.631,0.137 -0.995,0.214 -1.981,0.428 -2.957,0.64 -0.268,0.058 -0.534,0.116 -0.801,0.174 -0.941,0.205 -1.875,0.409 -2.795,0.611 -0.229,0.05 -0.453,0.099 -0.68,0.149 -0.901,0.198 -1.791,0.394 -2.668,0.587 -0.111,0.025 -0.223,0.049 -0.334,0.074 -0.948,0.209 -1.876,0.415 -2.793,0.619 -0.2,0.044 -0.401,0.089 -0.6,0.133 -0.839,0.187 -1.662,0.37 -2.47,0.551 -0.278,0.062 -0.553,0.123 -0.827,0.185 -0.756,0.169 -1.499,0.335 -2.224,0.498 -0.288,0.065 -0.569,0.128 -0.852,0.192 -0.593,0.134 -1.176,0.265 -1.745,0.394 -0.392,0.088 -0.774,0.175 -1.154,0.261 -0.556,0.126 -1.1,0.249 -1.63,0.369 -0.147,0.034 -0.299,0.068 -0.444,0.101 -0.645,0.147 -1.262,0.288 -1.863,0.425 -0.241,0.055 -0.48,0.109 -0.714,0.163 -0.498,0.113 -0.98,0.224 -1.444,0.33 -0.289,0.067 -0.57,0.131 -0.846,0.194 -0.458,0.105 -0.9,0.207 -1.319,0.303 -1.954,0.45 -3.47,0.802 -4.472,1.036 -0.523,-6.246 -0.806,-12.56 -0.806,-18.942 0,-11.809 0.918,-23.402 2.673,-34.714 l 0.554,0.021 c 3.894,0.149 7.814,0.243 11.73,0.336 1.58,0.038 3.15,0.09 4.729,0.119 4.91,0.088 9.814,0.141 14.682,0.141 20.412,0 57.796,-0.841 78.841,-6.472 4.096,-1.096 8.09,-2.122 11.987,-3.078 27.275,-6.689 49.747,-9.952 68.422,-9.952 27.814,0 42.388,7.281 53.718,15.625 1.618,1.192 3.17,2.406 4.686,3.624 0.451,0.362 0.883,0.741 1.294,1.135 6.168,5.91 7.786,15.242 4.292,25.346 -4.183,12.098 -16.312,25.119 -33.054,25.119 -5.169,0 -10.452,-1.263 -15.703,-3.756 -0.933,-0.443 -1.822,-0.828 -2.687,-1.181 -0.219,-0.089 -0.445,-0.188 -0.66,-0.272 -3.062,-1.192 -5.687,-1.79 -7.968,-1.837 -0.095,-0.002 -0.195,-0.012 -0.288,-0.012 l -0.002,0 -0.003,0 c -0.004,0 -0.006,10e-4 -0.009,10e-4 -0.528,0 -1.013,0.041 -1.477,0.1 -0.155,0.019 -0.302,0.043 -0.45,0.068 -0.319,0.054 -0.622,0.12 -0.91,0.197 -0.131,0.035 -0.268,0.064 -0.393,0.103 -0.358,0.111 -0.688,0.239 -0.997,0.378 -0.132,0.06 -0.253,0.125 -0.377,0.189 -0.213,0.109 -0.413,0.221 -0.601,0.338 -0.095,0.06 -0.193,0.117 -0.284,0.179 -0.264,0.18 -0.5,0.364 -0.712,0.548 -0.048,0.042 -0.092,0.084 -0.139,0.127 -0.084,0.077 -0.175,0.154 -0.251,0.23 -0.089,0.088 -0.179,0.192 -0.27,0.292 -0.036,0.04 -0.076,0.079 -0.111,0.119 -0.149,0.172 -0.297,0.359 -0.444,0.564 -0.175,0.242 -0.328,0.475 -0.449,0.687 -0.017,0.03 -0.025,0.064 -0.042,0.094 -0.209,0.376 -0.399,0.799 -0.564,1.262 -0.046,0.129 -0.089,0.26 -0.13,0.393 -0.106,0.35 -0.192,0.729 -0.262,1.128 -0.035,0.202 -0.072,0.404 -0.096,0.613 -0.044,0.4 -0.073,0.819 -0.073,1.266 0,0.015 0.003,0.031 0.003,0.046 0.002,0.462 0.047,0.946 0.1,1.435 0.007,0.06 0.009,0.116 0.017,0.176 0.355,2.915 1.594,6.28 3.779,10.104 6.774,11.854 21.803,26.662 41.352,36.371 0.037,0.018 0.073,0.036 0.11,0.054 1.156,0.573 2.326,1.13 3.514,1.665 0.083,0.038 0.165,0.078 0.249,0.115 1.211,0.543 2.434,1.067 3.676,1.567 0.264,0.106 0.533,0.203 0.798,0.307 0.903,0.355 1.811,0.701 2.728,1.032 0.525,0.189 1.055,0.367 1.584,0.548 0.678,0.232 1.359,0.457 2.044,0.675 0.592,0.187 1.184,0.371 1.781,0.548 0.662,0.195 1.329,0.379 1.997,0.561 0.596,0.163 1.189,0.33 1.79,0.481 0.918,0.231 1.844,0.441 2.773,0.644 0.716,0.157 1.435,0.302 2.157,0.442 0.86,0.167 1.72,0.33 2.589,0.472 0.542,0.089 1.089,0.163 1.634,0.242 0.808,0.117 1.617,0.225 2.432,0.32 0.536,0.062 1.072,0.12 1.611,0.172 0.893,0.087 1.79,0.155 2.691,0.214 0.457,0.03 0.912,0.067 1.371,0.089 1.365,0.067 2.735,0.111 4.114,0.111 16.498,0 32.651,-4.757 48.013,-14.14 0.734,-0.448 1.493,-0.908 2.275,-1.38 0.158,-0.096 0.328,-0.197 0.489,-0.293 0.633,-0.382 1.271,-0.766 1.934,-1.161 0.218,-0.13 0.449,-0.267 0.669,-0.398 0.61,-0.363 1.22,-0.727 1.853,-1.101 0.363,-0.215 0.743,-0.438 1.113,-0.656 0.518,-0.306 1.03,-0.608 1.561,-0.92 0.375,-0.22 0.766,-0.448 1.149,-0.672 0.548,-0.321 1.092,-0.64 1.654,-0.968 0.408,-0.237 0.83,-0.482 1.244,-0.722 0.55,-0.32 1.096,-0.638 1.658,-0.964 0.435,-0.251 0.883,-0.51 1.324,-0.765 0.571,-0.33 1.139,-0.658 1.721,-0.993 0.42,-0.242 0.85,-0.489 1.276,-0.733 0.618,-0.356 1.235,-0.711 1.866,-1.072 0.437,-0.25 0.884,-0.506 1.326,-0.759 0.634,-0.362 1.266,-0.724 1.911,-1.092 0.444,-0.253 0.897,-0.511 1.346,-0.766 0.665,-0.38 1.33,-0.758 2.008,-1.143 0.422,-0.24 0.853,-0.484 1.279,-0.726 0.721,-0.409 1.443,-0.818 2.176,-1.233 0.425,-0.241 0.857,-0.485 1.286,-0.727 0.729,-0.412 1.459,-0.825 2.199,-1.242 0.477,-0.27 0.961,-0.542 1.443,-0.814 0.695,-0.391 1.391,-0.783 2.094,-1.179 0.542,-0.304 1.09,-0.612 1.637,-0.919 0.672,-0.378 1.344,-0.755 2.024,-1.136 0.525,-0.294 1.055,-0.591 1.584,-0.888 0.746,-0.417 1.492,-0.835 2.245,-1.257 0.45,-0.251 0.904,-0.505 1.357,-0.758 0.812,-0.454 1.625,-0.908 2.444,-1.365 0.456,-0.254 0.916,-0.511 1.375,-0.766 0.825,-0.461 1.653,-0.922 2.486,-1.386 0.494,-0.275 0.992,-0.552 1.489,-0.829 0.775,-0.431 1.551,-0.862 2.331,-1.296 0.52,-0.289 1.043,-0.579 1.565,-0.869 0.842,-0.468 1.684,-0.936 2.532,-1.406 0.421,-0.234 0.844,-0.468 1.267,-0.702 0.933,-0.518 1.868,-1.036 2.808,-1.557 0.381,-0.211 0.763,-0.422 1.145,-0.634 0.952,-0.526 1.906,-1.055 2.863,-1.584 0.421,-0.233 0.843,-0.466 1.265,-0.699 0.885,-0.489 1.771,-0.979 2.659,-1.47 0.503,-0.277 1.005,-0.555 1.509,-0.833 0.906,-0.5 1.814,-1.001 2.723,-1.503 0.423,-0.233 0.847,-0.467 1.271,-0.701 0.863,-0.476 1.727,-0.952 2.592,-1.429 0.616,-0.34 1.232,-0.679 1.848,-1.018 0.689,-0.38 1.379,-0.76 2.069,-1.14 0.727,-0.401 1.455,-0.801 2.183,-1.202 0.534,-0.294 1.069,-0.588 1.603,-0.882 0.994,-0.547 1.988,-1.094 2.982,-1.641 0.252,-0.138 0.504,-0.277 0.757,-0.416 1.005,-0.553 2.011,-1.106 3.015,-1.658 0.467,-0.257 0.933,-0.513 1.399,-0.769 1.062,-0.584 2.125,-1.168 3.185,-1.75 0.031,-0.017 0.063,-0.034 0.094,-0.052 4.957,-2.723 9.887,-5.43 14.743,-8.096 l 1.579,-0.867 c 0.012,0.88 0.049,1.755 0.049,2.638 C 0.826,-12.734 0.536,-6.332 0,0" />
    </g>
    <g
       transform="matrix(1.25,0,0,-1.25,457.79488,87.506734)"
       id="g4062"
       style="fill:#666666">
      <path
         inkscape:connector-curvature="0"
         id="path4064"
         style="fill:#666666;fill-opacity:1;fill-rule:nonzero;stroke:none"
         d="m 0,0 c -36.389,25.762 -79.199,39.38 -123.801,39.38 -53.733,0 -105.228,-20.056 -145.003,-56.474 -38.543,-35.289 -63.074,-83.066 -69.355,-134.892 0.274,-0.064 0.552,-0.128 0.83,-0.192 0.546,-0.126 1.094,-0.252 1.655,-0.381 0.47,-0.108 0.951,-0.218 1.431,-0.328 0.525,-0.121 1.049,-0.24 1.585,-0.363 0.537,-0.123 1.087,-0.247 1.635,-0.372 0.499,-0.114 0.994,-0.226 1.502,-0.342 0.656,-0.148 1.325,-0.299 1.994,-0.45 0.414,-0.094 0.823,-0.186 1.241,-0.28 0.754,-0.17 1.523,-0.342 2.291,-0.514 0.373,-0.084 0.739,-0.166 1.115,-0.25 0.77,-0.172 1.552,-0.347 2.335,-0.52 0.389,-0.087 0.772,-0.173 1.165,-0.26 1.066,-0.237 2.145,-0.475 3.23,-0.714 0.094,-0.021 0.186,-0.041 0.281,-0.062 3.633,-0.8 7.361,-1.612 11.123,-2.42 0.202,-0.043 0.407,-0.087 0.609,-0.13 1.025,-0.22 2.051,-0.439 3.079,-0.658 0.331,-0.071 0.663,-0.141 0.995,-0.211 0.938,-0.199 1.878,-0.398 2.817,-0.596 0.292,-0.061 0.582,-0.122 0.873,-0.183 0.938,-0.197 1.876,-0.394 2.813,-0.589 0.387,-0.08 0.773,-0.16 1.159,-0.24 0.86,-0.179 1.718,-0.356 2.574,-0.532 0.401,-0.083 0.8,-0.164 1.2,-0.246 0.822,-0.169 1.643,-0.337 2.459,-0.503 0.444,-0.09 0.885,-0.179 1.327,-0.268 0.773,-0.156 1.545,-0.312 2.312,-0.465 0.457,-0.092 0.91,-0.182 1.364,-0.272 0.736,-0.147 1.47,-0.292 2.197,-0.436 0.486,-0.095 0.968,-0.19 1.45,-0.284 0.694,-0.136 1.386,-0.271 2.072,-0.403 0.476,-0.092 0.948,-0.183 1.419,-0.273 0.679,-0.131 1.354,-0.26 2.023,-0.386 0.474,-0.09 0.946,-0.179 1.415,-0.267 0.648,-0.122 1.29,-0.242 1.927,-0.36 0.468,-0.086 0.933,-0.172 1.395,-0.257 0.625,-0.114 1.242,-0.226 1.855,-0.336 0.452,-0.082 0.903,-0.163 1.349,-0.242 0.596,-0.106 1.183,-0.209 1.766,-0.311 0.449,-0.079 0.897,-0.157 1.338,-0.232 0.556,-0.096 1.101,-0.188 1.642,-0.279 0.436,-0.073 0.872,-0.146 1.297,-0.216 0.531,-0.088 1.049,-0.171 1.564,-0.254 0.412,-0.066 0.826,-0.133 1.228,-0.196 0.5,-0.078 0.983,-0.151 1.466,-0.225 0.391,-0.059 0.785,-0.119 1.164,-0.175 0.47,-0.069 0.92,-0.132 1.371,-0.196 0.363,-0.051 0.731,-0.104 1.081,-0.151 0.443,-0.06 0.861,-0.113 1.283,-0.167 0.328,-0.042 0.665,-0.086 0.981,-0.124 0.415,-0.051 0.801,-0.093 1.194,-0.136 0.289,-0.032 0.591,-0.068 0.868,-0.097 0.402,-0.041 0.771,-0.073 1.146,-0.106 0.232,-0.021 0.48,-0.046 0.701,-0.063 0.393,-0.032 0.748,-0.052 1.106,-0.072 0.171,-0.01 0.36,-0.026 0.522,-0.033 0.501,-0.024 0.966,-0.037 1.386,-0.037 0.798,0 1.576,0.014 2.331,0.052 51.118,2.361 67.624,21.342 72.549,36.553 0.41,1.268 0.74,2.509 1.003,3.713 0.789,3.61 0.973,6.878 0.914,9.487 -0.545,24.095 -21.473,48.675 -41.087,47.76 -1.82,-0.081 -3.568,-0.273 -5.24,-0.571 -11.707,-2.083 -19.694,-9.357 -22.242,-20.5 -0.555,-2.43 -0.812,-4.899 -0.795,-7.343 0.053,-7.333 2.574,-14.448 6.9,-19.659 1.923,-2.317 4.201,-4.257 6.778,-5.674 l 7.524,-4.136 -7.746,-3.693 c -10.58,-5.044 -20.418,-7.601 -29.243,-7.601 -12.674,0 -23.141,5.256 -30.267,15.202 -6.362,8.877 -9.725,21.002 -9.725,35.063 0,23.612 9.535,49.039 25.504,68.018 13.43,15.961 37.604,34.987 76.496,34.987 22.465,0 46.94,-6.508 72.746,-19.345 13.367,-6.648 26.726,-13.807 39.646,-20.729 24.907,-13.346 50.663,-27.146 77.364,-37.761 3.361,-1.336 6.704,-2.644 10.032,-3.931 1.062,-0.411 2.115,-0.807 3.175,-1.213 2.255,-0.865 4.508,-1.725 6.747,-2.566 1.265,-0.475 2.521,-0.938 3.781,-1.406 2.023,-0.751 4.044,-1.498 6.053,-2.23 1.32,-0.481 2.633,-0.953 3.946,-1.425 1.94,-0.698 3.873,-1.387 5.797,-2.066 1.325,-0.467 2.646,-0.93 3.963,-1.388 1.905,-0.662 3.799,-1.313 5.688,-1.956 1.301,-0.443 2.602,-0.887 3.895,-1.321 1.926,-0.646 3.837,-1.276 5.745,-1.902 1.217,-0.399 2.439,-0.804 3.648,-1.195 2.102,-0.679 4.185,-1.336 6.265,-1.991 0.988,-0.31 1.985,-0.632 2.967,-0.936 0.154,-0.048 0.305,-0.092 0.459,-0.14 C 58.761,-55.28 33.107,-23.439 0,0" />
    </g>
    <g
       transform="matrix(1.25,0,0,-1.25,570.11763,369.90248)"
       id="g4066"
       style="fill:#666666">
      <path
         inkscape:connector-curvature="0"
         id="path4068"
         style="fill:#666666;fill-opacity:1;fill-rule:nonzero;stroke:none"
         d="m 0,0 c -0.809,0.551 -1.615,1.057 -2.424,1.588 -0.9,0.592 -1.801,1.203 -2.698,1.768 l -0.355,0.222 c -1.677,1.051 -3.347,2.06 -4.994,3.007 -4.107,2.358 -8.32,4.521 -12.522,6.427 -3.066,1.391 -6.202,2.676 -9.319,3.822 -3.039,1.118 -6.146,2.132 -9.232,3.015 -2.012,0.574 -4.065,1.105 -6.102,1.58 -2.006,0.466 -4.041,0.888 -6.047,1.252 -7.78,1.412 -15.724,2.068 -23.572,1.965 -1.895,-0.026 -3.816,-0.097 -5.71,-0.212 -8.225,-0.496 -16.484,-1.835 -24.548,-3.979 -1.712,-0.454 -3.45,-0.955 -5.164,-1.489 -1.704,-0.53 -3.385,-1.092 -5.047,-1.684 -5.663,-2.021 -11.252,-4.465 -16.606,-7.262 -1.498,-0.782 -2.971,-1.589 -4.418,-2.416 -0.722,-0.414 -1.441,-0.833 -2.151,-1.258 -1.421,-0.85 -2.813,-1.72 -4.178,-2.609 -3.482,-2.265 -6.808,-4.672 -9.966,-7.2 -3.09,-2.474 -6.019,-5.064 -8.762,-7.76 l 0.027,-0.031 c 0.129,-0.114 0.269,-0.23 0.412,-0.346 0.035,-0.028 0.065,-0.056 0.101,-0.084 l 0.024,-0.02 c 0.104,-0.082 0.194,-0.15 0.287,-0.222 0.2,-0.153 0.41,-0.313 0.655,-0.486 0.35,-0.245 0.67,-0.458 1.001,-0.674 l 0.256,-0.164 c 0.369,-0.236 0.746,-0.471 1.145,-0.708 0.637,-0.381 1.3,-0.76 1.995,-1.146 l 1.082,-0.591 c 0.749,-0.404 1.523,-0.811 2.325,-1.223 0.818,-0.421 1.66,-0.847 2.523,-1.279 0.001,0 0.001,0 0.001,-0.001 0.002,-0.001 0.004,-0.002 0.006,-0.003 0.862,-0.431 1.744,-0.867 2.641,-1.309 l 2.657,-1.305 c 1.924,-0.944 3.898,-1.912 5.877,-2.903 0.977,-0.49 1.957,-0.986 2.932,-1.487 0.978,-0.504 1.954,-1.013 2.92,-1.528 1.466,-0.781 2.91,-1.575 4.315,-2.381 1.977,-1.133 3.815,-2.258 5.459,-3.342 1.361,-0.898 2.628,-1.794 3.768,-2.664 0.404,-0.308 0.797,-0.617 1.179,-0.927 3.473,-2.809 5.924,-5.571 7.451,-8.403 0.219,-0.405 0.418,-0.811 0.599,-1.219 1.62,-3.659 1.692,-7.496 0.205,-11.096 -0.383,-0.93 -0.866,-1.845 -1.452,-2.748 -4.097,-6.317 -13.2,-12.016 -28.242,-17.737 -9.768,-3.716 -20.428,-5.536 -32.593,-5.562 l -0.265,0 -0.005,0 c -0.004,0 -0.009,0 -0.013,0 -1.539,0 -3.119,0.04 -4.718,0.1 -0.457,0.017 -0.917,0.04 -1.376,0.062 -1.265,0.06 -2.545,0.138 -3.84,0.235 -0.344,0.026 -0.687,0.047 -1.032,0.075 -1.616,0.131 -3.246,0.281 -4.9,0.468 -1.83,0.206 -3.675,0.454 -5.526,0.722 -0.136,0.02 -0.272,0.042 -0.408,0.062 -1.64,0.241 -3.288,0.505 -4.942,0.79 -0.204,0.035 -0.408,0.07 -0.612,0.106 -1.687,0.296 -3.379,0.61 -5.078,0.947 -0.086,0.017 -0.172,0.033 -0.258,0.05 -5.458,1.089 -10.976,2.379 -16.525,3.811 -0.237,0.061 -0.475,0.123 -0.712,0.185 -1.626,0.422 -3.253,0.856 -4.883,1.3 -0.21,0.057 -0.419,0.113 -0.629,0.171 -11.296,3.098 -22.669,6.666 -33.869,10.186 -7.974,2.506 -16.082,5.054 -24.143,7.42 -0.127,0.038 -0.255,0.075 -0.383,0.112 -1.672,0.49 -3.34,0.968 -5.007,1.44 -0.535,0.151 -1.071,0.303 -1.606,0.452 -1.231,0.344 -2.457,0.678 -3.683,1.01 -0.859,0.232 -1.719,0.465 -2.576,0.69 -0.856,0.226 -1.706,0.441 -2.559,0.66 -1.137,0.291 -2.275,0.583 -3.407,0.86 -0.504,0.123 -1.001,0.238 -1.503,0.358 -8.582,2.057 -17.019,3.704 -25.165,4.661 -0.02,0.003 -0.04,0.005 -0.06,0.007 -1.466,0.172 -2.919,0.312 -4.365,0.438 -0.413,0.035 -0.826,0.071 -1.235,0.102 -1.218,0.095 -2.426,0.17 -3.628,0.23 -0.303,0.015 -0.616,0.038 -0.916,0.051 -1.614,0.068 -3.221,0.107 -4.811,0.107 l -0.33,-10e-4 c -4.181,-0.014 -8.224,-0.277 -12.015,-0.781 -3.871,-0.516 -8.023,-1.214 -12.338,-2.076 -4.136,-0.826 -8.532,-1.826 -13.066,-2.973 -1.955,-0.495 -3.93,-1.022 -5.91,-1.563 -1.013,-0.277 -2.048,-0.572 -3.081,-0.866 l -0.1,-0.028 c -0.866,-0.245 -1.731,-0.492 -2.6,-0.744 -1.012,-0.295 -2.04,-0.604 -3.069,-0.914 -0.429,-0.129 -0.855,-0.252 -1.284,-0.384 l -1.199,-0.366 c -0.077,-0.024 -0.158,-0.05 -0.235,-0.074 -1.389,-0.429 -2.79,-0.867 -4.205,-1.32 0.407,-0.771 0.797,-1.553 1.211,-2.32 0.381,-0.704 0.779,-1.397 1.167,-2.097 0.753,-1.356 1.512,-2.708 2.292,-4.046 0.487,-0.837 0.986,-1.665 1.484,-2.495 0.707,-1.177 1.422,-2.348 2.149,-3.51 0.556,-0.888 1.117,-1.773 1.685,-2.653 0.693,-1.074 1.399,-2.138 2.11,-3.199 0.617,-0.921 1.233,-1.844 1.864,-2.755 0.67,-0.968 1.357,-1.923 2.042,-2.88 0.694,-0.969 1.379,-1.944 2.088,-2.901 0.498,-0.674 1.017,-1.333 1.523,-2.002 1.836,-2.421 3.715,-4.806 5.645,-7.148 0.328,-0.397 0.647,-0.802 0.978,-1.197 1.045,-1.251 2.114,-2.481 3.186,-3.707 0.413,-0.473 0.822,-0.949 1.238,-1.418 1.099,-1.235 2.214,-2.455 3.339,-3.665 0.384,-0.413 0.768,-0.825 1.155,-1.235 1.189,-1.26 2.39,-2.508 3.608,-3.74 0.28,-0.283 0.563,-0.563 0.845,-0.845 6.236,-6.238 12.854,-12.083 19.786,-17.541 l 1.825,0.941 c 1.238,0.639 2.493,1.244 3.766,1.823 l 0.373,0.173 c 1.234,0.556 2.501,1.088 3.785,1.59 l 0.336,0.129 c 1.379,0.528 2.738,1.008 4.086,1.444 1.349,0.437 2.686,0.829 4.021,1.181 l 0.715,0.187 c 1.32,0.335 2.662,0.641 4.017,0.908 l 0.34,0.062 c 1.418,0.266 2.697,0.472 3.985,0.646 l 0.651,0.091 c 1.377,0.173 2.756,0.304 4.151,0.402 l 0.885,0.053 c 1.653,0.095 3.037,0.14 4.359,0.14 21.237,0 42.328,-3.043 62.827,-9.054 2.929,-0.859 5.845,-1.778 8.748,-2.758 19.287,-6.508 32.567,-13.878 38.212,-17.301 3.379,3.335 9.893,9.719 17.389,16.818 16.87,15.978 29.209,26.645 36.678,31.704 l 8.271,5.411 c 0.486,0.3 0.977,0.594 1.468,0.886 l 0.632,0.375 c 0.516,0.303 1.034,0.597 1.556,0.889 l 0.569,0.318 c 0.543,0.301 1.087,0.587 1.63,0.869 l 0.541,0.281 c 0.562,0.286 1.127,0.562 1.695,0.83 l 0.498,0.237 c 0.003,0.002 0.007,0.003 0.011,0.005 l 0.005,0.003 c 0.222,0.102 0.449,0.197 0.673,0.297 0.366,0.164 0.733,0.332 1.098,0.487 l 0.458,0.193 c 0.617,0.255 1.24,0.497 1.865,0.731 l 0.417,0.151 c 0.65,0.235 1.311,0.458 1.975,0.665 l 0.251,0.077 c 10e-4,0.001 0.002,0.001 0.003,0.001 l 0.006,0.002 c 0.776,0.236 1.474,0.431 2.176,0.608 l 0.214,0.052 c 0.247,0.061 0.475,0.102 0.715,0.157 0.53,0.121 1.061,0.247 1.58,0.344 2.556,0.471 5.004,0.696 7.423,0.696 14.415,0 29.537,-7.724 47.587,-24.307 1.262,-1.161 2.544,-2.37 3.849,-3.631 l 0.125,-0.12 c 6.655,6.506 12.931,13.406 18.736,20.709 0.015,0.02 0.031,0.039 0.047,0.059 1.641,2.065 3.243,4.162 4.811,6.287 0.067,0.091 0.134,0.182 0.201,0.273 1.56,2.12 3.085,4.268 4.571,6.446 0.021,0.031 0.042,0.063 0.064,0.094 2.999,4.401 5.844,8.917 8.531,13.538 0.051,0.088 0.104,0.175 0.155,0.264 1.274,2.198 2.507,4.424 3.707,6.67 0.127,0.236 0.254,0.473 0.38,0.71 1.164,2.197 2.293,4.416 3.386,6.656 0.123,0.252 0.243,0.506 0.365,0.758 1.102,2.282 2.172,4.582 3.198,6.906 0.049,0.11 0.095,0.221 0.143,0.331 1.03,2.342 2.02,4.706 2.971,7.09 0.05,0.125 0.102,0.249 0.152,0.374 0.92,2.318 1.794,4.66 2.638,7.015 0.124,0.348 0.251,0.694 0.373,1.042 0.803,2.276 1.568,4.571 2.299,6.881 0.127,0.403 0.252,0.806 0.377,1.21 0.721,2.326 1.411,4.666 2.058,7.024 0.088,0.322 0.171,0.647 0.258,0.97 0.668,2.48 1.306,4.972 1.89,7.485 0.226,0.969 0.414,1.952 0.626,2.926 L 0,0 Z" />
    </g>
    <g
       transform="matrix(1.25,0,0,-1.25,482.56976,514.54636)"
       id="g4070"
       style="fill:#666666">
      <path
         inkscape:connector-curvature="0"
         id="path4072"
         style="fill:#666666;fill-opacity:1;fill-rule:nonzero;stroke:none"
         d="m 0,0 c -0.084,0.077 -0.171,0.164 -0.255,0.24 -0.009,0.009 -0.019,0.018 -0.028,0.027 -16.128,14.817 -29.78,22.02 -41.734,22.02 -1.895,0 -3.818,-0.176 -5.712,-0.526 -0.358,-0.067 -0.685,-0.133 -0.996,-0.2 -0.31,-0.068 -0.605,-0.136 -0.898,-0.209 l 0,0.001 c -0.002,-0.001 -0.004,-0.001 -0.005,-0.001 l -0.211,-0.051 c -0.569,-0.144 -1.135,-0.302 -1.697,-0.473 l -0.272,-0.084 c -0.553,-0.172 -1.092,-0.354 -1.629,-0.548 l -0.351,-0.128 c -0.345,-0.128 -0.7,-0.271 -1.053,-0.412 -0.167,-0.067 -0.331,-0.126 -0.498,-0.196 l -0.182,-0.077 -0.092,-0.038 c -0.628,-0.266 -1.134,-0.49 -1.637,-0.722 l -0.332,-0.157 c -0.052,-0.025 -0.093,-0.045 -0.143,-0.069 -0.464,-0.221 -0.904,-0.435 -1.341,-0.656 -0.03,-0.016 -0.063,-0.032 -0.094,-0.047 l -0.479,-0.249 c -0.485,-0.252 -0.968,-0.506 -1.445,-0.769 l -0.527,-0.295 c -0.455,-0.256 -0.929,-0.523 -1.399,-0.8 l -0.468,-0.277 c -0.142,-0.085 -0.26,-0.156 -0.39,-0.233 -0.387,-0.231 -0.741,-0.444 -1.079,-0.652 l -7.955,-5.208 c -6.978,-4.727 -19.28,-15.383 -35.574,-30.817 -10.837,-10.265 -19.594,-19.007 -19.682,-19.094 l -2.538,-2.536 -2.956,2.02 c -0.102,0.069 -7.63,5.127 -20.807,11.009 -2.948,1.317 -6.148,2.669 -9.646,4.022 -2.733,1.057 -5.628,2.111 -8.676,3.139 -22.334,7.538 -45.488,11.359 -68.82,11.359 -1.152,0 -2.38,-0.039 -3.859,-0.125 l -0.78,-0.046 c -1.238,-0.087 -2.461,-0.203 -3.669,-0.356 l -0.593,-0.083 c -1.128,-0.152 -2.259,-0.334 -3.377,-0.545 l -0.285,-0.052 c -1.349,-0.261 -2.535,-0.533 -3.71,-0.832 l -0.624,-0.162 c -2.381,-0.629 -4.759,-1.396 -7.073,-2.283 l -0.43,-0.164 c -0.147,-0.058 -0.286,-0.124 -0.433,-0.182 -1.002,-0.399 -1.995,-0.809 -2.969,-1.247 l -0.311,-0.144 c -0.47,-0.214 -0.918,-0.448 -1.38,-0.668 10.215,-7.333 21.073,-13.809 32.474,-19.326 0.302,-0.146 0.607,-0.288 0.91,-0.433 2.209,-1.057 4.44,-2.076 6.689,-3.06 0.423,-0.184 0.847,-0.369 1.271,-0.552 2.19,-0.941 4.399,-1.844 6.623,-2.715 0.429,-0.167 0.854,-0.34 1.283,-0.505 2.374,-0.911 4.768,-1.781 7.18,-2.611 0.253,-0.087 0.503,-0.182 0.757,-0.268 5.418,-1.843 10.93,-3.478 16.527,-4.898 0.366,-0.092 0.737,-0.172 1.103,-0.262 2.321,-0.576 4.655,-1.118 7.003,-1.618 0.815,-0.174 1.637,-0.329 2.455,-0.493 1.92,-0.386 3.848,-0.754 5.787,-1.089 0.981,-0.17 1.966,-0.327 2.952,-0.483 1.806,-0.287 3.619,-0.552 5.44,-0.794 1.05,-0.14 2.101,-0.276 3.155,-0.401 1.807,-0.213 3.623,-0.396 5.443,-0.566 1.045,-0.097 2.089,-0.202 3.139,-0.284 1.95,-0.153 3.911,-0.264 5.874,-0.366 0.915,-0.047 1.825,-0.113 2.743,-0.149 2.875,-0.112 5.762,-0.179 8.664,-0.179 1.727,0 3.449,0.023 5.166,0.063 0.559,0.013 1.114,0.038 1.672,0.055 1.158,0.036 2.315,0.073 3.469,0.127 0.662,0.03 1.321,0.072 1.982,0.108 1.047,0.058 2.094,0.119 3.138,0.192 0.692,0.048 1.382,0.104 2.073,0.159 1.012,0.08 2.023,0.165 3.031,0.259 0.694,0.065 1.387,0.134 2.079,0.206 1.01,0.104 2.017,0.214 3.023,0.332 0.676,0.079 1.352,0.16 2.026,0.245 1.032,0.131 2.061,0.271 3.088,0.416 0.637,0.09 1.276,0.178 1.911,0.274 1.093,0.164 2.182,0.341 3.269,0.521 0.563,0.093 1.126,0.181 1.687,0.279 1.27,0.221 2.534,0.457 3.796,0.699 0.371,0.072 0.745,0.137 1.116,0.21 3.326,0.657 6.625,1.39 9.896,2.197 0.294,0.072 0.586,0.151 0.88,0.225 1.321,0.331 2.638,0.671 3.95,1.027 0.434,0.118 0.867,0.242 1.3,0.363 1.176,0.326 2.348,0.659 3.515,1.005 0.467,0.138 0.932,0.281 1.398,0.422 1.137,0.345 2.271,0.697 3.401,1.06 0.463,0.149 0.925,0.3 1.386,0.452 1.144,0.376 2.284,0.762 3.42,1.156 0.426,0.148 0.852,0.296 1.277,0.447 1.196,0.424 2.388,0.86 3.575,1.304 0.351,0.131 0.704,0.261 1.054,0.394 1.322,0.502 2.636,1.018 3.945,1.545 0.21,0.085 0.421,0.166 0.63,0.251 6.263,2.545 12.383,5.37 18.345,8.463 0.079,0.042 0.158,0.084 0.238,0.126 1.39,0.723 2.771,1.461 4.144,2.213 0.156,0.086 0.312,0.173 0.469,0.259 1.304,0.719 2.601,1.45 3.89,2.195 0.172,0.1 0.344,0.2 0.517,0.301 1.295,0.753 2.581,1.518 3.86,2.297 0.135,0.083 0.271,0.165 0.406,0.248 1.354,0.829 2.699,1.671 4.034,2.528 0.046,0.03 0.092,0.059 0.139,0.089 9.933,6.392 19.325,13.565 28.092,21.435 0.014,0.013 0.029,0.026 0.044,0.039 0.16,0.144 0.316,0.293 0.476,0.438 C 2.107,-1.966 1.047,-0.966 0,0" />
    </g>
    <g
       transform="matrix(1.25,0,0,-1.25,572.69975,323.61211)"
       id="g4074"
       style="fill:#666666">
      <path
         inkscape:connector-curvature="0"
         id="path4076"
         style="fill:#666666;fill-opacity:1;fill-rule:nonzero;stroke:none"
         d="m 0,0 -1.187,0.652 c -35.199,19.323 -74.213,40.742 -100.387,55.9 -1.006,0.583 -1.994,1.157 -2.962,1.721 -1.935,1.128 -3.791,2.217 -5.559,3.264 -2.653,1.569 -5.109,3.042 -7.343,4.407 -13.985,8.541 -28.624,12.871 -43.512,12.871 -29.731,0 -56.742,-17.736 -70.609,-35.206 -0.765,-0.964 -1.499,-1.927 -2.182,-2.886 -4.663,-6.549 -5.438,-10.351 -5.411,-11.592 0.094,-0.008 0.213,-0.014 0.351,-0.015 0.08,0 0.185,0.007 0.283,0.012 0.059,0.003 0.112,0.004 0.177,0.008 0.134,0.011 0.291,0.03 0.453,0.052 0.05,0.006 0.097,0.011 0.149,0.019 0.175,0.026 0.371,0.062 0.577,0.104 0.063,0.012 0.126,0.025 0.192,0.039 0.209,0.045 0.437,0.101 0.678,0.164 0.092,0.025 0.19,0.052 0.287,0.079 0.237,0.067 0.486,0.141 0.752,0.226 0.143,0.046 0.297,0.1 0.449,0.152 0.25,0.086 0.505,0.174 0.78,0.277 0.235,0.088 0.494,0.194 0.748,0.296 0.229,0.092 0.449,0.177 0.695,0.281 0.527,0.225 1.084,0.473 1.687,0.759 6.417,3.046 12.945,4.59 19.402,4.59 20.987,0 36.102,-16.072 41.266,-31.005 4.928,-14.249 1.716,-28.14 -8.383,-36.253 -12.74,-10.236 -29.229,-21.158 -63.819,-21.158 -13.796,-0.001 -29.513,1.698 -47.523,5.154 -1.586,0.304 -3.198,0.628 -4.819,0.959 -0.248,0.051 -0.488,0.096 -0.736,0.147 -9.252,1.909 -19.09,4.261 -29.559,7.063 -14.891,3.984 -42.099,6.178 -76.612,6.178 -4.734,0 -9.505,-0.052 -14.278,-0.137 -1.515,-0.027 -3.028,-0.073 -4.543,-0.108 -2.315,-0.054 -4.625,-0.125 -6.935,-0.199 -1.456,-0.046 -2.92,-0.07 -4.373,-0.125 3.636,-18.537 9.549,-36.239 17.437,-52.809 l 0.592,0.19 c 1.545,0.497 3.089,0.978 4.63,1.455 0.133,0.041 0.267,0.084 0.4,0.125 l 1.479,0.453 c 0.206,0.063 0.411,0.122 0.617,0.184 0.987,0.299 1.965,0.591 2.936,0.877 0.22,0.065 0.44,0.133 0.66,0.198 0.288,0.083 0.57,0.162 0.856,0.245 1.357,0.393 2.696,0.774 4.02,1.142 0.378,0.106 0.757,0.215 1.134,0.318 0.114,0.031 0.225,0.059 0.339,0.09 1.996,0.545 3.968,1.072 5.881,1.556 4.675,1.182 9.214,2.215 13.491,3.069 4.497,0.898 8.835,1.627 12.891,2.167 4.157,0.553 8.57,0.842 13.119,0.857 l 0.357,0.001 c 10e-4,0 0.003,0 0.004,0 l 0.037,0 c 1.91,0 3.841,-0.059 5.783,-0.151 1.313,-0.061 2.648,-0.145 4.002,-0.247 0.454,-0.035 0.909,-0.074 1.365,-0.113 1.349,-0.115 2.714,-0.249 4.097,-0.403 0.192,-0.022 0.382,-0.04 0.573,-0.062 1.666,-0.192 3.347,-0.402 5.053,-0.65 3.461,-0.503 7.068,-1.142 10.856,-1.901 0.076,-0.015 0.151,-0.03 0.226,-0.045 1.647,-0.331 3.333,-0.687 5.064,-1.07 0.16,-0.036 0.319,-0.069 0.479,-0.105 0.369,-0.082 0.72,-0.154 1.092,-0.239 0.884,-0.2 1.777,-0.424 2.665,-0.634 0.775,-0.184 1.549,-0.364 2.327,-0.554 1.011,-0.248 2.026,-0.505 3.042,-0.764 1.031,-0.262 2.062,-0.525 3.095,-0.797 0.771,-0.203 1.544,-0.41 2.318,-0.619 1.365,-0.367 2.73,-0.741 4.098,-1.122 0.463,-0.13 0.927,-0.259 1.391,-0.391 1.793,-0.505 3.586,-1.02 5.381,-1.546 0.058,-0.017 0.116,-0.034 0.174,-0.051 8.189,-2.399 16.395,-4.972 24.525,-7.528 11.012,-3.462 22.163,-6.967 33.203,-10.002 0.149,-0.041 0.298,-0.081 0.446,-0.122 1.648,-0.451 3.293,-0.891 4.934,-1.319 0.194,-0.051 0.387,-0.101 0.58,-0.151 7.236,-1.876 14.403,-3.507 21.431,-4.747 0.099,-0.018 0.199,-0.035 0.299,-0.053 1.676,-0.293 3.344,-0.564 5.003,-0.81 0.09,-0.014 0.18,-0.028 0.27,-0.041 3.435,-0.506 6.831,-0.904 10.18,-1.181 0.236,-0.02 0.468,-0.033 0.703,-0.052 1.311,-0.101 2.614,-0.181 3.909,-0.244 0.419,-0.02 0.838,-0.041 1.253,-0.056 1.511,-0.058 3.014,-0.098 4.502,-0.099 0.006,0 0.012,0 0.018,0 l 0.244,0 c 11.106,0.024 20.772,1.66 29.549,4.999 18.862,7.175 23.591,12.881 24.731,15.644 0.571,1.384 0.535,2.657 -0.117,4.129 -0.855,1.93 -2.723,4.069 -5.552,6.358 -0.322,0.262 -0.65,0.517 -0.983,0.772 -0.98,0.748 -2.085,1.529 -3.279,2.316 -1.491,0.984 -3.174,2.013 -4.999,3.059 -1.328,0.763 -2.694,1.512 -4.075,2.25 -0.929,0.493 -1.87,0.985 -2.815,1.47 -0.944,0.487 -1.897,0.97 -2.847,1.446 -1.955,0.979 -3.905,1.936 -5.809,2.868 l -2.674,1.313 c -1.846,0.91 -3.63,1.797 -5.307,2.66 -0.849,0.438 -1.674,0.872 -2.468,1.3 l -1.174,0.641 c -0.783,0.434 -1.527,0.861 -2.228,1.281 -0.474,0.281 -0.929,0.565 -1.371,0.847 l -0.157,0.101 -0.157,0.101 c -0.428,0.278 -0.839,0.553 -1.225,0.825 -0.498,0.35 -0.909,0.657 -1.294,0.962 l -0.169,0.137 c -0.015,0.012 -0.029,0.025 -0.045,0.038 -0.202,0.161 -0.403,0.326 -0.598,0.494 l -0.038,0.02 -0.423,0.393 c -0.02,0.019 -0.04,0.037 -0.061,0.056 l -0.095,0.09 c -0.283,0.268 -0.506,0.54 -0.75,0.81 -0.168,0.185 -0.364,0.368 -0.513,0.554 -0.238,0.295 -0.418,0.595 -0.611,0.894 -0.113,0.175 -0.256,0.347 -0.354,0.523 -0.179,0.321 -0.299,0.649 -0.429,0.975 -0.063,0.159 -0.155,0.314 -0.206,0.474 -0.157,0.489 -0.261,0.985 -0.312,1.489 -0.039,0.41 -0.042,0.81 -0.012,1.204 l 0,10e-4 c 10e-4,0.002 0,0.005 0,0.008 l 0.046,0.413 c 0,0.009 0.002,0.016 0.004,0.025 l 0.074,0.417 c 0.002,0.008 0.005,0.016 0.007,0.024 l 0.002,0.012 c 0.039,0.173 0.093,0.345 0.146,0.517 0.024,0.078 0.04,0.159 0.066,0.237 l 0.092,0.245 0.056,0.15 c 0.001,0.004 0.003,0.007 0.005,0.011 l 0,0.001 c 0,0 0.001,10e-4 0.001,0.002 0.151,0.367 0.322,0.675 0.463,0.909 l 0.265,0.422 c 0.239,0.351 0.545,0.721 0.886,1.065 0.004,0.003 0.006,0.007 0.009,0.01 4.677,4.723 9.863,9.157 15.474,13.233 1.871,1.359 3.789,2.678 5.751,3.955 1.457,0.949 2.944,1.877 4.459,2.783 0.756,0.452 1.522,0.9 2.293,1.341 1.544,0.884 3.116,1.744 4.712,2.577 5.708,2.982 11.665,5.587 17.706,7.743 1.771,0.631 3.565,1.231 5.383,1.795 1.829,0.57 3.684,1.105 5.51,1.59 8.618,2.29 17.447,3.721 26.241,4.252 2.027,0.123 4.084,0.199 6.112,0.227 2.099,0.026 4.206,0.002 6.316,-0.073 6.331,-0.223 12.669,-0.897 18.913,-2.03 2.144,-0.389 4.318,-0.839 6.463,-1.338 2.175,-0.506 4.364,-1.074 6.513,-1.688 3.292,-0.941 6.603,-2.021 9.842,-3.212 3.313,-1.218 6.645,-2.585 9.905,-4.063 4.454,-2.02 8.915,-4.309 13.262,-6.806 1.741,-1.001 3.485,-2.057 5.228,-3.147 l 0.028,-0.017 0.438,-0.273 c 1.245,-0.784 2.489,-1.615 3.733,-2.443 1.505,8.636 2.513,17.441 3.002,26.39 L 0,0 Z" />
    </g>
    <g
       transform="matrix(1.25,0,0,-1.25,303.04225,574.73161)"
       id="g4078"
       style="fill:#666666">
      <path
         inkscape:connector-curvature="0"
         id="path4080"
         style="fill:#666666;fill-opacity:1;fill-rule:nonzero;stroke:none"
         d="m 0,0 c -118.101,0 -213.84,95.739 -213.84,213.84 0,118.101 95.739,213.84 213.84,213.84 118.101,0 213.84,-95.739 213.84,-213.84 C 213.84,95.739 118.101,0 0,0 m 0,451.44 c -131.223,0 -237.6,-106.377 -237.6,-237.6 0,-131.223 106.377,-237.6 237.6,-237.6 131.223,0 237.6,106.377 237.6,237.6 0,131.223 -106.377,237.6 -237.6,237.6" />
    </g>
    <g
       transform="matrix(1.25,0,0,-1.25,-33.384871,60.934864)"
       id="g4086"
       style="fill:#666666">
      <path
         inkscape:connector-curvature="0"
         id="path4088"
         style="fill:#666666;fill-opacity:1;fill-rule:nonzero;stroke:none"
         d="M 0,0 -1.187,0.652 0,0 Z" />
    </g>
    <g
       transform="matrix(1.25,0,0,-1.25,-32.926251,102.67436)"
       id="g4110"
       style="fill:#666666">
      <path
         inkscape:connector-curvature="0"
         id="path4112"
         style="fill:#666666;fill-opacity:1;fill-rule:nonzero;stroke:none"
         d="M 0,0 C 0,0 0,0 0,0 0,0 0,0 0,0" />
    </g>
    <g
       transform="matrix(1.25,0,0,-1.25,-33.567251,102.25423)"
       id="g4114"
       style="fill:#666666">
      <path
         inkscape:connector-curvature="0"
         id="path4116"
         style="fill:#666666;fill-opacity:1;fill-rule:nonzero;stroke:none"
         d="m 0,0 c 0.17,-0.115 0.34,-0.218 0.509,-0.334 0,0 0,0 0,0 0,0 0,0 0,0 C 0.34,-0.218 0.17,-0.115 0,0" />
    </g>
    <g
       transform="matrix(1.25,0,0,-1.25,-32.930501,102.67161)"
       id="g4118"
       style="fill:#666666">
      <path
         inkscape:connector-curvature="0"
         id="path4120"
         style="fill:#666666;fill-opacity:1;fill-rule:nonzero;stroke:none"
         d="M 0,0 C 0.001,-0.001 0.002,-0.001 0.003,-0.002 0.002,-0.001 0.001,-0.001 0,0 0,0 0,0 0,0" />
    </g>
    <g
       transform="matrix(1.25,0,0,-1.25,-32.926251,102.67436)"
       id="g4138"
       style="fill:#666666">
      <path
         inkscape:connector-curvature="0"
         id="path4140"
         style="fill:#666666;fill-opacity:1;fill-rule:nonzero;stroke:none"
         d="M 0,0 0,0 C 0,0 0,0 0,0 Z" />
    </g>
    <g
       transform="matrix(1.25,0,0,-1.25,-32.926741,102.67411)"
       id="g4142"
       style="fill:#666666">
      <path
         inkscape:connector-curvature="0"
         id="path4144"
         style="fill:#666666;fill-opacity:1;fill-rule:nonzero;stroke:none"
         d="M 0,0 C -0.001,0.001 -0.002,0.001 -0.003,0.002 -0.002,0.001 -0.001,0 0,0 l 0,0 z" />
    </g>
    <g
       transform="matrix(1.25,0,0,-1.25,-285.83618,-0.733225)"
       id="g4202"
       style="fill:#666666">
      <path
         inkscape:connector-curvature="0"
         id="path4204"
         style="fill:#666666;fill-opacity:1;fill-rule:nonzero;stroke:none"
         d="M 0,0 -1.187,0.652 0,0 Z" />
    </g>
    <g
       transform="matrix(1.25,0,0,-1.25,-285.37755,41.006275)"
       id="g4226"
       style="fill:#666666">
      <path
         inkscape:connector-curvature="0"
         id="path4228"
         style="fill:#666666;fill-opacity:1;fill-rule:nonzero;stroke:none"
         d="M 0,0 C 0,0 0,0 0,0 0,0 0,0 0,0" />
    </g>
    <g
       transform="matrix(1.25,0,0,-1.25,-286.01855,40.58615)"
       id="g4230"
       style="fill:#666666">
      <path
         inkscape:connector-curvature="0"
         id="path4232"
         style="fill:#666666;fill-opacity:1;fill-rule:nonzero;stroke:none"
         d="m 0,0 c 0.17,-0.115 0.339,-0.218 0.509,-0.334 0,0 0,0 0,0 0,0 0,0 0,0 C 0.339,-0.218 0.17,-0.115 0,0" />
    </g>
    <g
       transform="matrix(1.25,0,0,-1.25,-285.3818,41.003525)"
       id="g4234"
       style="fill:#666666">
      <path
         inkscape:connector-curvature="0"
         id="path4236"
         style="fill:#666666;fill-opacity:1;fill-rule:nonzero;stroke:none"
         d="M 0,0 C 0.001,-0.001 0.002,-0.001 0.003,-0.002 0.002,-0.001 0.001,-0.001 0,0 0,0 0,0 0,0" />
    </g>
    <g
       transform="matrix(1.25,0,0,-1.25,-285.37755,41.006275)"
       id="g4254"
       style="fill:#666666">
      <path
         inkscape:connector-curvature="0"
         id="path4256"
         style="fill:#666666;fill-opacity:1;fill-rule:nonzero;stroke:none"
         d="M 0,0 0,0 C 0,0 0,0 0,0 Z" />
    </g>
    <g
       transform="matrix(1.25,0,0,-1.25,-285.37805,41.006025)"
       id="g4258"
       style="fill:#666666">
      <path
         inkscape:connector-curvature="0"
         id="path4260"
         style="fill:#666666;fill-opacity:1;fill-rule:nonzero;stroke:none"
         d="M 0,0 C -0.001,0.001 -0.002,0.001 -0.003,0.002 -0.002,0.001 -0.001,0 0,0 l 0,0 z" />
    </g>
  </g>
</svg>
