<?xml version="1.0" encoding="UTF-8" standalone="no"?>
<!-- Created with Inkscape (http://www.inkscape.org/) -->

<svg
   xmlns:dc="http://purl.org/dc/elements/1.1/"
   xmlns:cc="http://creativecommons.org/ns#"
   xmlns:rdf="http://www.w3.org/1999/02/22-rdf-syntax-ns#"
   xmlns:svg="http://www.w3.org/2000/svg"
   xmlns="http://www.w3.org/2000/svg"
   xmlns:sodipodi="http://sodipodi.sourceforge.net/DTD/sodipodi-0.dtd"
   xmlns:inkscape="http://www.inkscape.org/namespaces/inkscape"
   width="37.042019mm"
   height="37.042019mm"
   viewBox="0 0 131.25125 131.25125"
   id="svg3770"
   version="1.1"
   inkscape:version="0.91 r13725"
   sodipodi:docname="swell-medium.svg">
  <defs
     id="defs3772" />
  <sodipodi:namedview
     id="base"
     pagecolor="#ffffff"
     bordercolor="#666666"
     borderopacity="1.0"
     inkscape:pageopacity="0.0"
     inkscape:pageshadow="2"
     inkscape:zoom="2.8"
     inkscape:cx="-28.986358"
     inkscape:cy="72.348477"
     inkscape:document-units="px"
     inkscape:current-layer="layer1"
     showgrid="false"
     inkscape:window-width="1920"
     inkscape:window-height="1018"
     inkscape:window-x="-8"
     inkscape:window-y="-8"
     inkscape:window-maximized="1"
     fit-margin-top="0"
     fit-margin-left="0"
     fit-margin-right="0"
     fit-margin-bottom="0" />
  <metadata
     id="metadata3775">
    <rdf:RDF>
      <cc:Work
         rdf:about="">
        <dc:format>image/svg+xml</dc:format>
        <dc:type
           rdf:resource="http://purl.org/dc/dcmitype/StillImage" />
        <dc:title></dc:title>
      </cc:Work>
    </rdf:RDF>
  </metadata>
  <g
     inkscape:label="Capa 1"
     inkscape:groupmode="layer"
     id="layer1"
     transform="translate(-30.4458,-16.736576)">
    <g
       transform="matrix(1.25,0,0,-1.25,42.806675,106.91746)"
       id="g3623">
      <path
         inkscape:connector-curvature="0"
         id="path3625"
         style="fill:#ffffff;fill-opacity:1;fill-rule:nonzero;stroke:none"
         d="M 0,0 C 0.465,0.126 0.928,0.25 1.386,0.366 2.449,0.635 3.48,0.869 4.45,1.063 5.461,1.266 6.435,1.43 7.343,1.55 8.232,1.669 9.18,1.731 10.16,1.734 c 0,0 4.246,0.069 9.499,-1.313 0.117,-0.031 8.651,-2.462 10.521,-3.05 2.626,-0.825 5.293,-1.662 7.942,-2.388 0.049,-0.014 4.054,-1.027 5.333,-1.282 0.021,-0.005 2.17,-0.388 2.554,-0.444 0.032,-0.005 4.751,-0.405 5.112,-0.405 l 0.003,0 10e-4,0 c 0,0 5.415,0.433 7.705,1.304 3.527,1.341 5.662,2.677 6.622,4.159 0.137,0.211 0.251,0.426 0.341,0.644 0.349,0.845 0.332,1.744 -0.048,2.602 -0.042,0.095 -0.089,0.191 -0.14,0.285 C 65.247,2.511 64.673,3.158 63.858,3.817 63.769,3.89 63.677,3.963 63.582,4.035 63.315,4.24 63.018,4.45 62.698,4.66 62.313,4.913 61.882,5.178 61.418,5.443 61.089,5.632 59.952,6.242 59.723,6.36 59.493,6.477 53.677,9.605 53.646,9.631 L 53.64,9.639 c 0.643,0.632 1.33,1.239 2.054,1.82 0.741,0.593 1.521,1.157 2.337,1.688 0.32,0.208 0.646,0.412 0.98,0.611 0.166,0.1 0.334,0.199 0.504,0.296 0.339,0.194 0.684,0.383 1.035,0.566 1.256,0.656 2.566,1.229 3.894,1.703 0.389,0.14 0.784,0.271 1.183,0.395 0.402,0.125 0.81,0.243 1.211,0.349 1.891,0.503 3.828,0.816 5.756,0.933 0.445,0.028 0.895,0.044 1.339,0.05 1.84,0.024 3.703,-0.129 5.527,-0.461 0.47,-0.086 0.948,-0.184 1.418,-0.293 0.477,-0.112 0.959,-0.236 1.43,-0.371 0.724,-0.207 1.453,-0.444 2.165,-0.707 0.731,-0.269 1.467,-0.571 2.185,-0.896 0.954,-0.432 1.907,-0.923 2.84,-1.455 0.066,0.537 0.124,1.076 0.171,1.619 -0.797,0.436 -1.598,0.847 -2.39,1.206 -0.748,0.339 -1.517,0.654 -2.286,0.938 -0.736,0.271 -1.5,0.52 -2.271,0.742 -0.495,0.141 -1.002,0.271 -1.502,0.387 -0.494,0.116 -0.996,0.219 -1.491,0.31 -1.781,0.324 -3.606,0.488 -5.424,0.488 L 73.909,19.554 C 73.441,19.547 72.967,19.53 72.504,19.501 70.471,19.379 68.435,19.049 66.454,18.521 66.033,18.41 65.604,18.286 65.183,18.155 64.763,18.025 64.347,17.886 63.938,17.74 62.543,17.242 61.169,16.641 59.854,15.954 59.485,15.76 59.122,15.562 58.773,15.361 58.592,15.259 58.413,15.154 58.238,15.049 57.89,14.84 57.546,14.626 57.21,14.408 56.36,13.853 55.533,13.256 54.754,12.633 53.978,12.011 53.248,11.364 52.584,10.71 52.022,10.156 51.99,9.253 52.503,8.654 52.553,8.596 52.607,8.542 52.664,8.492 52.949,8.247 58.98,5.05 59.033,5.023 59.254,4.909 60.35,4.322 60.672,4.138 c 0.435,-0.25 0.84,-0.498 1.199,-0.734 0.289,-0.19 0.556,-0.38 0.8,-0.566 l 0.241,-0.19 c 0.65,-0.525 1.11,-1.035 1.368,-1.515 0.033,-0.061 0.063,-0.122 0.089,-0.181 0.213,-0.48 0.224,-0.958 0.037,-1.411 -0.057,-0.138 -0.13,-0.275 -0.216,-0.408 -0.76,-1.172 -2.743,-2.373 -5.895,-3.572 -1.688,-0.641 -5.695,-1.079 -7.207,-1.203 -0.623,0.032 -4.566,0.361 -4.863,0.387 -0.37,0.054 -2.403,0.418 -2.475,0.43 -1.191,0.239 -5.012,1.202 -5.23,1.259 -2.673,0.732 -5.444,1.604 -7.89,2.373 -1.824,0.573 -10.247,2.978 -10.589,3.069 -4.929,1.297 -9.01,1.363 -9.778,1.363 -10e-4,0 -0.106,-10e-4 -0.109,-10e-4 C 9.111,3.235 8.097,3.169 7.145,3.041 6.201,2.916 5.195,2.747 4.155,2.538 3.161,2.34 2.105,2.099 1.017,1.825 0.55,1.706 0.078,1.58 -0.391,1.452 L -0.943,1.298 C -0.746,0.83 -0.531,0.371 -0.319,-0.089 -0.213,-0.06 -0.105,-0.029 0,0" />
    </g>
    <g
       transform="matrix(1.25,0,0,-1.25,151.12955,87.765326)"
       id="g3627">
      <path
         inkscape:connector-curvature="0"
         id="path3629"
         style="fill:#1c1b18;fill-opacity:1;fill-rule:nonzero;stroke:none"
         d="m 0,0 c -0.718,0.326 -1.454,0.627 -2.185,0.897 -0.712,0.262 -1.441,0.499 -2.165,0.706 -0.471,0.135 -0.953,0.259 -1.43,0.371 -0.471,0.109 -0.948,0.208 -1.418,0.294 -1.824,0.331 -3.687,0.485 -5.527,0.46 -0.445,-0.006 -0.895,-0.022 -1.339,-0.05 -1.928,-0.116 -3.865,-0.429 -5.756,-0.932 -0.401,-0.106 -0.809,-0.224 -1.211,-0.35 -0.399,-0.124 -0.794,-0.255 -1.183,-0.394 -1.328,-0.475 -2.638,-1.048 -3.894,-1.703 -0.351,-0.184 -0.696,-0.373 -1.036,-0.567 -0.169,-0.097 -0.337,-0.195 -0.504,-0.295 -0.333,-0.2 -0.66,-0.403 -0.979,-0.611 -0.816,-0.532 -1.596,-1.096 -2.337,-1.689 -0.725,-0.58 -1.411,-1.187 -2.054,-1.82 l 0.006,-0.007 c 0.031,-0.027 5.847,-3.155 6.076,-3.272 0.23,-0.118 1.367,-0.728 1.696,-0.917 0.464,-0.265 0.895,-0.529 1.28,-0.783 0.319,-0.21 0.617,-0.42 0.884,-0.625 0.094,-0.072 0.187,-0.144 0.276,-0.218 0.815,-0.659 1.389,-1.306 1.747,-1.97 0.051,-0.095 0.097,-0.19 0.14,-0.286 0.38,-0.858 0.397,-1.757 0.048,-2.602 -0.091,-0.217 -0.204,-0.433 -0.341,-0.644 -0.961,-1.481 -3.096,-2.817 -6.622,-4.159 -2.29,-0.871 -7.705,-1.304 -7.705,-1.304 l -0.002,0 -0.003,0 c -0.36,0 -5.08,0.4 -5.112,0.405 -0.384,0.057 -2.533,0.44 -2.553,0.444 -1.28,0.256 -5.285,1.268 -5.333,1.282 -2.649,0.727 -5.316,1.563 -7.943,2.389 -1.869,0.588 -10.403,3.019 -10.52,3.05 -5.253,1.382 -9.499,1.312 -9.499,1.312 -0.981,-0.003 -1.928,-0.064 -2.818,-0.183 -0.907,-0.121 -1.881,-0.285 -2.893,-0.487 -0.97,-0.195 -2,-0.429 -3.063,-0.698 -0.459,-0.115 -0.921,-0.239 -1.386,-0.366 -0.093,-0.025 -0.189,-0.052 -0.283,-0.079 -0.61,1.584 -2.837,7.463 -3.85,13.838 5.66,-1.297 43.031,-9.851 56.532,0.341 2.33,1.759 2.792,5.285 1.681,8.496 -1.164,3.366 -4.571,6.988 -9.3,6.988 -1.184,0 -4.548,-1.05 -5.778,-1.442 -0.227,-0.073 -0.428,0.138 -0.365,0.369 0.204,0.751 6.176,10.683 17.533,10.683 4.719,0 25.14,-11.373 33.559,-16.179 C 3.15,6.578 3.204,5.457 3.204,4.322 3.204,2.365 3.071,0.441 2.836,-1.452 1.904,-0.921 0.952,-0.431 0,0 m -91.185,1.808 c 6.969,-1.728 28.209,-6.393 35.949,0.74 3.343,3.081 4.075,6.39 4.14,8.832 0.175,6.585 -5.401,12.716 -11.308,12.697 -4.167,-0.013 -7.158,-2.535 -8.015,-6.281 -0.7,-3.06 0.209,-6.246 2.202,-8.274 0.08,-0.082 0.048,-0.22 -0.06,-0.259 -1.431,-0.515 -2.761,-0.774 -3.97,-0.774 -2.232,0 -3.994,0.877 -5.233,2.607 -1.191,1.661 -1.82,3.993 -1.82,6.742 0,0.296 0.013,0.583 0.023,0.872 0.231,4.534 2.239,10 6.151,14.129 4.089,3.95 9.502,5.978 13.991,6.211 0.287,0.01 0.572,0.023 0.864,0.023 4.761,0 9.985,-1.398 15.53,-4.156 2.986,-1.485 5.984,-3.092 8.883,-4.645 5.067,-2.715 30.457,-12.777 35.737,-14.862 0.468,-1.945 0.824,-3.932 1.044,-5.962 -9.127,5.203 -28.442,15.87 -33.411,15.87 -12.1,0 -18.617,-10.607 -18.928,-11.749 -0.145,-0.534 -0.038,-1.092 0.296,-1.529 0.331,-0.432 0.831,-0.68 1.373,-0.68 0.149,0 0.389,0.037 0.531,0.082 4.096,1.308 5.165,1.375 5.338,1.375 4.021,0 6.932,-3.119 7.934,-6.016 0.98,-2.833 0.504,-5.594 -1.186,-6.87 -4.078,-3.078 -11.022,-4.638 -20.641,-4.638 -9.555,-0.001 -21.888,1.618 -34.725,4.56 -0.23,0.052 -0.384,0.087 -0.51,0.115 -0.076,0.613 -0.131,1.227 -0.179,1.84 m 47.138,49.765 c 21.65,0 39.882,-14.567 45.471,-34.429 -6.866,2.716 -29.874,11.87 -34.637,14.422 -2.896,1.552 -5.891,3.156 -8.884,4.645 -5.747,2.858 -11.188,4.308 -16.174,4.308 -0.25,0 -0.495,-0.009 -0.739,-0.018 l -0.199,-0.007 c -5.342,-0.277 -10.92,-2.75 -14.967,-6.661 -3.825,-4.037 -6.271,-9.663 -6.545,-15.073 l -0.007,-0.187 c -0.009,-0.243 -0.018,-0.486 -0.018,-0.735 0,-3.053 0.722,-5.676 2.09,-7.584 1.505,-2.101 3.72,-3.211 6.409,-3.211 1.374,0 2.874,0.289 4.461,0.861 0.516,0.186 0.898,0.617 1.019,1.152 0.122,0.535 -0.034,1.087 -0.419,1.479 -1.68,1.71 -2.397,4.433 -1.824,6.939 0.737,3.218 3.209,5.146 6.633,5.157 2.251,0 4.619,-1.105 6.497,-3.033 2.2,-2.259 3.416,-5.24 3.339,-8.179 -0.081,-3.05 -1.283,-5.604 -3.675,-7.808 -2.488,-2.293 -6.929,-3.456 -13.199,-3.456 -4.236,-0.001 -11.423,0.564 -21.846,3.166 -0.011,0.334 -0.036,0.671 -0.036,1.001 0,26.096 21.155,47.251 47.25,47.251 m 0,5.25 c -28.995,0 -52.5,-23.505 -52.5,-52.501 0,-28.995 23.505,-52.5 52.5,-52.5 28.996,0 52.501,23.505 52.501,52.5 0,28.996 -23.505,52.501 -52.501,52.501" />
    </g>
    <g
       transform="matrix(1.25,0,0,-1.25,96.071424,139.65408)"
       id="g3631">
      <path
         inkscape:connector-curvature="0"
         id="path3633"
         style="fill:#ffffff;fill-opacity:1;fill-rule:nonzero;stroke:none"
         d="m 0,0 c -11.519,0 -22.386,4.22 -30.841,11.928 1.675,0.51 4.417,1.087 8.254,1.087 6.3,0 13.395,-1.515 21.086,-4.501 C 1.39,7.391 3.096,6.257 3.408,6.04 3.436,6.021 4.196,5.524 4.196,5.524 4.434,5.369 4.703,5.294 4.972,5.294 c 0.354,0 0.707,0.133 0.978,0.392 l 0.637,0.607 c 0.022,0.021 2.226,2.125 4.908,4.552 5.088,4.606 7.562,6.484 8.74,7.248 0.001,0 2.921,1.744 3.223,1.913 0.015,0.004 0.728,0.332 0.878,0.394 l 0.948,0.328 c 0.046,0.01 0.169,0.043 0.292,0.073 l -0.029,-0.003 c 0.037,0.006 0.273,0.056 0.273,0.056 0.136,0.022 1.072,0.143 1.387,0.143 2.373,0 5.136,-1.307 8.419,-3.987 C 26.871,6.183 13.962,0 0,0 m 25.525,22.241 c -0.078,-0.016 -0.224,-0.05 -0.224,-0.05 l -0.002,0 -0.053,-0.012 c -0.143,-0.035 -0.285,-0.073 -0.425,-0.113 l -1,-0.346 -0.023,-0.008 C 23.64,21.648 22.789,21.256 22.789,21.256 22.668,21.195 19.465,19.283 19.465,19.283 17.715,18.149 14.63,15.595 10.544,11.896 7.826,9.435 5.63,7.339 5.608,7.319 L 4.972,6.711 4.231,7.195 c -0.027,0.016 -1.865,1.337 -5.219,2.64 -21.576,8.378 -32.12,2.776 -32.444,2.609 C -24.88,3.881 -13.059,-1.417 0,-1.417 c 15.333,0 28.953,7.308 37.585,18.626 -4.005,3.499 -7.402,5.206 -10.378,5.206 -0.475,0 -1.603,-0.158 -1.682,-0.174" />
    </g>
    <g
       transform="matrix(1.25,0,0,-1.25,128.3468,113.58596)"
       id="g3635">
      <path
         inkscape:connector-curvature="0"
         id="path3637"
         style="fill:#1c1b18;fill-opacity:1;fill-rule:nonzero;stroke:none"
         d="m 0,0 c 0,0 -0.236,-0.051 -0.273,-0.057 l 0.029,0.003 c -0.123,-0.03 -0.246,-0.062 -0.292,-0.073 l -0.948,-0.327 c -0.151,-0.063 -0.864,-0.391 -0.878,-0.395 -0.302,-0.169 -3.222,-1.913 -3.223,-1.913 -1.179,-0.763 -3.652,-2.641 -8.74,-7.248 -2.682,-2.427 -4.886,-4.53 -4.908,-4.552 l -0.637,-0.607 c -0.272,-0.259 -0.624,-0.392 -0.979,-0.392 -0.268,0 -0.538,0.076 -0.775,0.231 0,0 -0.761,0.497 -0.788,0.516 -0.313,0.216 -2.019,1.35 -4.909,2.473 -7.692,2.987 -14.786,4.501 -21.086,4.501 -3.837,0 -6.579,-0.577 -8.254,-1.087 8.455,-7.708 19.322,-11.927 30.841,-11.927 13.962,0 26.871,6.182 35.626,17.009 C 6.522,-1.164 3.76,0.143 1.387,0.143 1.071,0.143 0.136,0.021 0,0" />
    </g>
  </g>
</svg>
