<?xml version="1.0" encoding="UTF-8" standalone="no"?>
<!-- Created with Inkscape (http://www.inkscape.org/) -->

<svg
   xmlns:dc="http://purl.org/dc/elements/1.1/"
   xmlns:cc="http://creativecommons.org/ns#"
   xmlns:rdf="http://www.w3.org/1999/02/22-rdf-syntax-ns#"
   xmlns:svg="http://www.w3.org/2000/svg"
   xmlns="http://www.w3.org/2000/svg"
   xmlns:sodipodi="http://sodipodi.sourceforge.net/DTD/sodipodi-0.dtd"
   xmlns:inkscape="http://www.inkscape.org/namespaces/inkscape"
   width="37.041668mm"
   height="37.042019mm"
   viewBox="0 0 131.25 131.25125"
   id="svg3770"
   version="1.1"
   inkscape:version="0.91 r13725"
   sodipodi:docname="swell-small.svg">
  <defs
     id="defs3772" />
  <sodipodi:namedview
     id="base"
     pagecolor="#ffffff"
     bordercolor="#666666"
     borderopacity="1.0"
     inkscape:pageopacity="0.0"
     inkscape:pageshadow="2"
     inkscape:zoom="2.8"
     inkscape:cx="-15.772658"
     inkscape:cy="51.267272"
     inkscape:document-units="px"
     inkscape:current-layer="layer1"
     showgrid="false"
     inkscape:window-width="1920"
     inkscape:window-height="1018"
     inkscape:window-x="-8"
     inkscape:window-y="-8"
     inkscape:window-maximized="1"
     fit-margin-top="0"
     fit-margin-left="0"
     fit-margin-right="0"
     fit-margin-bottom="0" />
  <metadata
     id="metadata3775">
    <rdf:RDF>
      <cc:Work
         rdf:about="">
        <dc:format>image/svg+xml</dc:format>
        <dc:type
           rdf:resource="http://purl.org/dc/dcmitype/StillImage" />
        <dc:title></dc:title>
      </cc:Work>
    </rdf:RDF>
  </metadata>
  <g
     inkscape:label="Capa 1"
     inkscape:groupmode="layer"
     id="layer1"
     transform="translate(-17.2321,-12.450867)">
    <g
       transform="matrix(1.25,0,0,-1.25,82.8571,135.36812)"
       id="g3611">
      <path
         inkscape:connector-curvature="0"
         id="path3613"
         style="fill:#ffffff;fill-opacity:1;fill-rule:nonzero;stroke:none"
         d="m 0,0 c -11.519,0 -22.386,4.22 -30.841,11.928 1.675,0.51 4.417,1.087 8.254,1.087 6.3,0 13.395,-1.515 21.086,-4.501 C 1.39,7.391 3.096,6.257 3.408,6.04 3.436,6.021 4.196,5.524 4.196,5.524 4.434,5.369 4.703,5.294 4.972,5.294 c 0.354,0 0.707,0.133 0.978,0.392 l 0.637,0.607 c 0.022,0.021 2.226,2.125 4.908,4.552 5.088,4.606 7.562,6.484 8.74,7.248 0.001,0 2.921,1.744 3.223,1.913 0.015,0.004 0.728,0.332 0.878,0.394 l 0.948,0.328 c 0.046,0.01 0.169,0.043 0.292,0.073 l -0.029,-0.003 c 0.037,0.006 0.273,0.056 0.273,0.056 0.136,0.022 1.072,0.143 1.387,0.143 2.373,0 5.136,-1.307 8.419,-3.987 C 26.871,6.183 13.962,0 0,0 m 25.525,22.241 c -0.078,-0.016 -0.224,-0.05 -0.224,-0.05 l -0.002,0 -0.053,-0.012 c -0.143,-0.035 -0.285,-0.073 -0.425,-0.113 l -1,-0.346 -0.023,-0.008 C 23.64,21.648 22.789,21.256 22.789,21.256 22.668,21.195 19.465,19.283 19.465,19.283 17.715,18.149 14.63,15.595 10.544,11.896 7.826,9.435 5.63,7.339 5.608,7.319 L 4.972,6.711 4.231,7.195 c -0.027,0.016 -1.865,1.337 -5.219,2.64 -21.576,8.378 -32.12,2.776 -32.444,2.609 C -24.88,3.881 -13.059,-1.417 0,-1.417 c 15.333,0 28.953,7.308 37.585,18.626 -4.005,3.499 -7.402,5.206 -10.378,5.206 -0.475,0 -1.603,-0.158 -1.682,-0.174" />
    </g>
    <g
       transform="matrix(1.25,0,0,-1.25,115.1325,109.3)"
       id="g3615">
      <path
         inkscape:connector-curvature="0"
         id="path3617"
         style="fill:#1c1b18;fill-opacity:1;fill-rule:nonzero;stroke:none"
         d="m 0,0 c 0,0 -0.236,-0.051 -0.273,-0.057 l 0.029,0.003 c -0.123,-0.03 -0.246,-0.062 -0.292,-0.073 l -0.948,-0.327 c -0.151,-0.063 -0.864,-0.391 -0.878,-0.395 -0.302,-0.169 -3.222,-1.913 -3.223,-1.913 -1.179,-0.763 -3.652,-2.641 -8.74,-7.248 -2.682,-2.427 -4.886,-4.53 -4.908,-4.552 l -0.637,-0.607 c -0.272,-0.259 -0.624,-0.392 -0.979,-0.392 -0.268,0 -0.538,0.076 -0.775,0.231 0,0 -0.761,0.497 -0.788,0.516 -0.313,0.216 -2.019,1.35 -4.909,2.473 -7.692,2.987 -14.786,4.501 -21.086,4.501 -3.837,0 -6.579,-0.577 -8.254,-1.087 8.455,-7.708 19.322,-11.927 30.841,-11.927 13.962,0 26.871,6.182 35.626,17.009 C 6.522,-1.164 3.76,0.143 1.387,0.143 1.071,0.143 0.136,0.021 0,0" />
    </g>
    <g
       transform="matrix(1.25,0,0,-1.25,82.8571,12.450867)"
       id="g3619">
      <path
         inkscape:connector-curvature="0"
         id="path3621"
         style="fill:#1c1b18;fill-opacity:1;fill-rule:nonzero;stroke:none"
         d="m 0,0 c -28.995,0 -52.5,-23.505 -52.5,-52.5 0,-28.996 23.505,-52.501 52.5,-52.501 28.995,0 52.5,23.505 52.5,52.501 C 52.5,-23.505 28.995,0 0,0 m 0,-99.751 c -19.049,0 -35.452,11.279 -42.926,27.518 0.105,0.03 0.211,0.06 0.314,0.088 0.465,0.127 0.928,0.251 1.386,0.367 1.064,0.268 2.094,0.503 3.064,0.697 1.011,0.202 1.985,0.366 2.893,0.487 0.889,0.119 1.837,0.18 2.817,0.183 0,0 4.247,0.07 9.499,-1.312 0.117,-0.031 8.651,-2.462 10.521,-3.05 2.626,-0.826 5.293,-1.662 7.942,-2.389 0.049,-0.014 4.054,-1.026 5.334,-1.282 0.02,-0.004 2.169,-0.387 2.553,-0.443 0.032,-0.006 4.751,-0.406 5.112,-0.406 l 0.003,0 10e-4,0 c 0,0 5.415,0.433 7.705,1.304 3.527,1.342 5.662,2.678 6.622,4.159 0.137,0.211 0.251,0.427 0.341,0.644 0.349,0.845 0.332,1.744 -0.048,2.603 -0.042,0.095 -0.089,0.19 -0.14,0.285 -0.357,0.664 -0.932,1.312 -1.747,1.971 -0.089,0.073 -0.181,0.145 -0.275,0.217 -0.268,0.205 -0.565,0.415 -0.884,0.625 -0.386,0.254 -0.817,0.518 -1.28,0.783 -0.329,0.189 -1.467,0.799 -1.696,0.917 -0.229,0.117 -6.046,3.245 -6.077,3.272 l -0.006,0.007 c 0.643,0.633 1.33,1.24 2.055,1.82 0.74,0.594 1.52,1.157 2.336,1.689 0.32,0.208 0.647,0.411 0.98,0.611 0.166,0.1 0.334,0.198 0.504,0.295 0.339,0.194 0.684,0.383 1.036,0.567 1.255,0.655 2.566,1.229 3.893,1.703 0.39,0.139 0.784,0.271 1.183,0.395 0.403,0.125 0.81,0.243 1.211,0.349 1.891,0.503 3.828,0.816 5.756,0.933 0.445,0.027 0.895,0.043 1.34,0.05 1.84,0.024 3.702,-0.13 5.526,-0.461 0.47,-0.086 0.948,-0.185 1.418,-0.294 0.478,-0.111 0.959,-0.236 1.431,-0.37 0.723,-0.207 1.452,-0.445 2.164,-0.707 0.732,-0.27 1.467,-0.571 2.185,-0.897 0.954,-0.432 1.907,-0.923 2.84,-1.454 0.066,0.537 0.124,1.076 0.172,1.618 -0.798,0.436 -1.599,0.847 -2.391,1.206 -0.747,0.339 -1.516,0.654 -2.285,0.938 -0.737,0.272 -1.501,0.52 -2.272,0.742 -0.495,0.141 -1.002,0.272 -1.502,0.388 -0.494,0.116 -0.996,0.219 -1.491,0.31 -1.78,0.323 -3.605,0.488 -5.424,0.488 l -0.396,-0.003 c -0.467,-0.008 -0.942,-0.024 -1.405,-0.053 -2.032,-0.122 -4.069,-0.453 -6.049,-0.98 -0.422,-0.111 -0.851,-0.236 -1.272,-0.366 -0.42,-0.131 -0.836,-0.27 -1.245,-0.416 -1.394,-0.497 -2.769,-1.098 -4.084,-1.785 -0.369,-0.194 -0.731,-0.392 -1.081,-0.593 -0.181,-0.103 -0.36,-0.208 -0.534,-0.312 -0.349,-0.21 -0.693,-0.423 -1.028,-0.642 -0.851,-0.554 -1.678,-1.151 -2.456,-1.775 -0.777,-0.622 -1.506,-1.268 -2.171,-1.922 -0.561,-0.555 -0.593,-1.457 -0.08,-2.056 0.049,-0.058 0.103,-0.112 0.16,-0.162 0.285,-0.246 6.317,-3.443 6.37,-3.47 0.22,-0.114 1.317,-0.7 1.638,-0.885 0.435,-0.25 0.84,-0.497 1.199,-0.734 0.289,-0.189 0.556,-0.38 0.8,-0.565 l 0.242,-0.19 c 0.649,-0.525 1.109,-1.035 1.368,-1.515 0.033,-0.061 0.063,-0.122 0.089,-0.182 0.212,-0.479 0.223,-0.957 0.036,-1.411 -0.057,-0.138 -0.13,-0.275 -0.216,-0.407 -0.759,-1.172 -2.743,-2.373 -5.894,-3.572 -1.689,-0.642 -5.696,-1.079 -7.208,-1.204 -0.623,0.032 -4.566,0.362 -4.863,0.388 -0.37,0.054 -2.403,0.418 -2.474,0.43 -1.192,0.238 -5.013,1.201 -5.231,1.258 -2.672,0.733 -5.444,1.604 -7.889,2.373 -1.824,0.573 -10.248,2.979 -10.59,3.07 -4.928,1.296 -9.01,1.363 -9.777,1.363 -10e-4,0 -0.107,-0.001 -0.109,-0.001 -1.044,-0.003 -2.057,-0.07 -3.01,-0.197 -0.944,-0.126 -1.95,-0.295 -2.99,-0.504 -0.993,-0.198 -2.049,-0.438 -3.138,-0.713 -0.467,-0.118 -0.939,-0.244 -1.408,-0.373 l -0.533,-0.148 c -1.653,3.92 -2.792,8.108 -3.333,12.484 5.266,-1.207 43.065,-9.949 56.656,0.312 2.33,1.759 2.792,5.285 1.681,8.496 -1.163,3.366 -4.57,6.988 -9.3,6.988 -1.183,0 -4.547,-1.05 -5.777,-1.442 -0.228,-0.072 -0.428,0.138 -0.366,0.369 0.205,0.751 6.176,10.683 17.533,10.683 4.72,0 25.14,-11.373 33.56,-16.179 0.078,-1.115 0.132,-2.236 0.132,-3.37 0,-26.096 -21.154,-47.251 -47.25,-47.251 m -47.173,44.744 c 6.935,-1.721 28.232,-6.412 35.983,0.732 3.343,3.081 4.076,6.39 4.141,8.832 0.174,6.585 -5.401,12.716 -11.308,12.697 -4.167,-0.013 -7.159,-2.535 -8.015,-6.281 -0.7,-3.059 0.208,-6.246 2.201,-8.274 0.081,-0.082 0.048,-0.22 -0.06,-0.259 -1.431,-0.515 -2.76,-0.774 -3.969,-0.774 -2.233,0 -3.995,0.877 -5.234,2.607 -1.19,1.662 -1.82,3.993 -1.82,6.742 0,0.296 0.014,0.584 0.024,0.872 0.23,4.534 2.239,10 6.151,14.129 4.089,3.951 9.502,5.978 13.991,6.211 0.287,0.01 0.571,0.023 0.864,0.023 4.76,0 9.985,-1.398 15.529,-4.156 2.987,-1.485 5.985,-3.092 8.884,-4.645 5.067,-2.715 30.456,-12.777 35.737,-14.862 0.467,-1.944 0.824,-3.932 1.043,-5.962 -9.126,5.203 -28.442,15.87 -33.41,15.87 -12.101,0 -18.617,-10.606 -18.928,-11.749 -0.146,-0.534 -0.038,-1.092 0.296,-1.529 0.33,-0.432 0.83,-0.68 1.372,-0.68 0.15,0 0.39,0.038 0.531,0.082 4.096,1.308 5.166,1.375 5.338,1.375 4.022,0 6.932,-3.119 7.934,-6.015 0.98,-2.834 0.504,-5.594 -1.185,-6.87 -4.078,-3.078 -11.023,-4.639 -20.641,-4.639 -9.556,-10e-4 -21.888,1.618 -34.725,4.56 -0.279,0.064 -0.462,0.105 -0.595,0.134 -0.055,0.606 -0.095,1.217 -0.129,1.829 m -0.077,2.507 c 0,26.095 21.154,47.25 47.25,47.25 21.649,0 39.882,-14.566 45.471,-34.429 -6.867,2.717 -29.874,11.871 -34.638,14.423 -2.895,1.551 -5.891,3.156 -8.884,4.644 -5.746,2.859 -11.188,4.308 -16.173,4.308 -0.25,0 -0.495,-0.009 -0.74,-0.018 l -0.199,-0.007 c -5.342,-0.277 -10.92,-2.75 -14.966,-6.661 -3.825,-4.037 -6.271,-9.663 -6.545,-15.073 l -0.007,-0.187 c -0.009,-0.243 -0.018,-0.486 -0.018,-0.735 0,-3.053 0.722,-5.675 2.09,-7.584 1.505,-2.101 3.72,-3.211 6.408,-3.211 1.374,0 2.874,0.29 4.462,0.861 0.516,0.186 0.897,0.617 1.019,1.152 0.121,0.535 -0.035,1.087 -0.419,1.479 -1.681,1.71 -2.397,4.434 -1.824,6.939 0.737,3.219 3.208,5.147 6.633,5.158 2.251,0 4.619,-1.106 6.496,-3.034 2.201,-2.259 3.417,-5.24 3.339,-8.179 -0.081,-3.049 -1.283,-5.604 -3.674,-7.808 -2.489,-2.293 -6.929,-3.456 -13.2,-3.456 -4.237,0 -11.427,0.564 -21.856,3.169 0.009,-0.424 -0.025,0.238 -0.025,0.999" />
    </g>
  </g>
</svg>
