<?xml version="1.0" encoding="UTF-8" standalone="no"?>
<!-- Created with Inkscape (http://www.inkscape.org/) -->

<svg
   xmlns:dc="http://purl.org/dc/elements/1.1/"
   xmlns:cc="http://creativecommons.org/ns#"
   xmlns:rdf="http://www.w3.org/1999/02/22-rdf-syntax-ns#"
   xmlns:svg="http://www.w3.org/2000/svg"
   xmlns="http://www.w3.org/2000/svg"
   xmlns:sodipodi="http://sodipodi.sourceforge.net/DTD/sodipodi-0.dtd"
   xmlns:inkscape="http://www.inkscape.org/namespaces/inkscape"
   width="50.240494mm"
   height="80.341965mm"
   viewBox="0 0 178.0175 284.67625"
   id="svg3515"
   version="1.1"
   inkscape:version="0.91 r13725"
   sodipodi:docname="marker-spot.svg">
  <defs
     id="defs3517" />
  <sodipodi:namedview
     id="base"
     pagecolor="#ffffff"
     bordercolor="#666666"
     borderopacity="1.0"
     inkscape:pageopacity="0.0"
     inkscape:pageshadow="2"
     inkscape:zoom="1.4"
     inkscape:cx="206.28616"
     inkscape:cy="223.15976"
     inkscape:document-units="px"
     inkscape:current-layer="layer1"
     showgrid="false"
     fit-margin-top="0"
     fit-margin-left="0"
     fit-margin-right="0"
     fit-margin-bottom="0"
     inkscape:window-width="1920"
     inkscape:window-height="1018"
     inkscape:window-x="-8"
     inkscape:window-y="-8"
     inkscape:window-maximized="1" />
  <metadata
     id="metadata3520">
    <rdf:RDF>
      <cc:Work
         rdf:about="">
        <dc:format>image/svg+xml</dc:format>
        <dc:type
           rdf:resource="http://purl.org/dc/dcmitype/StillImage" />
        <dc:title></dc:title>
      </cc:Work>
    </rdf:RDF>
  </metadata>
  <g
     inkscape:label="Capa 1"
     inkscape:groupmode="layer"
     id="layer1"
     transform="translate(-834.08166,-1053.3386)">
    <g
       transform="matrix(1.25,0,0,-1.25,923.09041,1086.4711)"
       id="g20">
      <path
         inkscape:connector-curvature="0"
         id="path22"
         style="fill:#444443;fill-opacity:1;fill-rule:nonzero;stroke:none"
         d="m 0,0 c 19.301,0 35.788,-12.926 42.162,-31.017 -10.768,3.647 -20.928,8.78 -31.421,13.064 -7.715,3.151 -14.391,4.203 -20.057,3.766 -28.87,-2.227 -31.656,-43.08 -14.087,-41.724 2.174,0.167 4.657,0.98 7.443,2.593 -6.913,3.162 -7.647,16.347 3.235,17.686 0.114,0.014 0.231,0.025 0.345,0.035 21.327,1.771 25.774,-35.434 -7.578,-39.575 -0.228,-0.029 -13.384,-1.735 -13.625,-1.753 -0.635,-0.049 -1.232,-0.018 -1.837,0.07 -3.503,4.734 -6.186,10.178 -7.802,16.1 -1.143,4.187 -1.768,8.604 -1.768,13.174 C -44.99,-21.345 -24.808,0 0,0 m 71.058,-41.364 c -0.019,0.283 -0.046,0.563 -0.074,0.851 l -0.011,0.12 c -0.013,0.13 -0.026,0.263 -0.039,0.42 -0.037,0.457 -0.08,0.923 -0.123,1.325 l -0.02,0.263 c -0.031,0.391 -0.063,0.778 -0.109,1.18 -0.614,5.273 -1.863,10.594 -3.703,15.789 -0.039,0.113 -0.076,0.228 -0.132,0.406 -0.082,0.257 -0.165,0.514 -0.264,0.786 -0.093,0.249 -0.194,0.497 -0.291,0.729 l -0.153,0.375 c -1.894,4.831 -4.311,9.47 -7.158,13.744 l -0.195,0.304 c -0.143,0.227 -0.287,0.453 -0.49,0.749 -0.14,0.196 -0.288,0.391 -0.441,0.588 -0.067,0.084 -0.132,0.169 -0.164,0.211 -1.432,2.021 -3.017,4.021 -4.713,5.948 -1.646,1.866 -3.372,3.635 -5.17,5.301 -0.056,0.049 -0.108,0.101 -0.194,0.185 -0.176,0.172 -0.353,0.343 -0.537,0.507 -0.191,0.171 -0.39,0.333 -0.629,0.526 -0.07,0.056 -0.138,0.11 -0.176,0.143 -3.781,3.305 -7.935,6.218 -12.371,8.672 -0.103,0.055 -0.204,0.113 -0.304,0.17 l -0.067,0.038 c -0.175,0.1 -0.35,0.199 -0.617,0.343 -0.201,0.104 -0.401,0.199 -0.646,0.314 -0.09,0.043 -0.183,0.086 -0.328,0.162 -1.905,0.972 -3.832,1.773 -5.808,2.578 -3.472,1.406 -6.476,2.401 -9.501,3.141 -0.291,0.066 -0.587,0.122 -0.938,0.187 l -0.238,0.045 c -0.311,0.074 -0.621,0.138 -0.925,0.201 l -1.163,0.244 c -0.528,0.113 -1.057,0.225 -1.699,0.343 -1.137,0.185 -2.063,0.321 -2.911,0.43 C 8.421,25.997 8.09,26.034 7.75,26.07 L 7.276,26.12 C 7.089,26.139 6.9,26.158 6.712,26.172 6.259,26.22 5.808,26.252 5.389,26.281 3.495,26.429 1.793,26.503 0.179,26.506 l -0.364,0 c -1.604,-0.003 -3.301,-0.077 -5.166,-0.222 -0.467,-0.032 -0.932,-0.067 -1.325,-0.109 -0.213,-0.016 -0.429,-0.037 -0.647,-0.06 L -7.75,26.07 c -0.339,-0.037 -0.676,-0.074 -0.996,-0.115 -0.859,-0.11 -1.774,-0.245 -3.026,-0.449 -0.531,-0.098 -1.051,-0.209 -1.57,-0.32 -0.276,-0.06 -0.553,-0.119 -0.861,-0.181 l -0.338,-0.071 c -0.311,-0.064 -0.622,-0.129 -0.867,-0.189 -0.106,-0.021 -0.213,-0.041 -0.328,-0.061 -0.298,-0.056 -0.598,-0.113 -0.973,-0.199 -5.202,-1.274 -10.332,-3.195 -15.272,-5.723 -0.08,-0.041 -0.16,-0.078 -0.289,-0.139 -0.231,-0.109 -0.46,-0.219 -0.687,-0.339 -0.218,-0.115 -0.429,-0.235 -0.675,-0.377 -0.089,-0.051 -0.179,-0.102 -0.311,-0.174 -4.374,-2.421 -8.497,-5.31 -12.255,-8.586 l -0.2,-0.164 c -0.253,-0.202 -0.498,-0.404 -0.656,-0.548 -0.201,-0.177 -0.397,-0.365 -0.598,-0.562 -0.06,-0.06 -0.121,-0.121 -0.226,-0.215 -3.618,-3.349 -6.914,-7.104 -9.78,-11.136 -0.066,-0.092 -0.135,-0.181 -0.242,-0.32 -0.122,-0.159 -0.244,-0.317 -0.414,-0.553 -0.02,-0.027 -0.039,-0.054 -0.057,-0.082 -0.143,-0.213 -0.28,-0.43 -0.41,-0.638 l -0.171,-0.27 c -2.882,-4.315 -5.301,-8.956 -7.198,-13.807 -0.047,-0.122 -0.096,-0.241 -0.163,-0.402 -0.084,-0.207 -0.169,-0.413 -0.263,-0.656 -0.11,-0.294 -0.206,-0.593 -0.312,-0.93 -0.028,-0.092 -0.056,-0.184 -0.073,-0.234 -1.854,-5.244 -3.104,-10.568 -3.715,-15.812 -0.041,-0.344 -0.071,-0.687 -0.096,-1.016 l -0.031,-0.371 c -0.049,-0.469 -0.098,-0.958 -0.134,-1.438 -0.011,-0.135 -0.023,-0.269 -0.042,-0.463 -0.031,-0.314 -0.06,-0.624 -0.076,-0.91 -0.102,-1.574 -0.152,-3.033 -0.152,-4.46 0,-3.907 0.636,-8.556 1.948,-14.226 0.456,-1.921 0.976,-3.908 1.543,-5.897 0.105,-0.374 0.215,-0.75 0.326,-1.13 l 0.936,-3.109 c 2.877,-9.198 7.135,-20.264 12.648,-32.87 0.322,-0.752 0.656,-1.504 0.991,-2.255 l 0.174,-0.389 c 0.39,-0.884 0.779,-1.761 1.179,-2.658 5.367,-11.925 11.736,-25.073 18.928,-39.075 0.519,-1.015 1.044,-2.032 1.553,-3.011 0.355,-0.694 0.714,-1.384 1.069,-2.065 l 0.518,-0.997 c 2.514,-4.832 5.17,-9.845 7.892,-14.898 7.439,-13.841 13.502,-24.521 16.446,-29.642 0.19,-0.334 0.311,-0.541 0.443,-0.765 0.879,-1.485 2.495,-2.408 4.219,-2.408 l 0.788,0 c 1.714,0 3.325,0.914 4.207,2.389 0.138,0.231 0.264,0.447 0.437,0.755 2.686,4.663 12.325,21.551 23.594,43.12 l 0.741,1.417 c 0.537,1.012 1.07,2.042 1.605,3.082 l 1.557,3.017 c 7.23,14.098 13.597,27.248 18.927,39.091 0.303,0.675 0.598,1.342 0.886,1.993 0.09,0.203 0.182,0.411 0.269,0.609 0.226,0.498 0.448,0.998 0.669,1.498 l 0.477,1.074 c 0.032,0.069 0.062,0.139 0.091,0.21 4.671,10.686 8.44,20.29 11.256,28.66 0.479,1.423 0.938,2.821 1.361,4.171 0.205,0.683 0.41,1.356 0.633,2.071 l 0.317,1.089 c 0.1,0.338 0.199,0.674 0.301,1.03 0.68,2.424 1.154,4.25 1.536,5.911 1.294,5.545 1.949,10.325 1.949,14.208 0,1.457 -0.048,2.918 -0.149,4.476" />
    </g>
  </g>
</svg>
