<?xml version="1.0" encoding="UTF-8" standalone="no"?>
<!-- Created with Inkscape (http://www.inkscape.org/) -->

<svg
   xmlns:dc="http://purl.org/dc/elements/1.1/"
   xmlns:cc="http://creativecommons.org/ns#"
   xmlns:rdf="http://www.w3.org/1999/02/22-rdf-syntax-ns#"
   xmlns:svg="http://www.w3.org/2000/svg"
   xmlns="http://www.w3.org/2000/svg"
   xmlns:sodipodi="http://sodipodi.sourceforge.net/DTD/sodipodi-0.dtd"
   xmlns:inkscape="http://www.inkscape.org/namespaces/inkscape"
   width="50.240494mm"
   height="80.341965mm"
   viewBox="0 0 178.0175 284.67625"
   id="svg3515"
   version="1.1"
   inkscape:version="0.91 r13725"
   sodipodi:docname="marker-restaurant.svg">
  <defs
     id="defs3517" />
  <sodipodi:namedview
     id="base"
     pagecolor="#ffffff"
     bordercolor="#666666"
     borderopacity="1.0"
     inkscape:pageopacity="0.0"
     inkscape:pageshadow="2"
     inkscape:zoom="1.4"
     inkscape:cx="237.27741"
     inkscape:cy="232.96446"
     inkscape:document-units="px"
     inkscape:current-layer="layer1"
     showgrid="false"
     fit-margin-top="0"
     fit-margin-left="0"
     fit-margin-right="0"
     fit-margin-bottom="0"
     inkscape:window-width="1920"
     inkscape:window-height="1018"
     inkscape:window-x="-8"
     inkscape:window-y="-8"
     inkscape:window-maximized="1" />
  <metadata
     id="metadata3520">
    <rdf:RDF>
      <cc:Work
         rdf:about="">
        <dc:format>image/svg+xml</dc:format>
        <dc:type
           rdf:resource="http://purl.org/dc/dcmitype/StillImage" />
        <dc:title></dc:title>
      </cc:Work>
    </rdf:RDF>
  </metadata>
  <g
     inkscape:label="Capa 1"
     inkscape:groupmode="layer"
     id="layer1"
     transform="translate(-803.09041,-1063.1433)">
    <g
       transform="matrix(1.25,0,0,-1.25,948.33791,1155.752)"
       id="g40">
      <path
         inkscape:connector-curvature="0"
         id="path42"
         style="fill:#3c3c3c;fill-opacity:1;fill-rule:nonzero;stroke:none"
         d="m 0,0 c 0,-26.236 -20.183,-47.581 -44.991,-47.581 -24.808,0 -44.991,21.345 -44.991,47.581 0,26.236 20.183,47.581 44.991,47.581 C -20.183,47.581 0,26.236 0,0 M 26.067,6.217 C 26.048,6.499 26.021,6.779 25.992,7.068 L 25.981,7.187 C 25.968,7.318 25.955,7.45 25.943,7.608 25.905,8.064 25.862,8.53 25.82,8.933 l -0.021,0.262 c -0.03,0.391 -0.062,0.779 -0.108,1.181 -0.614,5.272 -1.864,10.594 -3.704,15.789 -0.039,0.113 -0.075,0.228 -0.131,0.406 -0.082,0.256 -0.165,0.514 -0.265,0.786 -0.092,0.249 -0.194,0.497 -0.291,0.728 l -0.152,0.375 c -1.894,4.831 -4.312,9.47 -7.158,13.744 l -0.195,0.305 c -0.144,0.226 -0.287,0.453 -0.491,0.748 -0.139,0.197 -0.288,0.391 -0.441,0.588 -0.066,0.084 -0.132,0.169 -0.163,0.212 -1.432,2.02 -3.018,4.02 -4.714,5.948 -1.646,1.865 -3.371,3.635 -5.17,5.3 -0.056,0.049 -0.108,0.102 -0.193,0.185 -0.176,0.173 -0.353,0.344 -0.537,0.508 -0.192,0.17 -0.391,0.332 -0.63,0.526 -0.069,0.055 -0.137,0.11 -0.176,0.143 -3.781,3.304 -7.934,6.217 -12.371,8.672 -0.103,0.055 -0.203,0.112 -0.303,0.169 l -0.068,0.039 c -0.175,0.1 -0.349,0.199 -0.616,0.343 -0.201,0.103 -0.402,0.199 -0.646,0.314 -0.091,0.042 -0.183,0.085 -0.329,0.162 -1.905,0.971 -3.832,1.773 -5.807,2.578 -3.472,1.406 -6.477,2.401 -9.502,3.141 -0.291,0.066 -0.586,0.122 -0.938,0.187 l -0.237,0.045 c -0.312,0.073 -0.621,0.138 -0.925,0.2 l -1.163,0.244 c -0.529,0.114 -1.058,0.226 -1.7,0.344 -1.136,0.184 -2.062,0.321 -2.91,0.43 -0.335,0.043 -0.667,0.079 -1.007,0.116 l -0.473,0.05 c -0.188,0.018 -0.377,0.037 -0.565,0.052 -0.452,0.047 -0.904,0.08 -1.322,0.109 -1.894,0.148 -3.596,0.221 -5.211,0.225 l -0.364,0 c -1.603,-0.004 -3.301,-0.077 -5.166,-0.223 -0.467,-0.032 -0.932,-0.066 -1.324,-0.109 -0.213,-0.016 -0.429,-0.037 -0.647,-0.06 l -0.427,-0.044 c -0.34,-0.037 -0.676,-0.074 -0.996,-0.116 -0.859,-0.109 -1.775,-0.245 -3.026,-0.449 -0.531,-0.097 -1.051,-0.208 -1.571,-0.32 -0.276,-0.059 -0.553,-0.119 -0.86,-0.181 l -0.338,-0.07 c -0.311,-0.065 -0.623,-0.13 -0.868,-0.189 -0.105,-0.022 -0.213,-0.041 -0.327,-0.062 -0.298,-0.055 -0.599,-0.112 -0.974,-0.198 -5.202,-1.274 -10.331,-3.195 -15.272,-5.723 -0.079,-0.042 -0.16,-0.079 -0.289,-0.14 -0.231,-0.109 -0.459,-0.218 -0.686,-0.338 -0.218,-0.116 -0.429,-0.235 -0.676,-0.378 -0.088,-0.05 -0.178,-0.102 -0.311,-0.174 -4.374,-2.421 -8.496,-5.309 -12.254,-8.585 l -0.201,-0.164 c -0.252,-0.202 -0.497,-0.404 -0.655,-0.549 -0.201,-0.177 -0.397,-0.365 -0.598,-0.562 -0.061,-0.059 -0.122,-0.12 -0.226,-0.215 -3.619,-3.349 -6.915,-7.103 -9.78,-11.136 -0.067,-0.092 -0.136,-0.181 -0.242,-0.32 -0.122,-0.158 -0.244,-0.317 -0.414,-0.552 -0.02,-0.028 -0.039,-0.055 -0.058,-0.083 -0.143,-0.213 -0.28,-0.429 -0.41,-0.637 l -0.171,-0.27 c -2.881,-4.316 -5.301,-8.956 -7.197,-13.808 -0.047,-0.121 -0.096,-0.241 -0.163,-0.402 -0.085,-0.206 -0.17,-0.412 -0.263,-0.655 -0.11,-0.294 -0.206,-0.594 -0.312,-0.931 -0.029,-0.092 -0.057,-0.183 -0.074,-0.233 -1.853,-5.244 -3.103,-10.568 -3.714,-15.812 -0.042,-0.344 -0.071,-0.688 -0.097,-1.016 l -0.031,-0.371 c -0.049,-0.469 -0.097,-0.959 -0.134,-1.438 -0.01,-0.136 -0.023,-0.27 -0.042,-0.464 -0.03,-0.313 -0.059,-0.623 -0.076,-0.909 -0.102,-1.575 -0.151,-3.034 -0.151,-4.461 0,-3.907 0.636,-8.555 1.948,-14.226 0.456,-1.921 0.975,-3.908 1.542,-5.896 0.106,-0.375 0.216,-0.751 0.327,-1.131 l 0.936,-3.109 c 2.876,-9.198 7.135,-20.264 12.648,-32.869 0.321,-0.752 0.656,-1.505 0.991,-2.256 l 0.173,-0.389 c 0.391,-0.883 0.78,-1.761 1.18,-2.657 5.366,-11.925 11.736,-25.074 18.927,-39.076 0.519,-1.014 1.044,-2.031 1.553,-3.011 0.356,-0.694 0.715,-1.383 1.069,-2.064 l 0.518,-0.998 c 2.514,-4.831 5.17,-9.845 7.893,-14.898 7.439,-13.841 13.501,-24.52 16.446,-29.642 0.189,-0.333 0.31,-0.541 0.443,-0.765 0.878,-1.485 2.495,-2.407 4.219,-2.407 l 0.787,0 c 1.715,0 3.326,0.914 4.207,2.388 0.138,0.231 0.265,0.447 0.438,0.755 2.686,4.663 12.324,21.551 23.594,43.121 l 0.741,1.416 c 0.537,1.013 1.069,2.043 1.605,3.083 l 1.557,3.017 c 7.23,14.098 13.597,27.248 18.927,39.091 0.396,0.885 0.787,1.767 1.154,2.602 0.227,0.498 0.448,0.997 0.67,1.497 l 0.476,1.074 c 0.032,0.069 0.062,0.139 0.091,0.211 5.465,12.502 9.707,23.537 12.617,32.83 0.205,0.684 0.411,1.357 0.633,2.071 l 0.317,1.089 c 0.1,0.338 0.199,0.675 0.301,1.031 0.68,2.424 1.155,4.249 1.537,5.91 1.293,5.546 1.949,10.326 1.949,14.208 0,1.458 -0.049,2.918 -0.149,4.477" />
    </g>
    <g
       transform="matrix(1.25,0,0,-1.25,905.65631,1169.2499)"
       id="g44">
      <path
         inkscape:connector-curvature="0"
         id="path46"
         style="fill:#3c3c3c;fill-opacity:1;fill-rule:nonzero;stroke:none"
         d="m 0,0 c 0.49,0.49 1.285,0.49 1.775,0 l 12.959,-12.959 c 0.49,-0.49 0.49,-1.285 0,-1.775 -0.49,-0.49 -1.285,-0.49 -1.775,0 L 0,-1.775 C -0.49,-1.285 -0.49,-0.49 0,0 M -23.111,-4.097 -36.07,-17.056 c -0.491,-0.49 -1.285,-0.49 -1.775,0 -0.491,0.49 -0.491,1.285 0,1.775 l 12.958,12.959 c 0.491,0.49 1.285,0.49 1.776,0 0.49,-0.49 0.49,-1.285 0,-1.775 m 21.741,20.84 c 1.356,-1.355 4.179,-0.732 6.304,1.392 l 0.19,0.19 c 0.054,0.055 0.104,0.112 0.158,0.168 0.017,0.014 0.036,0.026 0.053,0.043 l 14.581,14.58 c 0.258,0.257 0.258,0.675 -0.001,0.933 -0.257,0.257 -0.674,0.257 -0.931,-10e-4 L 8.796,23.861 C 8.793,23.859 8.793,23.857 8.79,23.854 l -1.56,-1.56 -0.102,-0.003 -0.118,-0.02 0,0.003 c 0,-0.361 -0.866,-0.382 -1.21,-0.038 -0.352,0.352 -0.276,0.95 0.108,1.335 l 1.583,1.558 c 0.006,0.006 0.027,0.011 0.034,0.018 l 10.194,10.186 c 0.258,0.258 0.26,0.675 0.003,0.932 -0.257,0.258 -0.673,0.258 -0.93,0 L 6.675,26.149 C 6.67,26.144 6.668,26.14 6.665,26.137 L 5.211,24.684 C 4.851,24.323 4.272,24.321 3.916,24.677 3.561,25.032 3.563,25.611 3.923,25.972 l 0.624,0.623 -10e-4,0.001 10.911,10.91 c 0.257,0.257 0.257,0.675 0,0.932 -0.257,0.257 -0.675,0.423 -0.932,0.165 L 3.584,27.83 3.583,27.83 2.94,27.022 C 2.58,26.663 2.013,26.564 1.671,26.906 1.044,27.533 1.702,28.13 1.702,28.13 l 0.003,-0.017 1.454,1.443 0.004,-0.001 10.202,10.198 c 0.258,0.259 0.258,0.674 10e-4,0.931 -0.257,0.258 -0.675,0.258 -0.933,-10e-4 L -2.148,26.103 c -0.022,-0.022 -0.039,-0.046 -0.056,-0.07 -0.066,-0.061 -0.133,-0.12 -0.197,-0.184 l -0.19,-0.19 c -2.125,-2.125 -2.748,-4.947 -1.392,-6.303 l 0.003,-0.003 -6.234,-5.913 -25.373,24.327 c -0.981,0.976 -2.326,1.21 -3.008,0.527 -0.088,-0.091 -0.149,-0.18 -0.186,-0.269 -2.075,-2.465 1.771,-10.138 8.738,-17.104 6.009,-6.009 12.406,-9.698 15.629,-9.269 l 1.093,-1.159 -26.519,-25.152 c -0.047,-0.041 -0.095,-0.082 -0.139,-0.126 -0.014,-0.014 -0.026,-0.029 -0.041,-0.044 l -0.022,-0.021 c -0.005,-0.004 -0.006,-0.01 -0.009,-0.013 -1.149,-1.229 -1.127,-3.151 0.071,-4.349 1.223,-1.222 3.205,-1.222 4.428,0 0.077,0.078 0.151,0.159 0.219,0.243 l 24.97,26.324 22.299,-23.659 c 0.116,-0.137 1.175,-1.211 1.307,-1.341 0.007,-0.007 0.015,-0.012 0.022,-0.019 1.21,-1.21 3.173,-1.211 4.383,-10e-4 1.21,1.211 1.211,3.174 0,4.384 -0.043,0.043 -0.089,0.081 -0.133,0.121 -0.383,0.376 -1.13,1.111 -1.234,1.198 l -23.55,22.579 5.854,6.171 0.045,-0.045 z" />
    </g>
  </g>
</svg>
