<?xml version="1.0" encoding="UTF-8" standalone="no"?>
<!-- Created with Inkscape (http://www.inkscape.org/) -->

<svg
   xmlns:dc="http://purl.org/dc/elements/1.1/"
   xmlns:cc="http://creativecommons.org/ns#"
   xmlns:rdf="http://www.w3.org/1999/02/22-rdf-syntax-ns#"
   xmlns:svg="http://www.w3.org/2000/svg"
   xmlns="http://www.w3.org/2000/svg"
   xmlns:sodipodi="http://sodipodi.sourceforge.net/DTD/sodipodi-0.dtd"
   xmlns:inkscape="http://www.inkscape.org/namespaces/inkscape"
   width="50.240494mm"
   height="80.341965mm"
   viewBox="0 0 178.0175 284.67625"
   id="svg3515"
   version="1.1"
   inkscape:version="0.91 r13725"
   sodipodi:docname="marker-sleeping.svg">
  <defs
     id="defs3517" />
  <sodipodi:namedview
     id="base"
     pagecolor="#ffffff"
     bordercolor="#666666"
     borderopacity="1.0"
     inkscape:pageopacity="0.0"
     inkscape:pageshadow="2"
     inkscape:zoom="1.4"
     inkscape:cx="301.1258"
     inkscape:cy="140.62636"
     inkscape:document-units="px"
     inkscape:current-layer="layer1"
     showgrid="false"
     fit-margin-top="0"
     fit-margin-left="0"
     fit-margin-right="0"
     fit-margin-bottom="0"
     inkscape:window-width="1920"
     inkscape:window-height="1018"
     inkscape:window-x="-8"
     inkscape:window-y="-8"
     inkscape:window-maximized="1" />
  <metadata
     id="metadata3520">
    <rdf:RDF>
      <cc:Work
         rdf:about="">
        <dc:format>image/svg+xml</dc:format>
        <dc:type
           rdf:resource="http://purl.org/dc/dcmitype/StillImage" />
        <dc:title></dc:title>
      </cc:Work>
    </rdf:RDF>
  </metadata>
  <g
     inkscape:label="Capa 1"
     inkscape:groupmode="layer"
     id="layer1"
     transform="translate(-739.24202,-970.80515)">
    <g
       transform="matrix(1.25,0,0,-1.25,884.48952,1063.4139)"
       id="g48">
      <path
         inkscape:connector-curvature="0"
         id="path50"
         style="fill:#3c3c3c;fill-opacity:1;fill-rule:nonzero;stroke:none"
         d="m 0,0 c 0,-26.236 -20.183,-47.581 -44.991,-47.581 -24.808,0 -44.991,21.345 -44.991,47.581 0,26.236 20.183,47.581 44.991,47.581 C -20.183,47.581 0,26.236 0,0 M 26.067,6.217 C 26.048,6.499 26.021,6.779 25.992,7.068 L 25.981,7.187 C 25.968,7.318 25.955,7.45 25.943,7.608 25.906,8.064 25.862,8.53 25.82,8.933 L 25.8,9.195 c -0.031,0.391 -0.063,0.779 -0.109,1.181 -0.614,5.272 -1.864,10.594 -3.704,15.789 -0.039,0.113 -0.075,0.228 -0.131,0.406 -0.082,0.256 -0.165,0.514 -0.265,0.786 -0.092,0.249 -0.194,0.497 -0.291,0.728 l -0.152,0.375 c -1.894,4.831 -4.312,9.47 -7.158,13.744 l -0.195,0.305 c -0.144,0.226 -0.287,0.453 -0.491,0.748 -0.139,0.197 -0.288,0.391 -0.441,0.588 -0.066,0.084 -0.132,0.169 -0.163,0.212 -1.432,2.02 -3.018,4.02 -4.714,5.948 -1.646,1.865 -3.371,3.635 -5.17,5.3 -0.056,0.049 -0.108,0.102 -0.193,0.185 -0.176,0.173 -0.353,0.344 -0.537,0.508 -0.192,0.17 -0.391,0.332 -0.63,0.526 -0.069,0.055 -0.137,0.11 -0.176,0.143 -3.781,3.304 -7.934,6.217 -12.371,8.672 -0.103,0.055 -0.203,0.112 -0.303,0.169 l -0.068,0.039 c -0.175,0.1 -0.349,0.199 -0.616,0.343 -0.201,0.103 -0.402,0.199 -0.646,0.314 -0.091,0.042 -0.183,0.085 -0.328,0.162 -1.906,0.971 -3.833,1.773 -5.808,2.578 -3.472,1.406 -6.477,2.401 -9.502,3.141 -0.291,0.066 -0.586,0.122 -0.938,0.187 l -0.237,0.045 c -0.311,0.073 -0.621,0.138 -0.925,0.2 l -1.163,0.244 c -0.529,0.114 -1.058,0.226 -1.699,0.344 -1.137,0.184 -2.063,0.321 -2.911,0.43 -0.335,0.043 -0.667,0.079 -1.006,0.116 l -0.474,0.05 c -0.188,0.018 -0.377,0.037 -0.565,0.052 -0.452,0.047 -0.904,0.08 -1.322,0.109 -1.894,0.148 -3.596,0.221 -5.211,0.225 l -0.364,0 c -1.603,-0.004 -3.301,-0.077 -5.166,-0.223 -0.467,-0.032 -0.932,-0.066 -1.324,-0.109 -0.213,-0.016 -0.429,-0.037 -0.647,-0.06 l -0.427,-0.044 c -0.34,-0.037 -0.676,-0.074 -0.996,-0.116 -0.859,-0.109 -1.775,-0.245 -3.026,-0.449 -0.531,-0.097 -1.051,-0.208 -1.571,-0.32 -0.276,-0.059 -0.553,-0.119 -0.86,-0.181 l -0.338,-0.07 c -0.311,-0.065 -0.623,-0.13 -0.868,-0.189 -0.105,-0.022 -0.213,-0.041 -0.327,-0.062 -0.298,-0.055 -0.599,-0.112 -0.973,-0.198 -5.203,-1.274 -10.332,-3.195 -15.273,-5.723 -0.079,-0.042 -0.16,-0.079 -0.289,-0.14 -0.231,-0.109 -0.459,-0.218 -0.686,-0.338 -0.218,-0.116 -0.429,-0.235 -0.676,-0.378 -0.088,-0.05 -0.178,-0.102 -0.311,-0.174 -4.374,-2.421 -8.496,-5.309 -12.254,-8.585 l -0.201,-0.164 c -0.252,-0.202 -0.497,-0.404 -0.655,-0.549 -0.201,-0.177 -0.397,-0.365 -0.598,-0.562 -0.061,-0.059 -0.122,-0.12 -0.226,-0.215 -3.619,-3.349 -6.915,-7.103 -9.78,-11.136 -0.067,-0.092 -0.136,-0.181 -0.242,-0.32 -0.122,-0.158 -0.244,-0.317 -0.414,-0.552 -0.02,-0.028 -0.039,-0.055 -0.058,-0.083 -0.143,-0.213 -0.28,-0.429 -0.41,-0.637 l -0.171,-0.27 c -2.881,-4.316 -5.301,-8.956 -7.197,-13.808 -0.047,-0.121 -0.096,-0.241 -0.163,-0.402 -0.085,-0.206 -0.17,-0.412 -0.263,-0.655 -0.11,-0.294 -0.206,-0.594 -0.312,-0.931 -0.029,-0.092 -0.057,-0.183 -0.074,-0.233 -1.853,-5.244 -3.103,-10.568 -3.714,-15.812 -0.042,-0.344 -0.071,-0.688 -0.097,-1.016 l -0.031,-0.371 c -0.049,-0.469 -0.097,-0.959 -0.134,-1.438 -0.01,-0.136 -0.023,-0.27 -0.042,-0.464 -0.03,-0.313 -0.059,-0.623 -0.076,-0.909 -0.102,-1.575 -0.151,-3.034 -0.151,-4.461 0,-3.907 0.636,-8.555 1.948,-14.226 0.456,-1.921 0.975,-3.908 1.542,-5.896 0.106,-0.375 0.216,-0.751 0.327,-1.131 l 0.936,-3.109 c 2.876,-9.198 7.135,-20.264 12.648,-32.869 0.321,-0.752 0.656,-1.505 0.991,-2.256 l 0.173,-0.389 c 0.391,-0.883 0.78,-1.761 1.18,-2.657 5.367,-11.925 11.736,-25.074 18.927,-39.076 0.519,-1.014 1.044,-2.031 1.553,-3.011 0.356,-0.694 0.715,-1.383 1.069,-2.064 l 0.518,-0.998 c 2.514,-4.831 5.17,-9.845 7.893,-14.898 7.439,-13.841 13.502,-24.52 16.446,-29.642 0.189,-0.333 0.31,-0.541 0.443,-0.765 0.878,-1.485 2.495,-2.407 4.219,-2.407 l 0.787,0 c 1.715,0 3.326,0.914 4.207,2.388 0.138,0.231 0.265,0.447 0.438,0.755 2.686,4.663 12.324,21.551 23.594,43.121 l 0.741,1.416 c 0.537,1.013 1.069,2.043 1.605,3.083 l 1.557,3.017 c 7.23,14.098 13.597,27.248 18.927,39.091 0.396,0.885 0.787,1.767 1.154,2.602 0.227,0.498 0.448,0.997 0.67,1.497 l 0.476,1.074 c 0.032,0.069 0.062,0.139 0.091,0.211 5.465,12.502 9.707,23.537 12.617,32.83 0.205,0.684 0.411,1.357 0.633,2.071 l 0.317,1.089 c 0.1,0.338 0.199,0.675 0.301,1.031 0.68,2.424 1.155,4.249 1.537,5.91 1.293,5.546 1.949,10.326 1.949,14.208 0,1.458 -0.049,2.918 -0.149,4.477" />
    </g>
    <g
       transform="matrix(1.25,0,0,-1.25,817.10712,1072.111)"
       id="g52">
      <path
         inkscape:connector-curvature="0"
         id="path54"
         style="fill:#3c3c3c;fill-opacity:1;fill-rule:nonzero;stroke:none"
         d="m 0,0 c 0,2.924 -2.361,5.295 -5.274,5.295 -2.913,0 -5.274,-2.371 -5.274,-5.295 0,-2.924 2.361,-5.295 5.274,-5.295 C -2.361,-5.295 0,-2.924 0,0" />
    </g>
    <g
       transform="matrix(1.25,0,0,-1.25,829.57162,1087.4006)"
       id="g56">
      <path
         inkscape:connector-curvature="0"
         id="path58"
         style="fill:#3c3c3c;fill-opacity:1;fill-rule:nonzero;stroke:none"
         d="m 0,0 29,0 0,13.813 C 29,15.279 29.55,16 27.936,16 L 0,16 0,0 Z" />
    </g>
    <g
       transform="matrix(1.25,0,0,-1.25,808.42682,1087.4006)"
       id="g60">
      <path
         inkscape:connector-curvature="0"
         id="path62"
         style="fill:#3c3c3c;fill-opacity:1;fill-rule:nonzero;stroke:none"
         d="m 0,0 10.812,0 c 1.457,0 2.104,1.503 2.104,2.965 l 0,10.855 c 0,1.462 -1.044,2.648 -2.5,2.648 -1.457,0 -2.5,-1.186 -2.5,-2.648 L 7.916,4 0,4 C -1.456,4 -2.637,3.462 -2.637,2 -2.637,0.538 -1.456,0 0,0" />
    </g>
    <g
       transform="matrix(1.25,0,0,-1.25,864.71082,1091.1506)"
       id="g64">
      <path
         inkscape:connector-curvature="0"
         id="path66"
         style="fill:#3c3c3c;fill-opacity:1;fill-rule:nonzero;stroke:none"
         d="m 0,0 -55.111,0 0,39.44 42.308,12.465 c 1.21,0.362 2.086,1.409 1.615,2.339 l 0.073,0.13 c -0.471,0.93 -2.332,1.391 -3.543,1.029 l -40.453,-11.927 0,1.176 c 0,0.865 -0.838,1.567 -2,1.567 -1.163,0 -2,-0.702 -2,-1.567 l 0,-2.453 -5.581,-1.794 c -1.21,-0.361 -1.596,-1.408 -1.126,-2.339 l 0.173,-0.129 c 0.47,-0.93 1.676,-1.392 2.887,-1.03 l 3.647,1.141 0,-40.382 c 0,-0.371 0.61,-1.262 0.908,-1.531 C -57.98,-4.221 -57.219,-5 -56.767,-5 l 0.121,0 c 0.065,0 0.128,0.562 0.191,0.572 0.112,-0.013 0.226,0.253 0.342,0.253 0.048,0 0.095,-0.41 0.143,-0.407 C -55.945,-4.583 -55.922,-5 -55.896,-5 L 0,-5 c 1.347,0 0.889,1.927 0.889,2.925 l 0,0.139 C 0.889,-0.939 1.347,0 0,0" />
    </g>
  </g>
</svg>
