<?xml version="1.0" encoding="UTF-8" standalone="no"?>
<!-- Created with Inkscape (http://www.inkscape.org/) -->

<svg
   xmlns:dc="http://purl.org/dc/elements/1.1/"
   xmlns:cc="http://creativecommons.org/ns#"
   xmlns:rdf="http://www.w3.org/1999/02/22-rdf-syntax-ns#"
   xmlns:svg="http://www.w3.org/2000/svg"
   xmlns="http://www.w3.org/2000/svg"
   xmlns:sodipodi="http://sodipodi.sourceforge.net/DTD/sodipodi-0.dtd"
   xmlns:inkscape="http://www.inkscape.org/namespaces/inkscape"
   width="67.095543mm"
   height="63.159988mm"
   viewBox="0 0 237.74011 223.79523"
   id="svg3467"
   version="1.1"
   inkscape:version="0.91 r13725"
   sodipodi:docname="wind-moderate.svg">
  <defs
     id="defs3469" />
  <sodipodi:namedview
     id="base"
     pagecolor="#ffffff"
     bordercolor="#666666"
     borderopacity="1.0"
     inkscape:pageopacity="0.0"
     inkscape:pageshadow="2"
     inkscape:zoom="0.80865694"
     inkscape:cx="103.12482"
     inkscape:cy="-241.02797"
     inkscape:document-units="px"
     inkscape:current-layer="layer1"
     showgrid="false"
     showguides="true"
     inkscape:guide-bbox="true"
     inkscape:window-width="1920"
     inkscape:window-height="1018"
     inkscape:window-x="-8"
     inkscape:window-y="-8"
     inkscape:window-maximized="1"
     fit-margin-top="0"
     fit-margin-left="0"
     fit-margin-right="0"
     fit-margin-bottom="0">
    <sodipodi:guide
       position="362.98954,295.04607"
       orientation="0,1"
       id="guide3491" />
  </sodipodi:namedview>
  <metadata
     id="metadata3472">
    <rdf:RDF>
      <cc:Work
         rdf:about="">
        <dc:format>image/svg+xml</dc:format>
        <dc:type
           rdf:resource="http://purl.org/dc/dcmitype/StillImage" />
        <dc:title></dc:title>
      </cc:Work>
    </rdf:RDF>
  </metadata>
  <g
     inkscape:label="Capa 1"
     inkscape:groupmode="layer"
     id="layer1"
     style="display:inline"
     transform="translate(-15.415664,-11.893164)">
    <g
       transform="matrix(2.4128948,0,0,-2.2713641,186.35237,157.48306)"
       id="g3390">
      <path
         inkscape:connector-curvature="0"
         id="path3392"
         style="fill:#003cb0;fill-opacity:1;fill-rule:nonzero;stroke:none"
         d="M 0,0 5.084,13.145 8.32,11.533 3.479,-0.985 0,0 Z m -19.255,5.104 6.661,17.222 8.06,-4.109 -5.994,-15.497 -8.727,2.384 z m -17.607,4.376 8.298,21.456 8.061,-4.109 -7.632,-19.731 -8.727,2.384 z m -13.163,2.947 0,0.387 9.845,24.235 2.602,-1.366 -9.562,-23.808 -2.885,0.552 z m 27.975,-41.932 c -10.393,0 -20.975,3.586 -27.975,9.576 l 0,28.762 2.259,-0.462 10.649,-2.678 7.743,-1.959 11.129,-2.842 7.638,-1.952 10.385,-2.661 3.959,-0.94 c 0.869,-0.223 1.365,0.397 1.689,1.234 l 5.979,15.454 c 0.323,0.837 0.42,1.61 -0.373,2.03 l -3.88,2.095 -9.316,4.952 -6.865,3.645 -10.054,5.327 -6.919,3.665 -9.45,5.004 -4.958,2.6 c -0.448,0.237 -1.07,0.308 -1.544,0.131 -0.474,-0.177 -1.521,-0.472 -1.704,-0.943 l -6.367,-15.245 0,13.506 c 0,1.657 -0.499,3.433 -2.156,3.433 l -0.098,0 -0.014,0 c -1.657,0 -3.732,-1.776 -3.732,-3.433 l 0,-52.983 c -7,7.779 -10.363,17.92 -10.363,29.023 0,24.487 20.087,44.338 44.574,44.338 24.487,0 44.22,-19.851 44.22,-44.338 0,-24.488 -19.968,-44.339 -44.456,-44.339 m 0.472,93.603 c -27.209,0 -49.265,-22.056 -49.265,-49.264 0,-14.266 6.07,-27.108 15.761,-36.105 1.872,-1.738 3.874,-3.339 6,-4.772 7.855,-5.296 17.318,-8.388 27.504,-8.388 27.208,0 49.264,22.057 49.264,49.265 0,27.208 -22.056,49.264 -49.264,49.264" />
    </g>
  </g>
</svg>
