<?xml version="1.0" encoding="UTF-8" standalone="no"?>
<!-- Created with Inkscape (http://www.inkscape.org/) -->

<svg
   xmlns:dc="http://purl.org/dc/elements/1.1/"
   xmlns:cc="http://creativecommons.org/ns#"
   xmlns:rdf="http://www.w3.org/1999/02/22-rdf-syntax-ns#"
   xmlns:svg="http://www.w3.org/2000/svg"
   xmlns="http://www.w3.org/2000/svg"
   xmlns:sodipodi="http://sodipodi.sourceforge.net/DTD/sodipodi-0.dtd"
   xmlns:inkscape="http://www.inkscape.org/namespaces/inkscape"
   width="67.095543mm"
   height="63.160629mm"
   viewBox="0 0 237.74011 223.7975"
   id="svg3441"
   version="1.1"
   inkscape:version="0.91 r13725"
   sodipodi:docname="wind-cool.svg">
  <defs
     id="defs3443" />
  <sodipodi:namedview
     id="base"
     pagecolor="#ffffff"
     bordercolor="#666666"
     borderopacity="1.0"
     inkscape:pageopacity="0.0"
     inkscape:pageshadow="2"
     inkscape:zoom="0.35"
     inkscape:cx="353.87006"
     inkscape:cy="397.61304"
     inkscape:document-units="px"
     inkscape:current-layer="layer1"
     showgrid="false"
     inkscape:window-width="1920"
     inkscape:window-height="1018"
     inkscape:window-x="-8"
     inkscape:window-y="-8"
     inkscape:window-maximized="1"
     fit-margin-top="0"
     fit-margin-left="0"
     fit-margin-right="0"
     fit-margin-bottom="0" />
  <metadata
     id="metadata3446">
    <rdf:RDF>
      <cc:Work
         rdf:about="">
        <dc:format>image/svg+xml</dc:format>
        <dc:type
           rdf:resource="http://purl.org/dc/dcmitype/StillImage" />
        <dc:title></dc:title>
      </cc:Work>
    </rdf:RDF>
  </metadata>
  <g
     inkscape:label="Capa 1"
     inkscape:groupmode="layer"
     id="layer1"
     transform="translate(-21.129943,-20.463445)">
    <g
       transform="matrix(2.4128948,0,0,-2.2713641,200.36942,148.3685)"
       id="g3386">
      <path
         inkscape:connector-curvature="0"
         id="path3388"
         style="fill:#003cb0;fill-opacity:1;fill-rule:nonzero;stroke:none"
         d="M 0,0 0,14.094 4,13.758 4,0.336 0,0 Z m -20,-2.186 0,18.466 9,-0.925 0,-16.616 -9,-0.925 z m -18,-2.269 0,23.004 9,-0.924 0,-21.156 -9,-0.924 z m -12,-1.682 0,26.368 3,-0.421 0,-25.526 -3,-0.421 z m 24.742,-31.154 c -10.394,0 -20.742,3.586 -27.742,9.575 l 0,17.863 c 0,-0.041 0.683,-0.06 0.879,-0.037 l 5.645,0.637 10.765,1.259 7.863,0.923 11.372,1.343 7.811,0.923 10.638,1.259 3.962,0.55 C 6.827,-2.89 7,-2.135 7,-1.237 l 0,16.568 c 0,0.898 -0.125,1.654 -1.016,1.76 l -4.343,0.554 -10.459,1.258 -7.709,0.922 -11.295,1.342 -7.773,0.923 -10.619,1.258 -5.913,0.636 C -52.318,24.007 -53,23.988 -53,23.95 l 0,3.058 c 0,1.657 -0.965,3.432 -2.622,3.432 l -0.098,0 -0.014,0 C -57.391,30.44 -59,28.665 -59,27.008 l 0,-48.983 c -7,7.778 -10.596,17.919 -10.596,29.022 0,24.487 19.97,44.338 44.457,44.338 24.488,0 44.279,-19.851 44.279,-44.338 0,-24.487 -19.911,-44.338 -44.398,-44.338 m 0.238,93.603 c -27.208,0 -49.264,-22.057 -49.264,-49.265 0,-14.266 6.07,-27.108 15.76,-36.105 1.873,-1.738 3.875,-3.339 6,-4.772 7.855,-5.295 17.318,-8.388 27.504,-8.388 27.208,0 49.265,22.057 49.265,49.265 0,27.208 -22.057,49.265 -49.265,49.265" />
    </g>
  </g>
</svg>
