<?xml version="1.0" encoding="UTF-8" standalone="no"?>
<!-- Created with Inkscape (http://www.inkscape.org/) -->

<svg
   xmlns:dc="http://purl.org/dc/elements/1.1/"
   xmlns:cc="http://creativecommons.org/ns#"
   xmlns:rdf="http://www.w3.org/1999/02/22-rdf-syntax-ns#"
   xmlns:svg="http://www.w3.org/2000/svg"
   xmlns="http://www.w3.org/2000/svg"
   xmlns:sodipodi="http://sodipodi.sourceforge.net/DTD/sodipodi-0.dtd"
   xmlns:inkscape="http://www.inkscape.org/namespaces/inkscape"
   width="67.096222mm"
   height="63.159988mm"
   viewBox="0 0 237.74252 223.79523"
   id="svg3529"
   version="1.1"
   inkscape:version="0.91 r13725"
   sodipodi:docname="wind-calm.svg">
  <defs
     id="defs3531" />
  <sodipodi:namedview
     id="base"
     pagecolor="#ffffff"
     bordercolor="#666666"
     borderopacity="1.0"
     inkscape:pageopacity="0.0"
     inkscape:pageshadow="2"
     inkscape:zoom="0.35"
     inkscape:cx="365.29985"
     inkscape:cy="-296.67381"
     inkscape:document-units="px"
     inkscape:current-layer="layer1"
     showgrid="false"
     fit-margin-top="0"
     fit-margin-left="0"
     fit-margin-right="0"
     fit-margin-bottom="0"
     inkscape:window-width="1920"
     inkscape:window-height="1018"
     inkscape:window-x="-8"
     inkscape:window-y="-8"
     inkscape:window-maximized="1" />
  <metadata
     id="metadata3534">
    <rdf:RDF>
      <cc:Work
         rdf:about="">
        <dc:format>image/svg+xml</dc:format>
        <dc:type
           rdf:resource="http://purl.org/dc/dcmitype/StillImage" />
        <dc:title></dc:title>
      </cc:Work>
    </rdf:RDF>
  </metadata>
  <g
     inkscape:label="Capa 1"
     inkscape:groupmode="layer"
     id="layer1"
     transform="translate(-9.7001478,-11.893158)">
    <g
       transform="matrix(2.4128948,0,0,-2.2713641,104.39903,93.36926)"
       id="g3398">
      <path
         inkscape:connector-curvature="0"
         id="path3400"
         style="fill:#003cb0;fill-opacity:1;fill-rule:nonzero;stroke:none"
         d="M 0,0 -0.42,3 25.947,3 25.527,0 0,0 Z m 2.186,-19 -0.925,9 23.005,0 -0.925,-9 -21.155,0 z m 17.624,-28 -0.336,-4 -13.422,0 -0.336,4 14.094,0 z m -15.355,10 -0.924,9 18.465,0 -0.925,-9 -16.616,0 z m 4.788,-20.731 c -4.344,0 -9.279,0.635 -13.279,1.8 l 0,45.997 0.983,-1.77 1.311,-7.847 1.536,-11.363 1.02,-7.808 1.308,-10.635 0.574,-3.77 C 2.802,-54.019 3.581,-54 4.479,-54 l 16.569,0 c 0.897,0 1.653,-0.066 1.759,0.825 l 0.554,4.247 1.258,10.411 0.923,7.686 1.342,11.283 0.922,7.767 1.258,10.615 0.636,5.844 C 29.76,5.181 29.602,6.158 29.266,6.536 28.929,6.914 28.447,8 27.941,8 L -2.415,8 C -2.438,8 -4.036,7.556 -4.036,7.552 l 0,0.015 c 0,1.657 0.109,3.433 -1.548,3.433 l -0.098,0 -0.014,0 c -1.657,0 -4.34,-1.776 -4.34,-3.433 l 0,-61.251 c -15,7.013 -25.059,22.411 -25.059,40.291 0,24.487 20.238,44.338 44.726,44.338 24.487,0 44.144,-19.851 44.144,-44.338 0,-24.488 -20.045,-44.338 -44.532,-44.338 m 0.775,93.602 c -27.208,0 -49.265,-22.056 -49.265,-49.264 0,-20.662 12.726,-38.341 30.761,-45.658 1.943,-0.789 3.943,-1.463 6,-2.002 3.994,-1.044 8.183,-1.605 12.504,-1.605 27.208,0 49.265,22.057 49.265,49.265 0,27.208 -22.057,49.264 -49.265,49.264" />
    </g>
  </g>
</svg>
