<?xml version="1.0" encoding="UTF-8" standalone="no"?>
<!-- Created with Inkscape (http://www.inkscape.org/) -->

<svg
   xmlns:dc="http://purl.org/dc/elements/1.1/"
   xmlns:cc="http://creativecommons.org/ns#"
   xmlns:rdf="http://www.w3.org/1999/02/22-rdf-syntax-ns#"
   xmlns:svg="http://www.w3.org/2000/svg"
   xmlns="http://www.w3.org/2000/svg"
   xmlns:sodipodi="http://sodipodi.sourceforge.net/DTD/sodipodi-0.dtd"
   xmlns:inkscape="http://www.inkscape.org/namespaces/inkscape"
   width="67.112602mm"
   height="63.177395mm"
   viewBox="0 0 237.80056 223.85691"
   id="svg3503"
   version="1.1"
   inkscape:version="0.91 r13725"
   sodipodi:docname="wind-loose.svg">
  <defs
     id="defs3505" />
  <sodipodi:namedview
     id="base"
     pagecolor="#ffffff"
     bordercolor="#666666"
     borderopacity="1.0"
     inkscape:pageopacity="0.0"
     inkscape:pageshadow="2"
     inkscape:zoom="0.35"
     inkscape:cx="365.32886"
     inkscape:cy="-293.78583"
     inkscape:document-units="px"
     inkscape:current-layer="layer1"
     showgrid="false"
     fit-margin-top="0"
     fit-margin-left="0"
     fit-margin-right="0"
     fit-margin-bottom="0"
     inkscape:window-width="1920"
     inkscape:window-height="1018"
     inkscape:window-x="-8"
     inkscape:window-y="-8"
     inkscape:window-maximized="1" />
  <metadata
     id="metadata3508">
    <rdf:RDF>
      <cc:Work
         rdf:about="">
        <dc:format>image/svg+xml</dc:format>
        <dc:type
           rdf:resource="http://purl.org/dc/dcmitype/StillImage" />
        <dc:title></dc:title>
      </cc:Work>
    </rdf:RDF>
  </metadata>
  <g
     inkscape:label="Capa 1"
     inkscape:groupmode="layer"
     id="layer1"
     transform="translate(-9.6711434,-14.719463)">
    <g
       transform="matrix(2.4128948,0,0,-2.2713641,79.19557,98.877616)"
       id="g3394">
      <path
         inkscape:connector-curvature="0"
         id="path3396"
         style="fill:#003cb0;fill-opacity:1;fill-rule:nonzero;stroke:none"
         d="M 0,0 -1.928,1.936 19.396,17.445 20.644,15.015 0,0 Z M 12.885,-13.999 6.843,-7.265 25.447,6.266 29.993,-1.556 12.885,-13.999 Z m 31.193,-12.925 1.845,-3.109 -10.854,-7.894 -2.389,2.713 11.398,8.29 z m -18.771,-0.297 -6.041,6.734 14.933,10.861 4.546,-7.822 -13.438,-9.773 z M 61.816,-28.22 C 52.982,-51.059 26.762,-62.412 3.924,-53.579 c -2.623,1.015 -4.939,2.261 -7.939,3.69 l 0,47.657 0.888,-0.31 7.599,-7.894 5.497,-5.781 7.837,-8.388 5.372,-5.766 7.291,-7.858 2.821,-2.931 c 0.61,-0.659 1.364,-0.404 2.09,0.123 l 13.402,9.746 c 0.726,0.528 1.226,1.126 0.788,1.909 l -2.125,3.864 -5.143,9.211 -3.793,6.784 -5.561,9.927 -3.827,6.831 -5.229,9.328 -2.757,4.872 c -0.248,0.442 -0.732,0.839 -1.226,0.947 -0.495,0.109 -1.74,0.173 -2.149,-0.124 L -4.015,6.859 l 0,4.876 c 0,1.657 -0.237,4.445 -1.893,4.445 l -0.099,0 -0.014,0 c -1.656,0 -3.994,-2.788 -3.994,-4.445 l 0,-57.171 c -13,11.934 -18.296,31.427 -11.42,49.204 8.833,22.839 34.781,34.192 57.619,25.359 C 59.023,20.294 70.649,-5.382 61.816,-28.22 M 38.234,33.722 C 12.858,43.536 -15.67,30.921 -25.485,5.545 c -8.172,-21.128 -0.786,-44.43 16.559,-57.308 1.885,-1.4 3.887,-2.674 6,-3.81 1.797,-0.967 3.665,-1.846 5.617,-2.601 25.377,-9.815 53.905,2.8 63.719,28.177 9.815,25.376 -2.8,53.904 -28.176,63.719" />
    </g>
  </g>
</svg>
