<?xml version="1.0" encoding="UTF-8" standalone="no"?>
<!-- Generator: Adobe Illustrator 16.0.2, SVG Export Plug-In . SVG Version: 6.00 Build 0)  -->

<svg
   xmlns:dc="http://purl.org/dc/elements/1.1/"
   xmlns:cc="http://creativecommons.org/ns#"
   xmlns:rdf="http://www.w3.org/1999/02/22-rdf-syntax-ns#"
   xmlns:svg="http://www.w3.org/2000/svg"
   xmlns="http://www.w3.org/2000/svg"
   xmlns:xlink="http://www.w3.org/1999/xlink"
   xmlns:sodipodi="http://sodipodi.sourceforge.net/DTD/sodipodi-0.dtd"
   xmlns:inkscape="http://www.inkscape.org/namespaces/inkscape"
   version="1.1"
   id="Layer_1"
   x="0px"
   y="0px"
   width="202px"
   height="203px"
   viewBox="0 0 202 203"
   enable-background="new 0 0 202 203"
   xml:space="preserve"
   inkscape:version="0.91 r13725"
   sodipodi:docname="restaurant.svg"><metadata
     id="metadata3904"><rdf:RDF><cc:Work
         rdf:about=""><dc:format>image/svg+xml</dc:format><dc:type
           rdf:resource="http://purl.org/dc/dcmitype/StillImage" /></cc:Work></rdf:RDF></metadata><defs
     id="defs3902"><defs
       id="defs3848"><rect
         height="741.824"
         width="1020.253"
         y="-265.824"
         x="-278"
         id="SVGID_1_" /></defs><clipPath
       id="SVGID_2_"><use
         id="use3852"
         overflow="visible"
         xlink:href="#SVGID_1_" /></clipPath></defs><sodipodi:namedview
     pagecolor="#ffffff"
     bordercolor="#666666"
     borderopacity="1"
     objecttolerance="10"
     gridtolerance="10"
     guidetolerance="10"
     inkscape:pageopacity="0"
     inkscape:pageshadow="2"
     inkscape:window-width="1920"
     inkscape:window-height="1018"
     id="namedview3900"
     showgrid="false"
     inkscape:zoom="1.0480296"
     inkscape:cx="296.91499"
     inkscape:cy="176.21873"
     inkscape:window-x="-8"
     inkscape:window-y="-8"
     inkscape:window-maximized="1"
     inkscape:current-layer="Layer_1" /><path
     inkscape:connector-curvature="0"
     style="display:none;fill:#333333"
     id="path3854"
     d="m 742.253,458.988 c 0,9.396 -7.811,17.012 -17.446,17.012 l -985.36,0 c -9.635,0 -17.446,-7.616 -17.446,-17.012 l 0,-707.801 c 0,-9.395 7.811,-17.012 17.446,-17.012 l 985.36,0 c 9.636,0 17.446,7.617 17.446,17.012 l 0,707.801 z"
     clip-path="url(#SVGID_2_)"
     display="none" /><path
     inkscape:connector-curvature="0"
     style="fill:#333333"
     id="path3874"
     d="m 117.636,91.307 c 2.655,2.654 8.183,1.435 12.343,-2.725 l 0.372,-0.372 c 0.107,-0.107 0.204,-0.218 0.31,-0.329 0.033,-0.027 0.072,-0.051 0.104,-0.084 l 28.548,-28.545 c 0.505,-0.505 0.505,-1.321 -10e-4,-1.827 -0.503,-0.504 -1.32,-0.503 -1.824,0.002 L 137.54,77.371 c -0.005,0.004 -0.007,0.009 -0.011,0.014 l -3.055,3.054 -0.01,0.007 -0.039,0.039 c -0.001,-0.002 -0.001,-0.006 0,-0.007 -0.755,0.708 -1.887,0.749 -2.561,0.075 -0.689,-0.689 -0.637,-1.86 0.117,-2.613 l 3.051,-3.051 c 0.013,-0.013 0.029,-0.022 0.043,-0.035 L 155.022,54.91 c 0.504,-0.504 0.502,-1.322 0,-1.825 -0.505,-0.504 -1.322,-0.504 -1.826,0 l -19.809,19.807 c -0.009,0.009 -0.014,0.017 -0.02,0.023 l -2.846,2.846 c -0.705,0.705 -1.84,0.709 -2.537,0.012 -0.694,-0.695 -0.69,-1.828 0.015,-2.534 l 1.22,-1.22 -0.002,-0.002 21.364,-21.361 c 0.503,-0.503 0.503,-1.322 0,-1.825 -0.505,-0.504 -1.323,-0.504 -1.826,-0.001 l -21.42,21.417 c 0,0 -10e-4,0 -0.002,-0.002 l -1.261,1.26 c -0.703,0.703 -1.814,0.735 -2.482,0.066 -1.229,-1.227 0.061,-2.478 0.061,-2.478 l 0.004,-0.005 2.848,-2.847 0.008,-0.007 19.975,-19.973 c 0.506,-0.506 0.506,-1.321 0.002,-1.824 -0.504,-0.505 -1.32,-0.506 -1.826,0 l -28.549,28.545 c -0.043,0.043 -0.076,0.09 -0.11,0.138 -0.129,0.119 -0.259,0.234 -0.384,0.359 l -0.373,0.372 c -4.159,4.16 -5.381,9.686 -2.725,12.342 l 0.006,0.005 -12.205,11.576 -49.679,-47.63 c -1.92,-1.91 -4.555,-2.369 -5.889,-1.03 -0.173,0.178 -0.292,0.351 -0.365,0.526 -4.062,4.827 3.47,19.849 17.109,33.488 11.765,11.764 24.29,18.988 30.6,18.147 l 2.14,2.27 -51.922,49.245 c -0.091,0.08 -0.185,0.159 -0.271,0.246 -0.028,0.027 -0.051,0.058 -0.08,0.086 l -0.044,0.04 c -0.009,0.011 -0.011,0.021 -0.017,0.027 -2.25,2.406 -2.207,6.169 0.14,8.514 2.394,2.395 6.274,2.395 8.668,0 0.151,-0.151 0.296,-0.311 0.43,-0.476 l 48.888,-51.538 43.66,46.322 c 0.227,0.267 2.299,2.37 2.557,2.624 0.015,0.013 0.029,0.023 0.045,0.039 2.369,2.368 6.212,2.369 8.58,0.001 2.371,-2.37 2.371,-6.215 0.002,-8.584 -0.086,-0.085 -0.176,-0.158 -0.262,-0.236 -0.75,-0.737 -2.213,-2.177 -2.416,-2.347 l -46.107,-44.206 11.461,-12.083 0.086,0.088 z m -42.921,41.109 -25.689,25.688 c -0.972,0.972 -2.548,0.972 -3.52,0 -0.971,-0.971 -0.971,-2.547 0,-3.519 l 25.689,-25.689 c 0.972,-0.971 2.547,-0.971 3.52,0 0.971,0.972 0.971,2.548 0,3.52 m 46.437,-7.5 c 0.972,-0.973 2.547,-0.973 3.519,0 l 25.688,25.688 c 0.973,0.972 0.973,2.547 0,3.52 -0.972,0.972 -2.547,0.972 -3.519,0 l -25.688,-25.689 c -0.972,-0.972 -0.972,-2.547 0,-3.519"
     clip-path="url(#SVGID_2_)" /><path
     inkscape:connector-curvature="0"
     style="fill:#333333"
     id="path3880"
     d="m 99.971,4.878 c -53.849,0 -97.5,43.652 -97.5,97.5 0,53.848 43.651,97.5 97.5,97.5 53.848,0 97.5,-43.651 97.5,-97.5 0,-53.849 -43.653,-97.5 -97.5,-97.5 m 0,185.25 c -48.463,0 -87.75,-39.287 -87.75,-87.75 0,-48.463 39.287,-87.75 87.75,-87.75 48.463,0 87.75,39.287 87.75,87.75 0,48.463 -39.287,87.75 -87.75,87.75"
     clip-path="url(#SVGID_2_)" /></svg>