<svg width="210" height="209" xmlns="http://www.w3.org/2000/svg" xmlns:xlink="http://www.w3.org/1999/xlink">
 <g>
  <title>background</title>
  <rect fill="none" id="canvas_background" height="402" width="582" y="-1" x="-1"/>
 </g>
 <g>
  <title>Layer 1</title>
  <g id="svg_1">
   <defs transform="translate(0,-1) ">
    <rect height="741.824" width="1020.253" y="-265.824" x="-525" id="SVGID_1_"/>
   </defs>
   <clipPath transform="translate(0,-1) " id="SVGID_2_">
    <use x="0" y="-1" id="svg_2" xlink:href="#SVGID_1_"/>
   </clipPath>
   <path stroke="#80C41C" id="svg_3" d="m618.253,411.988c0,9.396 -7.811,17.012 -17.446,17.012l-985.36,0c-9.635,0 -17.446,-7.616 -17.446,-17.012l0,-707.801c0,-9.395 7.811,-17.012 17.446,-17.012l985.36,0c9.636,0 17.446,7.617 17.446,17.012l0,707.801z" fill="none" clip-path="url(#SVGID_2_)"/>
   <path id="svg_4" d="m-387.688,-231.86c-53.848,0 -97.5,43.652 -97.5,97.5c0,27.733 11.598,52.741 30.184,70.495c9.558,9.13 20.953,16.351 33.597,21.012c10.508,3.874 21.866,5.994 33.719,5.994c11.854,0 23.212,-2.12 33.72,-5.994c12.644,-4.661 24.038,-11.882 33.596,-21.012c18.587,-17.754 30.185,-42.762 30.185,-70.495c-0.001,-53.848 -43.653,-97.5 -97.501,-97.5m63.96,157.544c-6.637,-16.108 -19.177,-29.162 -34.933,-36.461c-1.151,15.03 -13.703,26.869 -29.027,26.869c-15.326,0 -27.877,-11.839 -29.028,-26.869c-15.756,7.299 -28.296,20.353 -34.933,36.461c-14.743,-15.698 -23.79,-36.809 -23.79,-60.044c0,-48.463 39.287,-87.75 87.75,-87.75c48.464,0 87.751,39.287 87.751,87.75c0,23.235 -9.046,44.345 -23.79,60.044" fill="#000000" clip-path="url(#SVGID_2_)"/>
   <path id="svg_5" d="m-387.688,-200.68c-23.977,0 -43.414,19.437 -43.414,43.414s19.437,43.414 43.414,43.414s43.414,-19.437 43.414,-43.414s-19.437,-43.414 -43.414,-43.414m0,76.035c-8.653,0 -16.102,-5.076 -19.589,-12.401l39.178,0c-3.487,7.325 -10.936,12.401 -19.589,12.401" fill="#000000" clip-path="url(#SVGID_2_)"/>
   <polygon id="svg_7" points="372.21900177001953,59.60399627685547 361.3010025024414,59.60399627685547 361.3010025024414,32.96900177001953 366.69300079345703,32.96900177001953 366.69300079345703,26.1719970703125 346.3990020751953,26.1719970703125 346.3990020751953,32.96900177001953 351.68499755859375,32.96900177001953 351.68499755859375,59.60399627685547 346.3990020751953,59.60399627685547 346.3990020751953,66.4010009765625 379.4179992675781,66.4010009765625 379.4179992675781,47.16899871826172 372.21900177001953,47.16899871826172 " fill="#000000" clip-path="url(#SVGID_2_)"/>
   <path id="svg_9" d="m-101.626,304.388c0,1.685 -1.366,3.05 -3.05,3.05l-10.9,0c-1.684,0 -3.05,-1.365 -3.05,-3.05l0,-10.9c0,-1.684 1.366,-3.05 3.05,-3.05l10.9,0c1.684,0 3.05,1.366 3.05,3.05l0,10.9z" fill="#000000" clip-path="url(#SVGID_2_)"/>
   <path id="svg_10" d="m-104.668,276.602l-83.74,0c-7.133,0 -12.914,5.781 -12.914,12.914l0,83.74c0,7.133 5.781,12.914 12.914,12.914l83.74,0c7.133,0 12.914,-5.781 12.914,-12.914l0,-83.74c0,-7.133 -5.781,-12.914 -12.914,-12.914m-66.238,43.302c5.327,-6.736 13.566,-11.064 22.822,-11.064c9.255,0 17.494,4.328 22.82,11.064c3.92,4.956 6.268,11.214 6.268,18.024c0,16.064 -13.024,29.088 -29.088,29.088c-16.065,0 -29.09,-13.023 -29.09,-29.088c0,-6.81 2.348,-13.068 6.268,-18.024m74.56,0l-20.684,0c-6.221,-10.693 -17.794,-17.887 -31.055,-17.887c-13.262,0 -24.836,7.193 -31.057,17.887l-16.933,0l0,-23.903c0,-6.419 6.33,-11.525 12.749,-11.525l75.934,0c6.42,0 11.045,5.106 11.045,11.525l0,23.903l0.001,0z" fill="#000000" clip-path="url(#SVGID_2_)"/>
   <path id="svg_11" d="m-148.085,361.49c13.013,0 23.562,-10.55 23.562,-23.562c0,-7.234 -3.262,-13.702 -8.394,-18.023c-4.099,-3.454 -9.389,-5.538 -15.168,-5.538c-2.174,0 -4.276,0.301 -6.276,0.852c2.291,0.979 4.226,2.623 5.572,4.687c1.283,1.965 2.033,4.309 2.033,6.831c0,6.915 -5.605,12.521 -12.521,12.521c-5.17,0 -9.605,-3.134 -11.517,-7.606c-0.552,1.999 -0.853,4.103 -0.853,6.277c0.001,13.011 10.549,23.561 23.562,23.561" fill="#000000" clip-path="url(#SVGID_2_)"/>
   <path id="svg_12" d="m388.082,64.995c-2.609,-19.683 -16.643,-34.179 -33.568,-34.179s-30.958,14.496 -33.568,34.179l-16.284,0l0,84.098c0,9.205 8.3,15.629 16.809,15.629l66.764,0c8.509,0 13.53,-6.424 13.53,-15.629l0,-84.098l-13.683,0zm-68.331,70.202c0,1.812 -1.47,3.28 -3.28,3.28c-1.813,0 -3.281,-1.469 -3.281,-3.28l0,-47.895c0,-1.811 1.469,-3.28 3.281,-3.28c1.811,0 3.28,1.469 3.28,3.28l0,47.895zm7.758,-70.202c2.53,-16.402 13.658,-27.694 27.005,-27.694s24.475,11.292 27.005,27.694l-54.01,0z" fill="#000000" clip-path="url(#SVGID_2_)"/>
   <path id="svg_13" d="m-129.364,90.307c2.655,2.654 8.183,1.435 12.343,-2.725l0.372,-0.372c0.107,-0.107 0.204,-0.218 0.31,-0.329c0.033,-0.027 0.072,-0.051 0.104,-0.084l28.548,-28.545c0.505,-0.505 0.505,-1.321 -0.001,-1.827c-0.503,-0.504 -1.32,-0.503 -1.824,0.002l-19.946,19.944c-0.005,0.004 -0.007,0.009 -0.011,0.014l-3.055,3.054l-0.01,0.007l-0.039,0.039c-0.001,-0.002 -0.001,-0.006 0,-0.007c-0.755,0.708 -1.887,0.749 -2.561,0.075c-0.689,-0.689 -0.637,-1.86 0.117,-2.613l3.051,-3.051c0.013,-0.013 0.029,-0.022 0.043,-0.035l19.947,-19.944c0.504,-0.504 0.502,-1.322 0,-1.825c-0.505,-0.504 -1.322,-0.504 -1.826,0l-19.809,19.807c-0.009,0.009 -0.014,0.017 -0.02,0.023l-2.846,2.846c-0.705,0.705 -1.84,0.709 -2.537,0.012c-0.694,-0.695 -0.69,-1.828 0.015,-2.534l1.22,-1.22l-0.002,-0.002l21.364,-21.361c0.503,-0.503 0.503,-1.322 0,-1.825c-0.505,-0.504 -1.323,-0.504 -1.826,-0.001l-21.42,21.417c0,0 -0.001,0 -0.002,-0.002l-1.261,1.26c-0.703,0.703 -1.814,0.735 -2.482,0.066c-1.229,-1.227 0.061,-2.478 0.061,-2.478l0.004,-0.005l2.848,-2.847l0.008,-0.007l19.975,-19.973c0.506,-0.506 0.506,-1.321 0.002,-1.824c-0.504,-0.505 -1.32,-0.506 -1.826,0l-28.549,28.545c-0.043,0.043 -0.076,0.09 -0.11,0.138c-0.129,0.119 -0.259,0.234 -0.384,0.359l-0.373,0.372c-4.159,4.16 -5.381,9.686 -2.725,12.342l0.006,0.005l-12.205,11.576l-49.679,-47.63c-1.92,-1.91 -4.555,-2.369 -5.889,-1.03c-0.173,0.178 -0.292,0.351 -0.365,0.526c-4.062,4.827 3.47,19.849 17.109,33.488c11.765,11.764 24.29,18.988 30.6,18.147l2.14,2.27l-51.922,49.245c-0.091,0.08 -0.185,0.159 -0.271,0.246c-0.028,0.027 -0.051,0.058 -0.08,0.086l-0.044,0.04c-0.009,0.011 -0.011,0.021 -0.017,0.027c-2.25,2.406 -2.207,6.169 0.14,8.514c2.394,2.395 6.274,2.395 8.668,0c0.151,-0.151 0.296,-0.311 0.43,-0.476l48.888,-51.538l43.66,46.322c0.227,0.267 2.299,2.37 2.557,2.624c0.015,0.013 0.029,0.023 0.045,0.039c2.369,2.368 6.212,2.369 8.58,0.001c2.371,-2.37 2.371,-6.215 0.002,-8.584c-0.086,-0.085 -0.176,-0.158 -0.262,-0.236c-0.75,-0.737 -2.213,-2.177 -2.416,-2.347l-46.107,-44.206l11.461,-12.083l0.084,0.088zm-42.921,41.109l-25.689,25.688c-0.972,0.972 -2.548,0.972 -3.52,0c-0.971,-0.971 -0.971,-2.547 0,-3.519l25.689,-25.689c0.972,-0.971 2.547,-0.971 3.52,0c0.971,0.972 0.971,2.548 0,3.52m46.437,-7.5c0.972,-0.973 2.547,-0.973 3.519,0l25.688,25.688c0.973,0.972 0.973,2.547 0,3.52c-0.972,0.972 -2.547,0.972 -3.519,0l-25.688,-25.689c-0.972,-0.972 -0.972,-2.547 0,-3.519" fill="#000000" clip-path="url(#SVGID_2_)"/>
   <path id="svg_14" d="m-146.788,234.386c-53.849,0 -97.5,43.652 -97.5,97.5c0,53.849 43.651,97.5 97.5,97.5s97.5,-43.651 97.5,-97.5c0,-53.848 -43.651,-97.5 -97.5,-97.5m0,185.25c-48.463,0 -87.75,-39.287 -87.75,-87.75s39.287,-87.75 87.75,-87.75s87.75,39.287 87.75,87.75s-39.287,87.75 -87.75,87.75" fill="#000000" clip-path="url(#SVGID_2_)"/>
   <path id="svg_15" d="m107.343,5.277c-53.848,0 -97.5,43.652 -97.5,97.5c0,53.849 43.652,97.5 97.5,97.5c53.849,0 97.5,-43.651 97.5,-97.5c0,-53.847 -43.652,-97.5 -97.5,-97.5m0,185.25c-48.463,0 -87.75,-39.287 -87.75,-87.75s39.287,-87.75 87.75,-87.75s87.75,39.287 87.75,87.75s-39.287,87.75 -87.75,87.75" fill="#000000" clip-path="url(#SVGID_2_)"/>
   <path id="svg_16" d="m-147.029,3.878c-53.849,0 -97.5,43.652 -97.5,97.5s43.651,97.5 97.5,97.5c53.848,0 97.5,-43.651 97.5,-97.5s-43.653,-97.5 -97.5,-97.5m0,185.25c-48.463,0 -87.75,-39.287 -87.75,-87.75c0,-48.463 39.287,-87.75 87.75,-87.75s87.75,39.287 87.75,87.75c0,48.463 -39.287,87.75 -87.75,87.75" fill="#000000" clip-path="url(#SVGID_2_)"/>
   <path id="svg_17" d="m-387.688,234.904c-53.848,0 -97.5,43.652 -97.5,97.5s43.652,97.5 97.5,97.5s97.5,-43.652 97.5,-97.5s-43.652,-97.5 -97.5,-97.5m0,185.25c-48.463,0 -87.75,-39.287 -87.75,-87.75s39.287,-87.75 87.75,-87.75s87.75,39.287 87.75,87.75s-39.287,87.75 -87.75,87.75" fill="#000000" clip-path="url(#SVGID_2_)"/>
   <path id="svg_18" d="m-411.933,156.892c7.449,0 13.487,-5.948 13.487,-13.286s-6.038,-13.286 -13.487,-13.286s-13.487,5.948 -13.487,13.286s6.038,13.286 13.487,13.286" fill="#000000" clip-path="url(#SVGID_2_)"/>
   <path id="svg_19" d="m-387.952,132.977c-3.724,0 -6.197,2.975 -6.197,6.644l0,20.154l-22.055,0c-3.724,0 -6.743,2.893 -6.743,6.562s3.019,6.561 6.743,6.561l27.649,0c3.725,0 6.799,-2.372 6.799,-6.041l0,-27.237c0,-3.669 -2.473,-6.643 -6.196,-6.643" fill="#000000" clip-path="url(#SVGID_2_)"/>
   <path id="svg_20" d="m-387.688,3.878c-53.848,0 -97.5,43.653 -97.5,97.5c0,30.361 13.878,57.478 35.635,75.36c7.124,5.855 15.094,10.72 23.698,14.384c11.722,4.992 24.621,7.756 38.167,7.756c13.545,0 26.444,-2.764 38.167,-7.756c6.069,-2.585 11.821,-5.771 17.185,-9.478c3.845,-2.655 7.488,-5.581 10.905,-8.748c1.276,-1.182 2.519,-2.396 3.73,-3.645c2.048,-2.112 4.001,-4.316 5.854,-6.606c3.268,-4.041 6.224,-8.346 8.823,-12.882c8.166,-14.259 12.836,-30.776 12.836,-48.386c0,-53.846 -43.652,-97.499 -97.5,-97.499m55.617,165.374l-35.105,0c-2.013,0 -3.645,-1.632 -3.645,-3.646c0,-2.013 1.632,-3.645 3.645,-3.645l42.968,0c-2.47,2.587 -5.097,5.02 -7.863,7.291m25.842,-35.199c-1.167,-0.782 -2.542,-1.251 -3.939,-1.251l-67.214,0l0,40.095l40.549,0c-4.784,3.408 -9.927,6.344 -15.356,8.748c-10.855,4.809 -22.864,7.483 -35.499,7.483c-12.636,0 -24.645,-2.675 -35.5,-7.483c-6.58,-2.915 -12.736,-6.612 -18.346,-10.979l0,-87l109.329,-32.078c3.095,-0.906 4.536,-3.533 3.334,-5.867l-0.214,-0.325c-1.203,-2.334 -4.711,-3.491 -7.806,-2.585l-128.492,37.633c-3.095,0.906 -4.636,3.534 -3.433,5.867l0.164,0.326c1.203,2.334 5.026,3.491 8.121,2.584l10.978,-3.116l0,77.5c-15.987,-15.894 -25.885,-37.903 -25.885,-62.228c0,-48.463 39.287,-87.75 87.75,-87.75c48.462,0 87.75,39.287 87.75,87.75c0,11.551 -2.235,22.577 -6.291,32.676" fill="#000000" clip-path="url(#SVGID_2_)"/>
   <path id="svg_21" d="m353.212,5.277c-53.848,0 -97.5,43.652 -97.5,97.5c0,53.849 43.652,97.5 97.5,97.5s97.5,-43.651 97.5,-97.5c0,-53.847 -43.652,-97.5 -97.5,-97.5m0,185.25c-48.463,0 -87.75,-39.287 -87.75,-87.75s39.287,-87.75 87.75,-87.75s87.75,39.287 87.75,87.75s-39.287,87.75 -87.75,87.75" fill="#000000" clip-path="url(#SVGID_2_)"/>
   <path id="svg_22" d="m-325.732,300.22c-0.635,-0.537 -1.458,-0.717 -2.231,-0.493l-37.337,10.931c-1.128,0.331 -1.913,1.455 -1.913,2.74l0,35.22c0,1.242 0.735,2.34 1.812,2.707l37.337,12.739c0.25,0.086 0.507,0.128 0.762,0.128c0.543,0 1.08,-0.188 1.528,-0.553c0.658,-0.534 1.047,-1.381 1.047,-2.282l0,-58.89c0,-0.88 -0.371,-1.711 -1.005,-2.247" fill="#000000" clip-path="url(#SVGID_2_)"/>
   <path id="svg_23" d="m-431.262,298.434c-10.707,0 -19.387,7.253 -19.387,16.2l0,35.542c0,8.946 8.68,16.2 19.387,16.2l55.461,0l0,-67.942l-55.461,0zm39.675,62.99l-41.055,0c-3.116,0 -5.642,-2.526 -5.642,-5.643c0,-3.117 2.526,-5.643 5.642,-5.643l41.055,0c3.116,0 5.643,2.525 5.643,5.643c0,3.116 -2.527,5.643 -5.643,5.643" fill="#000000" clip-path="url(#SVGID_2_)"/>
   <path id="svg_24" d="m107.343,233.886c-53.848,0 -97.5,43.653 -97.5,97.5c0,53.848 43.652,97.5 97.5,97.5s97.5,-43.652 97.5,-97.5c0,-53.847 -43.653,-97.5 -97.5,-97.5m24.034,181.918c-4.797,-2.061 -9.917,-2.709 -15.061,-3.214c-1.931,-0.189 -3.869,-0.281 -5.791,-0.416l0,-12.005c0.336,-0.05 0.6,-0.084 0.861,-0.129c2.777,-0.48 5.629,-0.706 8.321,-1.484c15.695,-4.541 26.398,-14.569 32.146,-29.838c1.9,-5.05 2.708,-10.334 2.709,-15.731c0,-1.612 -0.747,-2.85 -2.161,-3.627c-1.387,-0.761 -2.796,-0.686 -4.122,0.145c-1.42,0.887 -1.854,2.285 -1.966,3.884c-0.17,2.38 -0.254,4.788 -0.696,7.123c-3.985,21.101 -24.884,35.276 -45.946,30.707c-16.274,-3.53 -26.458,-13.816 -30.423,-30.028c-0.688,-2.814 -0.683,-5.799 -1.016,-8.703c-0.211,-1.845 -1.544,-3.263 -3.323,-3.585c-1.745,-0.315 -3.525,0.598 -4.367,2.235c-0.132,0.257 -0.28,0.505 -0.42,0.757l0,4.248c0.155,1.229 0.28,2.463 0.469,3.687c1.296,8.388 4.485,15.968 9.824,22.586c7.631,9.46 17.455,15.22 29.457,17.223c1.419,0.238 2.855,0.372 4.303,0.556l0,11.977c-0.386,0.034 -0.717,0.074 -1.05,0.09c-4.78,0.231 -9.535,0.674 -14.208,1.749c-1.947,0.447 -3.869,0.969 -5.681,1.775c-36.742,-10.476 -63.645,-44.294 -63.645,-84.397c0,-48.463 39.287,-87.75 87.75,-87.75s87.75,39.287 87.75,87.75c0.002,40.126 -26.935,73.964 -63.714,84.415" fill="#000000" clip-path="url(#SVGID_2_)"/>
   <path id="svg_25" d="m134.578,290.996c-1.629,-11.204 -9.975,-20.228 -21.048,-22.776c-1.229,-0.283 -2.48,-0.475 -3.723,-0.708l-4.915,0c-1.006,0.181 -2.012,0.361 -3.018,0.544c-12.264,2.214 -22.06,13.804 -22.09,26.261c-0.044,17.957 -0.033,35.914 0.002,53.871c0.004,1.866 0.179,3.761 0.532,5.593c2.974,15.431 18.487,25.267 33.713,21.426c12.234,-3.086 20.874,-14.11 20.887,-26.724c0.019,-17.805 0.012,-35.611 -0.009,-53.416c-0.001,-1.358 -0.136,-2.725 -0.331,-4.071m-42.972,53.751c0,1.833 -1.486,3.318 -3.318,3.318c-1.833,0 -3.318,-1.485 -3.318,-3.318l0,-45.943c0,-1.833 1.485,-3.318 3.318,-3.318c1.832,0 3.318,1.485 3.318,3.318l0,45.943z" fill="#000000" clip-path="url(#SVGID_2_)"/>
   <rect id="svg_26" height="121" width="93" y="45" x="62.5" fill-opacity="null" stroke-opacity="null" stroke-width="null" stroke="null" fill="#000000"/>
   <line stroke-linecap="null" stroke-linejoin="null" id="svg_29" y2="132.201286" x2="77.5" y1="70" x1="77.5" stroke-width="null" fill="none"/>
   <line stroke-linecap="null" stroke-linejoin="null" id="svg_30" y2="138" x2="137.5" y1="138" x1="136.5" stroke-width="null" fill="none"/>
  </g>
  <path id="svg_32" d="m81.00017,63.50084c0,-1 0.66644,80.33255 0.16644,80.33255c0.5,0 62.57254,0 62,0c0.57196,0 0.33339,-28.05978 -0.16661,-29.00101c0,0.96373 -39.99415,1 -40.16661,0c-0.20185,8.49713 0.16678,-50.3787 -0.33322,-51.33221c0,0.93356 -21.5,1.00067 -21.5,0.00067z" stroke-width="null" fill="#ffffff"/>
 </g>
</svg>