<?xml version="1.0" encoding="utf-8"?>
<!-- Generator: Adobe Illustrator 16.0.2, SVG Export Plug-In . SVG Version: 6.00 Build 0)  -->
<!DOCTYPE svg PUBLIC "-//W3C//DTD SVG 1.1//EN" "http://www.w3.org/Graphics/SVG/1.1/DTD/svg11.dtd">
<svg version="1.1" id="Layer_1" xmlns="http://www.w3.org/2000/svg" xmlns:xlink="http://www.w3.org/1999/xlink" x="0px" y="0px"
	 width="203px" height="209px" viewBox="0 0 203 209" enable-background="new 0 0 203 209" xml:space="preserve">
<g>
	<defs>
		<rect id="SVGID_1_" x="-777" y="-265.824" width="1020.253" height="741.824"/>
	</defs>
	<clipPath id="SVGID_2_">
		<use xlink:href="#SVGID_1_"  overflow="visible"/>
	</clipPath>
	<path display="none" clip-path="url(#SVGID_2_)" fill="#80C41C" d="M243.253,458.988c0,9.396-7.811,17.012-17.446,17.012h-985.36
		c-9.635,0-17.446-7.616-17.446-17.012v-707.801c0-9.395,7.811-17.012,17.446-17.012h985.36c9.636,0,17.446,7.617,17.446,17.012
		V458.988z"/>
	<path clip-path="url(#SVGID_2_)" fill="#000000" d="M-639.688-230.86c-53.848,0-97.5,43.652-97.5,97.5
		c0,27.733,11.598,52.741,30.184,70.495c9.558,9.13,20.953,16.351,33.597,21.012c10.508,3.874,21.866,5.994,33.719,5.994
		c11.854,0,23.212-2.12,33.72-5.994c12.644-4.661,24.038-11.882,33.596-21.012c18.587-17.754,30.185-42.762,30.185-70.495
		C-542.188-187.208-585.84-230.86-639.688-230.86 M-575.728-73.316c-6.637-16.108-19.177-29.162-34.933-36.461
		c-1.151,15.03-13.703,26.869-29.027,26.869c-15.326,0-27.877-11.839-29.028-26.869c-15.756,7.299-28.296,20.353-34.933,36.461
		c-14.743-15.698-23.79-36.809-23.79-60.044c0-48.463,39.287-87.75,87.75-87.75c48.464,0,87.751,39.287,87.751,87.75
		C-551.938-110.125-560.984-89.015-575.728-73.316"/>
	<path clip-path="url(#SVGID_2_)" fill="#000000" d="M-639.688-199.68c-23.977,0-43.414,19.437-43.414,43.414
		s19.437,43.414,43.414,43.414s43.414-19.437,43.414-43.414S-615.711-199.68-639.688-199.68 M-639.688-123.645
		c-8.653,0-16.102-5.076-19.589-12.401h39.178C-623.586-128.721-631.035-123.645-639.688-123.645"/>
	<polygon clip-path="url(#SVGID_2_)" fill="#000000" points="-127.582,125.401 -160.602,125.401 -160.602,118.604 -155.314,118.604 
		-155.314,91.968 -160.602,91.968 -160.602,85.171 -140.307,85.171 -140.307,91.968 -145.699,91.968 -145.699,118.604 
		-134.781,118.604 -134.781,106.168 -127.582,106.168 	"/>
	<polygon clip-path="url(#SVGID_2_)" fill="#000000" points="-134.781,118.604 -145.699,118.604 -145.699,91.969 -140.307,91.969 
		-140.307,85.172 -160.601,85.172 -160.601,91.969 -155.315,91.969 -155.315,118.604 -160.601,118.604 -160.601,125.401 
		-127.582,125.401 -127.582,106.169 -134.781,106.169 	"/>
	<path clip-path="url(#SVGID_2_)" fill="#000000" d="M-103.537,40.792h-82.013c-4.348,0-7.987,3.443-7.987,7.496v111.295
		c0,4.054,3.64,7.181,7.987,7.181h82.013c4.349,0,7.76-3.127,7.76-7.181V48.288C-95.777,44.235-99.188,40.792-103.537,40.792
		 M-105.064,148.98c0,3.283-2.764,5.815-6.285,5.815h-66.43c-3.522,0-6.471-2.532-6.471-5.815V58.831
		c0-3.283,2.948-6.072,6.471-6.072h66.43c3.521,0,6.285,2.789,6.285,6.072V148.98z"/>
	<path clip-path="url(#SVGID_2_)" fill="#000000" d="M-353.626,305.388c0,1.685-1.366,3.05-3.05,3.05h-10.9
		c-1.684,0-3.05-1.365-3.05-3.05v-10.9c0-1.684,1.366-3.05,3.05-3.05h10.9c1.684,0,3.05,1.366,3.05,3.05V305.388z"/>
	<path clip-path="url(#SVGID_2_)" fill="#000000" d="M-356.668,277.602h-83.74c-7.133,0-12.914,5.781-12.914,12.914v83.74
		c0,7.133,5.781,12.914,12.914,12.914h83.74c7.133,0,12.914-5.781,12.914-12.914v-83.74
		C-343.754,283.383-349.535,277.602-356.668,277.602 M-422.906,320.904c5.327-6.736,13.566-11.064,22.822-11.064
		c9.255,0,17.494,4.328,22.82,11.064c3.92,4.956,6.268,11.214,6.268,18.024c0,16.064-13.024,29.088-29.088,29.088
		c-16.065,0-29.09-13.023-29.09-29.088C-429.174,332.118-426.826,325.86-422.906,320.904 M-348.346,320.904h-20.684
		c-6.221-10.693-17.794-17.887-31.055-17.887c-13.262,0-24.836,7.193-31.057,17.887h-16.933v-23.903
		c0-6.419,6.33-11.525,12.749-11.525h75.934c6.42,0,11.045,5.106,11.045,11.525V320.904z"/>
	<path clip-path="url(#SVGID_2_)" fill="#000000" d="M-400.085,362.49c13.013,0,23.562-10.55,23.562-23.562
		c0-7.234-3.262-13.702-8.394-18.023c-4.099-3.454-9.389-5.538-15.168-5.538c-2.174,0-4.276,0.301-6.276,0.852
		c2.291,0.979,4.226,2.623,5.572,4.687c1.283,1.965,2.033,4.309,2.033,6.831c0,6.915-5.605,12.521-12.521,12.521
		c-5.17,0-9.605-3.134-11.517-7.606c-0.552,1.999-0.853,4.103-0.853,6.277C-423.646,351.94-413.098,362.49-400.085,362.49"/>
	<path clip-path="url(#SVGID_2_)" fill="#000000" d="M136.082,65.995c-2.609-19.683-16.643-34.179-33.568-34.179
		S71.556,46.312,68.945,65.995H52.661v84.098c0,9.205,8.3,15.629,16.809,15.629h66.764c8.509,0,13.53-6.424,13.53-15.629V65.995
		H136.082z M67.751,136.197c0,1.812-1.47,3.28-3.28,3.28c-1.813,0-3.281-1.469-3.281-3.28V88.302c0-1.811,1.469-3.28,3.281-3.28
		c1.811,0,3.28,1.469,3.28,3.28V136.197z M75.509,65.995c2.53-16.402,13.658-27.694,27.005-27.694s24.475,11.292,27.005,27.694
		H75.509z"/>
	<path clip-path="url(#SVGID_2_)" fill="#000000" d="M-381.364,91.307c2.655,2.654,8.183,1.435,12.343-2.725l0.372-0.372
		c0.107-0.107,0.204-0.218,0.31-0.329c0.033-0.027,0.072-0.051,0.104-0.084l28.548-28.545c0.505-0.505,0.505-1.321-0.001-1.827
		c-0.503-0.504-1.32-0.503-1.824,0.002l-19.946,19.944c-0.005,0.004-0.007,0.009-0.011,0.014l-3.055,3.054l-0.01,0.007l-0.039,0.039
		c-0.001-0.002-0.001-0.006,0-0.007c-0.755,0.708-1.887,0.749-2.561,0.075c-0.689-0.689-0.637-1.86,0.117-2.613l3.051-3.051
		c0.013-0.013,0.029-0.022,0.043-0.035l19.947-19.944c0.504-0.504,0.502-1.322,0-1.825c-0.505-0.504-1.322-0.504-1.826,0
		l-19.809,19.807c-0.009,0.009-0.014,0.017-0.02,0.023l-2.846,2.846c-0.705,0.705-1.84,0.709-2.537,0.012
		c-0.694-0.695-0.69-1.828,0.015-2.534l1.22-1.22l-0.002-0.002l21.364-21.361c0.503-0.503,0.503-1.322,0-1.825
		c-0.505-0.504-1.323-0.504-1.826-0.001l-21.42,21.417c0,0-0.001,0-0.002-0.002l-1.261,1.26c-0.703,0.703-1.814,0.735-2.482,0.066
		c-1.229-1.227,0.061-2.478,0.061-2.478l0.004-0.005l2.848-2.847l0.008-0.007l19.975-19.973c0.506-0.506,0.506-1.321,0.002-1.824
		c-0.504-0.505-1.32-0.506-1.826,0l-28.549,28.545c-0.043,0.043-0.076,0.09-0.11,0.138c-0.129,0.119-0.259,0.234-0.384,0.359
		l-0.373,0.372c-4.159,4.16-5.381,9.686-2.725,12.342l0.006,0.005l-12.205,11.576l-49.679-47.63c-1.92-1.91-4.555-2.369-5.889-1.03
		c-0.173,0.178-0.292,0.351-0.365,0.526c-4.062,4.827,3.47,19.849,17.109,33.488c11.765,11.764,24.29,18.988,30.6,18.147l2.14,2.27
		l-51.922,49.245c-0.091,0.08-0.185,0.159-0.271,0.246c-0.028,0.027-0.051,0.058-0.08,0.086l-0.044,0.04
		c-0.009,0.011-0.011,0.021-0.017,0.027c-2.25,2.406-2.207,6.169,0.14,8.514c2.394,2.395,6.274,2.395,8.668,0
		c0.151-0.151,0.296-0.311,0.43-0.476l48.888-51.538l43.66,46.322c0.227,0.267,2.299,2.37,2.557,2.624
		c0.015,0.013,0.029,0.023,0.045,0.039c2.369,2.368,6.212,2.369,8.58,0.001c2.371-2.37,2.371-6.215,0.002-8.584
		c-0.086-0.085-0.176-0.158-0.262-0.236c-0.75-0.737-2.213-2.177-2.416-2.347l-46.107-44.206l11.461-12.083L-381.364,91.307z
		 M-424.285,132.416l-25.689,25.688c-0.972,0.972-2.548,0.972-3.52,0c-0.971-0.971-0.971-2.547,0-3.519l25.689-25.689
		c0.972-0.971,2.547-0.971,3.52,0C-423.314,129.868-423.314,131.444-424.285,132.416 M-377.848,124.916
		c0.972-0.973,2.547-0.973,3.519,0l25.688,25.688c0.973,0.972,0.973,2.547,0,3.52c-0.972,0.972-2.547,0.972-3.519,0l-25.688-25.689
		C-378.82,127.463-378.82,125.888-377.848,124.916"/>
	<path clip-path="url(#SVGID_2_)" fill="#000000" d="M-398.788,235.386c-53.849,0-97.5,43.652-97.5,97.5
		c0,53.849,43.651,97.5,97.5,97.5s97.5-43.651,97.5-97.5C-301.288,279.038-344.939,235.386-398.788,235.386 M-398.788,420.636
		c-48.463,0-87.75-39.287-87.75-87.75s39.287-87.75,87.75-87.75s87.75,39.287,87.75,87.75S-350.325,420.636-398.788,420.636"/>
	<path clip-path="url(#SVGID_2_)" fill="#000000" d="M-144.657,6.277c-53.848,0-97.5,43.652-97.5,97.5
		c0,53.849,43.652,97.5,97.5,97.5c53.849,0,97.5-43.651,97.5-97.5C-47.157,49.93-90.809,6.277-144.657,6.277 M-144.657,191.527
		c-48.463,0-87.75-39.287-87.75-87.75s39.287-87.75,87.75-87.75s87.75,39.287,87.75,87.75S-96.194,191.527-144.657,191.527"/>
	<path clip-path="url(#SVGID_2_)" fill="#000000" d="M-399.029,4.878c-53.849,0-97.5,43.652-97.5,97.5s43.651,97.5,97.5,97.5
		c53.848,0,97.5-43.651,97.5-97.5S-345.182,4.878-399.029,4.878 M-399.029,190.128c-48.463,0-87.75-39.287-87.75-87.75
		c0-48.463,39.287-87.75,87.75-87.75s87.75,39.287,87.75,87.75C-311.279,150.841-350.566,190.128-399.029,190.128"/>
	<path clip-path="url(#SVGID_2_)" fill="#000000" d="M-639.688,235.904c-53.848,0-97.5,43.652-97.5,97.5s43.652,97.5,97.5,97.5
		s97.5-43.652,97.5-97.5S-585.84,235.904-639.688,235.904 M-639.688,421.154c-48.463,0-87.75-39.287-87.75-87.75
		s39.287-87.75,87.75-87.75s87.75,39.287,87.75,87.75S-591.225,421.154-639.688,421.154"/>
	<path clip-path="url(#SVGID_2_)" fill="#000000" d="M-663.933,157.892c7.449,0,13.487-5.948,13.487-13.286
		s-6.038-13.286-13.487-13.286s-13.487,5.948-13.487,13.286S-671.382,157.892-663.933,157.892"/>
	<path clip-path="url(#SVGID_2_)" fill="#000000" d="M-639.952,133.977c-3.724,0-6.197,2.975-6.197,6.644v20.154h-22.055
		c-3.724,0-6.743,2.893-6.743,6.562s3.019,6.561,6.743,6.561h27.649c3.725,0,6.799-2.372,6.799-6.041V140.62
		C-633.756,136.951-636.229,133.977-639.952,133.977"/>
	<path clip-path="url(#SVGID_2_)" fill="#000000" d="M-639.688,4.878c-53.848,0-97.5,43.653-97.5,97.5
		c0,30.361,13.878,57.478,35.635,75.36c7.124,5.855,15.094,10.72,23.698,14.384c11.722,4.992,24.621,7.756,38.167,7.756
		c13.545,0,26.444-2.764,38.167-7.756c6.069-2.585,11.821-5.771,17.185-9.478c3.845-2.655,7.488-5.581,10.905-8.748
		c1.276-1.182,2.519-2.396,3.73-3.645c2.048-2.112,4.001-4.316,5.854-6.606c3.268-4.041,6.224-8.346,8.823-12.882
		c8.166-14.259,12.836-30.776,12.836-48.386C-542.188,48.531-585.84,4.878-639.688,4.878 M-584.071,170.252h-35.105
		c-2.013,0-3.645-1.632-3.645-3.646c0-2.013,1.632-3.645,3.645-3.645h42.968C-578.678,165.548-581.305,167.981-584.071,170.252
		 M-558.229,135.053c-1.167-0.782-2.542-1.251-3.939-1.251h-67.214v40.095h40.549c-4.784,3.408-9.927,6.344-15.356,8.748
		c-10.855,4.809-22.864,7.483-35.499,7.483c-12.636,0-24.645-2.675-35.5-7.483c-6.58-2.915-12.736-6.612-18.346-10.979V84.666
		l109.329-32.078c3.095-0.906,4.536-3.533,3.334-5.867l-0.214-0.325c-1.203-2.334-4.711-3.491-7.806-2.585l-128.492,37.633
		c-3.095,0.906-4.636,3.534-3.433,5.867l0.164,0.326c1.203,2.334,5.026,3.491,8.121,2.584l10.978-3.116v77.5
		c-15.987-15.894-25.885-37.903-25.885-62.228c0-48.463,39.287-87.75,87.75-87.75c48.462,0,87.75,39.287,87.75,87.75
		C-551.938,113.928-554.173,124.954-558.229,135.053"/>
	<path clip-path="url(#SVGID_2_)" fill="#000000" d="M101.212,6.277c-53.848,0-97.5,43.652-97.5,97.5
		c0,53.849,43.652,97.5,97.5,97.5s97.5-43.651,97.5-97.5C198.712,49.93,155.06,6.277,101.212,6.277 M101.212,191.527
		c-48.463,0-87.75-39.287-87.75-87.75s39.287-87.75,87.75-87.75s87.75,39.287,87.75,87.75S149.675,191.527,101.212,191.527"/>
	<path clip-path="url(#SVGID_2_)" fill="#000000" d="M-577.732,301.22c-0.635-0.537-1.458-0.717-2.231-0.493l-37.337,10.931
		c-1.128,0.331-1.913,1.455-1.913,2.74v35.22c0,1.242,0.735,2.34,1.812,2.707l37.337,12.739c0.25,0.086,0.507,0.128,0.762,0.128
		c0.543,0,1.08-0.188,1.528-0.553c0.658-0.534,1.047-1.381,1.047-2.282v-58.89C-576.727,302.587-577.098,301.756-577.732,301.22"/>
	<path clip-path="url(#SVGID_2_)" fill="#000000" d="M-683.262,299.434c-10.707,0-19.387,7.253-19.387,16.2v35.542
		c0,8.946,8.68,16.2,19.387,16.2h55.461v-67.942H-683.262z M-643.587,362.424h-41.055c-3.116,0-5.642-2.526-5.642-5.643
		c0-3.117,2.526-5.643,5.642-5.643h41.055c3.116,0,5.643,2.525,5.643,5.643C-637.944,359.897-640.471,362.424-643.587,362.424"/>
	<path clip-path="url(#SVGID_2_)" fill="#000000" d="M-144.657,234.886c-53.848,0-97.5,43.653-97.5,97.5
		c0,53.848,43.652,97.5,97.5,97.5s97.5-43.652,97.5-97.5C-47.157,278.539-90.81,234.886-144.657,234.886 M-120.623,416.804
		c-4.797-2.061-9.917-2.709-15.061-3.214c-1.931-0.189-3.869-0.281-5.791-0.416v-12.005c0.336-0.05,0.6-0.084,0.861-0.129
		c2.777-0.48,5.629-0.706,8.321-1.484c15.695-4.541,26.398-14.569,32.146-29.838c1.9-5.05,2.708-10.334,2.709-15.731
		c0-1.612-0.747-2.85-2.161-3.627c-1.387-0.761-2.796-0.686-4.122,0.145c-1.42,0.887-1.854,2.285-1.966,3.884
		c-0.17,2.38-0.254,4.788-0.696,7.123c-3.985,21.101-24.884,35.276-45.946,30.707c-16.274-3.53-26.458-13.816-30.423-30.028
		c-0.688-2.814-0.683-5.799-1.016-8.703c-0.211-1.845-1.544-3.263-3.323-3.585c-1.745-0.315-3.525,0.598-4.367,2.235
		c-0.132,0.257-0.28,0.505-0.42,0.757v4.248c0.155,1.229,0.28,2.463,0.469,3.687c1.296,8.388,4.485,15.968,9.824,22.586
		c7.631,9.46,17.455,15.22,29.457,17.223c1.419,0.238,2.855,0.372,4.303,0.556v11.977c-0.386,0.034-0.717,0.074-1.05,0.09
		c-4.78,0.231-9.535,0.674-14.208,1.749c-1.947,0.447-3.869,0.969-5.681,1.775c-36.742-10.476-63.645-44.294-63.645-84.397
		c0-48.463,39.287-87.75,87.75-87.75s87.75,39.287,87.75,87.75C-56.907,372.515-83.844,406.353-120.623,416.804"/>
	<path clip-path="url(#SVGID_2_)" fill="#000000" d="M-117.422,291.996c-1.629-11.204-9.975-20.228-21.048-22.776
		c-1.229-0.283-2.48-0.475-3.723-0.708h-4.915c-1.006,0.181-2.012,0.361-3.018,0.544c-12.264,2.214-22.06,13.804-22.09,26.261
		c-0.044,17.957-0.033,35.914,0.002,53.871c0.004,1.866,0.179,3.761,0.532,5.593c2.974,15.431,18.487,25.267,33.713,21.426
		c12.234-3.086,20.874-14.11,20.887-26.724c0.019-17.805,0.012-35.611-0.009-53.416
		C-117.092,294.709-117.227,293.342-117.422,291.996 M-160.394,345.747c0,1.833-1.486,3.318-3.318,3.318
		c-1.833,0-3.318-1.485-3.318-3.318v-45.943c0-1.833,1.485-3.318,3.318-3.318c1.832,0,3.318,1.485,3.318,3.318V345.747z"/>
</g>
</svg>
